<svg xmlns="http://www.w3.org/2000/svg" width="760" height="300" viewBox="0 0 760 300" role="img" aria-labelledby="title desc">
  <title id="title">Challenging Stage 5 (19-20) object-track and shot-opportunity sketch</title>
  <desc id="desc">Readable object tracks from runtime challenge sprite silhouettes plus sampled player shot opportunity lanes.</desc>
  <style>
    .bg{fill:#06111d}.panel{fill:#0d1b2a;stroke:#2e5d78;stroke-width:2}.grid{stroke:#1b3344;stroke-width:1}.text{fill:#f2fbff;font:700 20px ui-monospace,Menlo,monospace}.small{fill:#b8d7ec;font:700 13px ui-monospace,Menlo,monospace}.tiny{fill:#9ec9e6;font:11px ui-monospace,Menlo,monospace}.pill{fill:#102a3b;stroke:#2e5d78}
  </style>
  <rect class="bg" x="0" y="0" width="760" height="300"/>
  <text class="text" x="24" y="34">Challenging Stage 5 (19-20)</text>
  <rect class="pill" x="482" y="14" width="254" height="32" rx="16"/>
  <text class="small" x="498" y="35">5.5/10 shot opportunity</text>
  <rect class="panel" x="36" y="56" width="456" height="210" rx="10"/>
  <rect class="panel" x="548" y="56" width="176" height="210" rx="10"/>
  <text class="small" x="56" y="82">Object-tracked silhouette paths</text>
  <text class="small" x="568" y="82">Shot-lane hits</text>
  <line class="grid" x1="50" y1="92" x2="50" y2="244"/><line class="grid" x1="136" y1="92" x2="136" y2="244"/><line class="grid" x1="222" y1="92" x2="222" y2="244"/><line class="grid" x1="308" y1="92" x2="308" y2="244"/><line class="grid" x1="394" y1="92" x2="394" y2="244"/>
  <line class="grid" x1="50" y1="100" x2="480" y2="100"/><line class="grid" x1="50" y1="142" x2="480" y2="142"/><line class="grid" x1="50" y1="184" x2="480" y2="184"/><line class="grid" x1="50" y1="226" x2="480" y2="226"/>
  <polyline points="59.8,94.3 51.5,90 48.5,90.7 68.9,96.6 117,102.6 181,103.9 238.9,99.8 263.9,96.3 229.2,97.7 189.4,99.1 157.2,100.7 143.1,102.9 152.4,105.7 183.9,108.9 230,112.7 278.5,116.3 316.6,119.5 332.7,122.2 320.9,124.2 282,125.9 223.4,127.7 157.2,129.7 270.1,106.5 293.3,122.2 324.9,138 366.7,153.7 404.3,169.5 430.2,185.3 454.8,201 490.4,216.8" fill="none" stroke="#78f7ff" stroke-width="4" stroke-linecap="round" stroke-linejoin="round"/><circle cx="59.8" cy="94.3" r="5" fill="#78f7ff"/><text class="tiny" x="500" y="96" fill="#78f7ff">galboss pink-green-cascade 30f</text>
  <polyline points="70.9,103.7 60.1,99.8 38,95 45.2,99.6 90.8,106.1 150,108.6 248.4,100.4 257.6,103.3 240.9,105.8 205.1,107.9 161.8,110 123.9,112.4 102.7,115.4 104.1,119.2 128,123.6 167.6,128.1 211.7,132.5 246.9,136.4 262.2,139.7 250.9,142.5 213.2,144.9 214.3,105.4 243.5,121.2 266.8,136.9 298.5,152.7 340.3,168.4 377.9,184.2 403.7,199.9 428.2,215.7 464,231.4" fill="none" stroke="#ffd36a" stroke-width="4" stroke-linecap="round" stroke-linejoin="round"/><circle cx="70.9" cy="103.7" r="5" fill="#ffd36a"/><text class="tiny" x="500" y="120" fill="#ffd36a">galboss pink-green-cascade 30f</text>
  <polyline points="478.8,113.7 450.5,117 422.4,120.4 394.2,123.8 488.8,105.1 482,111.8 475.4,118.4 468.6,125 462,131.5 455.3,137.8 448.5,144.1 441.9,150.2 435.2,156.1 428.4,162 421.8,167.6 415,173.2 408.3,178.7 401.7,184.1 394.9,189.5 295.9,123.8 279.4,142.9 263.2,162 246.7,181 230.4,200.1 214,219.1 197.7,238.2" fill="none" stroke="#ff7bd5" stroke-width="4" stroke-linecap="round" stroke-linejoin="round"/><circle cx="478.8" cy="113.7" r="5" fill="#ff7bd5"/><text class="tiny" x="500" y="144" fill="#ff7bd5">dragonfly green-ladder-split 26f</text>
  <polyline points="438.8,89.1 370,90.1 344.6,96.2 357,102.1 388.6,102.9 415,98.7 418.3,94.1 305.7,94.4 278.2,96 270.8,98.2 288.2,100.9 327.8,104.1 381.3,107.5 435.9,110.9 478.2,114 497,116.7 487.1,118.8 449.1,120.6 391.4,122.3 326.3,124.3 268.1,126.8 228.8,129.9 409.7,106.5 438.8,122.2 479.5,138" fill="none" stroke="#8cffb4" stroke-width="4" stroke-linecap="round" stroke-linejoin="round"/><circle cx="438.8" cy="89.1" r="5" fill="#8cffb4"/><text class="tiny" x="500" y="168" fill="#8cffb4">galboss pink-green-cascade 25f</text>
  <polyline points="92.4,110.3 115.1,113.7 137.7,117 160.4,120.4 183.1,123.8 292.2,105.1 285.4,111.8 278.8,118.4 272.1,125 265.5,131.5 258.7,137.8 251.9,144.1 245.3,150.2 238.6,156.1 231.8,162 225.2,167.6 218.5,173.2 211.7,178.7 205.1,184.1 198.3,189.5 99.1,123.8 82.9,142.9 66.6,162 50.2,181 33.9,200.1" fill="none" stroke="#b08cff" stroke-width="4" stroke-linecap="round" stroke-linejoin="round"/><circle cx="92.4" cy="110.3" r="5" fill="#b08cff"/><text class="tiny" x="500" y="192" fill="#b08cff">dragonfly green-ladder-split 25f</text>
  <rect x="586" y="163.4" width="12" height="58.6" rx="3" fill="#ffd36a"/><text class="tiny" x="582" y="242">32</text>
  <rect x="606" y="164.5" width="12" height="57.5" rx="3" fill="#ffd36a"/><text class="tiny" x="602" y="242">68</text>
  <rect x="626" y="138" width="12" height="84" rx="3" fill="#ffd36a"/><text class="tiny" x="622" y="242">104</text>
  <rect x="646" y="149.1" width="12" height="72.9" rx="3" fill="#ffd36a"/><text class="tiny" x="642" y="242">140</text>
  <rect x="666" y="165.6" width="12" height="56.4" rx="3" fill="#ffd36a"/><text class="tiny" x="662" y="242">176</text>
  <rect x="686" y="167.8" width="12" height="54.2" rx="3" fill="#ffd36a"/><text class="tiny" x="682" y="242">212</text>
  <rect x="706" y="166.7" width="12" height="55.3" rx="3" fill="#ffd36a"/><text class="tiny" x="702" y="242">248</text>
  <text class="tiny" x="56" y="260">Silhouette: 4.7/10; 37 tracks, 610 crops.</text>
  <text class="tiny" x="568" y="260">Lane diversity 1; center bias 0.166.</text>
</svg>
