<svg xmlns="http://www.w3.org/2000/svg" width="760" height="300" viewBox="0 0 760 300" role="img" aria-labelledby="title desc">
  <title id="title">Challenging Stage 2 (7-8) object-track and shot-opportunity sketch</title>
  <desc id="desc">Readable object tracks from runtime challenge sprite silhouettes plus sampled player shot opportunity lanes.</desc>
  <style>
    .bg{fill:#06111d}.panel{fill:#0d1b2a;stroke:#2e5d78;stroke-width:2}.grid{stroke:#1b3344;stroke-width:1}.text{fill:#f2fbff;font:700 20px ui-monospace,Menlo,monospace}.small{fill:#b8d7ec;font:700 13px ui-monospace,Menlo,monospace}.tiny{fill:#9ec9e6;font:11px ui-monospace,Menlo,monospace}.pill{fill:#102a3b;stroke:#2e5d78}
  </style>
  <rect class="bg" x="0" y="0" width="760" height="300"/>
  <text class="text" x="24" y="34">Challenging Stage 2 (7-8)</text>
  <rect class="pill" x="482" y="14" width="254" height="32" rx="16"/>
  <text class="small" x="498" y="35">5.3/10 shot opportunity</text>
  <rect class="panel" x="36" y="56" width="456" height="210" rx="10"/>
  <rect class="panel" x="548" y="56" width="176" height="210" rx="10"/>
  <text class="small" x="56" y="82">Object-tracked silhouette paths</text>
  <text class="small" x="568" y="82">Shot-lane hits</text>
  <line class="grid" x1="50" y1="92" x2="50" y2="244"/><line class="grid" x1="136" y1="92" x2="136" y2="244"/><line class="grid" x1="222" y1="92" x2="222" y2="244"/><line class="grid" x1="308" y1="92" x2="308" y2="244"/><line class="grid" x1="394" y1="92" x2="394" y2="244"/>
  <line class="grid" x1="50" y1="100" x2="480" y2="100"/><line class="grid" x1="50" y1="142" x2="480" y2="142"/><line class="grid" x1="50" y1="184" x2="480" y2="184"/><line class="grid" x1="50" y1="226" x2="480" y2="226"/>
  <polyline points="-54.4,114.3 -54.4,114.3 -54.4,114.3 -54.4,114.3 -54.4,114.3 -54.4,114.3 -54.4,114.3 -54.4,114.3 -54.4,114.3 -54.4,114.3 194.4,121.1 224.3,125.2 100.4,167.5 38,226.5" fill="none" stroke="#78f7ff" stroke-width="4" stroke-linecap="round" stroke-linejoin="round"/><circle cx="-54.4" cy="114.3" r="5" fill="#78f7ff"/><text class="tiny" x="500" y="96" fill="#78f7ff">stingray boss-led-loop 14f</text>
  <polyline points="-54.4,118.5 -54.4,118.5 -54.4,118.5 -54.4,118.5 -54.4,118.5 -54.4,118.5 -54.4,118.5 -54.4,118.5 -54.4,118.5 -54.4,118.5 93,125.5 112.7,129.2 52.9,168 -10,227" fill="none" stroke="#ffd36a" stroke-width="4" stroke-linecap="round" stroke-linejoin="round"/><circle cx="-54.4" cy="118.5" r="5" fill="#ffd36a"/><text class="tiny" x="500" y="120" fill="#ffd36a">stingray boss-led-loop 14f</text>
  <polyline points="-54.4,114.3 -54.4,114.3 -54.4,114.3 -54.4,114.3 -54.4,114.3 -54.4,114.3 -54.4,114.3 -54.4,114.3 -54.4,114.3 188.7,121.7 171.5,124.3 232.6,122.5 135.4,169.1 70.9,228.1" fill="none" stroke="#ff7bd5" stroke-width="4" stroke-linecap="round" stroke-linejoin="round"/><circle cx="-54.4" cy="114.3" r="5" fill="#ff7bd5"/><text class="tiny" x="500" y="144" fill="#ff7bd5">stingray boss-led-loop 14f</text>
  <polyline points="-54.4,118.5 -54.4,118.5 -54.4,118.5 -54.4,118.5 -54.4,118.5 -54.4,118.5 -54.4,118.5 -54.4,118.5 -54.4,118.5 -54.4,118.5 104.4,125.8 144.4,129.8 75.5,174.8 11.8,241.2" fill="none" stroke="#8cffb4" stroke-width="4" stroke-linecap="round" stroke-linejoin="round"/><circle cx="-54.4" cy="118.5" r="5" fill="#8cffb4"/><text class="tiny" x="500" y="168" fill="#8cffb4">stingray boss-led-loop 14f</text>
  <polyline points="-54.4,112.9 -54.4,112.9 -54.4,112.9 -54.4,112.9 -54.4,112.9 -54.4,112.9 -54.4,112.9 -54.4,112.9 60.3,118 31.3,120.1 115.3,122.9 64,128.4 176.7,192" fill="none" stroke="#b08cff" stroke-width="4" stroke-linecap="round" stroke-linejoin="round"/><circle cx="-54.4" cy="112.9" r="5" fill="#b08cff"/><text class="tiny" x="500" y="192" fill="#b08cff">stingray hook-arc 13f</text>
  <rect x="586" y="164.1" width="12" height="57.9" rx="3" fill="#ffd36a"/><text class="tiny" x="582" y="242">32</text>
  <rect x="606" y="152.5" width="12" height="69.5" rx="3" fill="#ffd36a"/><text class="tiny" x="602" y="242">68</text>
  <rect x="626" y="158.3" width="12" height="63.7" rx="3" fill="#ffd36a"/><text class="tiny" x="622" y="242">104</text>
  <rect x="646" y="164.1" width="12" height="57.9" rx="3" fill="#ffd36a"/><text class="tiny" x="642" y="242">140</text>
  <rect x="666" y="158.3" width="12" height="63.7" rx="3" fill="#ffd36a"/><text class="tiny" x="662" y="242">176</text>
  <rect x="686" y="164.1" width="12" height="57.9" rx="3" fill="#ffd36a"/><text class="tiny" x="682" y="242">212</text>
  <rect x="706" y="138" width="12" height="84" rx="3" fill="#ffd36a"/><text class="tiny" x="702" y="242">248</text>
  <text class="tiny" x="56" y="260">Silhouette: 4.8/10; 39 tracks, 397 crops.</text>
  <text class="tiny" x="568" y="260">Lane diversity 1; center bias 0.127.</text>
</svg>
