<svg xmlns="http://www.w3.org/2000/svg" width="980" height="430" viewBox="0 0 980 430">
<rect width="100%" height="100%" fill="#fff"/>
<text x="48" y="36" font-family="Arial, sans-serif" font-size="20" font-weight="700">GPU-Equivalent Use By Project Purpose</text>
<text x="48" y="62" font-family="Arial, sans-serif" font-size="12" fill="#555">Declared Codex/OpenAI/model/API/GPU use. Manual ledger entries fill gaps where app usage is not automatic.</text>
<path d="M 245 225 L 218.05768235150728 85.57937197197927 A 142 142 0 1 0 245 83 Z" fill="#2b6cb0" stroke="#fff" stroke-width="2"><title>Dashboard, docs, and release planning: 25 min (97%)</title></path>
<path d="M 245 225 L 242.98725487882123 83.01426530430189 A 142 142 0 0 0 218.05768235150728 85.57937197197927 Z" fill="#38a169" stroke="#fff" stroke-width="2"><title>Audio conformance and cue feedback: 0.73 min (2.8%)</title></path>
<path d="M 245 225 L 244.99999999999997 83 A 142 142 0 0 0 242.98725487882123 83.01426530430189 Z" fill="#d69e2e" stroke="#fff" stroke-width="2"><title>Visual and video reference analysis: 0.06 min (0.2%)</title></path>
<circle cx="245" cy="225" r="58" fill="#fff" stroke="#ddd"/>
<text x="245" y="219" text-anchor="middle" font-family="Arial, sans-serif" font-size="18" font-weight="700">25.8 min</text>
<text x="245" y="241" text-anchor="middle" font-family="Arial, sans-serif" font-size="12" fill="#555">tracked GPU-equivalent</text>
<rect x="455" y="93" width="16" height="16" rx="2" fill="#2b6cb0"/>
<text x="479" y="106" font-family="Arial, sans-serif" font-size="14" font-weight="700">Dashboard, docs, and release planning</text>
<text x="479" y="126" font-family="Arial, sans-serif" font-size="12" fill="#555">25 min - 97%</text>
<text x="479" y="144" font-family="Arial, sans-serif" font-size="11" fill="#666">Moves decision quality: what to invest in next, how to explain releases, and how to keep</text>
<rect x="455" y="161" width="16" height="16" rx="2" fill="#38a169"/>
<text x="479" y="174" font-family="Arial, sans-serif" font-size="14" font-weight="700">Audio conformance and cue feedback</text>
<text x="479" y="194" font-family="Arial, sans-serif" font-size="12" fill="#555">0.73 min - 2.8%</text>
<text x="479" y="212" font-family="Arial, sans-serif" font-size="11" fill="#666">Moves the moment-to-moment arcade feel: impact clarity, ambience identity, reward/loss f</text>
<rect x="455" y="229" width="16" height="16" rx="2" fill="#d69e2e"/>
<text x="479" y="242" font-family="Arial, sans-serif" font-size="14" font-weight="700">Visual and video reference analysis</text>
<text x="479" y="262" font-family="Arial, sans-serif" font-size="12" fill="#555">0.06 min - 0.2%</text>
<text x="479" y="280" font-family="Arial, sans-serif" font-size="11" fill="#666">Moves graphical identity, reference inspection, contact-sheet review, sprite/surface com</text>
</svg>
