<svg xmlns="http://www.w3.org/2000/svg" width="980" height="360" viewBox="0 0 980 360">
<rect width="100%" height="100%" fill="#fff"/>
<text x="64" y="28" font-family="Arial, sans-serif" font-size="20" font-weight="700">Conformance Score Trends</text>
<line x1="64" y1="48" x2="64" y2="302" stroke="#333"/>
<line x1="64" y1="302" x2="952" y2="302" stroke="#333"/>
<line x1="64" y1="302" x2="952" y2="302" stroke="#e6e6e6"/>
<text x="54" y="306" text-anchor="end" font-family="Arial, sans-serif" font-size="12">0</text>
<line x1="64" y1="251.2" x2="952" y2="251.2" stroke="#e6e6e6"/>
<text x="54" y="255.2" text-anchor="end" font-family="Arial, sans-serif" font-size="12">2</text>
<line x1="64" y1="200.39999999999998" x2="952" y2="200.39999999999998" stroke="#e6e6e6"/>
<text x="54" y="204.39999999999998" text-anchor="end" font-family="Arial, sans-serif" font-size="12">4</text>
<line x1="64" y1="149.6" x2="952" y2="149.6" stroke="#e6e6e6"/>
<text x="54" y="153.6" text-anchor="end" font-family="Arial, sans-serif" font-size="12">6</text>
<line x1="64" y1="98.79999999999998" x2="952" y2="98.79999999999998" stroke="#e6e6e6"/>
<text x="54" y="102.79999999999998" text-anchor="end" font-family="Arial, sans-serif" font-size="12">8</text>
<line x1="64" y1="48" x2="952" y2="48" stroke="#e6e6e6"/>
<text x="54" y="52" text-anchor="end" font-family="Arial, sans-serif" font-size="12">10</text>
<polyline points="64,114.03999999999999 73.75824175824175,114.03999999999999 83.51648351648352,111.5 93.27472527472527,111.5 103.03296703296704,114.03999999999999 112.79120879120879,111.5 122.54945054945054,111.5 132.30769230769232,111.5 142.06593406593407,91.17999999999998 151.82417582417582,91.17999999999998 161.58241758241758,86.1 171.34065934065933,81.02000000000004 181.09890109890108,78.47999999999996 190.85714285714283,78.47999999999996 200.6153846153846,78.47999999999996 210.37362637362637,78.47999999999996 220.13186813186815,78.47999999999996 229.8901098901099,78.47999999999996 239.64835164835165,78.47999999999996 249.4065934065934,73.4 259.16483516483515,68.32000000000002 268.9230769230769,68.32000000000002 278.68131868131866,68.32000000000002 288.4395604395604,68.32000000000002 298.19780219780216,68.32000000000002 307.95604395604397,73.4 317.71428571428567,70.86000000000001 327.4725274725275,70.86000000000001 337.2307692307692,70.86000000000001 346.989010989011,70.86000000000001 356.74725274725273,70.86000000000001 366.50549450549454,70.86000000000001 376.2637362637363,70.86000000000001 386.021978021978,70.86000000000001 395.7802197802198,68.32000000000002 405.53846153846155,70.86000000000001 415.2967032967033,65.78 425.05494505494505,73.4 434.8131868131868,70.86000000000001 444.57142857142856,68.32000000000002 454.3296703296703,68.32000000000002 464.0879120879121,70.86000000000001 473.84615384615387,70.86000000000001 483.6043956043956,68.32000000000002 493.3626373626374,68.32000000000002 503.1208791208791,68.32000000000002 512.8791208791208,68.32000000000002 522.6373626373627,68.32000000000002 532.3956043956043,68.32000000000002 542.1538461538462,68.32000000000002 551.9120879120879,68.32000000000002 561.6703296703297,68.32000000000002 571.4285714285713,68.32000000000002 581.1868131868132,68.32000000000002 590.945054945055,68.32000000000002 600.7032967032967,68.32000000000002 610.4615384615385,68.32000000000002 620.2197802197802,68.32000000000002 629.978021978022,68.32000000000002 639.7362637362637,68.32000000000002 649.4945054945055,68.32000000000002 659.2527472527472,68.32000000000002 669.0109890109891,70.86000000000001 678.7692307692307,68.32000000000002 688.5274725274726,70.86000000000001 698.2857142857143,70.86000000000001 708.043956043956,70.86000000000001 717.8021978021978,70.86000000000001 727.5604395604396,70.86000000000001 737.3186813186813,70.86000000000001 747.0769230769231,70.86000000000001 756.8351648351648,70.86000000000001 766.5934065934066,70.86000000000001 776.3516483516484,70.86000000000001 786.1098901098901,70.86000000000001 795.8681318681319,68.32000000000002 805.6263736263736,68.32000000000002 815.3846153846154,68.32000000000002 825.1428571428571,68.32000000000002 834.901098901099,68.32000000000002 844.6593406593406,68.32000000000002 854.4175824175824,68.32000000000002 864.1758241758242,68.32000000000002 873.9340659340659,68.32000000000002 883.6923076923077,68.32000000000002 893.4505494505495,68.32000000000002 903.2087912087912,81.02000000000004 912.967032967033,81.02000000000004 922.7252747252747,78.47999999999996 932.4835164835165,78.47999999999996 942.2417582417582,78.47999999999996 952,78.47999999999996" fill="none" stroke="#1f77b4" stroke-width="2.5"/>
<circle cx="64" cy="114.03999999999999" r="3.5" fill="#1f77b4"><title>Overall: 7.4 2026-04-22-22221ed</title></circle>
<circle cx="73.75824175824175" cy="114.03999999999999" r="3.5" fill="#1f77b4"><title>Overall: 7.4 2026-04-22-e7ec04f</title></circle>
<circle cx="83.51648351648352" cy="111.5" r="3.5" fill="#1f77b4"><title>Overall: 7.5 2026-04-22-85febd0</title></circle>
<circle cx="93.27472527472527" cy="111.5" r="3.5" fill="#1f77b4"><title>Overall: 7.5 2026-04-22-b8d89ab</title></circle>
<circle cx="103.03296703296704" cy="114.03999999999999" r="3.5" fill="#1f77b4"><title>Overall: 7.4 2026-04-22-45050fa</title></circle>
<circle cx="112.79120879120879" cy="111.5" r="3.5" fill="#1f77b4"><title>Overall: 7.5 2026-04-23-3757529</title></circle>
<circle cx="122.54945054945054" cy="111.5" r="3.5" fill="#1f77b4"><title>Overall: 7.5 2026-04-23-e4732eb</title></circle>
<circle cx="132.30769230769232" cy="111.5" r="3.5" fill="#1f77b4"><title>Overall: 7.5 2026-04-23-eda2821</title></circle>
<circle cx="142.06593406593407" cy="91.17999999999998" r="3.5" fill="#1f77b4"><title>Overall: 8.3 2026-04-23-21b5d8e</title></circle>
<circle cx="151.82417582417582" cy="91.17999999999998" r="3.5" fill="#1f77b4"><title>Overall: 8.3 2026-04-23-530c229</title></circle>
<circle cx="161.58241758241758" cy="86.1" r="3.5" fill="#1f77b4"><title>Overall: 8.5 2026-04-24-530c229</title></circle>
<circle cx="171.34065934065933" cy="81.02000000000004" r="3.5" fill="#1f77b4"><title>Overall: 8.7 2026-04-24-ca481f2</title></circle>
<circle cx="181.09890109890108" cy="78.47999999999996" r="3.5" fill="#1f77b4"><title>Overall: 8.8 2026-04-24-e1c2c65</title></circle>
<circle cx="190.85714285714283" cy="78.47999999999996" r="3.5" fill="#1f77b4"><title>Overall: 8.8 2026-05-02-1fb6e44</title></circle>
<circle cx="200.6153846153846" cy="78.47999999999996" r="3.5" fill="#1f77b4"><title>Overall: 8.8 2026-05-02-7ef349b</title></circle>
<circle cx="210.37362637362637" cy="78.47999999999996" r="3.5" fill="#1f77b4"><title>Overall: 8.8 2026-05-02-d6ae5c9</title></circle>
<circle cx="220.13186813186815" cy="78.47999999999996" r="3.5" fill="#1f77b4"><title>Overall: 8.8 2026-05-03-5f92eab</title></circle>
<circle cx="229.8901098901099" cy="78.47999999999996" r="3.5" fill="#1f77b4"><title>Overall: 8.8 2026-05-04-26ca77c</title></circle>
<circle cx="239.64835164835165" cy="78.47999999999996" r="3.5" fill="#1f77b4"><title>Overall: 8.8 2026-05-05-478329a</title></circle>
<circle cx="249.4065934065934" cy="73.4" r="3.5" fill="#1f77b4"><title>Overall: 9 2026-05-06-72fe7b0</title></circle>
<circle cx="259.16483516483515" cy="68.32000000000002" r="3.5" fill="#1f77b4"><title>Overall: 9.2 2026-05-06-5e835eb</title></circle>
<circle cx="268.9230769230769" cy="68.32000000000002" r="3.5" fill="#1f77b4"><title>Overall: 9.2 2026-05-07-f40a531</title></circle>
<circle cx="278.68131868131866" cy="68.32000000000002" r="3.5" fill="#1f77b4"><title>Overall: 9.2 2026-05-07-b3bbb9c</title></circle>
<circle cx="288.4395604395604" cy="68.32000000000002" r="3.5" fill="#1f77b4"><title>Overall: 9.2 2026-05-07-beb232a</title></circle>
<circle cx="298.19780219780216" cy="68.32000000000002" r="3.5" fill="#1f77b4"><title>Overall: 9.2 2026-05-07-d953cca</title></circle>
<circle cx="307.95604395604397" cy="73.4" r="3.5" fill="#1f77b4"><title>Overall: 9 2026-05-07-cf7b7d2</title></circle>
<circle cx="317.71428571428567" cy="70.86000000000001" r="3.5" fill="#1f77b4"><title>Overall: 9.1 2026-05-07-b22a3a2</title></circle>
<circle cx="327.4725274725275" cy="70.86000000000001" r="3.5" fill="#1f77b4"><title>Overall: 9.1 2026-05-07-53d37a8</title></circle>
<circle cx="337.2307692307692" cy="70.86000000000001" r="3.5" fill="#1f77b4"><title>Overall: 9.1 2026-05-07-fb2f674</title></circle>
<circle cx="346.989010989011" cy="70.86000000000001" r="3.5" fill="#1f77b4"><title>Overall: 9.1 2026-05-07-2aeaafa</title></circle>
<circle cx="356.74725274725273" cy="70.86000000000001" r="3.5" fill="#1f77b4"><title>Overall: 9.1 2026-05-07-bfcc311</title></circle>
<circle cx="366.50549450549454" cy="70.86000000000001" r="3.5" fill="#1f77b4"><title>Overall: 9.1 2026-05-07-4f2fafe</title></circle>
<circle cx="376.2637362637363" cy="70.86000000000001" r="3.5" fill="#1f77b4"><title>Overall: 9.1 2026-05-08-8f0dde1</title></circle>
<circle cx="386.021978021978" cy="70.86000000000001" r="3.5" fill="#1f77b4"><title>Overall: 9.1 2026-05-08-50be6cf</title></circle>
<circle cx="395.7802197802198" cy="68.32000000000002" r="3.5" fill="#1f77b4"><title>Overall: 9.2 2026-05-08-dfb47de</title></circle>
<circle cx="405.53846153846155" cy="70.86000000000001" r="3.5" fill="#1f77b4"><title>Overall: 9.1 2026-05-08-577ed6f</title></circle>
<circle cx="415.2967032967033" cy="65.78" r="3.5" fill="#1f77b4"><title>Overall: 9.3 2026-05-08-cfa8497</title></circle>
<circle cx="425.05494505494505" cy="73.4" r="3.5" fill="#1f77b4"><title>Overall: 9 2026-05-09-4874ced4</title></circle>
<circle cx="434.8131868131868" cy="70.86000000000001" r="3.5" fill="#1f77b4"><title>Overall: 9.1 2026-05-09-29a80ab4</title></circle>
<circle cx="444.57142857142856" cy="68.32000000000002" r="3.5" fill="#1f77b4"><title>Overall: 9.2 2026-05-09-66f38313</title></circle>
<circle cx="454.3296703296703" cy="68.32000000000002" r="3.5" fill="#1f77b4"><title>Overall: 9.2 2026-05-09-fcd71b79</title></circle>
<circle cx="464.0879120879121" cy="70.86000000000001" r="3.5" fill="#1f77b4"><title>Overall: 9.1 2026-05-09-6c0e2b61</title></circle>
<circle cx="473.84615384615387" cy="70.86000000000001" r="3.5" fill="#1f77b4"><title>Overall: 9.1 2026-05-09-878b7eb2</title></circle>
<circle cx="483.6043956043956" cy="68.32000000000002" r="3.5" fill="#1f77b4"><title>Overall: 9.2 2026-05-09-c3f4e668</title></circle>
<circle cx="493.3626373626374" cy="68.32000000000002" r="3.5" fill="#1f77b4"><title>Overall: 9.2 2026-05-09-a05d3601</title></circle>
<circle cx="503.1208791208791" cy="68.32000000000002" r="3.5" fill="#1f77b4"><title>Overall: 9.2 2026-05-09-d3306518</title></circle>
<circle cx="512.8791208791208" cy="68.32000000000002" r="3.5" fill="#1f77b4"><title>Overall: 9.2 2026-05-09-6584ce5b</title></circle>
<circle cx="522.6373626373627" cy="68.32000000000002" r="3.5" fill="#1f77b4"><title>Overall: 9.2 2026-05-09-71dbaca5</title></circle>
<circle cx="532.3956043956043" cy="68.32000000000002" r="3.5" fill="#1f77b4"><title>Overall: 9.2 2026-05-09-cd6fb677</title></circle>
<circle cx="542.1538461538462" cy="68.32000000000002" r="3.5" fill="#1f77b4"><title>Overall: 9.2 2026-05-09-e8d1c7ef</title></circle>
<circle cx="551.9120879120879" cy="68.32000000000002" r="3.5" fill="#1f77b4"><title>Overall: 9.2 2026-05-09-fa13c102</title></circle>
<circle cx="561.6703296703297" cy="68.32000000000002" r="3.5" fill="#1f77b4"><title>Overall: 9.2 2026-05-09-5eb9b0b1</title></circle>
<circle cx="571.4285714285713" cy="68.32000000000002" r="3.5" fill="#1f77b4"><title>Overall: 9.2 2026-05-09-bbcc8df1</title></circle>
<circle cx="581.1868131868132" cy="68.32000000000002" r="3.5" fill="#1f77b4"><title>Overall: 9.2 2026-05-10-41f7caa8</title></circle>
<circle cx="590.945054945055" cy="68.32000000000002" r="3.5" fill="#1f77b4"><title>Overall: 9.2 2026-05-10-d5dfeffe</title></circle>
<circle cx="600.7032967032967" cy="68.32000000000002" r="3.5" fill="#1f77b4"><title>Overall: 9.2 2026-05-10-8c3e3571</title></circle>
<circle cx="610.4615384615385" cy="68.32000000000002" r="3.5" fill="#1f77b4"><title>Overall: 9.2 2026-05-10-9ddc6104</title></circle>
<circle cx="620.2197802197802" cy="68.32000000000002" r="3.5" fill="#1f77b4"><title>Overall: 9.2 2026-05-10-705e445c</title></circle>
<circle cx="629.978021978022" cy="68.32000000000002" r="3.5" fill="#1f77b4"><title>Overall: 9.2 2026-05-10-5e8df85b</title></circle>
<circle cx="639.7362637362637" cy="68.32000000000002" r="3.5" fill="#1f77b4"><title>Overall: 9.2 2026-05-10-eedc85ba</title></circle>
<circle cx="649.4945054945055" cy="68.32000000000002" r="3.5" fill="#1f77b4"><title>Overall: 9.2 2026-05-11-46e1b45c</title></circle>
<circle cx="659.2527472527472" cy="68.32000000000002" r="3.5" fill="#1f77b4"><title>Overall: 9.2 2026-05-11-44ac29aa</title></circle>
<circle cx="669.0109890109891" cy="70.86000000000001" r="3.5" fill="#1f77b4"><title>Overall: 9.1 2026-05-11-23c856ad</title></circle>
<circle cx="678.7692307692307" cy="68.32000000000002" r="3.5" fill="#1f77b4"><title>Overall: 9.2 2026-05-11-b83393cd</title></circle>
<circle cx="688.5274725274726" cy="70.86000000000001" r="3.5" fill="#1f77b4"><title>Overall: 9.1 2026-05-14-ce595bfb</title></circle>
<circle cx="698.2857142857143" cy="70.86000000000001" r="3.5" fill="#1f77b4"><title>Overall: 9.1 2026-05-14-df15e918</title></circle>
<circle cx="708.043956043956" cy="70.86000000000001" r="3.5" fill="#1f77b4"><title>Overall: 9.1 2026-05-14-35b1b292</title></circle>
<circle cx="717.8021978021978" cy="70.86000000000001" r="3.5" fill="#1f77b4"><title>Overall: 9.1 2026-05-14-1c788342</title></circle>
<circle cx="727.5604395604396" cy="70.86000000000001" r="3.5" fill="#1f77b4"><title>Overall: 9.1 2026-05-15-af3f2b85</title></circle>
<circle cx="737.3186813186813" cy="70.86000000000001" r="3.5" fill="#1f77b4"><title>Overall: 9.1 2026-05-15-f32c4a0d</title></circle>
<circle cx="747.0769230769231" cy="70.86000000000001" r="3.5" fill="#1f77b4"><title>Overall: 9.1 2026-05-15-02ae3190</title></circle>
<circle cx="756.8351648351648" cy="70.86000000000001" r="3.5" fill="#1f77b4"><title>Overall: 9.1 2026-05-15-60326a33</title></circle>
<circle cx="766.5934065934066" cy="70.86000000000001" r="3.5" fill="#1f77b4"><title>Overall: 9.1 2026-05-15-93dbdad8</title></circle>
<circle cx="776.3516483516484" cy="70.86000000000001" r="3.5" fill="#1f77b4"><title>Overall: 9.1 2026-05-15-db84f65c</title></circle>
<circle cx="786.1098901098901" cy="70.86000000000001" r="3.5" fill="#1f77b4"><title>Overall: 9.1 2026-05-15-d43b188a</title></circle>
<circle cx="795.8681318681319" cy="68.32000000000002" r="3.5" fill="#1f77b4"><title>Overall: 9.2 2026-05-15-c8c7246f</title></circle>
<circle cx="805.6263736263736" cy="68.32000000000002" r="3.5" fill="#1f77b4"><title>Overall: 9.2 2026-05-15-eb6d951f</title></circle>
<circle cx="815.3846153846154" cy="68.32000000000002" r="3.5" fill="#1f77b4"><title>Overall: 9.2 2026-05-16-82fd62cb</title></circle>
<circle cx="825.1428571428571" cy="68.32000000000002" r="3.5" fill="#1f77b4"><title>Overall: 9.2 2026-05-16-285b1a13</title></circle>
<circle cx="834.901098901099" cy="68.32000000000002" r="3.5" fill="#1f77b4"><title>Overall: 9.2 2026-05-16-708f7909</title></circle>
<circle cx="844.6593406593406" cy="68.32000000000002" r="3.5" fill="#1f77b4"><title>Overall: 9.2 2026-05-16-08c327dd</title></circle>
<circle cx="854.4175824175824" cy="68.32000000000002" r="3.5" fill="#1f77b4"><title>Overall: 9.2 2026-05-16-498e13b9</title></circle>
<circle cx="864.1758241758242" cy="68.32000000000002" r="3.5" fill="#1f77b4"><title>Overall: 9.2 2026-05-16-8a54cf6f</title></circle>
<circle cx="873.9340659340659" cy="68.32000000000002" r="3.5" fill="#1f77b4"><title>Overall: 9.2 2026-05-17-612f086f</title></circle>
<circle cx="883.6923076923077" cy="68.32000000000002" r="3.5" fill="#1f77b4"><title>Overall: 9.2 2026-05-17-ab80e4c7</title></circle>
<circle cx="893.4505494505495" cy="68.32000000000002" r="3.5" fill="#1f77b4"><title>Overall: 9.2 2026-05-17-f9e7374c</title></circle>
<circle cx="903.2087912087912" cy="81.02000000000004" r="3.5" fill="#1f77b4"><title>Overall: 8.7 2026-05-17-edf46536</title></circle>
<circle cx="912.967032967033" cy="81.02000000000004" r="3.5" fill="#1f77b4"><title>Overall: 8.7 2026-05-17-e56c602d</title></circle>
<circle cx="922.7252747252747" cy="78.47999999999996" r="3.5" fill="#1f77b4"><title>Overall: 8.8 2026-05-17-29755f98</title></circle>
<circle cx="932.4835164835165" cy="78.47999999999996" r="3.5" fill="#1f77b4"><title>Overall: 8.8 2026-05-17-4037bf5b</title></circle>
<circle cx="942.2417582417582" cy="78.47999999999996" r="3.5" fill="#1f77b4"><title>Overall: 8.8 2026-05-17-48e84ff4</title></circle>
<circle cx="952" cy="78.47999999999996" r="3.5" fill="#1f77b4"><title>Overall: 8.8 2026-05-18-6d76050d</title></circle>
<rect x="64" y="332" width="12" height="12" fill="#1f77b4"/>
<text x="82" y="342" font-family="Arial, sans-serif" font-size="12">Overall</text>
<polyline points="64,114.03999999999999 73.75824175824175,101.34 83.51648351648352,93.72 93.27472527472527,93.72 103.03296703296704,91.17999999999998 112.79120879120879,88.63999999999999 122.54945054945054,91.17999999999998 132.30769230769232,88.63999999999999 142.06593406593407,88.63999999999999 151.82417582417582,88.63999999999999 161.58241758241758,88.63999999999999 171.34065934065933,88.63999999999999 181.09890109890108,88.63999999999999 190.85714285714283,88.63999999999999 200.6153846153846,88.63999999999999 210.37362637362637,88.63999999999999 220.13186813186815,86.1 229.8901098901099,86.1 239.64835164835165,86.1 249.4065934065934,91.17999999999998 259.16483516483515,88.63999999999999 268.9230769230769,78.47999999999996 278.68131868131866,78.47999999999996 288.4395604395604,78.47999999999996 298.19780219780216,78.47999999999996 307.95604395604397,78.47999999999996 317.71428571428567,78.47999999999996 327.4725274725275,78.47999999999996 337.2307692307692,78.47999999999996 346.989010989011,78.47999999999996 356.74725274725273,78.47999999999996 366.50549450549454,78.47999999999996 376.2637362637363,78.47999999999996 386.021978021978,78.47999999999996 395.7802197802198,78.47999999999996 405.53846153846155,78.47999999999996 415.2967032967033,78.47999999999996 425.05494505494505,78.47999999999996 434.8131868131868,78.47999999999996 444.57142857142856,78.47999999999996 454.3296703296703,78.47999999999996 464.0879120879121,78.47999999999996 473.84615384615387,78.47999999999996 483.6043956043956,78.47999999999996 493.3626373626374,78.47999999999996 503.1208791208791,81.02000000000004 512.8791208791208,81.02000000000004 522.6373626373627,81.02000000000004 532.3956043956043,81.02000000000004 542.1538461538462,81.02000000000004 551.9120879120879,81.02000000000004 561.6703296703297,81.02000000000004 571.4285714285713,81.02000000000004 581.1868131868132,81.02000000000004 590.945054945055,81.02000000000004 600.7032967032967,78.47999999999996 610.4615384615385,78.47999999999996 620.2197802197802,78.47999999999996 629.978021978022,78.47999999999996 639.7362637362637,78.47999999999996 649.4945054945055,78.47999999999996 659.2527472527472,78.47999999999996 669.0109890109891,78.47999999999996 678.7692307692307,78.47999999999996 688.5274725274726,78.47999999999996 698.2857142857143,78.47999999999996 708.043956043956,78.47999999999996 717.8021978021978,78.47999999999996 727.5604395604396,78.47999999999996 737.3186813186813,78.47999999999996 747.0769230769231,78.47999999999996 756.8351648351648,78.47999999999996 766.5934065934066,78.47999999999996" fill="none" stroke="#2ca02c" stroke-width="2.5"/>
<circle cx="64" cy="114.03999999999999" r="3.5" fill="#2ca02c"><title>Level arc: 7.4 2026-05-07-cf7b7d2</title></circle>
<circle cx="73.75824175824175" cy="101.34" r="3.5" fill="#2ca02c"><title>Level arc: 7.9 2026-05-07-b22a3a2</title></circle>
<circle cx="83.51648351648352" cy="93.72" r="3.5" fill="#2ca02c"><title>Level arc: 8.2 2026-05-07-53d37a8</title></circle>
<circle cx="93.27472527472527" cy="93.72" r="3.5" fill="#2ca02c"><title>Level arc: 8.2 2026-05-07-fb2f674</title></circle>
<circle cx="103.03296703296704" cy="91.17999999999998" r="3.5" fill="#2ca02c"><title>Level arc: 8.3 2026-05-07-2aeaafa</title></circle>
<circle cx="112.79120879120879" cy="88.63999999999999" r="3.5" fill="#2ca02c"><title>Level arc: 8.4 2026-05-07-bfcc311</title></circle>
<circle cx="122.54945054945054" cy="91.17999999999998" r="3.5" fill="#2ca02c"><title>Level arc: 8.3 2026-05-07-4f2fafe</title></circle>
<circle cx="132.30769230769232" cy="88.63999999999999" r="3.5" fill="#2ca02c"><title>Level arc: 8.4 2026-05-08-8f0dde1</title></circle>
<circle cx="142.06593406593407" cy="88.63999999999999" r="3.5" fill="#2ca02c"><title>Level arc: 8.4 2026-05-08-50be6cf</title></circle>
<circle cx="151.82417582417582" cy="88.63999999999999" r="3.5" fill="#2ca02c"><title>Level arc: 8.4 2026-05-08-5fdd723</title></circle>
<circle cx="161.58241758241758" cy="88.63999999999999" r="3.5" fill="#2ca02c"><title>Level arc: 8.4 2026-05-08-d8240f0</title></circle>
<circle cx="171.34065934065933" cy="88.63999999999999" r="3.5" fill="#2ca02c"><title>Level arc: 8.4 2026-05-08-dfb47de</title></circle>
<circle cx="181.09890109890108" cy="88.63999999999999" r="3.5" fill="#2ca02c"><title>Level arc: 8.4 2026-05-08-577ed6f</title></circle>
<circle cx="190.85714285714283" cy="88.63999999999999" r="3.5" fill="#2ca02c"><title>Level arc: 8.4 2026-05-08-acc8b71</title></circle>
<circle cx="200.6153846153846" cy="88.63999999999999" r="3.5" fill="#2ca02c"><title>Level arc: 8.4 2026-05-08-d94f1e0</title></circle>
<circle cx="210.37362637362637" cy="88.63999999999999" r="3.5" fill="#2ca02c"><title>Level arc: 8.4 2026-05-08-fdcefbe</title></circle>
<circle cx="220.13186813186815" cy="86.1" r="3.5" fill="#2ca02c"><title>Level arc: 8.5 2026-05-08-72e823c</title></circle>
<circle cx="229.8901098901099" cy="86.1" r="3.5" fill="#2ca02c"><title>Level arc: 8.5 2026-05-08-cfa8497</title></circle>
<circle cx="239.64835164835165" cy="86.1" r="3.5" fill="#2ca02c"><title>Level arc: 8.5 2026-05-09-5da7d96</title></circle>
<circle cx="249.4065934065934" cy="91.17999999999998" r="3.5" fill="#2ca02c"><title>Level arc: 8.3 2026-05-09-4874ced4</title></circle>
<circle cx="259.16483516483515" cy="88.63999999999999" r="3.5" fill="#2ca02c"><title>Level arc: 8.4 2026-05-09-29a80ab4</title></circle>
<circle cx="268.9230769230769" cy="78.47999999999996" r="3.5" fill="#2ca02c"><title>Level arc: 8.8 2026-05-09-66f38313</title></circle>
<circle cx="278.68131868131866" cy="78.47999999999996" r="3.5" fill="#2ca02c"><title>Level arc: 8.8 2026-05-09-fcd71b79</title></circle>
<circle cx="288.4395604395604" cy="78.47999999999996" r="3.5" fill="#2ca02c"><title>Level arc: 8.8 2026-05-09-6c0e2b61</title></circle>
<circle cx="298.19780219780216" cy="78.47999999999996" r="3.5" fill="#2ca02c"><title>Level arc: 8.8 2026-05-09-878b7eb2</title></circle>
<circle cx="307.95604395604397" cy="78.47999999999996" r="3.5" fill="#2ca02c"><title>Level arc: 8.8 2026-05-09-c3f4e668</title></circle>
<circle cx="317.71428571428567" cy="78.47999999999996" r="3.5" fill="#2ca02c"><title>Level arc: 8.8 2026-05-09-a05d3601</title></circle>
<circle cx="327.4725274725275" cy="78.47999999999996" r="3.5" fill="#2ca02c"><title>Level arc: 8.8 2026-05-09-d3306518</title></circle>
<circle cx="337.2307692307692" cy="78.47999999999996" r="3.5" fill="#2ca02c"><title>Level arc: 8.8 2026-05-09-6584ce5b</title></circle>
<circle cx="346.989010989011" cy="78.47999999999996" r="3.5" fill="#2ca02c"><title>Level arc: 8.8 2026-05-09-71dbaca5</title></circle>
<circle cx="356.74725274725273" cy="78.47999999999996" r="3.5" fill="#2ca02c"><title>Level arc: 8.8 2026-05-09-cd6fb677</title></circle>
<circle cx="366.50549450549454" cy="78.47999999999996" r="3.5" fill="#2ca02c"><title>Level arc: 8.8 2026-05-09-e8d1c7ef</title></circle>
<circle cx="376.2637362637363" cy="78.47999999999996" r="3.5" fill="#2ca02c"><title>Level arc: 8.8 2026-05-09-fa13c102</title></circle>
<circle cx="386.021978021978" cy="78.47999999999996" r="3.5" fill="#2ca02c"><title>Level arc: 8.8 2026-05-09-5eb9b0b1</title></circle>
<circle cx="395.7802197802198" cy="78.47999999999996" r="3.5" fill="#2ca02c"><title>Level arc: 8.8 2026-05-10-41f7caa8</title></circle>
<circle cx="405.53846153846155" cy="78.47999999999996" r="3.5" fill="#2ca02c"><title>Level arc: 8.8 2026-05-10-d5dfeffe</title></circle>
<circle cx="415.2967032967033" cy="78.47999999999996" r="3.5" fill="#2ca02c"><title>Level arc: 8.8 2026-05-10-8c3e3571</title></circle>
<circle cx="425.05494505494505" cy="78.47999999999996" r="3.5" fill="#2ca02c"><title>Level arc: 8.8 2026-05-10-9ddc6104</title></circle>
<circle cx="434.8131868131868" cy="78.47999999999996" r="3.5" fill="#2ca02c"><title>Level arc: 8.8 2026-05-10-705e445c</title></circle>
<circle cx="444.57142857142856" cy="78.47999999999996" r="3.5" fill="#2ca02c"><title>Level arc: 8.8 2026-05-10-5e8df85b</title></circle>
<circle cx="454.3296703296703" cy="78.47999999999996" r="3.5" fill="#2ca02c"><title>Level arc: 8.8 2026-05-10-eedc85ba</title></circle>
<circle cx="464.0879120879121" cy="78.47999999999996" r="3.5" fill="#2ca02c"><title>Level arc: 8.8 2026-05-11-46e1b45c</title></circle>
<circle cx="473.84615384615387" cy="78.47999999999996" r="3.5" fill="#2ca02c"><title>Level arc: 8.8 2026-05-11-44ac29aa</title></circle>
<circle cx="483.6043956043956" cy="78.47999999999996" r="3.5" fill="#2ca02c"><title>Level arc: 8.8 2026-05-11-23c856ad</title></circle>
<circle cx="493.3626373626374" cy="78.47999999999996" r="3.5" fill="#2ca02c"><title>Level arc: 8.8 2026-05-11-b83393cd</title></circle>
<circle cx="503.1208791208791" cy="81.02000000000004" r="3.5" fill="#2ca02c"><title>Level arc: 8.7 2026-05-14-ce595bfb</title></circle>
<circle cx="512.8791208791208" cy="81.02000000000004" r="3.5" fill="#2ca02c"><title>Level arc: 8.7 2026-05-14-df15e918</title></circle>
<circle cx="522.6373626373627" cy="81.02000000000004" r="3.5" fill="#2ca02c"><title>Level arc: 8.7 2026-05-14-35b1b292</title></circle>
<circle cx="532.3956043956043" cy="81.02000000000004" r="3.5" fill="#2ca02c"><title>Level arc: 8.7 2026-05-14-1c788342</title></circle>
<circle cx="542.1538461538462" cy="81.02000000000004" r="3.5" fill="#2ca02c"><title>Level arc: 8.7 2026-05-15-af3f2b85</title></circle>
<circle cx="551.9120879120879" cy="81.02000000000004" r="3.5" fill="#2ca02c"><title>Level arc: 8.7 2026-05-15-f32c4a0d</title></circle>
<circle cx="561.6703296703297" cy="81.02000000000004" r="3.5" fill="#2ca02c"><title>Level arc: 8.7 2026-05-15-02ae3190</title></circle>
<circle cx="571.4285714285713" cy="81.02000000000004" r="3.5" fill="#2ca02c"><title>Level arc: 8.7 2026-05-15-60326a33</title></circle>
<circle cx="581.1868131868132" cy="81.02000000000004" r="3.5" fill="#2ca02c"><title>Level arc: 8.7 2026-05-15-93dbdad8</title></circle>
<circle cx="590.945054945055" cy="81.02000000000004" r="3.5" fill="#2ca02c"><title>Level arc: 8.7 2026-05-15-db84f65c</title></circle>
<circle cx="600.7032967032967" cy="78.47999999999996" r="3.5" fill="#2ca02c"><title>Level arc: 8.8 2026-05-15-d43b188a</title></circle>
<circle cx="610.4615384615385" cy="78.47999999999996" r="3.5" fill="#2ca02c"><title>Level arc: 8.8 2026-05-15-c8c7246f</title></circle>
<circle cx="620.2197802197802" cy="78.47999999999996" r="3.5" fill="#2ca02c"><title>Level arc: 8.8 2026-05-15-eb6d951f</title></circle>
<circle cx="629.978021978022" cy="78.47999999999996" r="3.5" fill="#2ca02c"><title>Level arc: 8.8 2026-05-16-82fd62cb</title></circle>
<circle cx="639.7362637362637" cy="78.47999999999996" r="3.5" fill="#2ca02c"><title>Level arc: 8.8 2026-05-16-285b1a13</title></circle>
<circle cx="649.4945054945055" cy="78.47999999999996" r="3.5" fill="#2ca02c"><title>Level arc: 8.8 2026-05-16-708f7909</title></circle>
<circle cx="659.2527472527472" cy="78.47999999999996" r="3.5" fill="#2ca02c"><title>Level arc: 8.8 2026-05-16-08c327dd</title></circle>
<circle cx="669.0109890109891" cy="78.47999999999996" r="3.5" fill="#2ca02c"><title>Level arc: 8.8 2026-05-16-498e13b9</title></circle>
<circle cx="678.7692307692307" cy="78.47999999999996" r="3.5" fill="#2ca02c"><title>Level arc: 8.8 2026-05-16-8a54cf6f</title></circle>
<circle cx="688.5274725274726" cy="78.47999999999996" r="3.5" fill="#2ca02c"><title>Level arc: 8.8 2026-05-17-612f086f</title></circle>
<circle cx="698.2857142857143" cy="78.47999999999996" r="3.5" fill="#2ca02c"><title>Level arc: 8.8 2026-05-17-ab80e4c7</title></circle>
<circle cx="708.043956043956" cy="78.47999999999996" r="3.5" fill="#2ca02c"><title>Level arc: 8.8 2026-05-17-f9e7374c</title></circle>
<circle cx="717.8021978021978" cy="78.47999999999996" r="3.5" fill="#2ca02c"><title>Level arc: 8.8 2026-05-17-edf46536</title></circle>
<circle cx="727.5604395604396" cy="78.47999999999996" r="3.5" fill="#2ca02c"><title>Level arc: 8.8 2026-05-17-e56c602d</title></circle>
<circle cx="737.3186813186813" cy="78.47999999999996" r="3.5" fill="#2ca02c"><title>Level arc: 8.8 2026-05-17-29755f98</title></circle>
<circle cx="747.0769230769231" cy="78.47999999999996" r="3.5" fill="#2ca02c"><title>Level arc: 8.8 2026-05-17-4037bf5b</title></circle>
<circle cx="756.8351648351648" cy="78.47999999999996" r="3.5" fill="#2ca02c"><title>Level arc: 8.8 2026-05-17-48e84ff4</title></circle>
<circle cx="766.5934065934066" cy="78.47999999999996" r="3.5" fill="#2ca02c"><title>Level arc: 8.8 2026-05-18-6d76050d</title></circle>
<rect x="274" y="332" width="12" height="12" fill="#2ca02c"/>
<text x="292" y="342" font-family="Arial, sans-serif" font-size="12">Level arc</text>
<polyline points="64,101.34 73.75824175824175,154.68 83.51648351648352,147.06 93.27472527472527,139.44 103.03296703296704,129.28000000000003 112.79120879120879,131.82 122.54945054945054,48 132.30769230769232,48 142.06593406593407,48 151.82417582417582,48" fill="none" stroke="#d62728" stroke-width="2.5"/>
<circle cx="64" cy="101.34" r="3.5" fill="#d62728"><title>Stage signature: 7.9 2026-05-07-b22a3a2</title></circle>
<circle cx="73.75824175824175" cy="154.68" r="3.5" fill="#d62728"><title>Stage signature: 5.8 2026-05-07-53d37a8</title></circle>
<circle cx="83.51648351648352" cy="147.06" r="3.5" fill="#d62728"><title>Stage signature: 6.1 2026-05-07-fb2f674</title></circle>
<circle cx="93.27472527472527" cy="139.44" r="3.5" fill="#d62728"><title>Stage signature: 6.4 2026-05-07-2aeaafa</title></circle>
<circle cx="103.03296703296704" cy="129.28000000000003" r="3.5" fill="#d62728"><title>Stage signature: 6.8 2026-05-08-8f0dde1</title></circle>
<circle cx="112.79120879120879" cy="131.82" r="3.5" fill="#d62728"><title>Stage signature: 6.7 2026-05-09-5da7d96</title></circle>
<circle cx="122.54945054945054" cy="48" r="3.5" fill="#d62728"><title>Stage signature: 10 2026-05-09-66f38313</title></circle>
<circle cx="132.30769230769232" cy="48" r="3.5" fill="#d62728"><title>Stage signature: 10 2026-05-09-71dbaca5</title></circle>
<circle cx="142.06593406593407" cy="48" r="3.5" fill="#d62728"><title>Stage signature: 10 2026-05-11-46e1b45c</title></circle>
<circle cx="151.82417582417582" cy="48" r="3.5" fill="#d62728"><title>Stage signature: 10 2026-05-15-60326a33</title></circle>
<rect x="484" y="332" width="12" height="12" fill="#d62728"/>
<text x="502" y="342" font-family="Arial, sans-serif" font-size="12">Stage signature</text>
<polyline points="64,217.34179999999998 73.75824175824175,302 83.51648351648352,302 93.27472527472527,302 103.03296703296704,302 112.79120879120879,217.34179999999998 122.54945054945054,302 132.30769230769232,302" fill="none" stroke="#9467bd" stroke-width="2.5"/>
<circle cx="64" cy="217.34179999999998" r="3.5" fill="#9467bd"><title>Stage 4 exact replay: 3.333 2026-05-06-6d7e05b</title></circle>
<circle cx="73.75824175824175" cy="302" r="3.5" fill="#9467bd"><title>Stage 4 exact replay: 0 2026-05-06-5e835eb</title></circle>
<circle cx="83.51648351648352" cy="302" r="3.5" fill="#9467bd"><title>Stage 4 exact replay: 0 2026-05-07-b3bbb9c</title></circle>
<circle cx="93.27472527472527" cy="302" r="3.5" fill="#9467bd"><title>Stage 4 exact replay: 0 2026-05-07-fb2f674</title></circle>
<circle cx="103.03296703296704" cy="302" r="3.5" fill="#9467bd"><title>Stage 4 exact replay: 0 2026-05-07-2aeaafa</title></circle>
<circle cx="112.79120879120879" cy="217.34179999999998" r="3.5" fill="#9467bd"><title>Stage 4 exact replay: 3.333 2026-05-07-bfcc311</title></circle>
<circle cx="122.54945054945054" cy="302" r="3.5" fill="#9467bd"><title>Stage 4 exact replay: 0 2026-05-07-13704be</title></circle>
<circle cx="132.30769230769232" cy="302" r="3.5" fill="#9467bd"><title>Stage 4 exact replay: 0 2026-05-07-4f2fafe</title></circle>
<rect x="694" y="332" width="12" height="12" fill="#9467bd"/>
<text x="712" y="342" font-family="Arial, sans-serif" font-size="12">Stage 4 exact replay</text>
<text x="64" y="322" text-anchor="middle" font-family="Arial, sans-serif" font-size="11">2026-04-22-22221ed</text>
<text x="220.13186813186815" y="322" text-anchor="middle" font-family="Arial, sans-serif" font-size="11">2026-05-03-5f92eab</text>
<text x="376.2637362637363" y="322" text-anchor="middle" font-family="Arial, sans-serif" font-size="11">2026-05-08-8f0dde1</text>
<text x="532.3956043956043" y="322" text-anchor="middle" font-family="Arial, sans-serif" font-size="11">2026-05-09-cd6fb677</text>
<text x="688.5274725274726" y="322" text-anchor="middle" font-family="Arial, sans-serif" font-size="11">2026-05-14-ce595bfb</text>
<text x="844.6593406593406" y="322" text-anchor="middle" font-family="Arial, sans-serif" font-size="11">2026-05-16-08c327dd</text>
<text x="952" y="322" text-anchor="middle" font-family="Arial, sans-serif" font-size="11">2026-05-18-6d76050d</text>
</svg>
