<svg xmlns="http://www.w3.org/2000/svg" width="640" height="520" viewBox="0 0 640 520">
  <rect width="100%" height="100%" fill="#091018"/>
  <text x="24" y="18" fill="#eef3f6" font-family="monospace" font-size="13">mid-run-pressure path/slot extraction</text>
  <rect x="24" y="24" width="560" height="448" fill="none" stroke="#31404d"/>
  <path d="M-9.3,-136.0 L126.6,-36.2 L262.9,28.4 L197.0,78.5 L146.8,91.7 L188.0,74.2 L214.5,71.6 L204.8,78.5 L199.5,80.6 L198.5,81.1 L198.6,81.2 L198.8,81.2 L199.0,81.3 L199.2,81.3 L199.4,81.3 L199.6,81.3 L199.8,81.3 L199.9,81.3 L200.1,81.3 L200.4,81.4 L200.6,81.4 L200.8,81.4 L200.9,81.4 L229.4,110.3 L284.1,175.8 L333.1,262.7 L374.7,371.2 L424.5,501.1 L478.9,652.5 L202.2,-22.2 L202.4,35.9 L202.6,61.5 L202.7,73.6" fill="none" stroke="#9be564" stroke-width="1.3" opacity="0.82"><title>regular:regular:998919780 but</title></path>
  <path d="M45.8,-136.0 L51.7,-26.4 L206.6,2.8 L275.8,47.8 L228.4,89.1 L188.7,88.3 L224.2,78.4 L236.8,78.6 L231.3,81.2 L230.1,81.9 L230.2,82.1 L230.4,82.1 L230.6,82.1 L230.8,82.1 L231.0,82.1 L231.2,82.1 L231.4,82.1 L231.5,82.1 L231.7,82.1 L232.0,82.1 L232.2,82.1 L232.4,82.1 L232.5,82.2 L232.7,82.2 L232.9,82.2 L233.0,82.2 L233.3,82.2 L233.5,82.2 L233.6,82.2 L233.8,82.2 L234.1,82.2 L234.3,82.2 L234.4,82.2" fill="none" stroke="#9be564" stroke-width="1.3" opacity="0.82"><title>regular:regular:829562103 but</title></path>
  <path d="M479.7,-136.0 L327.0,-55.4 L364.6,-5.6 L338.2,59.4" fill="none" stroke="#9be564" stroke-width="1.3" opacity="0.82"><title>regular:regular:613949762 but</title></path>
  <path d="M50.6,-136.0 L163.6,-22.1 L143.0,50.0 L210.5,51.5 L331.9,49.8 L313.2,74.5 L274.6,90.6 L280.9,84.4 L291.2,81.8 L294.2,81.1 L295.1,81.0 L295.5,80.9 L298.4,139.4 L309.7,219.3 L321.8,320.8 L325.1,443.7 L330.8,588.2 L344.4,754.1 L297.0,17.9 L297.2,53.1 L297.4,68.6 L297.6,77.6 L297.8,80.0 L298.0,80.5 L298.1,80.6 L298.3,80.6 L298.6,80.6 L298.8,80.5 L299.0,80.5 L299.1,80.5 L299.4,80.5 L299.6,80.4 L299.8,80.4" fill="none" stroke="#ff6b6b" stroke-width="2.2" opacity="0.82"><title>regular:regular:614782411 boss</title></path>
  <path d="M237.3,-136.0 L215.6,-55.4 L194.3,6.8 L332.1,25.4 L381.0,54.7 L309.1,86.4 L297.3,86.8 L323.0,76.0 L327.0,77.0 L326.6,78.1 L326.9,78.2 L327.1,78.2 L327.3,78.2 L327.5,78.2 L327.8,78.2 L328.0,78.1 L328.2,78.1 L328.4,78.1 L328.6,78.0 L328.9,78.0 L329.1,78.0 L329.2,78.0 L329.4,77.9 L329.6,77.9 L329.8,77.9 L329.9,77.9 L330.2,77.8 L330.4,77.8 L330.6,77.8 L330.7,77.7 L331.0,77.7 L331.2,77.7 L331.4,77.6" fill="none" stroke="#ff6b6b" stroke-width="2.2" opacity="0.82"><title>regular:regular:943346280 boss</title></path>
  <path d="M523.3,-136.0 L482.1,-103.4 L330.6,-19.4 L289.2,54.3 L394.0,84.5 L400.0,78.2 L341.4,64.7 L342.3,68.5 L353.7,73.8 L357.2,75.2 L358.3,75.5 L358.7,75.5 L358.9,75.5 L359.1,75.4 L359.4,75.4 L359.6,75.4 L359.8,75.4 L360.0,75.3 L360.2,75.3 L360.5,75.3 L360.7,75.3 L360.8,75.2 L361.0,75.2 L361.2,75.2 L361.4,75.2 L361.5,75.2 L361.8,75.1 L362.0,75.1 L362.2,75.1 L362.3,75.1 L362.6,75.0 L362.8,75.0 L363.0,75.0" fill="none" stroke="#ff6b6b" stroke-width="2.2" opacity="0.82"><title>regular:regular:898359459 boss</title></path>
  <path d="M404.3,-136.0 L448.3,-88.2 L491.4,-10.2 L347.3,9.3 L336.1,52.6 L405.8,86.6 L420.8,78.4 L386.4,68.7 L384.6,71.0 L388.7,73.0 L389.8,73.4 L390.3,73.5 L390.5,73.5 L390.7,73.5 L391.0,73.4 L391.2,73.4 L391.4,73.4 L391.6,73.4 L391.8,73.4 L392.1,73.4 L392.3,73.4 L392.4,73.3 L392.6,73.3 L392.8,73.3 L393.0,73.3 L393.1,73.3 L393.4,73.3 L393.6,73.3 L393.8,73.3 L393.9,73.3 L394.2,73.2 L394.4,73.2 L394.6,73.2" fill="none" stroke="#ff6b6b" stroke-width="2.2" opacity="0.82"><title>regular:regular:778518698 boss</title></path>
  <path d="M637.2,-136.0 L591.1,-111.6 L436.9,26.4 L489.0,70.5 L490.1,63.8 L394.6,55.2 L394.3,64.4 L425.4,77.3 L425.3,76.6 L420.6,74.4 L420.0,74.0 L420.0,73.9 L420.2,73.8 L420.4,73.8 L420.6,73.8 L420.8,73.8 L421.0,73.8 L421.1,73.8 L421.3,73.9 L421.6,73.9 L421.8,73.9 L422.0,73.9 L422.1,73.9 L422.3,73.9 L422.5,73.9 L422.6,73.9 L422.9,73.9 L423.1,73.9 L423.2,73.9 L423.4,73.9 L423.7,73.9 L423.9,73.9 L424.0,73.9" fill="none" stroke="#9be564" stroke-width="1.3" opacity="0.82"><title>regular:regular:296368347 but</title></path>
  <path d="M406.8,-136.0 L406.8,-136.0 L531.1,-4.2 L488.5,10.4 L399.6,38.3 L419.1,71.5 L481.7,81.9 L462.6,76.6 L448.9,73.0 L450.6,74.2 L451.2,74.4 L451.5,74.5 L451.8,74.5 L452.0,74.5 L452.2,74.6 L452.4,74.6 L454.9,141.2 L459.1,229.2 L453.0,338.8 L448.8,469.9 L454.3,622.5 L454.4,796.5 L453.8,27.0 L453.9,53.7 L454.0,65.9 L454.2,72.9 L454.5,74.4 L454.7,74.7 L454.8,74.7 L455.0,74.8 L455.3,74.8 L455.5,74.8 L455.6,74.8" fill="none" stroke="#9be564" stroke-width="1.3" opacity="0.82"><title>regular:regular:365452405 but</title></path>
  <path d="M-51.8,-136.0 L-51.8,-136.0 L229.6,-59.3 L297.7,7.1 L405.2,72.6 L505.5,84.6 L496.4,71.0 L459.6,68.1 L472.9,72.7 L480.3,75.3 L482.4,76.0 L483.1,76.2 L483.3,76.2 L483.6,76.3 L483.8,76.3 L484.0,76.3 L484.2,76.3 L484.3,76.4 L484.5,76.4 L484.8,76.4 L485.0,76.4 L485.2,76.4 L485.3,76.5 L485.5,76.5 L485.7,76.5 L485.8,76.5 L486.1,76.5 L486.3,76.6 L486.4,76.6 L486.6,76.6 L486.9,76.6 L487.1,76.7 L487.2,76.7" fill="none" stroke="#9be564" stroke-width="1.3" opacity="0.82"><title>regular:regular:298152200 but</title></path>
  <path d="M652.9,-168.0 L525.2,-20.4 L317.0,88.0 L176.4,88.3 L214.9,79.5 L267.5,93.1 L225.5,109.0 L208.7,111.3 L215.0,108.2 L217.2,107.3 L217.9,107.1 L218.1,107.1 L218.2,107.1 L218.4,107.1 L218.5,107.1 L218.6,107.1 L218.7,107.1 L218.8,107.1 L218.9,107.1 L219.1,107.2 L219.2,107.2 L219.3,107.2 L219.4,107.2 L219.5,107.2 L219.6,107.2 L219.7,107.2 L219.8,107.2 L219.9,107.3 L220.0,107.3 L220.1,107.3 L220.2,107.3 L220.4,107.3 L220.4,107.3" fill="none" stroke="#9be564" stroke-width="1.3" opacity="0.82"><title>regular:regular:805357369 but</title></path>
  <path d="M199.0,-168.0 L165.3,-42.4 L125.3,29.1 L217.0,43.3 L302.9,86.0 L257.8,114.4 L217.6,113.6 L241.8,106.9 L248.1,107.2 L249.1,107.8 L249.5,107.9 L249.7,107.9 L249.8,107.9 L250.0,107.9 L250.1,107.9 L250.2,107.9 L250.3,107.9 L250.4,107.9 L250.5,107.9 L250.7,107.9 L250.8,107.9 L250.9,107.9 L251.0,108.0 L251.1,108.0 L251.2,108.0 L251.3,108.0 L251.4,108.0 L251.5,108.0 L251.6,108.0 L251.7,108.0 L251.8,108.0 L252.0,108.0 L252.0,108.0" fill="none" stroke="#9be564" stroke-width="1.3" opacity="0.82"><title>regular:regular:339299492 but</title></path>
  <path d="M494.9,-168.0 L484.7,-85.4 L448.0,51.2 L273.6,105.4 L234.2,97.0 L298.5,83.5 L312.0,100.3 L281.8,111.7 L278.7,109.4 L280.5,108.0 L281.1,107.7 L290.4,76.3 L347.8,98.9 L363.1,177.4 L376.4,277.4 L383.3,399.0 L387.6,542.0 L398.3,706.5 L411.3,793.9 L282.4,37.3 L282.4,76.6 L282.5,93.9 L282.6,103.7 L282.7,106.7 L282.8,107.3 L282.9,107.4 L283.0,107.4 L283.1,107.4 L283.2,107.4 L283.3,107.4 L283.4,107.4 L283.6,107.4 L283.6,107.4" fill="none" stroke="#ffd166" stroke-width="1.3" opacity="0.82"><title>regular:regular:619934844 but</title></path>
  <path d="M546.4,-168.0 L487.7,-127.0 L476.1,-13.3 L421.2,84.9 L304.9,116.8 L270.6,97.6 L328.5,92.3 L331.5,101.4 L317.0,105.3 L313.5,106.0 L313.0,106.1 L303.4,75.5 L246.3,98.9 L245.6,177.4 L256.8,277.4 L263.4,399.0 L267.6,542.0 L278.3,706.5 L294.0,793.9 L314.0,36.6 L314.0,75.5 L314.1,92.5 L314.2,102.2 L314.3,105.1 L314.4,105.7 L314.5,105.8 L314.6,105.8 L314.7,105.8 L314.8,105.8 L314.9,105.8 L329.1,123.8 L367.6,192.2 L413.9,282.2" fill="none" stroke="#ffd166" stroke-width="1.3" opacity="0.82"><title>regular:regular:549903301 but</title></path>
  <path d="M284.3,-168.0 L272.3,-138.2 L219.3,-25.4 L329.3,28.6 L412.5,78.7 L336.9,111.2 L309.7,110.6 L338.8,98.6 L347.5,100.2 L344.9,103.3 L344.5,103.9 L344.6,104.0 L344.7,104.0 L344.8,104.0 L344.9,103.9 L345.0,103.9 L345.1,103.9 L345.2,103.9 L345.3,103.8 L345.5,103.8 L345.6,103.8 L345.7,103.8 L345.8,103.7 L345.9,103.7 L346.0,103.7 L346.1,103.7 L346.2,103.7 L346.3,103.6 L346.4,103.6 L346.5,103.6 L346.6,103.6 L346.8,103.5 L346.8,103.5" fill="none" stroke="#9be564" stroke-width="1.3" opacity="0.82"><title>regular:regular:111214481 but</title></path>
  <path d="M437.3,-168.0 L435.4,-150.1 L510.5,1.3 L457.5,33.8 L332.4,57.2 L344.3,100.3 L398.1,113.6 L395.3,101.5 L377.1,99.4 L376.1,101.3 L376.0,101.7 L376.1,101.8 L376.2,101.8 L376.4,101.8 L376.5,101.7 L376.6,101.7 L376.7,101.7 L376.8,101.7 L376.9,101.7 L377.1,101.6 L377.2,101.6 L377.3,101.6 L377.4,101.6 L377.5,101.6 L377.6,101.5 L377.7,101.5 L377.8,101.5 L377.9,101.5 L378.0,101.5 L378.1,101.5 L378.2,101.4 L378.4,101.4 L378.4,101.4" fill="none" stroke="#9be564" stroke-width="1.3" opacity="0.82"><title>regular:regular:618083297 but</title></path>
  <path d="M257.3,-168.0 L257.3,-168.0 L269.9,17.5 L402.3,90.9 L470.7,78.3 L394.7,74.8 L365.0,91.7 L408.9,104.2 L414.8,103.6 L409.2,101.0 L407.9,100.4 L407.8,100.2 L407.9,100.2 L408.0,100.2 L408.1,100.2 L408.2,100.1 L408.3,100.1 L408.4,100.1 L408.5,100.1 L408.7,100.1 L408.8,100.1 L408.9,100.1 L409.0,100.1 L409.1,100.1 L409.2,100.1 L409.3,100.0 L409.4,100.0 L409.5,100.0 L409.6,100.0 L409.7,100.0 L409.8,100.0 L410.0,100.0 L410.0,100.0" fill="none" stroke="#9be564" stroke-width="1.3" opacity="0.82"><title>regular:regular:169577063 but</title></path>
  <path d="M608.7,-168.0 L608.7,-168.0 L428.4,-21.1 L398.7,79.0 L509.6,97.9 L476.7,84.1 L409.3,80.9 L421.3,97.2 L441.5,102.9 L439.8,100.5 L439.4,99.8 L439.4,99.7 L439.5,99.7 L439.6,99.6 L439.7,99.6 L439.8,99.6 L439.9,99.6 L440.0,99.6 L440.1,99.7 L440.3,99.7 L440.4,99.7 L440.5,99.7 L440.6,99.7 L440.7,99.7 L440.8,99.7 L440.9,99.7 L441.0,99.7 L441.1,99.7 L441.2,99.7 L441.3,99.7 L441.4,99.7 L441.6,99.7 L441.6,99.7" fill="none" stroke="#9be564" stroke-width="1.3" opacity="0.82"><title>regular:regular:219142387 but</title></path>
  <path d="M365.0,-168.0 L365.0,-168.0 L504.0,-66.6 L451.7,-7.6 L390.8,61.2 L446.1,108.9 L512.0,104.7 L478.9,93.5 L459.8,94.9 L467.5,98.8 L470.1,100.0 L470.8,100.3 L471.0,100.3 L471.2,100.3 L471.3,100.4 L471.4,100.4 L471.5,100.4 L471.6,100.4 L471.7,100.4 L471.9,100.4 L472.0,100.4 L472.1,100.5 L472.2,100.5 L472.3,100.5 L472.4,100.5 L472.5,100.5 L472.6,100.5 L472.7,100.5 L472.8,100.6 L472.9,100.6 L473.0,100.6 L473.2,100.6 L473.2,100.6" fill="none" stroke="#9be564" stroke-width="1.3" opacity="0.82"><title>regular:regular:645054449 but</title></path>
  <path d="M647.7,-168.0 L647.7,-168.0 L554.3,-41.9 L597.7,53.1 L599.8,63.8 L478.2,67.8 L467.6,93.1 L511.6,111.1 L517.1,105.5 L506.4,102.7 L503.3,102.1 L502.7,102.1 L502.7,102.1 L502.8,102.1 L502.9,102.1 L503.0,102.1 L503.1,102.1 L503.2,102.2 L503.3,102.2 L503.5,102.2 L503.6,102.2 L503.7,102.2 L503.8,102.3 L503.9,102.3 L504.0,102.3 L504.1,102.3 L504.2,102.3 L504.3,102.4 L504.4,102.4 L504.5,102.4 L504.6,102.4 L504.8,102.5 L504.8,102.5" fill="none" stroke="#9be564" stroke-width="1.3" opacity="0.82"><title>regular:regular:653529152 but</title></path>
  <path d="M549.6,-200.0 L519.5,-104.6 L410.3,80.0 L232.6,115.6 L171.0,101.6 L256.7,109.6 L260.3,129.9 L224.5,138.3 L223.0,135.1 L225.6,133.3 L226.1,132.9 L226.2,132.9 L226.3,132.9 L226.3,132.9 L226.3,132.9 L226.3,132.9 L226.3,132.9 L226.4,132.9 L226.4,132.9 L226.4,133.0 L226.4,133.0 L226.4,133.0 L226.4,133.0 L226.4,133.0 L226.4,133.0 L226.4,133.0 L226.4,133.0 L247.1,193.4 L276.5,275.2 L309.8,378.5 L333.1,503.3 L356.0,649.7 L226.4,-19.4" fill="none" stroke="#9be564" stroke-width="1.3" opacity="0.82"><title>regular:regular:625515992 bee</title></path>
  <path d="M199.3,-200.0 L173.4,-144.6 L112.2,-13.2 L236.7,41.8 L319.4,113.7 L267.2,146.2 L216.7,134.0 L251.0,126.6 L260.4,130.2 L258.4,133.0 L258.0,133.6 L257.9,133.7 L257.9,133.7 L257.9,133.7 L257.9,133.7 L257.9,133.7 L257.9,133.7 L258.0,133.7 L258.0,133.7 L258.0,133.7 L258.0,133.7 L258.0,133.7 L258.0,133.8 L258.0,133.8 L258.0,133.8 L258.0,133.8 L258.0,133.8 L258.0,133.8 L258.0,133.8 L258.0,133.8 L258.0,133.8 L258.0,133.8 L258.0,133.8" fill="none" stroke="#9be564" stroke-width="1.3" opacity="0.82"><title>regular:regular:737565809 bee</title></path>
  <path d="M292.4,-200.0 L279.0,-185.2 L298.3,-33.6 L392.1,77.3 L323.7,142.3" fill="none" stroke="#9be564" stroke-width="1.3" opacity="0.82"><title>regular:regular:643506105 bee</title></path>
  <path d="M158.9,-200.0 L158.9,-200.0 L148.7,-53.2 L264.2,26.7 L387.1,106.2 L332.4,140.0 L276.9,134.3 L311.4,124.3 L326.0,126.8 L322.2,130.8 L321.3,131.7 L321.1,131.9 L321.1,131.9 L321.1,131.9 L321.1,131.9 L321.1,131.9 L321.1,131.8 L321.2,131.8 L321.2,131.8 L321.2,131.8 L321.2,131.8 L321.2,131.7 L321.2,131.7 L321.2,131.7 L321.2,131.7 L321.2,131.7 L321.2,131.6 L321.2,131.6 L321.2,131.6 L321.2,131.6 L321.2,131.6 L321.2,131.5 L321.2,131.5" fill="none" stroke="#9be564" stroke-width="1.3" opacity="0.82"><title>regular:regular:647577879 bee</title></path>
  <path d="M184.5,-200.0 L184.5,-200.0 L335.2,7.9 L240.4,83.5 L277.2,81.5 L377.7,97.6 L387.1,133.1 L339.7,138.7 L340.3,131.2 L349.7,130.2 L352.0,129.9 L352.6,129.8 L352.7,129.8 L352.7,129.8 L352.7,129.7 L352.7,129.7 L352.7,129.7 L352.8,129.7 L352.8,129.6 L352.8,129.6 L352.8,129.6 L352.8,129.6 L352.8,129.5 L352.8,129.5 L352.8,129.5 L352.8,129.5 L352.8,129.5 L352.8,129.4 L352.8,129.4 L352.8,129.4 L352.8,129.4 L352.8,129.3 L352.8,129.3" fill="none" stroke="#9be564" stroke-width="1.3" opacity="0.82"><title>regular:regular:28294499 bee</title></path>
  <path d="M561.8,-200.0 L561.8,-200.0 L557.3,-48.2 L540.5,24.6 L375.1,67.2 L337.3,120.0 L396.6,141.3 L414.9,126.9 L387.9,122.4 L384.8,126.2 L384.4,127.3 L384.3,127.5 L384.3,127.6 L384.3,127.6 L384.3,127.5 L384.3,127.5 L384.3,127.5 L384.4,127.5 L384.4,127.5 L384.4,127.4 L384.4,127.4 L384.4,127.4 L384.4,127.4 L384.4,127.4 L384.4,127.3 L384.4,127.3 L384.4,127.3 L384.4,127.3 L384.4,127.3 L384.4,127.3 L384.4,127.2 L384.4,127.2 L384.4,127.2" fill="none" stroke="#9be564" stroke-width="1.3" opacity="0.82"><title>regular:regular:467351072 bee</title></path>
  <path d="M427.1,-200.0 L427.1,-200.0 L334.4,-39.6 L373.1,96.7 L485.5,100.8 L456.3,91.5 L372.1,111.0 L398.8,129.2 L423.9,130.9 L418.7,127.4 L416.4,126.3 L416.0,126.0 L415.9,126.0 L415.9,126.0 L415.9,126.0 L415.9,125.9 L415.9,125.9 L416.0,125.9 L416.0,125.9 L416.0,125.9 L416.0,125.9 L416.0,125.9 L416.0,125.9 L416.0,125.9 L416.0,125.9 L416.0,125.8 L416.0,125.8 L416.0,125.8 L416.0,125.8 L416.0,125.8 L416.0,125.8 L416.0,125.8 L416.0,125.8" fill="none" stroke="#9be564" stroke-width="1.3" opacity="0.82"><title>regular:regular:919383098 bee</title></path>
  <path d="M491.0,-200.0 L491.0,-200.0 L519.5,-75.3 L583.2,17.9 L491.6,46.6 L392.2,103.9 L428.3,135.9 L481.0,129.5 L457.5,122.0 L449.0,123.8 L447.8,125.1 L447.5,125.4 L447.5,125.4 L447.5,125.4 L447.5,125.4 L447.5,125.4 L447.5,125.4 L447.6,125.4 L447.6,125.5 L447.6,125.5 L447.6,125.5 L447.6,125.5 L447.6,125.5 L447.6,125.5 L447.6,125.5 L447.6,125.5 L447.6,125.5 L447.6,125.5 L447.6,125.5 L447.6,125.5 L447.6,125.5 L447.6,125.5 L447.6,125.5" fill="none" stroke="#9be564" stroke-width="1.3" opacity="0.82"><title>regular:regular:175862531 bee</title></path>
  <path d="M499.8,-200.0 L499.8,-200.0 L553.2,-134.8 L478.3,-15.6 L389.6,83.1 L455.1,137.8 L527.0,124.8 L493.1,111.0 L461.6,119.1 L472.5,124.3 L477.7,125.7 L478.8,126.0 L479.0,126.1 L479.1,126.1 L479.1,126.2 L479.1,126.2 L479.1,126.2 L479.2,126.2 L479.2,126.2 L479.2,126.2 L479.2,126.2 L479.2,126.3 L479.2,126.3 L479.2,126.3 L479.2,126.3 L479.2,126.3 L479.2,126.3 L479.2,126.3 L479.2,126.4 L479.2,126.4 L479.2,126.4 L479.2,126.4 L479.2,126.4" fill="none" stroke="#9be564" stroke-width="1.3" opacity="0.82"><title>regular:regular:321425376 bee</title></path>
  <path d="M-51.4,-200.0 L-51.4,-200.0 L68.8,-143.6 L216.4,16.0 L365.9,117.8 L519.0,130.9 L541.2,106.0 L483.3,112.1 L489.8,127.2 L506.4,128.7 L509.8,128.0 L510.5,127.9 L510.7,127.9 L510.7,127.9 L510.7,127.9 L510.7,127.9 L510.7,127.9 L510.8,128.0 L510.8,128.0 L510.8,128.0 L510.8,128.0 L510.8,128.0 L510.8,128.1 L510.8,128.1 L510.8,128.1 L510.8,128.1 L510.8,128.1 L510.8,128.2 L510.8,128.2 L510.8,128.2 L510.8,128.2 L510.8,128.3 L510.8,128.3" fill="none" stroke="#9be564" stroke-width="1.3" opacity="0.82"><title>regular:regular:747460908 bee</title></path>
  <path d="M167.0,-232.0 L167.0,-232.0 L221.8,34.8 L124.1,82.1 L155.2,94.1 L267.7,141.2 L252.0,168.0 L203.6,163.6 L211.6,158.3 L219.5,158.5 L221.2,158.6 L221.5,158.6 L221.5,158.7 L221.4,158.7 L221.3,158.7 L221.2,158.7 L221.1,158.7 L221.0,158.7 L220.9,158.7 L220.8,158.8 L220.7,158.8 L220.6,158.8 L220.5,158.8 L220.4,158.8 L220.3,158.8 L220.3,158.8 L220.1,158.8 L220.0,158.9 L219.9,158.9 L219.8,158.9 L219.7,158.9 L219.6,158.9 L219.5,158.9" fill="none" stroke="#9be564" stroke-width="1.3" opacity="0.82"><title>regular:regular:871214445 bee</title></path>
  <path d="M535.3,-232.0 L535.3,-232.0 L273.7,-35.4 L194.1,32.8 L290.4,105.1 L324.3,165.4 L239.3,167.4 L226.2,153.9 L251.0,154.2 L252.9,158.2 L253.2,159.2 L253.2,159.5 L253.1,159.5 L253.0,159.5 L252.9,159.5 L252.8,159.5 L252.7,159.5 L252.6,159.5 L252.5,159.5 L252.4,159.5 L252.3,159.5 L252.2,159.5 L252.1,159.6 L252.0,159.6 L251.9,159.6 L251.9,159.6 L251.7,159.6 L251.6,159.6 L251.5,159.6 L251.4,159.6 L251.3,159.6 L251.2,159.6 L251.1,159.6" fill="none" stroke="#9be564" stroke-width="1.3" opacity="0.82"><title>regular:regular:983456379 bee</title></path>
  <path d="M272.0,-232.0 L272.0,-232.0 L199.2,-83.5 L331.0,52.6 L371.2,152.1 L278.8,167.1 L234.2,143.0 L289.5,145.1 L298.9,156.1 L288.7,158.5 L285.7,159.1 L284.9,159.2 L284.7,159.2 L284.6,159.2 L284.5,159.2 L284.4,159.2 L284.3,159.1 L284.2,159.1 L284.1,159.1 L284.0,159.1 L283.9,159.1 L283.8,159.1 L283.7,159.1 L283.6,159.1 L283.5,159.1 L283.5,159.1 L283.3,159.0 L283.2,159.0 L283.1,159.0 L283.0,159.0 L282.9,159.0 L282.8,159.0 L282.7,159.0" fill="none" stroke="#9be564" stroke-width="1.3" opacity="0.82"><title>regular:regular:41700573 bee</title></path>
  <path d="M102.0,-232.0 L102.0,-232.0 L110.6,-102.0 L261.1,29.9 L388.5,138.7 L330.5,167.0 L261.9,149.3 L307.7,144.1 L327.7,152.2 L319.9,156.4 L317.2,157.5 L316.5,157.7 L316.3,157.7 L316.2,157.7 L316.1,157.7 L316.0,157.7 L315.9,157.6 L315.8,157.6 L315.7,157.6 L315.6,157.6 L315.5,157.6 L315.4,157.5 L315.3,157.5 L315.2,157.5 L315.1,157.5 L315.1,157.5 L314.9,157.4 L314.8,157.4 L314.7,157.4 L314.6,157.4 L314.5,157.4 L314.4,157.3 L314.3,157.3" fill="none" stroke="#9be564" stroke-width="1.3" opacity="0.82"><title>regular:regular:653040391 bee</title></path>
  <path d="M431.8,-232.0 L431.8,-232.0 L347.4,-123.1 L405.7,39.2 L459.8,146.1 L347.6,159.2 L296.1,140.8 L352.7,140.6 L364.4,151.6 L353.2,154.9 L349.1,155.5 L348.2,155.6 L347.9,155.6 L347.8,155.6 L347.7,155.5 L347.6,155.5 L347.5,155.5 L347.4,155.5 L347.3,155.4 L347.2,155.4 L347.1,155.4 L347.0,155.4 L346.9,155.3 L346.8,155.3 L346.7,155.3 L346.7,155.3 L346.5,155.3 L346.4,155.2 L346.3,155.2 L346.2,155.2 L346.1,155.2 L346.0,155.1 L345.9,155.1" fill="none" stroke="#9be564" stroke-width="1.3" opacity="0.82"><title>regular:regular:41873528 bee</title></path>
  <path d="M-19.6,-232.0 L-19.6,-232.0 L177.7,-145.4 L361.1,-2.6 L267.5,103.6 L309.9,157.7 L409.6,157.8 L406.3,140.6 L372.2,143.9 L375.0,150.7 L378.7,152.9 L379.4,153.3 L379.5,153.4 L379.4,153.4 L379.3,153.3 L379.2,153.3 L379.1,153.3 L379.0,153.3 L378.9,153.3 L378.8,153.2 L378.7,153.2 L378.6,153.2 L378.5,153.2 L378.4,153.2 L378.3,153.1 L378.3,153.1 L378.1,153.1 L378.0,153.1 L377.9,153.1 L377.8,153.1 L377.7,153.0 L377.6,153.0 L377.5,153.0" fill="none" stroke="#9be564" stroke-width="1.3" opacity="0.82"><title>regular:regular:266531227 bee</title></path>
  <path d="M380.8,-232.0 L380.8,-232.0 L430.4,-159.6 L550.1,-15.3 L418.2,64.6 L342.4,139.2 L403.6,166.3 L452.0,147.5 L419.7,141.5 L409.5,147.8 L410.9,151.0 L411.1,151.6 L411.1,151.7 L411.0,151.8 L410.9,151.8 L410.8,151.7 L410.7,151.7 L410.6,151.7 L410.5,151.7 L414.0,178.5 L418.4,245.1 L432.6,333.3 L448.5,442.9 L454.0,574.1 L461.5,726.7 L409.8,35.8 L409.8,100.7 L409.7,129.2 L409.6,141.8 L409.5,149.6 L409.3,151.2 L409.2,151.5 L409.1,151.6" fill="none" stroke="#9be564" stroke-width="1.3" opacity="0.82"><title>regular:regular:50279409 bee</title></path>
  <path d="M-6.4,-232.0 L-6.4,-232.0 L77.3,-163.4 L417.3,-0.2 L473.6,46.9 L383.8,115.7 L385.2,161.9 L466.6,156.6 L462.3,145.9 L446.2,147.7 L443.6,150.5 L442.9,151.1 L442.7,151.2 L442.6,151.2" fill="none" stroke="#9be564" stroke-width="1.3" opacity="0.82"><title>regular:regular:368533586 bee</title></path>
  <path d="M-54.9,-232.0 L-54.9,-232.0 L-26.3,-209.7 L145.8,33.3 L314.3,130.5 L502.3,135.4 L498.7,120.1 L441.7,136.5 L450.8,156.7 L472.7,155.6 L474.1,152.7 L474.3,152.1 L474.3,152.0 L474.2,152.0 L474.1,152.0 L474.0,152.0 L473.9,152.0 L473.8,152.0 L473.7,152.0 L473.6,152.0 L473.5,152.0 L473.4,152.1 L473.3,152.1 L473.2,152.1 L473.1,152.1 L473.1,152.1 L472.9,152.1 L472.8,152.1 L472.7,152.2 L472.6,152.2 L472.5,152.2 L472.4,152.2 L472.3,152.2" fill="none" stroke="#9be564" stroke-width="1.3" opacity="0.82"><title>regular:regular:542138813 bee</title></path>
  <path d="M-46.4,-232.0 L-46.4,-232.0 L-46.4,-232.0 L369.1,-42.7 L526.5,31.1 L437.0,109.0 L435.8,157.4 L523.8,160.9 L529.0,148.7 L508.7,148.2 L506.7,152.3 L506.1,153.4 L505.9,153.6 L505.8,153.7 L505.7,153.7 L505.6,153.7 L505.5,153.7 L505.4,153.8 L505.3,153.8 L505.2,153.8 L505.1,153.8 L505.0,153.8 L504.9,153.9 L504.8,153.9 L504.7,153.9 L504.7,153.9 L504.5,153.9 L504.4,154.0 L504.3,154.0 L504.2,154.0 L504.1,154.0 L504.0,154.1 L503.9,154.1" fill="none" stroke="#9be564" stroke-width="1.3" opacity="0.82"><title>regular:regular:18847414 bee</title></path>
  <text x="24" y="504" fill="#a9b7c0" font-family="monospace" font-size="11">red boss, gold escort, blue challenge, green other moving paths</text>
</svg>
