<svg xmlns="http://www.w3.org/2000/svg" width="760" height="300" viewBox="0 0 760 300" role="img" aria-labelledby="title desc">
  <title id="title">Challenging Stage 5 (19-20) object-track and shot-opportunity sketch</title>
  <desc id="desc">Readable object tracks from runtime challenge sprite silhouettes plus sampled player shot opportunity lanes.</desc>
  <style>
    .bg{fill:#06111d}.panel{fill:#0d1b2a;stroke:#2e5d78;stroke-width:2}.grid{stroke:#1b3344;stroke-width:1}.text{fill:#f2fbff;font:700 20px ui-monospace,Menlo,monospace}.small{fill:#b8d7ec;font:700 13px ui-monospace,Menlo,monospace}.tiny{fill:#9ec9e6;font:11px ui-monospace,Menlo,monospace}.pill{fill:#102a3b;stroke:#2e5d78}
  </style>
  <rect class="bg" x="0" y="0" width="760" height="300"/>
  <text class="text" x="24" y="34">Challenging Stage 5 (19-20)</text>
  <rect class="pill" x="482" y="14" width="254" height="32" rx="16"/>
  <text class="small" x="498" y="35">5.4/10 shot opportunity</text>
  <rect class="panel" x="36" y="56" width="456" height="210" rx="10"/>
  <rect class="panel" x="548" y="56" width="176" height="210" rx="10"/>
  <text class="small" x="56" y="82">Object-tracked silhouette paths</text>
  <text class="small" x="568" y="82">Shot-lane hits</text>
  <line class="grid" x1="50" y1="92" x2="50" y2="244"/><line class="grid" x1="136" y1="92" x2="136" y2="244"/><line class="grid" x1="222" y1="92" x2="222" y2="244"/><line class="grid" x1="308" y1="92" x2="308" y2="244"/><line class="grid" x1="394" y1="92" x2="394" y2="244"/>
  <line class="grid" x1="50" y1="100" x2="480" y2="100"/><line class="grid" x1="50" y1="142" x2="480" y2="142"/><line class="grid" x1="50" y1="184" x2="480" y2="184"/><line class="grid" x1="50" y1="226" x2="480" y2="226"/>
  <polyline points="-66.7,112.4 -66.7,112.4 -66.7,112.4 -66.7,112.4 -66.7,112.4 -66.7,112.4 -66.7,112.4 -66.7,112.4 233.1,138.8 278.5,149.5 56.1,159 34.5,175.4 351.8,197.8" fill="none" stroke="#78f7ff" stroke-width="4" stroke-linecap="round" stroke-linejoin="round"/><circle cx="-66.7" cy="112.4" r="5" fill="#78f7ff"/><text class="tiny" x="500" y="96" fill="#78f7ff">galboss pink-green-cascade 13f</text>
  <polyline points="-66.7,96.1 -66.7,96.1 -66.7,96.1 98.8,111.2 139.2,117.3 186.8,124.3 282.7,114.6 265.3,131.5 245.8,149.7 224.2,168.5 200.3,187.9 57.1,173.1 -11.6,253.1" fill="none" stroke="#ffd36a" stroke-width="4" stroke-linecap="round" stroke-linejoin="round"/><circle cx="-66.7" cy="96.1" r="5" fill="#ffd36a"/><text class="tiny" x="500" y="120" fill="#ffd36a">dragonfly green-ladder-split 13f</text>
  <polyline points="-66.7,108.7 -66.7,108.7 -66.7,108.7 -66.7,108.7 -66.7,108.7 -66.7,108.7 -66.7,108.7 -66.7,108.7 177.5,129.4 167.3,138.9 262.1,150.8 256.1,129.7 391.4,196.4" fill="none" stroke="#ff7bd5" stroke-width="4" stroke-linecap="round" stroke-linejoin="round"/><circle cx="-66.7" cy="108.7" r="5" fill="#ff7bd5"/><text class="tiny" x="500" y="144" fill="#ff7bd5">galboss pink-green-cascade 13f</text>
  <polyline points="-66.7,95.6 67.4,101.9 37.6,94.9 32,96.3 103.3,107.1 253.9,101.3 223.7,106.9 121.4,112.7 126.6,123.4 250.7,136.9 176.8,146.6 318.8,160.6 450.1,225.9" fill="none" stroke="#8cffb4" stroke-width="4" stroke-linecap="round" stroke-linejoin="round"/><circle cx="-66.7" cy="95.6" r="5" fill="#8cffb4"/><text class="tiny" x="500" y="168" fill="#8cffb4">galboss pink-green-cascade 13f</text>
  <polyline points="-66.7,108.7 -66.7,108.7 -66.7,108.7 -66.7,108.7 -66.7,108.7 -66.7,108.7 -66.7,108.7 -66.7,108.7 273.6,132.9 110.5,139.3 133.9,150.9 93.2,128.5" fill="none" stroke="#b08cff" stroke-width="4" stroke-linecap="round" stroke-linejoin="round"/><circle cx="-66.7" cy="108.7" r="5" fill="#b08cff"/><text class="tiny" x="500" y="192" fill="#b08cff">galboss pink-green-cascade 12f</text>
  <rect x="586" y="164.9" width="12" height="57.1" rx="3" fill="#ffd36a"/><text class="tiny" x="582" y="242">32</text>
  <rect x="606" y="164.9" width="12" height="57.1" rx="3" fill="#ffd36a"/><text class="tiny" x="602" y="242">68</text>
  <rect x="626" y="141.4" width="12" height="80.6" rx="3" fill="#ffd36a"/><text class="tiny" x="622" y="242">104</text>
  <rect x="646" y="138" width="12" height="84" rx="3" fill="#ffd36a"/><text class="tiny" x="642" y="242">140</text>
  <rect x="666" y="171.6" width="12" height="50.4" rx="3" fill="#ffd36a"/><text class="tiny" x="662" y="242">176</text>
  <rect x="686" y="171.6" width="12" height="50.4" rx="3" fill="#ffd36a"/><text class="tiny" x="682" y="242">212</text>
  <rect x="706" y="161.5" width="12" height="60.5" rx="3" fill="#ffd36a"/><text class="tiny" x="702" y="242">248</text>
  <text class="tiny" x="56" y="260">Silhouette: 4.7/10; 38 tracks, 315 crops.</text>
  <text class="tiny" x="568" y="260">Lane diversity 1; center bias 0.191.</text>
</svg>
