<svg xmlns="http://www.w3.org/2000/svg" width="980" height="360" viewBox="0 0 980 360">
<rect width="100%" height="100%" fill="#fff"/>
<text x="64" y="28" font-family="Arial, sans-serif" font-size="20" font-weight="700">Conformance Score Trends</text>
<line x1="64" y1="48" x2="64" y2="302" stroke="#333"/>
<line x1="64" y1="302" x2="952" y2="302" stroke="#333"/>
<line x1="64" y1="302" x2="952" y2="302" stroke="#e6e6e6"/>
<text x="54" y="306" text-anchor="end" font-family="Arial, sans-serif" font-size="12">0</text>
<line x1="64" y1="251.2" x2="952" y2="251.2" stroke="#e6e6e6"/>
<text x="54" y="255.2" text-anchor="end" font-family="Arial, sans-serif" font-size="12">2</text>
<line x1="64" y1="200.39999999999998" x2="952" y2="200.39999999999998" stroke="#e6e6e6"/>
<text x="54" y="204.39999999999998" text-anchor="end" font-family="Arial, sans-serif" font-size="12">4</text>
<line x1="64" y1="149.6" x2="952" y2="149.6" stroke="#e6e6e6"/>
<text x="54" y="153.6" text-anchor="end" font-family="Arial, sans-serif" font-size="12">6</text>
<line x1="64" y1="98.79999999999998" x2="952" y2="98.79999999999998" stroke="#e6e6e6"/>
<text x="54" y="102.79999999999998" text-anchor="end" font-family="Arial, sans-serif" font-size="12">8</text>
<line x1="64" y1="48" x2="952" y2="48" stroke="#e6e6e6"/>
<text x="54" y="52" text-anchor="end" font-family="Arial, sans-serif" font-size="12">10</text>
<polyline points="64,114.03999999999999 77.25373134328358,114.03999999999999 90.50746268656717,111.5 103.76119402985074,111.5 117.01492537313433,114.03999999999999 130.26865671641792,111.5 143.52238805970148,111.5 156.77611940298507,111.5 170.02985074626866,91.17999999999998 183.28358208955223,91.17999999999998 196.53731343283582,86.1 209.7910447761194,81.02000000000004 223.04477611940297,78.47999999999996 236.29850746268656,78.47999999999996 249.55223880597015,78.47999999999996 262.80597014925377,78.47999999999996 276.05970149253733,78.47999999999996 289.3134328358209,78.47999999999996 302.56716417910445,78.47999999999996 315.820895522388,73.4 329.07462686567163,68.32000000000002 342.32835820895525,68.32000000000002 355.5820895522388,68.32000000000002 368.8358208955224,68.32000000000002 382.08955223880594,68.32000000000002 395.34328358208955,73.4 408.5970149253731,70.86000000000001 421.85074626865674,70.86000000000001 435.1044776119403,70.86000000000001 448.35820895522386,70.86000000000001 461.6119402985075,70.86000000000001 474.86567164179104,70.86000000000001 488.1194029850746,70.86000000000001 501.37313432835816,70.86000000000001 514.6268656716418,68.32000000000002 527.8805970149253,70.86000000000001 541.1343283582089,65.78 554.3880597014926,73.4 567.641791044776,70.86000000000001 580.8955223880597,68.32000000000002 594.1492537313433,68.32000000000002 607.4029850746268,70.86000000000001 620.6567164179105,70.86000000000001 633.910447761194,68.32000000000002 647.1641791044776,68.32000000000002 660.4179104477612,68.32000000000002 673.6716417910447,68.32000000000002 686.9253731343284,68.32000000000002 700.1791044776119,68.32000000000002 713.4328358208955,68.32000000000002 726.6865671641791,68.32000000000002 739.9402985074627,68.32000000000002 753.1940298507462,68.32000000000002 766.4477611940298,68.32000000000002 779.7014925373135,68.32000000000002 792.955223880597,68.32000000000002 806.2089552238806,68.32000000000002 819.4626865671642,68.32000000000002 832.7164179104477,68.32000000000002 845.9701492537313,68.32000000000002 859.223880597015,68.32000000000002 872.4776119402985,68.32000000000002 885.7313432835821,70.86000000000001 898.9850746268658,68.32000000000002 912.2388059701492,70.86000000000001 925.4925373134329,70.86000000000001 938.7462686567163,70.86000000000001 952,70.86000000000001" fill="none" stroke="#1f77b4" stroke-width="2.5"/>
<circle cx="64" cy="114.03999999999999" r="3.5" fill="#1f77b4"><title>Overall: 7.4 2026-04-22-22221ed</title></circle>
<circle cx="77.25373134328358" cy="114.03999999999999" r="3.5" fill="#1f77b4"><title>Overall: 7.4 2026-04-22-e7ec04f</title></circle>
<circle cx="90.50746268656717" cy="111.5" r="3.5" fill="#1f77b4"><title>Overall: 7.5 2026-04-22-85febd0</title></circle>
<circle cx="103.76119402985074" cy="111.5" r="3.5" fill="#1f77b4"><title>Overall: 7.5 2026-04-22-b8d89ab</title></circle>
<circle cx="117.01492537313433" cy="114.03999999999999" r="3.5" fill="#1f77b4"><title>Overall: 7.4 2026-04-22-45050fa</title></circle>
<circle cx="130.26865671641792" cy="111.5" r="3.5" fill="#1f77b4"><title>Overall: 7.5 2026-04-23-3757529</title></circle>
<circle cx="143.52238805970148" cy="111.5" r="3.5" fill="#1f77b4"><title>Overall: 7.5 2026-04-23-e4732eb</title></circle>
<circle cx="156.77611940298507" cy="111.5" r="3.5" fill="#1f77b4"><title>Overall: 7.5 2026-04-23-eda2821</title></circle>
<circle cx="170.02985074626866" cy="91.17999999999998" r="3.5" fill="#1f77b4"><title>Overall: 8.3 2026-04-23-21b5d8e</title></circle>
<circle cx="183.28358208955223" cy="91.17999999999998" r="3.5" fill="#1f77b4"><title>Overall: 8.3 2026-04-23-530c229</title></circle>
<circle cx="196.53731343283582" cy="86.1" r="3.5" fill="#1f77b4"><title>Overall: 8.5 2026-04-24-530c229</title></circle>
<circle cx="209.7910447761194" cy="81.02000000000004" r="3.5" fill="#1f77b4"><title>Overall: 8.7 2026-04-24-ca481f2</title></circle>
<circle cx="223.04477611940297" cy="78.47999999999996" r="3.5" fill="#1f77b4"><title>Overall: 8.8 2026-04-24-e1c2c65</title></circle>
<circle cx="236.29850746268656" cy="78.47999999999996" r="3.5" fill="#1f77b4"><title>Overall: 8.8 2026-05-02-1fb6e44</title></circle>
<circle cx="249.55223880597015" cy="78.47999999999996" r="3.5" fill="#1f77b4"><title>Overall: 8.8 2026-05-02-7ef349b</title></circle>
<circle cx="262.80597014925377" cy="78.47999999999996" r="3.5" fill="#1f77b4"><title>Overall: 8.8 2026-05-02-d6ae5c9</title></circle>
<circle cx="276.05970149253733" cy="78.47999999999996" r="3.5" fill="#1f77b4"><title>Overall: 8.8 2026-05-03-5f92eab</title></circle>
<circle cx="289.3134328358209" cy="78.47999999999996" r="3.5" fill="#1f77b4"><title>Overall: 8.8 2026-05-04-26ca77c</title></circle>
<circle cx="302.56716417910445" cy="78.47999999999996" r="3.5" fill="#1f77b4"><title>Overall: 8.8 2026-05-05-478329a</title></circle>
<circle cx="315.820895522388" cy="73.4" r="3.5" fill="#1f77b4"><title>Overall: 9 2026-05-06-72fe7b0</title></circle>
<circle cx="329.07462686567163" cy="68.32000000000002" r="3.5" fill="#1f77b4"><title>Overall: 9.2 2026-05-06-5e835eb</title></circle>
<circle cx="342.32835820895525" cy="68.32000000000002" r="3.5" fill="#1f77b4"><title>Overall: 9.2 2026-05-07-f40a531</title></circle>
<circle cx="355.5820895522388" cy="68.32000000000002" r="3.5" fill="#1f77b4"><title>Overall: 9.2 2026-05-07-b3bbb9c</title></circle>
<circle cx="368.8358208955224" cy="68.32000000000002" r="3.5" fill="#1f77b4"><title>Overall: 9.2 2026-05-07-beb232a</title></circle>
<circle cx="382.08955223880594" cy="68.32000000000002" r="3.5" fill="#1f77b4"><title>Overall: 9.2 2026-05-07-d953cca</title></circle>
<circle cx="395.34328358208955" cy="73.4" r="3.5" fill="#1f77b4"><title>Overall: 9 2026-05-07-cf7b7d2</title></circle>
<circle cx="408.5970149253731" cy="70.86000000000001" r="3.5" fill="#1f77b4"><title>Overall: 9.1 2026-05-07-b22a3a2</title></circle>
<circle cx="421.85074626865674" cy="70.86000000000001" r="3.5" fill="#1f77b4"><title>Overall: 9.1 2026-05-07-53d37a8</title></circle>
<circle cx="435.1044776119403" cy="70.86000000000001" r="3.5" fill="#1f77b4"><title>Overall: 9.1 2026-05-07-fb2f674</title></circle>
<circle cx="448.35820895522386" cy="70.86000000000001" r="3.5" fill="#1f77b4"><title>Overall: 9.1 2026-05-07-2aeaafa</title></circle>
<circle cx="461.6119402985075" cy="70.86000000000001" r="3.5" fill="#1f77b4"><title>Overall: 9.1 2026-05-07-bfcc311</title></circle>
<circle cx="474.86567164179104" cy="70.86000000000001" r="3.5" fill="#1f77b4"><title>Overall: 9.1 2026-05-07-4f2fafe</title></circle>
<circle cx="488.1194029850746" cy="70.86000000000001" r="3.5" fill="#1f77b4"><title>Overall: 9.1 2026-05-08-8f0dde1</title></circle>
<circle cx="501.37313432835816" cy="70.86000000000001" r="3.5" fill="#1f77b4"><title>Overall: 9.1 2026-05-08-50be6cf</title></circle>
<circle cx="514.6268656716418" cy="68.32000000000002" r="3.5" fill="#1f77b4"><title>Overall: 9.2 2026-05-08-dfb47de</title></circle>
<circle cx="527.8805970149253" cy="70.86000000000001" r="3.5" fill="#1f77b4"><title>Overall: 9.1 2026-05-08-577ed6f</title></circle>
<circle cx="541.1343283582089" cy="65.78" r="3.5" fill="#1f77b4"><title>Overall: 9.3 2026-05-08-cfa8497</title></circle>
<circle cx="554.3880597014926" cy="73.4" r="3.5" fill="#1f77b4"><title>Overall: 9 2026-05-09-4874ced4</title></circle>
<circle cx="567.641791044776" cy="70.86000000000001" r="3.5" fill="#1f77b4"><title>Overall: 9.1 2026-05-09-29a80ab4</title></circle>
<circle cx="580.8955223880597" cy="68.32000000000002" r="3.5" fill="#1f77b4"><title>Overall: 9.2 2026-05-09-66f38313</title></circle>
<circle cx="594.1492537313433" cy="68.32000000000002" r="3.5" fill="#1f77b4"><title>Overall: 9.2 2026-05-09-fcd71b79</title></circle>
<circle cx="607.4029850746268" cy="70.86000000000001" r="3.5" fill="#1f77b4"><title>Overall: 9.1 2026-05-09-6c0e2b61</title></circle>
<circle cx="620.6567164179105" cy="70.86000000000001" r="3.5" fill="#1f77b4"><title>Overall: 9.1 2026-05-09-878b7eb2</title></circle>
<circle cx="633.910447761194" cy="68.32000000000002" r="3.5" fill="#1f77b4"><title>Overall: 9.2 2026-05-09-c3f4e668</title></circle>
<circle cx="647.1641791044776" cy="68.32000000000002" r="3.5" fill="#1f77b4"><title>Overall: 9.2 2026-05-09-a05d3601</title></circle>
<circle cx="660.4179104477612" cy="68.32000000000002" r="3.5" fill="#1f77b4"><title>Overall: 9.2 2026-05-09-d3306518</title></circle>
<circle cx="673.6716417910447" cy="68.32000000000002" r="3.5" fill="#1f77b4"><title>Overall: 9.2 2026-05-09-6584ce5b</title></circle>
<circle cx="686.9253731343284" cy="68.32000000000002" r="3.5" fill="#1f77b4"><title>Overall: 9.2 2026-05-09-71dbaca5</title></circle>
<circle cx="700.1791044776119" cy="68.32000000000002" r="3.5" fill="#1f77b4"><title>Overall: 9.2 2026-05-09-cd6fb677</title></circle>
<circle cx="713.4328358208955" cy="68.32000000000002" r="3.5" fill="#1f77b4"><title>Overall: 9.2 2026-05-09-e8d1c7ef</title></circle>
<circle cx="726.6865671641791" cy="68.32000000000002" r="3.5" fill="#1f77b4"><title>Overall: 9.2 2026-05-09-fa13c102</title></circle>
<circle cx="739.9402985074627" cy="68.32000000000002" r="3.5" fill="#1f77b4"><title>Overall: 9.2 2026-05-09-5eb9b0b1</title></circle>
<circle cx="753.1940298507462" cy="68.32000000000002" r="3.5" fill="#1f77b4"><title>Overall: 9.2 2026-05-09-bbcc8df1</title></circle>
<circle cx="766.4477611940298" cy="68.32000000000002" r="3.5" fill="#1f77b4"><title>Overall: 9.2 2026-05-10-41f7caa8</title></circle>
<circle cx="779.7014925373135" cy="68.32000000000002" r="3.5" fill="#1f77b4"><title>Overall: 9.2 2026-05-10-d5dfeffe</title></circle>
<circle cx="792.955223880597" cy="68.32000000000002" r="3.5" fill="#1f77b4"><title>Overall: 9.2 2026-05-10-8c3e3571</title></circle>
<circle cx="806.2089552238806" cy="68.32000000000002" r="3.5" fill="#1f77b4"><title>Overall: 9.2 2026-05-10-9ddc6104</title></circle>
<circle cx="819.4626865671642" cy="68.32000000000002" r="3.5" fill="#1f77b4"><title>Overall: 9.2 2026-05-10-705e445c</title></circle>
<circle cx="832.7164179104477" cy="68.32000000000002" r="3.5" fill="#1f77b4"><title>Overall: 9.2 2026-05-10-5e8df85b</title></circle>
<circle cx="845.9701492537313" cy="68.32000000000002" r="3.5" fill="#1f77b4"><title>Overall: 9.2 2026-05-10-eedc85ba</title></circle>
<circle cx="859.223880597015" cy="68.32000000000002" r="3.5" fill="#1f77b4"><title>Overall: 9.2 2026-05-11-46e1b45c</title></circle>
<circle cx="872.4776119402985" cy="68.32000000000002" r="3.5" fill="#1f77b4"><title>Overall: 9.2 2026-05-11-44ac29aa</title></circle>
<circle cx="885.7313432835821" cy="70.86000000000001" r="3.5" fill="#1f77b4"><title>Overall: 9.1 2026-05-11-23c856ad</title></circle>
<circle cx="898.9850746268658" cy="68.32000000000002" r="3.5" fill="#1f77b4"><title>Overall: 9.2 2026-05-11-b83393cd</title></circle>
<circle cx="912.2388059701492" cy="70.86000000000001" r="3.5" fill="#1f77b4"><title>Overall: 9.1 2026-05-14-ce595bfb</title></circle>
<circle cx="925.4925373134329" cy="70.86000000000001" r="3.5" fill="#1f77b4"><title>Overall: 9.1 2026-05-14-df15e918</title></circle>
<circle cx="938.7462686567163" cy="70.86000000000001" r="3.5" fill="#1f77b4"><title>Overall: 9.1 2026-05-14-35b1b292</title></circle>
<circle cx="952" cy="70.86000000000001" r="3.5" fill="#1f77b4"><title>Overall: 9.1 2026-05-14-1c788342</title></circle>
<rect x="64" y="332" width="12" height="12" fill="#1f77b4"/>
<text x="82" y="342" font-family="Arial, sans-serif" font-size="12">Overall</text>
<polyline points="64,114.03999999999999 77.25373134328358,101.34 90.50746268656717,93.72 103.76119402985074,93.72 117.01492537313433,91.17999999999998 130.26865671641792,88.63999999999999 143.52238805970148,91.17999999999998 156.77611940298507,88.63999999999999 170.02985074626866,88.63999999999999 183.28358208955223,88.63999999999999 196.53731343283582,88.63999999999999 209.7910447761194,88.63999999999999 223.04477611940297,88.63999999999999 236.29850746268656,88.63999999999999 249.55223880597015,88.63999999999999 262.80597014925377,88.63999999999999 276.05970149253733,86.1 289.3134328358209,86.1 302.56716417910445,86.1 315.820895522388,91.17999999999998 329.07462686567163,88.63999999999999 342.32835820895525,78.47999999999996 355.5820895522388,78.47999999999996 368.8358208955224,78.47999999999996 382.08955223880594,78.47999999999996 395.34328358208955,78.47999999999996 408.5970149253731,78.47999999999996 421.85074626865674,78.47999999999996 435.1044776119403,78.47999999999996 448.35820895522386,78.47999999999996 461.6119402985075,78.47999999999996 474.86567164179104,78.47999999999996 488.1194029850746,78.47999999999996 501.37313432835816,78.47999999999996 514.6268656716418,78.47999999999996 527.8805970149253,78.47999999999996 541.1343283582089,78.47999999999996 554.3880597014926,78.47999999999996 567.641791044776,78.47999999999996 580.8955223880597,78.47999999999996 594.1492537313433,78.47999999999996 607.4029850746268,78.47999999999996 620.6567164179105,78.47999999999996 633.910447761194,78.47999999999996 647.1641791044776,78.47999999999996 660.4179104477612,81.02000000000004 673.6716417910447,81.02000000000004 686.9253731343284,81.02000000000004 700.1791044776119,81.02000000000004" fill="none" stroke="#2ca02c" stroke-width="2.5"/>
<circle cx="64" cy="114.03999999999999" r="3.5" fill="#2ca02c"><title>Level arc: 7.4 2026-05-07-cf7b7d2</title></circle>
<circle cx="77.25373134328358" cy="101.34" r="3.5" fill="#2ca02c"><title>Level arc: 7.9 2026-05-07-b22a3a2</title></circle>
<circle cx="90.50746268656717" cy="93.72" r="3.5" fill="#2ca02c"><title>Level arc: 8.2 2026-05-07-53d37a8</title></circle>
<circle cx="103.76119402985074" cy="93.72" r="3.5" fill="#2ca02c"><title>Level arc: 8.2 2026-05-07-fb2f674</title></circle>
<circle cx="117.01492537313433" cy="91.17999999999998" r="3.5" fill="#2ca02c"><title>Level arc: 8.3 2026-05-07-2aeaafa</title></circle>
<circle cx="130.26865671641792" cy="88.63999999999999" r="3.5" fill="#2ca02c"><title>Level arc: 8.4 2026-05-07-bfcc311</title></circle>
<circle cx="143.52238805970148" cy="91.17999999999998" r="3.5" fill="#2ca02c"><title>Level arc: 8.3 2026-05-07-4f2fafe</title></circle>
<circle cx="156.77611940298507" cy="88.63999999999999" r="3.5" fill="#2ca02c"><title>Level arc: 8.4 2026-05-08-8f0dde1</title></circle>
<circle cx="170.02985074626866" cy="88.63999999999999" r="3.5" fill="#2ca02c"><title>Level arc: 8.4 2026-05-08-50be6cf</title></circle>
<circle cx="183.28358208955223" cy="88.63999999999999" r="3.5" fill="#2ca02c"><title>Level arc: 8.4 2026-05-08-5fdd723</title></circle>
<circle cx="196.53731343283582" cy="88.63999999999999" r="3.5" fill="#2ca02c"><title>Level arc: 8.4 2026-05-08-d8240f0</title></circle>
<circle cx="209.7910447761194" cy="88.63999999999999" r="3.5" fill="#2ca02c"><title>Level arc: 8.4 2026-05-08-dfb47de</title></circle>
<circle cx="223.04477611940297" cy="88.63999999999999" r="3.5" fill="#2ca02c"><title>Level arc: 8.4 2026-05-08-577ed6f</title></circle>
<circle cx="236.29850746268656" cy="88.63999999999999" r="3.5" fill="#2ca02c"><title>Level arc: 8.4 2026-05-08-acc8b71</title></circle>
<circle cx="249.55223880597015" cy="88.63999999999999" r="3.5" fill="#2ca02c"><title>Level arc: 8.4 2026-05-08-d94f1e0</title></circle>
<circle cx="262.80597014925377" cy="88.63999999999999" r="3.5" fill="#2ca02c"><title>Level arc: 8.4 2026-05-08-fdcefbe</title></circle>
<circle cx="276.05970149253733" cy="86.1" r="3.5" fill="#2ca02c"><title>Level arc: 8.5 2026-05-08-72e823c</title></circle>
<circle cx="289.3134328358209" cy="86.1" r="3.5" fill="#2ca02c"><title>Level arc: 8.5 2026-05-08-cfa8497</title></circle>
<circle cx="302.56716417910445" cy="86.1" r="3.5" fill="#2ca02c"><title>Level arc: 8.5 2026-05-09-5da7d96</title></circle>
<circle cx="315.820895522388" cy="91.17999999999998" r="3.5" fill="#2ca02c"><title>Level arc: 8.3 2026-05-09-4874ced4</title></circle>
<circle cx="329.07462686567163" cy="88.63999999999999" r="3.5" fill="#2ca02c"><title>Level arc: 8.4 2026-05-09-29a80ab4</title></circle>
<circle cx="342.32835820895525" cy="78.47999999999996" r="3.5" fill="#2ca02c"><title>Level arc: 8.8 2026-05-09-66f38313</title></circle>
<circle cx="355.5820895522388" cy="78.47999999999996" r="3.5" fill="#2ca02c"><title>Level arc: 8.8 2026-05-09-fcd71b79</title></circle>
<circle cx="368.8358208955224" cy="78.47999999999996" r="3.5" fill="#2ca02c"><title>Level arc: 8.8 2026-05-09-6c0e2b61</title></circle>
<circle cx="382.08955223880594" cy="78.47999999999996" r="3.5" fill="#2ca02c"><title>Level arc: 8.8 2026-05-09-878b7eb2</title></circle>
<circle cx="395.34328358208955" cy="78.47999999999996" r="3.5" fill="#2ca02c"><title>Level arc: 8.8 2026-05-09-c3f4e668</title></circle>
<circle cx="408.5970149253731" cy="78.47999999999996" r="3.5" fill="#2ca02c"><title>Level arc: 8.8 2026-05-09-a05d3601</title></circle>
<circle cx="421.85074626865674" cy="78.47999999999996" r="3.5" fill="#2ca02c"><title>Level arc: 8.8 2026-05-09-d3306518</title></circle>
<circle cx="435.1044776119403" cy="78.47999999999996" r="3.5" fill="#2ca02c"><title>Level arc: 8.8 2026-05-09-6584ce5b</title></circle>
<circle cx="448.35820895522386" cy="78.47999999999996" r="3.5" fill="#2ca02c"><title>Level arc: 8.8 2026-05-09-71dbaca5</title></circle>
<circle cx="461.6119402985075" cy="78.47999999999996" r="3.5" fill="#2ca02c"><title>Level arc: 8.8 2026-05-09-cd6fb677</title></circle>
<circle cx="474.86567164179104" cy="78.47999999999996" r="3.5" fill="#2ca02c"><title>Level arc: 8.8 2026-05-09-e8d1c7ef</title></circle>
<circle cx="488.1194029850746" cy="78.47999999999996" r="3.5" fill="#2ca02c"><title>Level arc: 8.8 2026-05-09-fa13c102</title></circle>
<circle cx="501.37313432835816" cy="78.47999999999996" r="3.5" fill="#2ca02c"><title>Level arc: 8.8 2026-05-09-5eb9b0b1</title></circle>
<circle cx="514.6268656716418" cy="78.47999999999996" r="3.5" fill="#2ca02c"><title>Level arc: 8.8 2026-05-10-41f7caa8</title></circle>
<circle cx="527.8805970149253" cy="78.47999999999996" r="3.5" fill="#2ca02c"><title>Level arc: 8.8 2026-05-10-d5dfeffe</title></circle>
<circle cx="541.1343283582089" cy="78.47999999999996" r="3.5" fill="#2ca02c"><title>Level arc: 8.8 2026-05-10-8c3e3571</title></circle>
<circle cx="554.3880597014926" cy="78.47999999999996" r="3.5" fill="#2ca02c"><title>Level arc: 8.8 2026-05-10-9ddc6104</title></circle>
<circle cx="567.641791044776" cy="78.47999999999996" r="3.5" fill="#2ca02c"><title>Level arc: 8.8 2026-05-10-705e445c</title></circle>
<circle cx="580.8955223880597" cy="78.47999999999996" r="3.5" fill="#2ca02c"><title>Level arc: 8.8 2026-05-10-5e8df85b</title></circle>
<circle cx="594.1492537313433" cy="78.47999999999996" r="3.5" fill="#2ca02c"><title>Level arc: 8.8 2026-05-10-eedc85ba</title></circle>
<circle cx="607.4029850746268" cy="78.47999999999996" r="3.5" fill="#2ca02c"><title>Level arc: 8.8 2026-05-11-46e1b45c</title></circle>
<circle cx="620.6567164179105" cy="78.47999999999996" r="3.5" fill="#2ca02c"><title>Level arc: 8.8 2026-05-11-44ac29aa</title></circle>
<circle cx="633.910447761194" cy="78.47999999999996" r="3.5" fill="#2ca02c"><title>Level arc: 8.8 2026-05-11-23c856ad</title></circle>
<circle cx="647.1641791044776" cy="78.47999999999996" r="3.5" fill="#2ca02c"><title>Level arc: 8.8 2026-05-11-b83393cd</title></circle>
<circle cx="660.4179104477612" cy="81.02000000000004" r="3.5" fill="#2ca02c"><title>Level arc: 8.7 2026-05-14-ce595bfb</title></circle>
<circle cx="673.6716417910447" cy="81.02000000000004" r="3.5" fill="#2ca02c"><title>Level arc: 8.7 2026-05-14-df15e918</title></circle>
<circle cx="686.9253731343284" cy="81.02000000000004" r="3.5" fill="#2ca02c"><title>Level arc: 8.7 2026-05-14-35b1b292</title></circle>
<circle cx="700.1791044776119" cy="81.02000000000004" r="3.5" fill="#2ca02c"><title>Level arc: 8.7 2026-05-14-1c788342</title></circle>
<rect x="274" y="332" width="12" height="12" fill="#2ca02c"/>
<text x="292" y="342" font-family="Arial, sans-serif" font-size="12">Level arc</text>
<polyline points="64,101.34 77.25373134328358,154.68 90.50746268656717,147.06 103.76119402985074,139.44 117.01492537313433,129.28000000000003 130.26865671641792,131.82 143.52238805970148,48 156.77611940298507,48 170.02985074626866,48" fill="none" stroke="#d62728" stroke-width="2.5"/>
<circle cx="64" cy="101.34" r="3.5" fill="#d62728"><title>Stage signature: 7.9 2026-05-07-b22a3a2</title></circle>
<circle cx="77.25373134328358" cy="154.68" r="3.5" fill="#d62728"><title>Stage signature: 5.8 2026-05-07-53d37a8</title></circle>
<circle cx="90.50746268656717" cy="147.06" r="3.5" fill="#d62728"><title>Stage signature: 6.1 2026-05-07-fb2f674</title></circle>
<circle cx="103.76119402985074" cy="139.44" r="3.5" fill="#d62728"><title>Stage signature: 6.4 2026-05-07-2aeaafa</title></circle>
<circle cx="117.01492537313433" cy="129.28000000000003" r="3.5" fill="#d62728"><title>Stage signature: 6.8 2026-05-08-8f0dde1</title></circle>
<circle cx="130.26865671641792" cy="131.82" r="3.5" fill="#d62728"><title>Stage signature: 6.7 2026-05-09-5da7d96</title></circle>
<circle cx="143.52238805970148" cy="48" r="3.5" fill="#d62728"><title>Stage signature: 10 2026-05-09-66f38313</title></circle>
<circle cx="156.77611940298507" cy="48" r="3.5" fill="#d62728"><title>Stage signature: 10 2026-05-09-71dbaca5</title></circle>
<circle cx="170.02985074626866" cy="48" r="3.5" fill="#d62728"><title>Stage signature: 10 2026-05-11-46e1b45c</title></circle>
<rect x="484" y="332" width="12" height="12" fill="#d62728"/>
<text x="502" y="342" font-family="Arial, sans-serif" font-size="12">Stage signature</text>
<polyline points="64,217.34179999999998 77.25373134328358,302 90.50746268656717,302 103.76119402985074,302 117.01492537313433,302 130.26865671641792,217.34179999999998 143.52238805970148,302 156.77611940298507,302" fill="none" stroke="#9467bd" stroke-width="2.5"/>
<circle cx="64" cy="217.34179999999998" r="3.5" fill="#9467bd"><title>Stage 4 exact replay: 3.333 2026-05-06-6d7e05b</title></circle>
<circle cx="77.25373134328358" cy="302" r="3.5" fill="#9467bd"><title>Stage 4 exact replay: 0 2026-05-06-5e835eb</title></circle>
<circle cx="90.50746268656717" cy="302" r="3.5" fill="#9467bd"><title>Stage 4 exact replay: 0 2026-05-07-b3bbb9c</title></circle>
<circle cx="103.76119402985074" cy="302" r="3.5" fill="#9467bd"><title>Stage 4 exact replay: 0 2026-05-07-fb2f674</title></circle>
<circle cx="117.01492537313433" cy="302" r="3.5" fill="#9467bd"><title>Stage 4 exact replay: 0 2026-05-07-2aeaafa</title></circle>
<circle cx="130.26865671641792" cy="217.34179999999998" r="3.5" fill="#9467bd"><title>Stage 4 exact replay: 3.333 2026-05-07-bfcc311</title></circle>
<circle cx="143.52238805970148" cy="302" r="3.5" fill="#9467bd"><title>Stage 4 exact replay: 0 2026-05-07-13704be</title></circle>
<circle cx="156.77611940298507" cy="302" r="3.5" fill="#9467bd"><title>Stage 4 exact replay: 0 2026-05-07-4f2fafe</title></circle>
<rect x="694" y="332" width="12" height="12" fill="#9467bd"/>
<text x="712" y="342" font-family="Arial, sans-serif" font-size="12">Stage 4 exact replay</text>
<text x="64" y="322" text-anchor="middle" font-family="Arial, sans-serif" font-size="11">2026-04-22-22221ed</text>
<text x="223.04477611940297" y="322" text-anchor="middle" font-family="Arial, sans-serif" font-size="11">2026-04-24-e1c2c65</text>
<text x="382.08955223880594" y="322" text-anchor="middle" font-family="Arial, sans-serif" font-size="11">2026-05-07-d953cca</text>
<text x="541.1343283582089" y="322" text-anchor="middle" font-family="Arial, sans-serif" font-size="11">2026-05-08-cfa8497</text>
<text x="700.1791044776119" y="322" text-anchor="middle" font-family="Arial, sans-serif" font-size="11">2026-05-09-cd6fb677</text>
<text x="859.223880597015" y="322" text-anchor="middle" font-family="Arial, sans-serif" font-size="11">2026-05-11-46e1b45c</text>
<text x="952" y="322" text-anchor="middle" font-family="Arial, sans-serif" font-size="11">2026-05-14-1c788342</text>
</svg>
