<svg xmlns="http://www.w3.org/2000/svg" width="980" height="360" viewBox="0 0 980 360">
<rect width="100%" height="100%" fill="#fff"/>
<text x="64" y="28" font-family="Arial, sans-serif" font-size="20" font-weight="700">Conformance Score Trends</text>
<line x1="64" y1="48" x2="64" y2="302" stroke="#333"/>
<line x1="64" y1="302" x2="952" y2="302" stroke="#333"/>
<line x1="64" y1="302" x2="952" y2="302" stroke="#e6e6e6"/>
<text x="54" y="306" text-anchor="end" font-family="Arial, sans-serif" font-size="12">0</text>
<line x1="64" y1="251.2" x2="952" y2="251.2" stroke="#e6e6e6"/>
<text x="54" y="255.2" text-anchor="end" font-family="Arial, sans-serif" font-size="12">2</text>
<line x1="64" y1="200.39999999999998" x2="952" y2="200.39999999999998" stroke="#e6e6e6"/>
<text x="54" y="204.39999999999998" text-anchor="end" font-family="Arial, sans-serif" font-size="12">4</text>
<line x1="64" y1="149.6" x2="952" y2="149.6" stroke="#e6e6e6"/>
<text x="54" y="153.6" text-anchor="end" font-family="Arial, sans-serif" font-size="12">6</text>
<line x1="64" y1="98.79999999999998" x2="952" y2="98.79999999999998" stroke="#e6e6e6"/>
<text x="54" y="102.79999999999998" text-anchor="end" font-family="Arial, sans-serif" font-size="12">8</text>
<line x1="64" y1="48" x2="952" y2="48" stroke="#e6e6e6"/>
<text x="54" y="52" text-anchor="end" font-family="Arial, sans-serif" font-size="12">10</text>
<polyline points="64,114.03999999999999 87.36842105263158,114.03999999999999 110.73684210526315,111.5 134.10526315789474,111.5 157.4736842105263,114.03999999999999 180.8421052631579,111.5 204.21052631578948,111.5 227.57894736842104,111.5 250.94736842105263,91.17999999999998 274.31578947368416,91.17999999999998 297.6842105263158,86.1 321.0526315789474,81.02000000000004 344.42105263157896,78.47999999999996 367.7894736842105,78.47999999999996 391.1578947368421,78.47999999999996 414.5263157894737,78.47999999999996 437.89473684210526,78.47999999999996 461.2631578947368,78.47999999999996 484.6315789473684,78.47999999999996 508,73.4 531.3684210526316,68.32000000000002 554.7368421052631,68.32000000000002 578.1052631578948,68.32000000000002 601.4736842105264,68.32000000000002 624.8421052631579,68.32000000000002 648.2105263157895,73.4 671.578947368421,70.86000000000001 694.9473684210526,70.86000000000001 718.3157894736842,70.86000000000001 741.6842105263158,70.86000000000001 765.0526315789474,70.86000000000001 788.421052631579,70.86000000000001 811.7894736842105,70.86000000000001 835.1578947368421,70.86000000000001 858.5263157894736,68.32000000000002 881.8947368421052,70.86000000000001 905.2631578947368,65.78 928.6315789473684,73.4 952,70.86000000000001" fill="none" stroke="#1f77b4" stroke-width="2.5"/>
<circle cx="64" cy="114.03999999999999" r="3.5" fill="#1f77b4"><title>Overall: 7.4 2026-04-22-22221ed</title></circle>
<circle cx="87.36842105263158" cy="114.03999999999999" r="3.5" fill="#1f77b4"><title>Overall: 7.4 2026-04-22-e7ec04f</title></circle>
<circle cx="110.73684210526315" cy="111.5" r="3.5" fill="#1f77b4"><title>Overall: 7.5 2026-04-22-85febd0</title></circle>
<circle cx="134.10526315789474" cy="111.5" r="3.5" fill="#1f77b4"><title>Overall: 7.5 2026-04-22-b8d89ab</title></circle>
<circle cx="157.4736842105263" cy="114.03999999999999" r="3.5" fill="#1f77b4"><title>Overall: 7.4 2026-04-22-45050fa</title></circle>
<circle cx="180.8421052631579" cy="111.5" r="3.5" fill="#1f77b4"><title>Overall: 7.5 2026-04-23-3757529</title></circle>
<circle cx="204.21052631578948" cy="111.5" r="3.5" fill="#1f77b4"><title>Overall: 7.5 2026-04-23-e4732eb</title></circle>
<circle cx="227.57894736842104" cy="111.5" r="3.5" fill="#1f77b4"><title>Overall: 7.5 2026-04-23-eda2821</title></circle>
<circle cx="250.94736842105263" cy="91.17999999999998" r="3.5" fill="#1f77b4"><title>Overall: 8.3 2026-04-23-21b5d8e</title></circle>
<circle cx="274.31578947368416" cy="91.17999999999998" r="3.5" fill="#1f77b4"><title>Overall: 8.3 2026-04-23-530c229</title></circle>
<circle cx="297.6842105263158" cy="86.1" r="3.5" fill="#1f77b4"><title>Overall: 8.5 2026-04-24-530c229</title></circle>
<circle cx="321.0526315789474" cy="81.02000000000004" r="3.5" fill="#1f77b4"><title>Overall: 8.7 2026-04-24-ca481f2</title></circle>
<circle cx="344.42105263157896" cy="78.47999999999996" r="3.5" fill="#1f77b4"><title>Overall: 8.8 2026-04-24-e1c2c65</title></circle>
<circle cx="367.7894736842105" cy="78.47999999999996" r="3.5" fill="#1f77b4"><title>Overall: 8.8 2026-05-02-1fb6e44</title></circle>
<circle cx="391.1578947368421" cy="78.47999999999996" r="3.5" fill="#1f77b4"><title>Overall: 8.8 2026-05-02-7ef349b</title></circle>
<circle cx="414.5263157894737" cy="78.47999999999996" r="3.5" fill="#1f77b4"><title>Overall: 8.8 2026-05-02-d6ae5c9</title></circle>
<circle cx="437.89473684210526" cy="78.47999999999996" r="3.5" fill="#1f77b4"><title>Overall: 8.8 2026-05-03-5f92eab</title></circle>
<circle cx="461.2631578947368" cy="78.47999999999996" r="3.5" fill="#1f77b4"><title>Overall: 8.8 2026-05-04-26ca77c</title></circle>
<circle cx="484.6315789473684" cy="78.47999999999996" r="3.5" fill="#1f77b4"><title>Overall: 8.8 2026-05-05-478329a</title></circle>
<circle cx="508" cy="73.4" r="3.5" fill="#1f77b4"><title>Overall: 9 2026-05-06-72fe7b0</title></circle>
<circle cx="531.3684210526316" cy="68.32000000000002" r="3.5" fill="#1f77b4"><title>Overall: 9.2 2026-05-06-5e835eb</title></circle>
<circle cx="554.7368421052631" cy="68.32000000000002" r="3.5" fill="#1f77b4"><title>Overall: 9.2 2026-05-07-f40a531</title></circle>
<circle cx="578.1052631578948" cy="68.32000000000002" r="3.5" fill="#1f77b4"><title>Overall: 9.2 2026-05-07-b3bbb9c</title></circle>
<circle cx="601.4736842105264" cy="68.32000000000002" r="3.5" fill="#1f77b4"><title>Overall: 9.2 2026-05-07-beb232a</title></circle>
<circle cx="624.8421052631579" cy="68.32000000000002" r="3.5" fill="#1f77b4"><title>Overall: 9.2 2026-05-07-d953cca</title></circle>
<circle cx="648.2105263157895" cy="73.4" r="3.5" fill="#1f77b4"><title>Overall: 9 2026-05-07-cf7b7d2</title></circle>
<circle cx="671.578947368421" cy="70.86000000000001" r="3.5" fill="#1f77b4"><title>Overall: 9.1 2026-05-07-b22a3a2</title></circle>
<circle cx="694.9473684210526" cy="70.86000000000001" r="3.5" fill="#1f77b4"><title>Overall: 9.1 2026-05-07-53d37a8</title></circle>
<circle cx="718.3157894736842" cy="70.86000000000001" r="3.5" fill="#1f77b4"><title>Overall: 9.1 2026-05-07-fb2f674</title></circle>
<circle cx="741.6842105263158" cy="70.86000000000001" r="3.5" fill="#1f77b4"><title>Overall: 9.1 2026-05-07-2aeaafa</title></circle>
<circle cx="765.0526315789474" cy="70.86000000000001" r="3.5" fill="#1f77b4"><title>Overall: 9.1 2026-05-07-bfcc311</title></circle>
<circle cx="788.421052631579" cy="70.86000000000001" r="3.5" fill="#1f77b4"><title>Overall: 9.1 2026-05-07-4f2fafe</title></circle>
<circle cx="811.7894736842105" cy="70.86000000000001" r="3.5" fill="#1f77b4"><title>Overall: 9.1 2026-05-08-8f0dde1</title></circle>
<circle cx="835.1578947368421" cy="70.86000000000001" r="3.5" fill="#1f77b4"><title>Overall: 9.1 2026-05-08-50be6cf</title></circle>
<circle cx="858.5263157894736" cy="68.32000000000002" r="3.5" fill="#1f77b4"><title>Overall: 9.2 2026-05-08-dfb47de</title></circle>
<circle cx="881.8947368421052" cy="70.86000000000001" r="3.5" fill="#1f77b4"><title>Overall: 9.1 2026-05-08-577ed6f</title></circle>
<circle cx="905.2631578947368" cy="65.78" r="3.5" fill="#1f77b4"><title>Overall: 9.3 2026-05-08-cfa8497</title></circle>
<circle cx="928.6315789473684" cy="73.4" r="3.5" fill="#1f77b4"><title>Overall: 9 2026-05-09-4874ced4</title></circle>
<circle cx="952" cy="70.86000000000001" r="3.5" fill="#1f77b4"><title>Overall: 9.1 2026-05-09-29a80ab4</title></circle>
<rect x="64" y="332" width="12" height="12" fill="#1f77b4"/>
<text x="82" y="342" font-family="Arial, sans-serif" font-size="12">Overall</text>
<polyline points="64,114.03999999999999 87.36842105263158,101.34 110.73684210526315,93.72 134.10526315789474,93.72 157.4736842105263,91.17999999999998 180.8421052631579,88.63999999999999 204.21052631578948,91.17999999999998 227.57894736842104,88.63999999999999 250.94736842105263,88.63999999999999 274.31578947368416,88.63999999999999 297.6842105263158,88.63999999999999 321.0526315789474,88.63999999999999 344.42105263157896,88.63999999999999 367.7894736842105,88.63999999999999 391.1578947368421,88.63999999999999 414.5263157894737,88.63999999999999 437.89473684210526,86.1 461.2631578947368,86.1 484.6315789473684,86.1 508,91.17999999999998 531.3684210526316,88.63999999999999" fill="none" stroke="#2ca02c" stroke-width="2.5"/>
<circle cx="64" cy="114.03999999999999" r="3.5" fill="#2ca02c"><title>Level arc: 7.4 2026-05-07-cf7b7d2</title></circle>
<circle cx="87.36842105263158" cy="101.34" r="3.5" fill="#2ca02c"><title>Level arc: 7.9 2026-05-07-b22a3a2</title></circle>
<circle cx="110.73684210526315" cy="93.72" r="3.5" fill="#2ca02c"><title>Level arc: 8.2 2026-05-07-53d37a8</title></circle>
<circle cx="134.10526315789474" cy="93.72" r="3.5" fill="#2ca02c"><title>Level arc: 8.2 2026-05-07-fb2f674</title></circle>
<circle cx="157.4736842105263" cy="91.17999999999998" r="3.5" fill="#2ca02c"><title>Level arc: 8.3 2026-05-07-2aeaafa</title></circle>
<circle cx="180.8421052631579" cy="88.63999999999999" r="3.5" fill="#2ca02c"><title>Level arc: 8.4 2026-05-07-bfcc311</title></circle>
<circle cx="204.21052631578948" cy="91.17999999999998" r="3.5" fill="#2ca02c"><title>Level arc: 8.3 2026-05-07-4f2fafe</title></circle>
<circle cx="227.57894736842104" cy="88.63999999999999" r="3.5" fill="#2ca02c"><title>Level arc: 8.4 2026-05-08-8f0dde1</title></circle>
<circle cx="250.94736842105263" cy="88.63999999999999" r="3.5" fill="#2ca02c"><title>Level arc: 8.4 2026-05-08-50be6cf</title></circle>
<circle cx="274.31578947368416" cy="88.63999999999999" r="3.5" fill="#2ca02c"><title>Level arc: 8.4 2026-05-08-5fdd723</title></circle>
<circle cx="297.6842105263158" cy="88.63999999999999" r="3.5" fill="#2ca02c"><title>Level arc: 8.4 2026-05-08-d8240f0</title></circle>
<circle cx="321.0526315789474" cy="88.63999999999999" r="3.5" fill="#2ca02c"><title>Level arc: 8.4 2026-05-08-dfb47de</title></circle>
<circle cx="344.42105263157896" cy="88.63999999999999" r="3.5" fill="#2ca02c"><title>Level arc: 8.4 2026-05-08-577ed6f</title></circle>
<circle cx="367.7894736842105" cy="88.63999999999999" r="3.5" fill="#2ca02c"><title>Level arc: 8.4 2026-05-08-acc8b71</title></circle>
<circle cx="391.1578947368421" cy="88.63999999999999" r="3.5" fill="#2ca02c"><title>Level arc: 8.4 2026-05-08-d94f1e0</title></circle>
<circle cx="414.5263157894737" cy="88.63999999999999" r="3.5" fill="#2ca02c"><title>Level arc: 8.4 2026-05-08-fdcefbe</title></circle>
<circle cx="437.89473684210526" cy="86.1" r="3.5" fill="#2ca02c"><title>Level arc: 8.5 2026-05-08-72e823c</title></circle>
<circle cx="461.2631578947368" cy="86.1" r="3.5" fill="#2ca02c"><title>Level arc: 8.5 2026-05-08-cfa8497</title></circle>
<circle cx="484.6315789473684" cy="86.1" r="3.5" fill="#2ca02c"><title>Level arc: 8.5 2026-05-09-5da7d96</title></circle>
<circle cx="508" cy="91.17999999999998" r="3.5" fill="#2ca02c"><title>Level arc: 8.3 2026-05-09-4874ced4</title></circle>
<circle cx="531.3684210526316" cy="88.63999999999999" r="3.5" fill="#2ca02c"><title>Level arc: 8.4 2026-05-09-29a80ab4</title></circle>
<rect x="274" y="332" width="12" height="12" fill="#2ca02c"/>
<text x="292" y="342" font-family="Arial, sans-serif" font-size="12">Level arc</text>
<polyline points="64,101.34 87.36842105263158,154.68 110.73684210526315,147.06 134.10526315789474,139.44 157.4736842105263,129.28000000000003 180.8421052631579,131.82" fill="none" stroke="#d62728" stroke-width="2.5"/>
<circle cx="64" cy="101.34" r="3.5" fill="#d62728"><title>Stage signature: 7.9 2026-05-07-b22a3a2</title></circle>
<circle cx="87.36842105263158" cy="154.68" r="3.5" fill="#d62728"><title>Stage signature: 5.8 2026-05-07-53d37a8</title></circle>
<circle cx="110.73684210526315" cy="147.06" r="3.5" fill="#d62728"><title>Stage signature: 6.1 2026-05-07-fb2f674</title></circle>
<circle cx="134.10526315789474" cy="139.44" r="3.5" fill="#d62728"><title>Stage signature: 6.4 2026-05-07-2aeaafa</title></circle>
<circle cx="157.4736842105263" cy="129.28000000000003" r="3.5" fill="#d62728"><title>Stage signature: 6.8 2026-05-08-8f0dde1</title></circle>
<circle cx="180.8421052631579" cy="131.82" r="3.5" fill="#d62728"><title>Stage signature: 6.7 2026-05-09-5da7d96</title></circle>
<rect x="484" y="332" width="12" height="12" fill="#d62728"/>
<text x="502" y="342" font-family="Arial, sans-serif" font-size="12">Stage signature</text>
<polyline points="64,217.34179999999998 87.36842105263158,302 110.73684210526315,302 134.10526315789474,302 157.4736842105263,302 180.8421052631579,217.34179999999998 204.21052631578948,302 227.57894736842104,302" fill="none" stroke="#9467bd" stroke-width="2.5"/>
<circle cx="64" cy="217.34179999999998" r="3.5" fill="#9467bd"><title>Stage 4 exact replay: 3.333 2026-05-06-6d7e05b</title></circle>
<circle cx="87.36842105263158" cy="302" r="3.5" fill="#9467bd"><title>Stage 4 exact replay: 0 2026-05-06-5e835eb</title></circle>
<circle cx="110.73684210526315" cy="302" r="3.5" fill="#9467bd"><title>Stage 4 exact replay: 0 2026-05-07-b3bbb9c</title></circle>
<circle cx="134.10526315789474" cy="302" r="3.5" fill="#9467bd"><title>Stage 4 exact replay: 0 2026-05-07-fb2f674</title></circle>
<circle cx="157.4736842105263" cy="302" r="3.5" fill="#9467bd"><title>Stage 4 exact replay: 0 2026-05-07-2aeaafa</title></circle>
<circle cx="180.8421052631579" cy="217.34179999999998" r="3.5" fill="#9467bd"><title>Stage 4 exact replay: 3.333 2026-05-07-bfcc311</title></circle>
<circle cx="204.21052631578948" cy="302" r="3.5" fill="#9467bd"><title>Stage 4 exact replay: 0 2026-05-07-13704be</title></circle>
<circle cx="227.57894736842104" cy="302" r="3.5" fill="#9467bd"><title>Stage 4 exact replay: 0 2026-05-07-4f2fafe</title></circle>
<rect x="694" y="332" width="12" height="12" fill="#9467bd"/>
<text x="712" y="342" font-family="Arial, sans-serif" font-size="12">Stage 4 exact replay</text>
<text x="64" y="322" text-anchor="middle" font-family="Arial, sans-serif" font-size="11">2026-04-22-22221ed</text>
<text x="227.57894736842104" y="322" text-anchor="middle" font-family="Arial, sans-serif" font-size="11">2026-04-23-eda2821</text>
<text x="391.1578947368421" y="322" text-anchor="middle" font-family="Arial, sans-serif" font-size="11">2026-05-02-7ef349b</text>
<text x="554.7368421052631" y="322" text-anchor="middle" font-family="Arial, sans-serif" font-size="11">2026-05-07-f40a531</text>
<text x="718.3157894736842" y="322" text-anchor="middle" font-family="Arial, sans-serif" font-size="11">2026-05-07-fb2f674</text>
<text x="881.8947368421052" y="322" text-anchor="middle" font-family="Arial, sans-serif" font-size="11">2026-05-08-577ed6f</text>
<text x="952" y="322" text-anchor="middle" font-family="Arial, sans-serif" font-size="11">2026-05-09-29a80ab4</text>
</svg>
