<svg xmlns="http://www.w3.org/2000/svg" width="760" height="300" viewBox="0 0 760 300" role="img" aria-labelledby="title desc">
  <title id="title">Challenging Stage 7 (27-28) object-track and shot-opportunity sketch</title>
  <desc id="desc">Readable object tracks from runtime challenge sprite silhouettes plus sampled player shot opportunity lanes.</desc>
  <style>
    .bg{fill:#06111d}.panel{fill:#0d1b2a;stroke:#2e5d78;stroke-width:2}.grid{stroke:#1b3344;stroke-width:1}.text{fill:#f2fbff;font:700 20px ui-monospace,Menlo,monospace}.small{fill:#b8d7ec;font:700 13px ui-monospace,Menlo,monospace}.tiny{fill:#9ec9e6;font:11px ui-monospace,Menlo,monospace}.pill{fill:#102a3b;stroke:#2e5d78}
  </style>
  <rect class="bg" x="0" y="0" width="760" height="300"/>
  <text class="text" x="24" y="34">Challenging Stage 7 (27-28)</text>
  <rect class="pill" x="482" y="14" width="254" height="32" rx="16"/>
  <text class="small" x="498" y="35">5.1/10 shot opportunity</text>
  <rect class="panel" x="36" y="56" width="456" height="210" rx="10"/>
  <rect class="panel" x="548" y="56" width="176" height="210" rx="10"/>
  <text class="small" x="56" y="82">Object-tracked silhouette paths</text>
  <text class="small" x="568" y="82">Shot-lane hits</text>
  <line class="grid" x1="50" y1="92" x2="50" y2="244"/><line class="grid" x1="136" y1="92" x2="136" y2="244"/><line class="grid" x1="222" y1="92" x2="222" y2="244"/><line class="grid" x1="308" y1="92" x2="308" y2="244"/><line class="grid" x1="394" y1="92" x2="394" y2="244"/>
  <line class="grid" x1="50" y1="100" x2="480" y2="100"/><line class="grid" x1="50" y1="142" x2="480" y2="142"/><line class="grid" x1="50" y1="184" x2="480" y2="184"/><line class="grid" x1="50" y1="226" x2="480" y2="226"/>
  <polyline points="46.2,98 92.8,105.5 139.4,113.1 186.1,120.7 232.6,128.2 279.3,135.8 325.8,143.3 372.5,150.9 187.6,110.4 245.2,124 302.8,137.6 360.4,151.2 418,164.8 475.5,178.4" fill="none" stroke="#78f7ff" stroke-width="4" stroke-linecap="round" stroke-linejoin="round"/><circle cx="46.2" cy="98" r="5" fill="#78f7ff"/><text class="tiny" x="500" y="96" fill="#78f7ff">crown yellow-diagonal-fan 14f</text>
  <polyline points="457,113.4 406.7,120.2 356.5,127 306.2,133.7 255.9,140.4 205.6,147.2 489.4,107.9 431.6,120.1 373.7,132.4 316,144.7 258.1,157 200.3,169.2 142.4,181.5 84.7,193.8" fill="none" stroke="#ffd36a" stroke-width="4" stroke-linecap="round" stroke-linejoin="round"/><circle cx="457" cy="113.4" r="5" fill="#ffd36a"/><text class="tiny" x="500" y="120" fill="#ffd36a">crown yellow-diagonal-fan 14f</text>
  <polyline points="70,119.5 120.3,126.4 170.9,133.1 221.4,139.9 271.8,146.7 322.3,153.4 38.5,113.9 96.5,126.3 154.4,138.6 212.5,150.9 270.7,163.2 328.6,175.5 386.6,187.9 444.7,200.2" fill="none" stroke="#ff7bd5" stroke-width="4" stroke-linecap="round" stroke-linejoin="round"/><circle cx="70" cy="119.5" r="5" fill="#ff7bd5"/><text class="tiny" x="500" y="144" fill="#ff7bd5">crown yellow-diagonal-fan 14f</text>
  <polyline points="483.8,104.5 437,112.1 390.2,119.7 343.5,127.3 296.6,134.8 249.8,142.5 203,150.1 156.3,157.6 340.6,117.4 282.7,131.1 224.9,144.7 167,158.3 109.3,172 51.4,185.6" fill="none" stroke="#8cffb4" stroke-width="4" stroke-linecap="round" stroke-linejoin="round"/><circle cx="483.8" cy="104.5" r="5" fill="#8cffb4"/><text class="tiny" x="500" y="168" fill="#8cffb4">crown yellow-diagonal-fan 14f</text>
  <polyline points="70.4,132.7 121.3,139.5 172.2,146.4 223.1,153.2 273.9,160 324.7,166.9 41.7,127.8 100.2,140.2 158.7,152.6 217.2,165 275.8,177.4 334.3,189.8 392.8,202.2 451.3,214.6" fill="none" stroke="#b08cff" stroke-width="4" stroke-linecap="round" stroke-linejoin="round"/><circle cx="70.4" cy="132.7" r="5" fill="#b08cff"/><text class="tiny" x="500" y="192" fill="#b08cff">crown yellow-diagonal-fan 14f</text>
  <rect x="586" y="178.3" width="12" height="43.7" rx="3" fill="#ffd36a"/><text class="tiny" x="582" y="242">32</text>
  <rect x="606" y="154.8" width="12" height="67.2" rx="3" fill="#ffd36a"/><text class="tiny" x="602" y="242">68</text>
  <rect x="626" y="148.1" width="12" height="73.9" rx="3" fill="#ffd36a"/><text class="tiny" x="622" y="242">104</text>
  <rect x="646" y="138" width="12" height="84" rx="3" fill="#ffd36a"/><text class="tiny" x="642" y="242">140</text>
  <rect x="666" y="144.7" width="12" height="77.3" rx="3" fill="#ffd36a"/><text class="tiny" x="662" y="242">176</text>
  <rect x="686" y="158.2" width="12" height="63.8" rx="3" fill="#ffd36a"/><text class="tiny" x="682" y="242">212</text>
  <rect x="706" y="178.3" width="12" height="43.7" rx="3" fill="#ffd36a"/><text class="tiny" x="702" y="242">248</text>
  <text class="tiny" x="56" y="260">Silhouette: 5/10; 20 tracks, 210 crops.</text>
  <text class="tiny" x="568" y="260">Lane diversity 1; center bias 0.185.</text>
</svg>
