<svg xmlns="http://www.w3.org/2000/svg" width="640" height="520" viewBox="0 0 640 520">
  <rect width="100%" height="100%" fill="#091018"/>
  <text x="24" y="18" fill="#eef3f6" font-family="monospace" font-size="13">stage-1-baseline path/slot extraction</text>
  <rect x="24" y="24" width="560" height="448" fill="none" stroke="#31404d"/>
  <path d="M-17.8,-136.0 L-17.8,-136.0 L-17.8,-136.0 L-17.8,-136.0 L-17.8,-136.0 L-17.8,-136.0 L-17.8,-136.0 L-17.8,-136.0 L-17.8,-136.0 L-17.8,-136.0 L-17.8,-136.0 L-17.8,-136.0 L-17.8,-136.0 L-17.8,-136.0 L-17.8,-136.0 L-17.8,-136.0 L-17.8,-136.0 L-17.8,-136.0 L-17.8,-136.0 L-17.8,-136.0 L16.9,-103.8 L272.1,24.7 L296.1,27.8 L136.9,15.5 L97.0,45.3 L218.9,94.7 L282.0,115.2 L212.3,97.6 L156.3,74.2 L186.1,71.5 L218.5,82.0 L213.6,86.7 L206.9,86.3 L205.3,86.2 L205.2,86.2 L205.3,86.3 L205.5,86.3 L205.7,86.3 L205.8,86.3 L206.0,86.3 L206.2,86.3 L206.4,86.3 L206.5,86.3 L206.7,86.4 L206.9,86.4 L207.1,86.4 L207.2,86.4 L207.4,86.4 L207.5,86.4 L207.8,86.4 L208.0,86.4 L208.1,86.4 L208.3,86.5 L208.4,86.5 L208.6,86.5 L208.8,86.5 L209.0,86.5 L209.1,86.5 L209.3,86.5 L209.4,86.5 L209.5,86.5 L209.7,86.5 L209.9,86.6 L210.1,86.6 L210.2,86.6 L210.4,86.6 L210.6,86.6 L210.7,86.6 L210.8,86.6 L211.0,86.6 L211.1,86.6 L211.3,86.6 L211.4,86.6 L211.5,86.6 L211.7,86.6 L211.8,86.7 L212.0,86.7 L212.1,86.7 L212.2,86.7 L212.4,86.7 L212.6,86.7 L212.7,86.7 L212.8,86.7 L213.0,86.7 L213.1,86.7 L213.2,86.7 L213.4,86.7 L213.6,86.7 L213.7,86.7 L213.8,86.7 L213.9,86.7 L214.1,86.7 L214.2,86.7 L214.3,86.7 L214.6,86.8 L214.7,86.8 L214.8,86.8" fill="none" stroke="#9be564" stroke-width="1.3" opacity="0.82"><title>regular:regular:969422282 but</title></path>
  <path d="M326.5,-136.0 L326.5,-136.0 L326.5,-136.0 L326.5,-136.0 L326.5,-136.0 L326.5,-136.0 L326.5,-136.0 L326.5,-136.0 L326.5,-136.0 L326.5,-136.0 L326.5,-136.0 L326.5,-136.0 L326.5,-136.0 L326.5,-136.0 L326.5,-136.0 L304.7,-123.8 L187.1,31.5 L329.2,106.6 L372.4,95.2 L230.4,54.2 L144.8,46.3 L222.7,77.0 L298.8,106.0 L263.1,105.3 L210.4,87.9 L218.3,79.3 L235.9,82.2 L237.3,85.5 L237.8,86.5 L238.0,86.7 L238.2,86.7 L238.5,86.7 L238.6,86.7 L238.8,86.7 L239.1,86.7 L239.3,86.7 L239.5,86.7 L239.7,86.7 L239.8,86.7 L240.0,86.7 L240.2,86.7 L240.4,86.7 L240.5,86.7 L240.7,86.7 L240.9,86.7 L241.1,86.7 L241.2,86.7 L241.4,86.7 L241.5,86.7 L241.8,86.6 L242.0,86.6 L242.1,86.6 L242.3,86.6 L242.4,86.6 L242.6,86.6 L242.8,86.6 L243.0,86.6 L243.1,86.6 L243.3,86.6 L243.4,86.6 L243.5,86.6 L243.7,86.5 L243.9,86.5 L244.1,86.5 L244.2,86.5 L244.4,86.5 L244.6,86.5 L244.7,86.5 L244.8,86.5 L245.0,86.5 L245.1,86.5 L245.3,86.4 L245.4,86.4 L245.5,86.4 L245.7,86.4 L245.8,86.4 L246.0,86.4 L246.1,86.4 L246.2,86.4 L246.4,86.4 L246.6,86.4 L246.7,86.3 L246.8,86.3 L247.0,86.3 L247.1,86.3 L247.2,86.3 L247.4,86.3 L247.6,86.3 L247.7,86.3 L247.8,86.2 L247.9,86.2 L248.1,86.2 L248.2,86.2 L248.3,86.2 L248.6,86.2 L248.7,86.2 L248.8,86.1" fill="none" stroke="#9be564" stroke-width="1.3" opacity="0.82"><title>regular:regular:684708567 but</title></path>
  <path d="M-53.2,-136.0 L-53.2,-136.0 L-53.2,-136.0 L-53.2,-136.0 L-53.2,-136.0 L-53.2,-136.0 L-53.2,-136.0 L-53.2,-136.0 L-53.2,-136.0 L-53.2,-136.0 L-27.9,-129.9 L83.4,-69.1 L41.4,-0.3 L170.9,79.8 L339.5,119.0 L326.2,100.8 L217.0,66.0 L209.7,58.7 L284.2,78.5 L305.8,95.5 L274.2,94.6 L264.2,88.5 L269.1,86.3 L270.6,85.6 L271.1,85.5 L271.4,85.4 L271.6,85.4 L271.7,85.4 L271.9,85.4 L272.1,85.4 L272.2,85.3 L272.5,85.3 L272.6,85.3 L278.0,92.3 L308.2,146.9 L345.1,220.3 L386.3,312.4 L419.2,423.3 L450.8,552.9 L491.2,701.3 L274.2,-0.9 L274.3,47.3 L274.5,68.5 L274.6,79.4 L274.9,83.8 L275.1,84.8 L275.2,84.9 L275.4,84.9 L275.5,84.9 L275.8,84.9 L276.0,84.9 L276.1,84.8 L276.3,84.8 L276.4,84.8 L276.6,84.8 L276.8,84.8 L277.0,84.7 L277.1,84.7 L277.3,84.7 L277.4,84.7 L277.5,84.6 L277.7,84.6 L277.9,84.6 L278.1,84.6 L278.2,84.5 L278.4,84.5 L278.6,84.5 L278.7,84.5 L278.8,84.4 L279.0,84.4 L279.1,84.4 L279.3,84.4 L279.4,84.3 L279.5,84.3 L279.7,84.3 L279.8,84.3 L280.0,84.3 L280.1,84.2 L280.2,84.2 L280.4,84.2 L280.6,84.1 L280.7,84.1 L280.8,84.1 L281.0,84.1 L281.1,84.0 L281.2,84.0 L281.4,84.0 L281.6,84.0 L281.7,83.9 L281.8,83.9 L281.9,83.9 L282.1,83.9 L282.2,83.8 L282.3,83.8 L282.6,83.8 L282.7,83.7 L282.8,83.7" fill="none" stroke="#9be564" stroke-width="1.3" opacity="0.82"><title>regular:regular:54585824 but</title></path>
  <path d="M12.8,-136.0 L12.8,-136.0 L12.8,-136.0 L12.8,-136.0 L12.8,-136.0 L12.8,-136.0 L43.1,-76.3 L272.1,60.6 L417.9,76.9 L317.3,41.9 L197.9,32.8 L255.7,66.7 L362.4,102.9 L348.7,105.9 L277.5,85.1 L271.5,71.6 L303.6,74.9 L308.7,80.1 L305.0,82.1 L304.4,82.6 L304.4,82.6 L304.6,82.6 L304.8,82.6 L305.0,82.6 L305.2,82.5 L305.4,82.5 L305.6,82.5 L305.7,82.4 L305.9,82.4 L306.1,82.4 L306.2,82.4 L306.5,82.3 L306.6,82.3 L306.8,82.2 L307.1,82.2 L307.3,82.2 L307.5,82.1 L307.7,82.1 L307.8,82.1 L308.0,82.0 L308.2,82.0 L308.4,82.0 L308.5,81.9 L308.7,81.9 L308.9,81.9 L309.1,81.8 L309.2,81.8 L309.4,81.8 L309.5,81.8 L309.8,81.7 L310.0,81.7 L310.1,81.6 L310.3,81.6 L310.4,81.6 L310.6,81.6 L310.8,81.5 L311.0,81.5 L311.1,81.4 L311.3,81.4 L311.4,81.4 L311.5,81.4 L311.7,81.3 L311.9,81.3 L312.1,81.3 L312.2,81.2 L312.4,81.2 L312.6,81.2 L312.7,81.1 L312.8,81.1 L313.0,81.1 L313.1,81.0 L313.3,81.0 L313.4,81.0 L313.5,80.9 L313.7,80.9 L313.8,80.9 L314.0,80.9 L314.1,80.8 L314.2,80.8 L314.4,80.8 L314.6,80.7 L314.7,80.7 L305.7,97.9 L287.3,154.1 L263.2,229.0 L233.6,322.7 L211.7,435.1 L192.5,566.3 L164.7,716.2 L315.9,2.4 L315.9,46.1 L316.0,65.3 L316.2,75.7 L316.3,79.4 L316.6,80.1 L316.7,80.2 L316.8,80.2" fill="none" stroke="#ff6b6b" stroke-width="2.2" opacity="0.82"><title>regular:regular:955225200 boss</title></path>
  <path d="M434.7,-136.0 L355.9,-89.4 L309.0,50.0 L456.5,104.2 L452.1,79.9 L298.8,41.7 L249.1,43.3 L344.2,77.4 L398.7,101.2 L348.0,94.8 L306.3,77.5 L322.5,71.9 L335.3,75.4 L336.6,78.4 L337.0,79.0 L337.3,79.2 L337.5,79.1 L337.7,79.1 L337.9,79.1 L338.2,79.0 L338.4,79.0 L338.6,79.0 L338.8,78.9 L339.0,78.9 L339.2,78.9 L339.4,78.8 L339.6,78.8 L339.7,78.8 L339.9,78.7 L340.1,78.7 L340.2,78.7 L340.5,78.6 L340.6,78.6 L340.8,78.6 L341.1,78.5 L341.3,78.5 L341.5,78.4 L341.7,78.4 L341.8,78.4 L342.0,78.3 L342.2,78.3 L342.4,78.3 L342.5,78.2 L342.7,78.2 L342.9,78.2 L343.1,78.1 L343.2,78.1 L343.4,78.1 L343.5,78.1 L343.8,78.0 L344.0,78.0 L344.1,78.0 L344.3,77.9 L344.4,77.9 L344.6,77.9 L344.8,77.8 L345.0,77.8 L345.1,77.8 L345.3,77.7 L345.4,77.7 L345.5,77.7 L345.7,77.7 L345.9,77.6 L346.1,77.6 L346.2,77.5 L346.4,77.5 L346.6,77.5 L346.7,77.5 L346.8,77.4 L347.0,77.4 L347.1,77.4 L347.3,77.3 L347.4,77.3 L347.5,77.3 L347.7,77.3 L347.8,77.2 L348.0,77.2 L348.1,77.2 L348.2,77.2 L348.4,77.1 L348.6,77.1 L348.7,77.0 L348.8,77.0 L349.0,77.0 L349.1,77.0 L349.2,76.9 L349.4,76.9 L349.6,76.9 L349.7,76.8 L349.8,76.8 L349.9,76.8 L350.1,76.8 L350.2,76.7 L350.3,76.7 L350.6,76.7 L350.7,76.6 L350.8,76.6" fill="none" stroke="#ff6b6b" stroke-width="2.2" opacity="0.82"><title>regular:regular:204165053 boss</title></path>
  <path d="M319.4,-136.0 L319.4,-136.0 L319.4,-136.0 L319.4,-136.0 L478.7,-49.5 L402.9,-31.6 L249.7,-4.2 L293.5,56.0 L433.9,102.6 L439.6,100.7 L341.8,70.6 L316.9,54.3 L372.2,63.9 L396.0,78.3 L379.3,80.7 L373.4,77.5 L371.9,76.1 L371.8,75.8 L371.9,75.7 L372.2,75.7 L372.4,75.6 L372.6,75.6 L372.8,75.6 L373.0,75.5 L373.2,75.5 L373.4,75.5 L373.6,75.5 L373.7,75.4 L373.9,75.4 L374.1,75.4 L374.2,75.4 L374.5,75.3 L374.6,75.3 L374.8,75.3 L375.1,75.3 L375.3,75.2 L375.5,75.2 L375.7,75.2 L375.8,75.2 L376.0,75.1 L376.2,75.1 L376.4,75.1 L376.5,75.1 L376.7,75.1 L376.9,75.0 L377.1,75.0 L377.2,75.0 L377.4,75.0 L377.5,74.9 L377.8,74.9 L378.0,74.9 L378.1,74.9 L378.3,74.8 L378.4,74.8 L378.6,74.8 L378.8,74.8 L379.0,74.8 L379.1,74.7 L379.3,74.7 L379.4,74.7 L379.5,74.7 L379.7,74.7 L379.9,74.6 L380.1,74.6 L380.2,74.6 L380.4,74.6 L380.6,74.6 L380.7,74.5 L380.8,74.5 L381.0,74.5 L381.1,74.5 L381.3,74.5 L381.4,74.4 L381.5,74.4 L381.7,74.4 L381.8,74.4 L382.0,74.4 L382.1,74.4 L382.2,74.3 L382.4,74.3 L382.6,74.3 L382.7,74.3 L382.8,74.3 L383.0,74.2 L383.1,74.2 L383.2,74.2 L383.4,74.2 L383.6,74.2 L383.7,74.2 L383.8,74.1 L383.9,74.1 L384.1,74.1 L384.2,74.1 L384.3,74.1 L384.6,74.1 L384.7,74.0 L384.8,74.0" fill="none" stroke="#ff6b6b" stroke-width="2.2" opacity="0.82"><title>regular:regular:430616322 boss</title></path>
  <path d="M640.4,-136.0 L640.4,-136.0 L640.4,-136.0 L640.4,-136.0 L640.4,-136.0 L640.4,-136.0 L640.4,-136.0 L640.4,-136.0 L640.4,-136.0 L657.0,-57.0 L482.6,-37.9 L305.5,-3.4 L354.1,60.1 L484.2,102.8 L470.4,95.7 L369.7,64.7 L354.8,51.3 L412.9,63.2 L431.7,77.4 L413.0,78.7 L408.0,75.3 L406.9,73.9 L406.9,73.6 L407.0,73.5 L407.2,73.5 L407.4,73.5 L407.6,73.5 L407.7,73.5 L407.9,73.5 L408.1,73.5 L408.2,73.5 L408.5,73.4 L408.6,73.4 L408.8,73.4 L409.1,73.4 L409.3,73.4 L409.5,73.4 L409.7,73.4 L409.8,73.4 L410.0,73.4 L410.2,73.4 L410.4,73.4 L410.5,73.3 L410.7,73.3 L410.9,73.3 L411.1,73.3 L411.2,73.3 L411.4,73.3 L411.5,73.3 L411.8,73.3 L412.0,73.3 L412.1,73.3 L412.3,73.3 L412.4,73.3 L412.6,73.3 L412.8,73.3 L413.0,73.3 L413.1,73.3 L413.3,73.3 L413.4,73.3 L413.5,73.3 L413.7,73.2 L413.9,73.2 L414.1,73.2 L414.2,73.2 L414.4,73.2 L414.6,73.2 L414.7,73.2 L414.8,73.2 L415.0,73.2 L415.1,73.2 L415.3,73.2 L415.4,73.2 L415.5,73.2 L415.7,73.2 L415.8,73.2 L416.0,73.2 L416.1,73.2 L416.2,73.2 L416.4,73.2 L416.6,73.2 L416.7,73.2 L416.8,73.2 L417.0,73.2 L417.1,73.2 L417.2,73.2 L417.4,73.2 L417.6,73.2 L417.7,73.2 L417.8,73.2 L417.9,73.2 L418.1,73.2 L418.2,73.2 L418.3,73.2 L418.6,73.2 L418.7,73.2 L418.8,73.2" fill="none" stroke="#ff6b6b" stroke-width="2.2" opacity="0.82"><title>regular:regular:808136305 boss</title></path>
  <path d="M357.3,-136.0 L357.3,-136.0 L357.3,-136.0 L357.3,-136.0 L357.3,-136.0 L357.3,-136.0 L357.3,-136.0 L357.3,-136.0 L357.3,-136.0 L357.3,-136.0 L357.3,-136.0 L357.3,-136.0 L357.3,-136.0 L483.1,-80.7 L444.8,-49.7 L303.1,-12.6 L353.8,53.7 L503.0,101.4 L512.1,97.5 L410.1,65.6 L382.8,49.7 L442.5,61.3 L469.8,77.3 L449.5,79.9 L442.3,76.2 L441.6,74.0 L441.6,73.5 L441.7,73.5 L441.9,73.4 L442.1,73.5 L442.2,73.5 L442.5,73.5 L442.6,73.5 L442.8,73.5 L443.1,73.5 L443.3,73.5 L443.5,73.5 L443.7,73.5 L443.8,73.5 L444.0,73.6 L429.1,85.1 L373.0,140.0 L325.5,213.7 L277.9,306.1 L221.8,417.3 L168.8,547.3 L123.2,696.0 L445.4,-3.6 L445.5,39.7 L445.7,58.7 L445.9,69.1 L446.1,72.7 L446.3,73.5 L446.4,73.7 L446.6,73.7 L446.8,73.8 L447.0,73.8 L447.1,73.8 L447.3,73.8 L447.4,73.8 L447.5,73.8 L447.7,73.8 L447.9,73.8 L448.1,73.9 L448.2,73.9 L448.4,73.9 L448.6,73.9 L448.7,73.9 L448.8,73.9 L449.0,73.9 L449.1,74.0 L449.3,74.0 L449.4,74.0 L449.5,74.0 L449.7,74.0 L449.8,74.0 L450.0,74.0 L450.1,74.1 L450.2,74.1 L450.4,74.1 L450.6,74.1 L450.7,74.1 L450.8,74.1 L451.0,74.2 L451.1,74.2 L451.2,74.2 L451.4,74.2 L451.6,74.2 L451.7,74.2 L451.8,74.3 L451.9,74.3 L452.1,74.3 L452.2,74.3 L452.3,74.3 L452.6,74.4 L452.7,74.4 L452.8,74.4" fill="none" stroke="#9be564" stroke-width="1.3" opacity="0.82"><title>regular:regular:930021182 but</title></path>
  <path d="M254.6,-136.0 L254.6,-136.0 L254.6,-136.0 L254.6,-136.0 L254.6,-136.0 L254.6,-136.0 L254.6,-136.0 L254.6,-136.0 L254.6,-136.0 L254.6,-136.0 L254.6,-136.0 L254.6,-136.0 L254.6,-136.0 L254.6,-136.0 L254.6,-136.0 L254.6,-136.0 L254.6,-136.0 L254.6,-136.0 L452.8,-41.4 L562.2,-6.1 L421.5,-9.6 L348.9,23.2 L464.3,78.6 L558.0,105.7 L500.8,89.7 L425.6,62.9 L446.3,57.4 L491.7,69.8 L490.6,78.0 L480.8,76.9 L477.2,75.7 L476.7,75.5 L476.7,75.5 L476.8,75.5 L477.1,75.5 L477.3,75.5 L477.5,75.6 L477.7,75.6 L477.8,75.6 L478.0,75.6 L478.2,75.7 L478.4,75.7 L478.5,75.7 L478.7,75.7 L478.9,75.8 L479.1,75.8 L479.2,75.8 L479.4,75.8 L479.5,75.9 L479.8,75.9 L480.0,75.9 L480.1,76.0 L480.3,76.0 L480.4,76.0 L480.6,76.0 L480.8,76.1 L481.0,76.1 L481.1,76.1 L481.3,76.2 L481.4,76.2 L481.5,76.2 L481.7,76.2 L481.9,76.3 L482.1,76.3 L482.2,76.3 L482.4,76.3 L482.6,76.4 L482.7,76.4 L482.8,76.4 L483.0,76.5 L483.1,76.5 L483.3,76.5 L483.4,76.5 L483.5,76.6 L483.7,76.6 L483.8,76.6 L484.0,76.6 L484.1,76.7 L484.2,76.7 L484.4,76.7 L484.6,76.8 L484.7,76.8 L484.8,76.8 L485.0,76.8 L485.1,76.9 L485.2,76.9 L485.4,76.9 L485.6,77.0 L485.7,77.0 L485.8,77.0 L485.9,77.0 L486.1,77.1 L486.2,77.1 L486.3,77.1 L486.6,77.2 L486.7,77.2 L486.8,77.2" fill="none" stroke="#9be564" stroke-width="1.3" opacity="0.82"><title>regular:regular:134545206 but</title></path>
  <path d="M128.8,-136.0 L128.8,-136.0 L128.8,-136.0 L128.8,-136.0 L128.8,-136.0 L128.8,-136.0 L128.8,-136.0 L128.8,-136.0 L128.8,-136.0 L128.8,-136.0 L128.8,-136.0 L128.8,-136.0 L128.8,-136.0 L128.8,-136.0 L128.8,-136.0 L128.8,-136.0 L128.8,-136.0 L128.8,-136.0 L128.8,-136.0 L128.8,-136.0 L128.8,-136.0 L128.8,-136.0 L128.8,-136.0 L162.1,-40.5 L351.7,72.3 L573.6,109.0 L573.8,78.0 L442.5,41.8 L429.3,46.8 L529.9,79.7 L565.6,99.4 L512.4,91.5 L483.8,76.5 L501.0,73.3 L508.6,76.6 L510.8,78.4 L511.4,78.8 L511.6,78.9 L511.8,79.0 L512.0,79.0 L512.2,79.0 L512.4,79.1 L512.5,79.1 L512.7,79.1 L512.9,79.2 L513.1,79.2 L513.2,79.2 L513.4,79.3 L513.5,79.3 L513.8,79.4 L514.0,79.4 L514.1,79.4 L514.3,79.4 L514.4,79.5 L514.6,79.5 L514.8,79.6 L515.0,79.6 L515.1,79.6 L515.3,79.7 L515.4,79.7 L515.5,79.7 L515.7,79.7 L515.9,79.8 L516.1,79.8 L516.2,79.8 L516.4,79.9 L516.6,79.9 L516.7,80.0 L516.8,80.0 L517.0,80.0 L517.1,80.0 L517.3,80.1 L517.4,80.1 L517.5,80.1 L517.7,80.2 L517.8,80.2 L518.0,80.2 L518.1,80.3 L518.2,80.3 L518.4,80.3 L518.6,80.4 L518.7,80.4 L518.8,80.4 L519.0,80.5 L519.1,80.5 L519.2,80.5 L519.4,80.6 L519.6,80.6 L519.7,80.6 L519.8,80.6 L519.9,80.7 L520.1,80.7 L520.2,80.7 L520.3,80.8 L520.6,80.8 L520.7,80.9 L520.8,80.9" fill="none" stroke="#9be564" stroke-width="1.3" opacity="0.82"><title>regular:regular:72277552 but</title></path>
  <path d="M190.8,-168.0 L190.8,-168.0 L190.8,-168.0 L190.8,-168.0 L190.8,-168.0 L190.8,-168.0 L190.8,-168.0 L190.8,-168.0 L190.8,-168.0 L190.8,-168.0 L190.8,-168.0 L190.8,-168.0 L190.8,-168.0 L190.8,-168.0 L190.8,-168.0 L190.8,-168.0 L190.8,-168.0 L190.8,-168.0 L190.8,-168.0 L190.8,-168.0 L190.8,-168.0 L190.8,-168.0 L190.8,-168.0 L190.8,-168.0 L190.8,-168.0 L190.8,-168.0 L275.1,-103.2 L324.6,-24.8 L156.9,4.1 L101.1,60.4 L232.0,123.1 L312.5,144.5 L237.6,121.9 L165.0,95.7 L198.0,95.6 L246.2,111.4 L239.6,119.7 L227.2,117.6 L224.1,115.0 L223.5,114.5 L223.5,114.4 L223.5,114.3 L223.6,114.3 L223.6,114.4 L223.7,114.4 L223.8,114.4 L223.9,114.4 L223.9,114.4 L224.0,114.4 L224.1,114.4 L224.2,114.4 L224.2,114.4 L224.3,114.5 L224.4,114.5 L224.4,114.5 L224.5,114.5 L224.6,114.5 L224.6,114.5 L224.7,114.5 L224.7,114.5 L224.8,114.5 L224.8,114.5 L224.9,114.6 L225.0,114.6 L225.0,114.6 L225.1,114.6 L225.2,114.6 L225.2,114.6 L225.3,114.6 L225.3,114.6 L225.4,114.6 L225.4,114.6 L225.5,114.6 L225.5,114.6 L225.5,114.6 L225.6,114.7 L225.6,114.7 L225.7,114.7 L225.7,114.7 L225.8,114.7 L225.8,114.7 L225.9,114.7 L225.9,114.7 L225.9,114.7 L226.0,114.7 L226.0,114.7 L226.1,114.7 L226.1,114.7 L226.1,114.7 L226.2,114.7 L226.2,114.7 L226.2,114.7 L226.3,114.7 L226.3,114.7 L226.4,114.8 L226.4,114.8 L226.4,114.8" fill="none" stroke="#9be564" stroke-width="1.3" opacity="0.82"><title>regular:regular:933879004 but</title></path>
  <path d="M569.6,-168.0 L569.6,-168.0 L569.6,-168.0 L569.6,-168.0 L569.6,-168.0 L569.6,-168.0 L569.6,-168.0 L569.6,-168.0 L569.6,-168.0 L569.6,-168.0 L569.6,-168.0 L569.6,-168.0 L569.6,-168.0 L569.6,-168.0 L569.6,-168.0 L569.6,-168.0 L569.6,-168.0 L569.6,-168.0 L569.6,-168.0 L569.6,-168.0 L569.6,-168.0 L573.2,-113.5 L492.9,-25.7 L261.0,2.2 L156.5,55.8 L265.4,119.7 L351.3,145.3 L282.0,125.0 L201.7,97.6 L227.3,95.2 L278.1,110.7 L274.8,119.9 L261.1,118.3 L257.8,115.6 L257.1,114.9 L257.1,114.8 L257.1,114.7 L257.2,114.7 L257.3,114.7 L257.3,114.7 L257.4,114.7 L257.5,114.7 L257.6,114.7 L257.6,114.7 L257.7,114.7 L257.8,114.7 L257.9,114.7 L257.9,114.7 L258.0,114.7 L258.1,114.6 L258.2,114.6 L258.2,114.6 L258.3,114.6 L258.4,114.6 L258.4,114.6 L258.5,114.6 L258.6,114.6 L258.6,114.6 L258.7,114.6 L258.7,114.6 L258.8,114.6 L258.8,114.5 L258.9,114.5 L259.0,114.5 L259.0,114.5 L259.1,114.5 L259.2,114.5 L259.2,114.5 L259.3,114.5 L259.3,114.5 L259.4,114.5 L259.4,114.4 L259.5,114.4 L259.5,114.4 L259.5,114.4 L259.6,114.4 L259.6,114.4 L259.7,114.4 L259.7,114.4 L259.8,114.4 L259.8,114.4 L259.9,114.3 L259.9,114.3 L259.9,114.3 L260.0,114.3 L260.0,114.3 L260.1,114.3 L260.1,114.3 L260.1,114.3 L260.2,114.2 L260.2,114.2 L260.2,114.2 L260.3,114.2 L260.3,114.2 L260.4,114.2 L260.4,114.2 L260.4,114.1" fill="none" stroke="#9be564" stroke-width="1.3" opacity="0.82"><title>regular:regular:61202383 but</title></path>
  <path d="M341.9,-168.0 L341.9,-168.0 L341.9,-168.0 L341.9,-168.0 L341.9,-168.0 L341.9,-168.0 L341.9,-168.0 L341.9,-168.0 L341.9,-168.0 L341.9,-168.0 L341.9,-168.0 L341.9,-168.0 L341.9,-168.0 L341.9,-168.0 L341.9,-168.0 L341.9,-168.0 L392.5,-108.5 L459.1,-12.2 L293.5,6.1 L173.2,46.1 L264.4,108.1 L374.9,142.8 L332.0,130.5 L243.8,101.8 L251.9,93.5 L304.2,106.1 L309.5,116.8 L296.3,116.4 L291.8,114.1 L290.7,113.5 L290.6,113.4 L290.6,113.3 L290.7,113.3 L290.8,113.3 L290.9,113.2 L291.0,113.2 L291.1,113.2 L291.2,113.2 L291.3,113.1 L291.3,113.1 L291.4,113.1 L291.5,113.1 L291.6,113.1 L291.6,113.0 L291.7,113.0 L291.8,113.0 L291.9,113.0 L291.9,112.9 L292.0,112.9 L292.1,112.9 L292.2,112.9 L292.2,112.8 L292.3,112.8 L292.4,112.8 L292.4,112.8 L292.5,112.8 L292.6,112.7 L292.6,112.7 L292.7,112.7 L292.7,112.7 L292.8,112.6 L292.8,112.6 L292.9,112.6 L293.0,112.6 L293.0,112.5 L293.1,112.5 L293.2,112.5 L293.2,112.5 L293.3,112.4 L293.3,112.4 L293.4,112.4 L293.4,112.4 L293.5,112.3 L293.5,112.3 L293.5,112.3 L293.6,112.3 L293.6,112.3 L293.7,112.2 L293.7,112.2 L293.8,112.2 L293.8,112.1 L293.9,112.1 L293.9,112.1 L293.9,112.1 L294.0,112.0 L294.0,112.0 L294.1,112.0 L294.1,112.0 L294.1,111.9 L294.2,111.9 L294.2,111.9 L294.2,111.9 L294.3,111.8 L294.3,111.8 L294.4,111.8 L294.4,111.7 L294.4,111.7" fill="none" stroke="#9be564" stroke-width="1.3" opacity="0.82"><title>regular:regular:519537610 but</title></path>
  <path d="M549.4,-168.0 L549.4,-168.0 L549.4,-168.0 L549.4,-168.0 L549.4,-168.0 L549.4,-168.0 L549.4,-168.0 L549.4,-168.0 L549.4,-168.0 L549.4,-168.0 L549.4,-168.0 L544.8,-114.6 L582.3,19.1 L461.6,29.1 L262.4,33.9 L247.4,77.7 L370.7,127.0 L400.0,138.5 L315.1,115.5 L275.1,95.0 L315.5,97.3 L341.1,108.7 L332.5,111.9 L326.0,110.9 L324.4,110.6 L324.2,110.5 L324.2,110.5 L324.3,110.4 L324.4,110.4 L324.4,110.4 L324.5,110.4 L324.6,110.3 L324.7,110.3 L324.8,110.2 L324.9,110.2 L325.0,110.2 L325.1,110.1 L325.2,110.1 L325.3,110.1 L325.3,110.0 L325.4,110.0 L325.5,110.0 L325.6,109.9 L325.6,109.9 L325.7,109.9 L325.8,109.8 L325.9,109.8 L325.9,109.8 L326.0,109.8 L326.1,109.7 L326.2,109.7 L326.2,109.6 L326.3,109.6 L326.4,109.6 L326.4,109.6 L326.5,109.5 L326.6,109.5 L326.6,109.4 L326.7,109.4 L326.7,109.4 L326.8,109.4 L326.8,109.3 L326.9,109.3 L327.0,109.3 L327.0,109.2 L327.1,109.2 L327.2,109.2 L327.2,109.1 L327.3,109.1 L327.3,109.1 L327.4,109.0 L327.4,109.0 L327.5,109.0 L327.5,108.9 L327.5,108.9 L327.6,108.9 L327.6,108.9 L327.7,108.8 L327.7,108.8 L327.8,108.8 L327.8,108.7 L327.9,108.7 L284.7,59.9 L240.2,113.8 L215.5,187.5 L187.2,279.9 L161.9,391.1 L142.2,521.0 L117.8,669.7 L96.5,777.6 L328.2,20.4 L328.2,69.7 L328.3,91.4 L328.3,102.5 L328.4,107.1 L328.4,108.0 L328.4,108.1" fill="none" stroke="#ffd166" stroke-width="1.3" opacity="0.82"><title>regular:regular:495474296 but</title></path>
  <path d="M182.6,-168.0 L182.6,-168.0 L182.6,-168.0 L182.6,-168.0 L182.6,-168.0 L182.6,-168.0 L233.5,-142.6 L380.3,-49.6 L252.8,-10.9 L216.0,52.5 L359.5,117.7 L446.1,137.8 L370.1,113.2 L295.5,86.7 L330.8,87.9 L382.8,105.3 L375.4,114.0 L359.5,111.4 L357.9,108.2 L357.6,107.3 L357.6,107.0 L357.7,107.0 L357.8,106.9 L357.9,106.9 L358.0,106.9 L358.1,106.8 L358.2,106.8 L358.3,106.8 L358.4,106.7 L358.4,106.7 L358.5,106.7 L358.6,106.6 L358.7,106.6 L358.8,106.6 L358.9,106.5 L359.0,106.5 L359.1,106.4 L359.2,106.4 L359.3,106.4 L359.3,106.3 L359.4,106.3 L359.5,106.3 L359.6,106.2 L359.6,106.2 L359.7,106.2 L359.8,106.1 L359.9,106.1 L359.9,106.1 L360.0,106.1 L360.1,106.0 L360.2,106.0 L360.2,106.0 L360.3,105.9 L360.4,105.9 L360.4,105.9 L360.5,105.8 L360.6,105.8 L360.6,105.8 L360.7,105.7 L360.7,105.7 L360.8,105.7 L360.8,105.7 L360.9,105.6 L361.0,105.6 L361.0,105.5 L361.1,105.5 L361.2,105.5 L361.2,105.5 L361.3,105.4 L361.3,105.4 L337.7,142.8 L312.6,206.4 L294.6,288.8 L270.0,389.9 L240.8,509.8 L219.8,648.4 L361.6,-28.0 L361.7,46.6 L361.7,79.4 L361.7,93.8 L361.8,102.4 L361.9,104.5 L361.9,104.9 L361.9,105.0 L362.0,105.0 L362.0,104.9 L362.1,104.9 L362.1,104.9 L362.1,104.8 L362.2,104.8 L362.2,104.8 L362.2,104.8 L362.3,104.7 L362.3,104.7 L362.4,104.7 L362.4,104.6 L362.4,104.6" fill="none" stroke="#9be564" stroke-width="1.3" opacity="0.82"><title>regular:regular:622513080 but</title></path>
  <path d="M525.7,-168.0 L525.7,-168.0 L525.7,-168.0 L525.7,-168.0 L525.7,-168.0 L525.7,-168.0 L525.7,-168.0 L525.7,-168.0 L525.7,-168.0 L600.0,-55.6 L529.7,-11.5 L329.6,9.0 L295.9,62.7 L427.1,119.0 L477.2,132.9 L390.6,108.1 L335.4,85.1 L377.0,87.7 L414.5,102.3 L403.7,107.9 L395.1,105.5 L392.4,104.0 L392.0,103.7 L391.9,103.6 L392.0,103.5 L392.1,103.5 L392.2,103.5 L392.3,103.4 L392.4,103.4 L392.4,103.4 L392.5,103.4 L392.6,103.3 L392.7,103.3 L392.8,103.3 L392.9,103.3 L393.0,103.2 L393.1,103.2 L393.2,103.2 L393.3,103.2 L393.3,103.1 L393.4,103.1 L393.5,103.1 L393.6,103.1 L393.6,103.1 L393.7,103.0 L393.8,103.0 L393.9,103.0 L393.9,103.0 L394.0,102.9 L394.1,102.9 L394.2,102.9 L394.2,102.9 L394.3,102.8 L394.4,102.8 L394.4,102.8 L394.5,102.8 L394.6,102.8 L394.6,102.7 L394.7,102.7 L394.7,102.7 L394.8,102.7 L394.8,102.7 L394.9,102.6 L395.0,102.6 L395.0,102.6 L395.1,102.6 L395.2,102.6 L395.2,102.5 L395.3,102.5 L395.3,102.5 L395.4,102.5 L395.4,102.5 L395.5,102.4 L395.5,102.4 L395.5,102.4 L395.6,102.4 L395.6,102.4 L395.7,102.4 L395.7,102.3 L395.8,102.3 L395.8,102.3 L395.9,102.3 L395.9,102.3 L395.9,102.2 L396.0,102.2 L396.0,102.2 L396.1,102.2 L396.1,102.2 L396.1,102.2 L396.2,102.1 L396.2,102.1 L396.2,102.1 L396.3,102.1 L396.3,102.1 L396.4,102.1 L396.4,102.0 L396.4,102.0" fill="none" stroke="#9be564" stroke-width="1.3" opacity="0.82"><title>regular:regular:495698355 but</title></path>
  <path d="M629.0,-168.0 L629.0,-168.0 L629.0,-168.0 L629.0,-168.0 L629.0,-168.0 L629.0,-168.0 L629.0,-168.0 L629.0,-168.0 L629.0,-168.0 L629.0,-168.0 L629.0,-168.0 L629.0,-168.0 L629.0,-168.0 L629.0,-168.0 L623.0,-85.0 L426.3,-35.3 L305.1,29.9 L410.4,102.5 L522.1,133.0 L465.3,112.5 L369.4,82.2 L385.4,78.9 L448.0,96.9 L451.4,109.3 L428.0,107.4 L425.9,103.5 L426.2,101.9 L426.3,101.6 L426.4,101.5 L426.4,101.5 L426.5,101.5 L426.6,101.4 L426.7,101.4 L426.8,101.4 L426.9,101.4 L427.0,101.4 L427.1,101.4 L427.2,101.4 L427.3,101.4 L427.3,101.4 L427.4,101.4 L427.5,101.4 L427.6,101.3 L427.6,101.3 L427.7,101.3 L427.8,101.3 L427.9,101.3 L427.9,101.3 L428.0,101.3 L428.1,101.3 L428.2,101.3 L428.2,101.3 L428.3,101.3 L428.4,101.3 L428.4,101.3 L428.5,101.3 L428.6,101.3 L428.6,101.3 L428.7,101.3 L428.7,101.3 L428.8,101.3 L428.8,101.2 L428.9,101.2 L429.0,101.2 L429.0,101.2 L429.1,101.2 L429.2,101.2 L429.2,101.2 L429.3,101.2 L429.3,101.2 L429.4,101.2 L429.4,101.2 L429.5,101.2 L429.5,101.2 L429.5,101.2 L429.6,101.2 L429.6,101.2 L429.7,101.2 L429.7,101.2 L429.8,101.2 L429.8,101.2 L429.9,101.2 L429.9,101.2 L429.9,101.2 L430.0,101.2 L430.0,101.2 L430.1,101.2 L430.1,101.2 L430.1,101.2 L430.2,101.2 L430.2,101.2 L430.2,101.2 L430.3,101.2 L430.3,101.2 L430.4,101.2 L430.4,101.2 L430.4,101.2" fill="none" stroke="#9be564" stroke-width="1.3" opacity="0.82"><title>regular:regular:564026307 but</title></path>
  <path d="M411.3,-168.0 L411.3,-168.0 L411.3,-168.0 L411.3,-168.0 L411.3,-168.0 L411.3,-168.0 L411.3,-168.0 L411.3,-168.0 L411.3,-168.0 L411.3,-168.0 L411.3,-168.0 L411.3,-168.0 L411.3,-168.0 L411.3,-168.0 L411.3,-168.0 L411.3,-168.0 L411.3,-168.0 L411.3,-168.0 L411.3,-168.0 L548.4,-21.8 L615.3,27.7 L458.2,20.8 L348.7,43.3 L437.5,95.6 L539.1,129.0 L497.7,120.1 L418.8,93.9 L427.4,84.5 L470.7,94.0 L473.8,102.2 L464.9,102.0 L461.5,101.6 L460.9,101.5 L460.8,101.5 L460.9,101.5 L461.0,101.5 L461.1,101.5 L461.2,101.5 L461.3,101.5 L461.3,101.6 L461.4,101.6 L461.5,101.6 L461.6,101.6 L461.6,101.6 L461.7,101.6 L461.8,101.6 L461.9,101.6 L461.9,101.6 L462.0,101.7 L462.1,101.7 L462.2,101.7 L462.2,101.7 L462.3,101.7 L462.4,101.7 L462.4,101.7 L462.5,101.8 L462.6,101.8 L462.6,101.8 L462.7,101.8 L462.7,101.8 L462.8,101.8 L462.8,101.8 L462.9,101.8 L463.0,101.9 L463.0,101.9 L463.1,101.9 L463.2,101.9 L463.2,101.9 L463.3,101.9 L463.3,101.9 L463.4,102.0 L463.4,102.0 L463.5,102.0 L463.5,102.0 L463.5,102.0 L463.6,102.0 L463.6,102.0 L463.7,102.1 L463.7,102.1 L463.8,102.1 L463.8,102.1 L463.9,102.1 L463.9,102.1 L463.9,102.2 L464.0,102.2 L464.0,102.2 L464.1,102.2 L464.1,102.2 L464.1,102.2 L464.2,102.3 L464.2,102.3 L464.2,102.3 L464.3,102.3 L464.3,102.3 L464.4,102.4 L464.4,102.4 L464.4,102.4" fill="none" stroke="#9be564" stroke-width="1.3" opacity="0.82"><title>regular:regular:408011906 but</title></path>
  <path d="M41.9,-168.0 L41.9,-168.0 L41.9,-168.0 L41.9,-168.0 L41.9,-168.0 L41.9,-168.0 L41.9,-168.0 L41.9,-168.0 L41.9,-168.0 L41.9,-168.0 L41.9,-168.0 L41.9,-168.0 L41.9,-168.0 L41.9,-168.0 L41.9,-168.0 L41.9,-168.0 L41.9,-168.0 L41.9,-168.0 L41.9,-168.0 L41.9,-168.0 L41.9,-168.0 L41.9,-168.0 L41.9,-168.0 L41.9,-168.0 L379.3,-62.9 L399.8,-25.0 L318.2,20.3 L414.6,88.6 L561.5,131.7 L550.3,123.7 L453.2,92.8 L443.6,80.7 L503.3,93.6 L520.5,107.7 L501.2,108.8 L496.5,105.3 L495.4,103.9 L495.3,103.7 L495.3,103.6 L495.3,103.6 L495.4,103.7 L495.5,103.7 L495.6,103.7 L495.6,103.7 L495.7,103.8 L495.8,103.8 L495.9,103.8 L495.9,103.8 L496.0,103.9 L496.1,103.9 L496.2,103.9 L496.2,104.0 L496.3,104.0 L496.4,104.0 L496.4,104.0 L496.5,104.1 L496.6,104.1 L496.6,104.1 L496.7,104.2 L496.7,104.2 L496.8,104.2 L496.8,104.2 L496.9,104.3 L497.0,104.3 L497.0,104.3 L497.1,104.3 L497.2,104.4 L497.2,104.4 L497.3,104.4 L497.3,104.5 L497.4,104.5 L497.4,104.5 L497.5,104.5 L497.5,104.6 L497.5,104.6 L497.6,104.6 L497.6,104.6 L497.7,104.7 L497.7,104.7 L497.8,104.7 L497.8,104.8 L497.9,104.8 L497.9,104.8 L497.9,104.8 L498.0,104.9 L498.0,104.9 L498.1,104.9 L498.1,105.0 L498.1,105.0 L498.2,105.0 L498.2,105.0 L498.2,105.1 L498.3,105.1 L498.3,105.1 L498.4,105.2 L498.4,105.2 L498.4,105.2" fill="none" stroke="#9be564" stroke-width="1.3" opacity="0.82"><title>regular:regular:656827869 but</title></path>
  <path d="M181.2,-168.0 L181.2,-168.0 L181.2,-168.0 L181.2,-168.0 L181.2,-168.0 L181.2,-168.0 L181.2,-168.0 L181.2,-168.0 L181.2,-168.0 L181.2,-168.0 L181.2,-168.0 L181.2,-168.0 L181.2,-168.0 L181.2,-168.0 L181.2,-168.0 L181.2,-168.0 L181.2,-168.0 L181.2,-168.0 L181.2,-168.0 L181.2,-168.0 L181.2,-168.0 L181.2,-168.0 L181.2,-168.0 L181.2,-168.0 L181.2,-168.0 L181.2,-168.0 L181.2,-168.0 L181.2,-168.0 L181.2,-168.0 L498.2,-43.4 L499.2,-11.7 L381.7,21.1 L440.7,83.5 L586.7,131.5 L595.2,131.1 L499.9,101.9 L476.1,85.7 L530.4,94.9 L553.4,109.0 L537.5,111.4 L531.6,108.5 L530.0,107.4 L529.7,107.2 L529.7,107.2 L529.7,107.2 L529.8,107.2 L529.9,107.2 L529.9,107.3 L530.0,107.3 L530.1,107.4 L530.2,107.4 L530.2,107.4 L530.3,107.4 L530.4,107.5 L530.4,107.5 L530.5,107.6 L530.6,107.6 L530.6,107.6 L530.7,107.7 L530.7,107.7 L530.8,107.7 L530.8,107.7 L530.9,107.8 L531.0,107.8 L531.0,107.8 L531.1,107.9 L531.2,107.9 L531.2,108.0 L531.3,108.0 L531.3,108.0 L531.4,108.0 L531.4,108.1 L531.5,108.1 L531.5,108.1 L531.5,108.2 L531.6,108.2 L531.6,108.2 L531.7,108.3 L531.7,108.3 L531.8,108.3 L531.8,108.4 L531.9,108.4 L531.9,108.4 L531.9,108.5 L532.0,108.5 L532.0,108.5 L532.1,108.6 L532.1,108.6 L532.1,108.6 L532.2,108.6 L532.2,108.7 L532.2,108.7 L532.3,108.7 L532.3,108.8 L532.4,108.8 L532.4,108.9 L532.4,108.9" fill="none" stroke="#9be564" stroke-width="1.3" opacity="0.82"><title>regular:regular:387795809 but</title></path>
  <path d="M279.1,-200.0 L279.1,-200.0 L279.1,-200.0 L279.1,-200.0 L279.1,-200.0 L279.1,-200.0 L279.1,-200.0 L279.1,-200.0 L279.1,-200.0 L279.1,-200.0 L279.1,-200.0 L279.1,-200.0 L279.1,-200.0 L279.1,-200.0 L279.1,-200.0 L279.1,-200.0 L279.1,-200.0 L279.1,-200.0 L279.1,-200.0 L279.1,-200.0 L279.1,-200.0 L279.1,-200.0 L279.1,-200.0 L279.1,-200.0 L279.1,-200.0 L279.1,-200.0 L279.1,-200.0 L279.1,-200.0 L279.1,-200.0 L279.1,-200.0 L279.1,-200.0 L279.1,-200.0 L279.1,-200.0 L279.1,-200.0 L279.1,-200.0 L279.1,-200.0 L279.1,-200.0 L279.1,-200.0 L141.9,-30.9 L233.9,113.9 L363.7,151.3 L286.0,121.3 L148.8,97.3 L167.1,115.4 L267.6,150.7 L276.7,164.0 L215.9,151.1 L199.2,137.2 L219.9,136.6 L224.7,140.4 L225.3,159.8 L225.4,218.4 L216.8,295.7 L208.2,391.8 L208.2,506.6 L205.2,640.2 L194.7,792.5 L225.5,58.9 L225.5,105.8 L225.4,126.4 L225.4,137.3 L225.3,141.5 L225.2,142.3 L225.2,142.5 L225.1,142.6 L225.1,142.6 L225.0,142.6 L225.0,142.6 L224.9,142.6 L224.8,142.6 L224.8,142.6 L224.7,142.6 L224.7,142.6 L224.6,142.6 L224.6,142.6 L224.5,142.7 L224.4,142.7 L224.4,142.7 L224.3,142.7 L224.2,142.7 L224.2,142.7 L224.1,142.7 L224.0,142.7 L224.0,142.7 L223.9,142.7 L223.9,142.7 L223.8,142.7 L223.7,142.7 L223.6,142.7 L223.6,142.7 L223.5,142.7 L223.4,142.7 L223.3,142.7 L223.3,142.7 L223.1,142.8 L223.1,142.8 L223.0,142.8" fill="none" stroke="#9be564" stroke-width="1.3" opacity="0.82"><title>regular:regular:562265913 bee</title></path>
  <path d="M-6.6,-200.0 L-6.6,-200.0 L-6.6,-200.0 L-6.6,-200.0 L-6.6,-200.0 L-6.6,-200.0 L-6.6,-200.0 L-6.6,-200.0 L-6.6,-200.0 L-6.6,-200.0 L-6.6,-200.0 L-6.6,-200.0 L-6.6,-200.0 L-6.6,-200.0 L-6.6,-200.0 L-6.6,-200.0 L-6.6,-200.0 L-6.6,-200.0 L-6.6,-200.0 L-6.6,-200.0 L-6.6,-200.0 L-6.6,-200.0 L-6.6,-200.0 L-6.6,-200.0 L-6.6,-200.0 L-6.6,-200.0 L-6.6,-200.0 L-6.6,-200.0 L-6.6,-200.0 L-6.6,-200.0 L-6.6,-200.0 L-6.6,-200.0 L-6.6,-200.0 L173.7,-23.4 L369.0,71.7 L296.0,69.4 L155.0,74.4 L192.6,117.7 L315.6,161.5 L320.4,167.5 L238.8,144.8 L218.7,128.2 L258.7,132.0 L272.7,140.9 L264.9,142.4 L261.0,142.6 L260.2,142.7 L260.0,142.7 L259.9,142.7 L259.9,142.6 L259.8,142.6 L259.8,142.6 L259.7,142.6 L259.7,142.6 L259.7,142.6 L259.6,142.6 L259.5,142.6 L259.5,142.6 L259.4,142.6 L259.4,142.6 L259.4,142.6 L259.3,142.5 L259.2,142.5 L259.2,142.5 L259.1,142.5 L259.1,142.5 L259.0,142.5 L259.0,142.5 L258.9,142.5 L258.8,142.5 L258.8,142.5 L258.7,142.4 L258.7,142.4 L258.6,142.4 L258.6,142.4 L258.5,142.4 L258.4,142.4 L258.4,142.4 L258.3,142.4 L258.2,142.4 L258.2,142.4 L258.1,142.3 L258.0,142.3 L258.0,142.3 L257.9,142.3 L257.9,142.3 L257.8,142.3 L257.7,142.3 L257.6,142.3 L257.6,142.2 L257.5,142.2 L257.4,142.2 L257.3,142.2 L257.3,142.2 L257.1,142.2 L257.1,142.2 L257.0,142.1" fill="none" stroke="#9be564" stroke-width="1.3" opacity="0.82"><title>regular:regular:841472871 bee</title></path>
  <path d="M387.1,-200.0 L387.1,-200.0 L387.1,-200.0 L387.1,-200.0 L387.1,-200.0 L387.1,-200.0 L387.1,-200.0 L387.1,-200.0 L387.1,-200.0 L387.1,-200.0 L387.1,-200.0 L387.1,-200.0 L387.1,-200.0 L387.1,-200.0 L387.1,-200.0 L387.1,-200.0 L387.1,-200.0 L387.1,-200.0 L387.1,-200.0 L387.1,-200.0 L387.1,-200.0 L387.1,-200.0 L387.1,-200.0 L387.1,-200.0 L387.1,-200.0 L387.1,-200.0 L387.1,-200.0 L387.1,-200.0 L219.1,-65.4 L219.0,87.7 L385.4,157.5 L400.7,145.1 L261.9,108.6 L210.9,104.5 L297.4,133.9 L350.8,158.5 L308.0,156.3 L271.0,142.0 L282.3,136.7 L290.9,139.2 L293.5,140.7 L294.1,141.0 L294.1,141.0 L294.1,141.0 L294.1,141.0 L294.0,141.0 L294.0,141.0 L294.0,140.9 L293.9,140.9 L293.9,140.9 L293.8,140.9 L293.8,140.8 L293.7,140.8 L293.7,140.8 L293.7,140.8 L293.6,140.8 L293.5,140.7 L293.5,140.7 L293.4,140.7 L293.4,140.7 L293.4,140.6 L293.3,140.6 L293.2,140.6 L293.2,140.6 L293.1,140.5 L293.1,140.5 L293.0,140.5 L293.0,140.5 L292.9,140.4 L292.8,140.4 L292.8,140.4 L292.7,140.4 L292.7,140.3 L292.6,140.3 L292.6,140.3 L292.5,140.3 L292.4,140.3 L292.4,140.2 L292.3,140.2 L292.2,140.2 L292.2,140.1 L292.1,140.1 L292.0,140.1 L292.0,140.1 L291.9,140.0 L291.9,140.0 L291.8,140.0 L291.7,140.0 L291.6,139.9 L291.6,139.9 L291.5,139.9 L291.4,139.9 L291.3,139.8 L291.3,139.8 L291.1,139.8 L291.1,139.7 L291.0,139.7" fill="none" stroke="#9be564" stroke-width="1.3" opacity="0.82"><title>regular:regular:965408983 bee</title></path>
  <path d="M523.9,-200.0 L523.9,-200.0 L523.9,-200.0 L523.9,-200.0 L523.9,-200.0 L523.9,-200.0 L523.9,-200.0 L523.9,-200.0 L523.9,-200.0 L523.9,-200.0 L523.9,-200.0 L523.9,-200.0 L523.9,-200.0 L523.9,-200.0 L523.9,-200.0 L523.9,-200.0 L523.9,-200.0 L523.9,-200.0 L523.9,-200.0 L523.9,-200.0 L523.9,-200.0 L523.9,-200.0 L523.9,-200.0 L374.9,-45.5 L427.2,105.0 L500.8,133.8 L376.8,102.9 L243.7,89.4 L285.9,117.8 L384.5,153.5 L374.4,160.3 L308.8,143.1 L300.9,130.0 L326.1,131.6 L329.2,135.7 L328.6,137.7 L328.4,138.0 L328.3,138.1 L328.3,138.1 L328.3,138.0 L328.2,138.0 L328.2,138.0 L328.2,137.9 L328.1,137.9 L328.1,137.9 L328.0,137.8 L328.0,137.8 L328.0,137.8 L327.9,137.8 L327.9,137.7 L327.8,137.7 L327.8,137.6 L327.7,137.6 L327.7,137.6 L327.7,137.6 L327.6,137.5 L327.5,137.5 L327.5,137.4 L327.4,137.4 L327.4,137.4 L327.4,137.4 L327.3,137.3 L327.2,137.3 L327.2,137.3 L327.1,137.2 L327.1,137.2 L327.0,137.2 L327.0,137.1 L326.9,137.1 L326.8,137.1 L326.8,137.0 L326.7,137.0 L326.7,137.0 L326.6,136.9 L326.6,136.9 L326.5,136.9 L326.4,136.9 L326.4,136.8 L326.3,136.8 L326.2,136.8 L326.2,136.7 L326.1,136.7 L326.0,136.7 L326.0,136.6 L325.9,136.6 L325.9,136.6 L325.8,136.5 L325.7,136.5 L325.6,136.5 L325.6,136.4 L325.5,136.4 L325.4,136.4 L325.3,136.3 L325.3,136.3 L325.1,136.3 L325.1,136.2 L325.0,136.2" fill="none" stroke="#9be564" stroke-width="1.3" opacity="0.82"><title>regular:regular:371814362 bee</title></path>
  <path d="M441.8,-200.0 L441.8,-200.0 L441.8,-200.0 L441.8,-200.0 L441.8,-200.0 L441.8,-200.0 L441.8,-200.0 L441.8,-200.0 L441.8,-200.0 L441.8,-200.0 L441.8,-200.0 L441.8,-200.0 L441.8,-200.0 L441.8,-200.0 L441.8,-200.0 L441.8,-200.0 L441.8,-200.0 L441.8,-200.0 L384.0,-52.5 L491.4,93.0 L523.7,109.0 L366.3,82.2 L266.8,86.1 L347.1,125.7 L432.4,157.3 L393.7,154.0 L330.2,133.0 L338.4,123.5 L366.1,128.5 L366.0,132.6 L363.3,134.2 L362.7,134.5 L362.5,134.6 L362.5,134.6 L362.4,134.5 L362.4,134.5 L362.4,134.4 L362.3,134.4 L362.3,134.4 L362.3,134.3 L362.2,134.3 L362.2,134.3 L362.2,134.2 L362.1,134.2 L362.1,134.2 L362.0,134.1 L362.0,134.1 L362.0,134.1 L361.9,134.1 L361.9,134.0 L361.8,134.0 L361.8,134.0 L361.7,133.9 L361.7,133.9 L361.7,133.9 L361.6,133.8 L361.5,133.8 L361.5,133.8 L361.4,133.7 L361.4,133.7 L361.4,133.7 L361.3,133.7 L361.2,133.6 L361.2,133.6 L361.1,133.5 L361.1,133.5 L361.0,133.5 L361.0,133.5 L360.9,133.4 L360.8,133.4 L360.8,133.4 L360.7,133.3 L360.7,133.3 L360.6,133.3 L360.6,133.3 L360.5,133.2 L360.4,133.2 L360.4,133.2 L360.3,133.2 L360.2,133.1 L360.2,133.1 L360.1,133.0 L360.0,133.0 L360.0,133.0 L359.9,133.0 L359.9,132.9 L359.8,132.9 L359.7,132.9 L359.6,132.8 L359.6,132.8 L359.5,132.8 L359.4,132.8 L359.3,132.7 L359.3,132.7 L359.1,132.7 L359.1,132.6 L359.0,132.6" fill="none" stroke="#9be564" stroke-width="1.3" opacity="0.82"><title>regular:regular:612058538 bee</title></path>
  <path d="M180.7,-200.0 L180.7,-200.0 L180.7,-200.0 L180.7,-200.0 L180.7,-200.0 L180.7,-200.0 L180.7,-200.0 L180.7,-200.0 L180.7,-200.0 L180.7,-200.0 L180.7,-200.0 L180.7,-200.0 L180.7,-200.0 L180.7,-200.0 L180.7,-200.0 L180.7,-200.0 L180.7,-200.0 L180.7,-200.0 L180.7,-200.0 L180.7,-200.0 L194.4,-177.7 L440.6,26.8 L513.1,64.4 L364.5,55.5 L284.4,78.4 L386.4,128.4 L473.8,158.3 L423.0,148.1 L354.4,123.8 L370.4,116.4 L406.8,125.1 L406.2,131.0 L399.1,131.3 L397.0,131.3 L396.5,131.3 L396.4,131.2 L396.4,131.2 L396.3,131.2 L396.3,131.2 L396.3,131.1 L396.2,131.1 L396.2,131.1 L396.2,131.1 L396.1,131.1 L396.1,131.0 L396.0,131.0 L396.0,131.0 L396.0,131.0 L395.9,130.9 L395.9,130.9 L395.8,130.9 L395.8,130.9 L395.7,130.8 L395.7,130.8 L395.7,130.8 L395.6,130.8 L395.5,130.8 L395.5,130.7 L395.4,130.7 L395.4,130.7 L395.4,130.7 L395.3,130.7 L395.2,130.6 L395.2,130.6 L395.1,130.6 L395.1,130.6 L395.0,130.6 L395.0,130.5 L394.9,130.5 L394.8,130.5 L394.8,130.5 L394.7,130.5 L394.7,130.4 L394.6,130.4 L394.6,130.4 L394.5,130.4 L394.4,130.4 L394.4,130.4 L394.3,130.3 L394.2,130.3 L394.2,130.3 L394.1,130.3 L394.0,130.3 L394.0,130.2 L393.9,130.2 L393.9,130.2 L393.8,130.2 L393.7,130.2 L393.6,130.2 L393.6,130.1 L393.5,130.1 L393.4,130.1 L393.3,130.1 L393.3,130.1 L393.1,130.1 L393.1,130.0 L393.0,130.0" fill="none" stroke="#9be564" stroke-width="1.3" opacity="0.82"><title>regular:regular:809063590 bee</title></path>
  <path d="M436.6,-200.0 L436.6,-200.0 L436.6,-200.0 L436.6,-200.0 L436.6,-200.0 L436.6,-200.0 L436.6,-200.0 L436.6,-200.0 L436.6,-200.0 L436.6,-200.0 L436.6,-200.0 L436.6,-200.0 L436.6,-200.0 L436.6,-200.0 L436.6,-200.0 L436.6,-200.0 L436.6,-200.0 L436.6,-200.0 L436.6,-200.0 L436.6,-200.0 L436.6,-200.0 L436.6,-200.0 L436.6,-200.0 L436.6,-200.0 L436.6,-200.0 L439.3,-179.0 L320.2,-59.3 L265.3,50.1 L418.9,135.8 L532.3,157.3 L455.3,127.3 L358.1,99.6 L392.5,106.6 L465.1,131.2 L460.3,142.6 L424.8,136.6 L422.2,130.8 L428.3,129.7 L429.9,129.5 L430.2,129.4 L430.2,129.4 L430.2,129.4 L430.2,129.3 L430.1,129.3 L430.1,129.3 L430.0,129.3 L430.0,129.3 L430.0,129.3 L429.9,129.3 L429.9,129.3 L429.8,129.3 L429.8,129.3 L429.7,129.3 L429.7,129.3 L429.7,129.3 L429.6,129.3 L429.5,129.3 L429.5,129.3 L429.4,129.3 L429.4,129.3 L429.4,129.3 L429.3,129.2 L429.2,129.2 L429.2,129.2 L429.1,129.2 L429.1,129.2 L429.0,129.2 L429.0,129.2 L428.9,129.2 L428.8,129.2 L428.8,129.2 L428.7,129.2 L428.7,129.2 L428.6,129.2 L428.6,129.2 L428.5,129.2 L428.4,129.2 L428.4,129.2 L428.3,129.2 L428.2,129.2 L428.2,129.2 L428.1,129.2 L428.0,129.2 L428.0,129.2 L427.9,129.2 L427.9,129.2 L427.8,129.2 L427.7,129.2 L427.6,129.2 L427.6,129.2 L427.5,129.2 L427.4,129.2 L427.3,129.2 L427.3,129.2 L427.1,129.2 L427.1,129.2 L427.0,129.2" fill="none" stroke="#9be564" stroke-width="1.3" opacity="0.82"><title>regular:regular:305281538 bee</title></path>
  <path d="M71.9,-200.0 L71.9,-200.0 L71.9,-200.0 L71.9,-200.0 L71.9,-200.0 L71.9,-200.0 L71.9,-200.0 L71.9,-200.0 L71.9,-200.0 L71.9,-200.0 L71.9,-200.0 L71.9,-200.0 L71.9,-200.0 L71.9,-200.0 L71.9,-200.0 L71.9,-200.0 L71.9,-200.0 L71.9,-200.0 L71.9,-200.0 L71.9,-200.0 L71.9,-200.0 L71.9,-200.0 L71.9,-200.0 L71.9,-200.0 L71.9,-200.0 L71.9,-200.0 L71.9,-200.0 L71.9,-200.0 L71.9,-200.0 L71.9,-200.0 L135.3,-159.7 L475.5,1.1 L475.1,26.9 L341.7,45.6 L372.2,98.2 L511.0,148.2 L534.0,155.8 L446.5,130.6 L414.1,111.8 L459.6,116.6 L483.5,128.8 L472.8,131.7 L466.4,130.1 L464.6,129.7 L464.2,129.6 L464.1,129.6 L464.0,129.6 L464.0,129.6 L463.9,129.7 L463.9,129.7 L463.8,129.7 L463.8,129.7 L463.7,129.7 L463.7,129.7 L463.7,129.7 L463.6,129.8 L463.5,129.8 L463.5,129.8 L463.4,129.8 L463.4,129.8 L463.4,129.8 L463.3,129.8 L463.2,129.8 L463.2,129.9 L463.1,129.9 L463.1,129.9 L463.0,129.9 L463.0,129.9 L462.9,129.9 L462.8,129.9 L462.8,130.0 L462.7,130.0 L462.7,130.0 L462.6,130.0 L462.6,130.0 L462.5,130.0 L462.4,130.0 L462.4,130.1 L462.3,130.1 L462.2,130.1 L462.2,130.1 L462.1,130.1 L462.0,130.1 L462.0,130.2 L461.9,130.2 L461.9,130.2 L461.8,130.2 L461.7,130.2 L461.6,130.2 L461.6,130.3 L461.5,130.3 L461.4,130.3 L461.3,130.3 L461.3,130.3 L461.1,130.4 L461.1,130.4 L461.0,130.4" fill="none" stroke="#9be564" stroke-width="1.3" opacity="0.82"><title>regular:regular:366653994 bee</title></path>
  <path d="M-0.9,-200.0 L-0.9,-200.0 L-0.9,-200.0 L-0.9,-200.0 L-0.9,-200.0 L-0.9,-200.0 L-0.9,-200.0 L-0.9,-200.0 L-0.9,-200.0 L-0.9,-200.0 L-0.9,-200.0 L-0.9,-200.0 L-0.9,-200.0 L-0.9,-200.0 L-0.9,-200.0 L-0.9,-200.0 L-0.9,-200.0 L-0.9,-200.0 L-0.9,-200.0 L-0.9,-200.0 L-0.9,-200.0 L-0.9,-200.0 L-0.9,-200.0 L-0.9,-200.0 L-0.9,-200.0 L-0.9,-200.0 L-0.9,-200.0 L-0.9,-200.0 L-0.9,-200.0 L-0.9,-200.0 L-0.9,-200.0 L-0.9,-200.0 L-0.9,-200.0 L-0.9,-200.0 L-0.9,-200.0 L31.0,-162.0 L139.2,3.7 L369.2,120.0 L568.3,154.8 L536.4,125.5 L419.4,95.1 L434.3,103.5 L528.6,134.3 L543.3,150.0 L493.0,141.8 L477.9,130.2 L490.4,129.1 L496.1,131.2 L497.6,131.7 L497.8,131.9 L497.8,131.9 L497.8,132.0 L497.7,132.0 L497.7,132.0 L497.7,132.0 L497.6,132.1 L497.5,132.1 L497.5,132.1 L497.4,132.2 L497.4,132.2 L497.4,132.2 L497.3,132.2 L497.2,132.3 L497.2,132.3 L497.1,132.3 L497.1,132.3 L497.0,132.4 L497.0,132.4 L496.9,132.4 L496.8,132.5 L496.8,132.5 L496.7,132.5 L496.7,132.5 L496.6,132.6 L496.6,132.6 L496.5,132.6 L496.4,132.6 L496.4,132.7 L496.3,132.7 L496.2,132.7 L496.2,132.8 L496.1,132.8 L496.0,132.8 L496.0,132.8 L495.9,132.9 L495.9,132.9 L495.8,132.9 L495.7,133.0 L495.6,133.0 L495.6,133.0 L495.5,133.0 L495.4,133.1 L495.3,133.1 L495.3,133.1 L495.1,133.2 L495.1,133.2 L495.0,133.2" fill="none" stroke="#9be564" stroke-width="1.3" opacity="0.82"><title>regular:regular:826069840 bee</title></path>
  <path d="M51.1,-200.0 L51.1,-200.0 L51.1,-200.0 L51.1,-200.0 L51.1,-200.0 L51.1,-200.0 L51.1,-200.0 L51.1,-200.0 L51.1,-200.0 L51.1,-200.0 L51.1,-200.0 L51.1,-200.0 L51.1,-200.0 L51.1,-200.0 L51.1,-200.0 L51.1,-200.0 L51.1,-200.0 L51.1,-200.0 L51.1,-200.0 L51.1,-200.0 L51.1,-200.0 L51.1,-200.0 L51.1,-200.0 L51.1,-200.0 L51.1,-200.0 L51.1,-200.0 L51.1,-200.0 L51.1,-200.0 L51.1,-200.0 L51.1,-200.0 L51.1,-200.0 L51.1,-200.0 L51.1,-200.0 L51.1,-200.0 L51.1,-200.0 L51.1,-200.0 L51.1,-200.0 L51.1,-200.0 L51.1,-200.0 L51.1,-200.0 L148.6,-116.8 L498.0,55.3 L602.7,79.0 L474.0,65.2 L415.5,86.0 L525.3,133.9 L605.9,161.7 L552.3,151.1 L490.1,128.0 L508.9,121.4 L541.1,129.6 L539.4,134.3 L533.5,135.2 L532.0,135.4 L531.7,135.5 L531.6,135.6 L531.5,135.6 L531.3,144.2 L525.8,198.2 L523.7,270.9 L528.9,362.4 L528.0,472.6 L522.0,601.6 L523.9,749.3 L531.1,35.8 L531.1,91.9 L531.0,116.6 L531.0,128.3 L530.9,134.4 L530.8,135.7 L530.8,136.0 L530.7,136.1 L530.7,136.1 L530.6,136.1 L530.6,136.2 L530.5,136.2 L530.4,136.2 L530.4,136.3 L530.3,136.3 L530.2,136.3 L530.2,136.4 L530.1,136.4 L530.0,136.4 L530.0,136.5 L529.9,136.5 L529.9,136.5 L529.8,136.6 L529.7,136.6 L529.6,136.6 L529.6,136.6 L529.5,136.7 L529.4,136.7 L529.3,136.7 L529.3,136.8 L529.1,136.8 L529.1,136.9 L529.0,136.9" fill="none" stroke="#9be564" stroke-width="1.3" opacity="0.82"><title>regular:regular:953789639 bee</title></path>
  <path d="M490.7,-232.0 L490.7,-232.0 L490.7,-232.0 L490.7,-232.0 L490.7,-232.0 L490.7,-232.0 L490.7,-232.0 L490.7,-232.0 L490.7,-232.0 L490.7,-232.0 L490.7,-232.0 L490.7,-232.0 L490.7,-232.0 L490.7,-232.0 L490.7,-232.0 L490.7,-232.0 L490.7,-232.0 L490.7,-232.0 L490.7,-232.0 L490.7,-232.0 L490.7,-232.0 L490.7,-232.0 L490.7,-232.0 L490.7,-232.0 L490.7,-232.0 L490.7,-232.0 L490.7,-232.0 L490.7,-232.0 L490.7,-232.0 L490.7,-232.0 L490.7,-232.0 L490.7,-232.0 L490.7,-232.0 L490.7,-232.0 L490.7,-232.0 L490.7,-232.0 L490.7,-232.0 L490.7,-232.0 L490.7,-232.0 L490.7,-232.0 L490.7,-232.0 L490.7,-232.0 L490.7,-232.0 L490.7,-232.0 L285.6,20.2 L370.7,143.7 L371.2,151.4 L207.6,122.8 L124.4,125.6 L208.2,162.3 L279.4,191.3 L235.7,187.9 L182.0,169.2 L193.4,161.4 L212.9,165.5 L212.3,169.0 L211.8,170.2 L211.5,170.4 L211.4,170.5 L211.2,170.5 L211.1,170.5 L211.0,170.5 L210.8,170.6 L210.6,170.6 L210.5,170.6 L210.3,170.6 L210.1,170.6 L210.0,170.6 L209.8,170.6 L209.6,170.6 L209.5,170.6 L209.4,170.6 L209.2,170.6 L209.1,170.6 L208.9,170.6 L208.8,170.7 L208.6,170.7 L208.5,170.7 L208.4,170.7 L208.1,170.7 L208.0,170.7 L207.8,170.7 L207.6,170.7 L207.5,170.7 L207.3,170.7 L207.2,170.7 L207.0,170.7 L206.8,170.7 L206.6,170.7 L206.5,170.7 L206.3,170.7 L206.2,170.7 L206.0,170.7 L205.9,170.7 L205.6,170.8 L205.4,170.8 L205.2,170.8" fill="none" stroke="#9be564" stroke-width="1.3" opacity="0.82"><title>regular:regular:315096383 bee</title></path>
  <path d="M310.9,-232.0 L310.9,-232.0 L310.9,-232.0 L310.9,-232.0 L310.9,-232.0 L310.9,-232.0 L310.9,-232.0 L310.9,-232.0 L310.9,-232.0 L310.9,-232.0 L310.9,-232.0 L310.9,-232.0 L310.9,-232.0 L310.9,-232.0 L310.9,-232.0 L310.9,-232.0 L310.9,-232.0 L310.9,-232.0 L310.9,-232.0 L310.9,-232.0 L310.9,-232.0 L310.9,-232.0 L310.9,-232.0 L310.9,-232.0 L310.9,-232.0 L310.9,-232.0 L310.9,-232.0 L310.9,-232.0 L310.9,-232.0 L310.9,-232.0 L310.9,-232.0 L310.9,-232.0 L310.9,-232.0 L310.9,-232.0 L310.9,-232.0 L310.9,-232.0 L310.9,-232.0 L310.9,-232.0 L310.9,-232.0 L267.7,14.4 L399.6,131.7 L373.3,133.1 L205.6,112.5 L159.9,129.5 L264.2,171.8 L316.8,195.0 L256.4,184.3 L210.6,164.7 L232.6,160.2 L251.5,166.1 L248.4,169.3 L246.8,170.3 L246.4,170.6 L246.2,170.6 L246.0,170.6 L245.8,170.6 L245.7,170.6 L245.5,170.6 L245.4,170.6 L245.2,170.6 L245.1,170.6 L245.0,170.5 L244.8,170.5 L244.6,170.5 L244.5,170.5 L244.3,170.5 L244.1,170.5 L244.0,170.5 L243.8,170.5 L243.6,170.5 L243.5,170.5 L243.4,170.4 L243.2,170.4 L243.1,170.4 L242.9,170.4 L242.8,170.4 L242.6,170.4 L242.5,170.4 L242.4,170.4 L242.1,170.4 L242.0,170.4 L241.8,170.3 L241.6,170.3 L241.5,170.3 L241.3,170.3 L241.2,170.3 L241.0,170.3 L240.8,170.3 L240.6,170.3 L240.5,170.2 L240.3,170.2 L240.2,170.2 L240.0,170.2 L239.9,170.2 L239.6,170.2 L239.4,170.2 L239.2,170.1" fill="none" stroke="#9be564" stroke-width="1.3" opacity="0.82"><title>regular:regular:736338577 bee</title></path>
  <path d="M232.5,-232.0 L232.5,-232.0 L232.5,-232.0 L232.5,-232.0 L232.5,-232.0 L232.5,-232.0 L232.5,-232.0 L232.5,-232.0 L232.5,-232.0 L232.5,-232.0 L232.5,-232.0 L232.5,-232.0 L232.5,-232.0 L232.5,-232.0 L232.5,-232.0 L232.5,-232.0 L232.5,-232.0 L232.5,-232.0 L232.5,-232.0 L232.5,-232.0 L232.5,-232.0 L232.5,-232.0 L232.5,-232.0 L232.5,-232.0 L232.5,-232.0 L232.5,-232.0 L232.5,-232.0 L232.5,-232.0 L232.5,-232.0 L232.5,-232.0 L232.5,-232.0 L232.5,-232.0 L232.5,-232.0 L232.5,-232.0 L408.5,-24.1 L386.2,41.5 L209.6,67.9 L182.0,121.9 L312.4,179.4 L364.5,196.8 L282.9,175.0 L229.1,152.3 L267.2,153.4 L301.7,166.6 L292.6,171.8 L284.6,170.0 L281.9,169.2 L281.2,169.0 L281.0,168.9 L280.7,168.9 L280.6,168.9 L280.4,168.8 L280.3,168.8 L280.1,168.8 L280.0,168.8 L279.8,168.8 L279.7,168.7 L279.5,168.7 L279.4,168.7 L279.2,168.7 L279.1,168.6 L279.0,168.6 L278.8,168.6 L278.6,168.6 L278.5,168.5 L278.3,168.5 L278.1,168.5 L278.0,168.5 L277.8,168.4 L277.6,168.4 L277.5,168.4 L277.4,168.4 L277.2,168.3 L277.1,168.3 L276.9,168.3 L276.8,168.3 L276.6,168.3 L276.5,168.2 L276.4,168.2 L276.1,168.2 L276.0,168.1 L275.8,168.1 L275.6,168.1 L275.5,168.1 L275.3,168.0 L275.2,168.0 L275.0,168.0 L274.8,168.0 L274.6,167.9 L274.5,167.9 L274.3,167.9 L274.2,167.9 L274.0,167.8 L273.9,167.8 L273.6,167.8 L273.4,167.7 L273.2,167.7" fill="none" stroke="#9be564" stroke-width="1.3" opacity="0.82"><title>regular:regular:11526471 bee</title></path>
  <path d="M19.6,-232.0 L19.6,-232.0 L19.6,-232.0 L19.6,-232.0 L19.6,-232.0 L19.6,-232.0 L19.6,-232.0 L19.6,-232.0 L19.6,-232.0 L19.6,-232.0 L19.6,-232.0 L19.6,-232.0 L19.6,-232.0 L19.6,-232.0 L19.6,-232.0 L19.6,-232.0 L19.6,-232.0 L19.6,-232.0 L19.6,-232.0 L19.6,-232.0 L19.6,-232.0 L19.6,-232.0 L19.6,-232.0 L19.6,-232.0 L19.6,-232.0 L19.6,-232.0 L19.6,-232.0 L19.6,-232.0 L19.6,-232.0 L80.2,-93.4 L68.2,42.5 L229.2,149.8 L397.0,191.3 L364.7,169.8 L252.4,137.9 L259.0,138.3 L340.2,163.1 L355.0,179.4 L316.0,175.6 L305.1,167.6 L312.3,166.3 L315.2,166.0 L315.6,166.0 L315.6,165.9 L315.5,165.9 L315.3,165.8 L315.2,165.8 L315.1,165.8 L314.9,165.8 L314.7,165.7 L314.6,165.7 L314.4,165.6 L314.3,165.6 L314.1,165.6 L314.0,165.6 L313.8,165.5 L313.7,165.5 L313.5,165.4 L313.4,165.4 L313.2,165.4 L313.1,165.4 L313.0,165.3 L312.8,165.3 L312.6,165.3 L312.5,165.2 L312.3,165.2 L312.1,165.2 L312.0,165.1 L311.8,165.1 L311.6,165.1 L311.5,165.0 L311.4,165.0 L311.2,165.0 L311.1,164.9 L310.9,164.9 L310.8,164.9 L310.6,164.9 L310.5,164.8 L310.4,164.8 L310.1,164.8 L310.0,164.7 L309.8,164.7 L309.6,164.7 L309.5,164.6 L309.3,164.6 L309.2,164.6 L309.0,164.5 L308.8,164.5 L308.6,164.5 L308.5,164.4 L308.3,164.4 L308.2,164.4 L308.0,164.3 L307.9,164.3 L307.6,164.3 L307.4,164.2 L307.2,164.2" fill="none" stroke="#9be564" stroke-width="1.3" opacity="0.82"><title>regular:regular:214987562 bee</title></path>
  <path d="M577.4,-232.0 L577.4,-232.0 L577.4,-232.0 L577.4,-232.0 L577.4,-232.0 L577.4,-232.0 L577.4,-232.0 L577.4,-232.0 L577.4,-232.0 L577.4,-232.0 L577.4,-232.0 L577.4,-232.0 L577.4,-232.0 L577.4,-232.0 L577.4,-232.0 L577.4,-232.0 L577.4,-232.0 L577.4,-232.0 L577.4,-232.0 L577.4,-232.0 L577.4,-232.0 L577.4,-232.0 L577.4,-232.0 L577.4,-232.0 L436.4,-19.2 L515.0,121.5 L517.5,135.6 L350.5,110.0 L260.9,115.6 L345.1,154.8 L421.0,184.7 L377.1,180.5 L319.0,160.6 L330.3,152.2 L353.7,157.0 L352.5,160.7 L351.0,162.1 L350.6,162.3 L350.4,162.4 L350.2,162.3 L350.1,162.3 L349.9,162.3 L349.8,162.2 L349.7,162.2 L349.5,162.2 L349.4,162.1 L349.2,162.1 L349.1,162.1 L348.9,162.1 L348.7,162.0 L348.6,162.0 L348.4,162.0 L348.3,161.9 L348.1,161.9 L348.0,161.9 L347.8,161.8 L347.7,161.8 L347.5,161.8 L347.4,161.7 L347.2,161.7 L347.1,161.7 L347.0,161.7 L346.8,161.6 L346.6,161.6 L346.5,161.5 L346.3,161.5 L346.1,161.5 L346.0,161.5 L345.8,161.4 L345.6,161.4 L345.5,161.4 L345.4,161.3 L345.2,161.3 L345.1,161.3 L344.9,161.3 L344.8,161.2 L344.6,161.2 L344.5,161.2 L344.4,161.2 L344.1,161.1 L344.0,161.1 L343.8,161.0 L343.6,161.0 L343.5,161.0 L343.3,161.0 L343.2,160.9 L343.0,160.9 L342.8,160.9 L342.6,160.8 L342.5,160.8 L342.3,160.8 L342.2,160.8 L342.0,160.7 L341.9,160.7 L341.6,160.7 L341.4,160.6 L341.2,160.6" fill="none" stroke="#9be564" stroke-width="1.3" opacity="0.82"><title>regular:regular:251377273 bee</title></path>
  <path d="M-50.1,-232.0 L-50.1,-232.0 L-50.1,-232.0 L-50.1,-232.0 L-50.1,-232.0 L-50.1,-232.0 L-50.1,-232.0 L-50.1,-232.0 L-50.1,-232.0 L-50.1,-232.0 L-50.1,-232.0 L-50.1,-232.0 L-50.1,-232.0 L-50.1,-232.0 L-50.1,-232.0 L-50.1,-232.0 L-50.1,-232.0 L-50.1,-232.0 L-50.1,-232.0 L-50.1,-232.0 L-50.1,-232.0 L-50.1,-232.0 L-50.1,-232.0 L-50.1,-232.0 L-50.1,-232.0 L-50.1,-232.0 L-12.3,-145.4 L235.3,72.6 L460.8,142.1 L432.8,124.4 L298.0,105.6 L308.7,128.2 L420.8,167.9 L443.5,183.0 L377.2,168.5 L351.3,151.9 L377.4,150.8 L386.7,155.6 L384.9,158.3 L384.3,159.0 L384.1,159.1 L383.9,159.1 L383.8,159.1 L383.7,159.1 L383.5,159.0 L383.4,159.0 L383.2,159.0 L383.1,159.0 L382.9,158.9 L382.7,158.9 L382.6,158.9 L382.4,158.9 L382.3,158.8 L382.1,158.8 L382.0,158.8 L381.8,158.8 L381.7,158.8 L381.5,158.7 L381.4,158.7 L381.2,158.7 L381.1,158.7 L381.0,158.7 L380.8,158.6 L380.6,158.6 L380.5,158.6 L380.3,158.6 L380.1,158.6 L380.0,158.5 L379.8,158.5 L379.6,158.5 L379.5,158.5 L379.4,158.5 L379.2,158.4 L379.1,158.4 L378.9,158.4 L378.8,158.4 L378.6,158.4 L378.5,158.4 L378.4,158.3 L378.1,158.3 L378.0,158.3 L377.8,158.3 L377.6,158.3 L377.5,158.2 L377.3,158.2 L377.2,158.2 L377.0,158.2 L376.8,158.2 L376.6,158.2 L376.5,158.1 L376.3,158.1 L376.2,158.1 L376.0,158.1 L375.9,158.1 L375.6,158.1 L375.4,158.0 L375.2,158.0" fill="none" stroke="#9be564" stroke-width="1.3" opacity="0.82"><title>regular:regular:505724415 bee</title></path>
  <path d="M417.6,-232.0 L417.6,-232.0 L417.6,-232.0 L417.6,-232.0 L417.6,-232.0 L417.6,-232.0 L417.6,-232.0 L417.6,-232.0 L417.6,-232.0 L417.6,-232.0 L417.6,-232.0 L417.6,-232.0 L417.6,-232.0 L417.6,-232.0 L417.6,-232.0 L417.6,-232.0 L417.6,-232.0 L417.6,-232.0 L417.6,-232.0 L417.6,-232.0 L417.6,-232.0 L417.6,-232.0 L417.6,-232.0 L417.6,-232.0 L417.6,-232.0 L417.6,-232.0 L417.6,-232.0 L417.6,-232.0 L417.6,-232.0 L417.6,-232.0 L417.6,-232.0 L346.2,-154.6 L261.6,33.6 L417.3,148.8 L536.4,172.6 L447.2,140.1 L335.8,117.5 L375.6,134.4 L462.9,165.5 L456.4,175.8 L405.3,164.5 L399.5,154.3 L411.5,154.6 L416.3,156.8 L417.2,157.2 L417.3,157.3 L417.2,157.3 L417.1,157.3 L416.9,157.3 L416.7,157.3 L416.6,157.3 L416.4,157.3 L416.3,157.3 L416.1,157.3 L416.0,157.3 L415.8,157.3 L415.7,157.3 L415.5,157.3 L415.4,157.3 L415.2,157.3 L415.1,157.3 L415.0,157.2 L414.8,157.2 L414.6,157.2 L414.5,157.2 L414.3,157.2 L414.1,157.2 L414.0,157.2 L413.8,157.2 L413.6,157.2 L413.5,157.2 L413.4,157.2 L413.2,157.2 L413.1,157.2 L412.9,157.2 L412.8,157.2 L412.6,157.2 L412.5,157.2 L412.4,157.2 L412.1,157.2 L412.0,157.2 L411.8,157.2 L411.6,157.2 L411.5,157.2 L411.3,157.2 L411.2,157.2 L411.0,157.2 L410.8,157.2 L410.6,157.2 L410.5,157.2 L410.3,157.2 L410.2,157.2 L410.0,157.2 L409.9,157.2 L409.6,157.2 L409.4,157.2 L409.2,157.2" fill="none" stroke="#9be564" stroke-width="1.3" opacity="0.82"><title>regular:regular:693105450 bee</title></path>
  <path d="M178.2,-232.0 L178.2,-232.0 L178.2,-232.0 L178.2,-232.0 L178.2,-232.0 L178.2,-232.0 L178.2,-232.0 L178.2,-232.0 L178.2,-232.0 L178.2,-232.0 L178.2,-232.0 L178.2,-232.0 L178.2,-232.0 L178.2,-232.0 L178.2,-232.0 L178.2,-232.0 L178.2,-232.0 L178.2,-232.0 L178.2,-232.0 L178.2,-232.0 L178.2,-232.0 L178.2,-232.0 L178.2,-232.0 L178.2,-232.0 L178.2,-232.0 L178.2,-232.0 L178.2,-232.0 L178.2,-232.0 L178.2,-232.0 L178.2,-232.0 L178.2,-232.0 L178.2,-232.0 L178.2,-232.0 L178.2,-232.0 L178.2,-232.0 L178.2,-232.0 L330.6,-141.9 L393.9,-33.1 L286.0,38.6 L344.2,121.7 L504.5,178.9 L525.8,179.8 L424.4,149.1 L390.9,132.7 L450.5,144.4 L481.9,161.5 L461.0,164.7 L451.8,161.1 L451.1,158.4 L450.8,157.8 L450.6,157.7 L450.4,157.7 L450.3,157.7 L450.1,157.7 L450.0,157.7 L449.8,157.8 L449.7,157.8 L449.5,157.8 L449.4,157.8 L449.2,157.8 L449.1,157.8 L449.0,157.8 L448.8,157.8 L448.6,157.9 L448.5,157.9 L448.3,157.9 L448.1,157.9 L448.0,157.9 L447.8,157.9 L447.6,157.9 L447.5,158.0 L447.4,158.0 L447.2,158.0 L447.1,158.0 L446.9,158.0 L446.8,158.0 L446.6,158.0 L446.5,158.1 L446.4,158.1 L446.1,158.1 L446.0,158.1 L445.8,158.1 L445.6,158.1 L445.5,158.2 L445.3,158.2 L445.2,158.2 L445.0,158.2 L444.8,158.2 L444.6,158.2 L444.5,158.3 L444.3,158.3 L444.2,158.3 L444.0,158.3 L443.9,158.3 L443.6,158.4 L443.4,158.4 L443.2,158.4" fill="none" stroke="#9be564" stroke-width="1.3" opacity="0.82"><title>regular:regular:890707246 bee</title></path>
  <path d="M443.9,-232.0 L443.9,-232.0 L443.9,-232.0 L443.9,-232.0 L443.9,-232.0 L443.9,-232.0 L443.9,-232.0 L443.9,-232.0 L443.9,-232.0 L443.9,-232.0 L443.9,-232.0 L443.9,-232.0 L443.9,-232.0 L443.9,-232.0 L443.9,-232.0 L443.9,-232.0 L443.9,-232.0 L443.9,-232.0 L443.9,-232.0 L443.9,-232.0 L443.9,-232.0 L443.9,-232.0 L443.9,-232.0 L443.9,-232.0 L443.9,-232.0 L443.9,-232.0 L443.9,-232.0 L443.9,-232.0 L443.9,-232.0 L443.9,-232.0 L443.9,-232.0 L443.9,-232.0 L443.9,-232.0 L443.9,-232.0 L443.9,-232.0 L443.9,-232.0 L443.9,-232.0 L443.9,-232.0 L443.9,-232.0 L443.9,-232.0 L443.9,-232.0 L438.5,-99.4 L585.0,84.0 L634.8,116.2 L482.6,97.7 L384.7,107.4 L468.2,150.4 L556.1,182.8 L516.5,178.8 L450.5,157.1 L459.1,147.6 L489.3,153.4 L489.6,157.8 L485.2,159.6 L484.2,159.9 L483.8,160.1 L483.7,160.1 L483.5,160.1 L483.4,160.2 L483.2,160.2 L483.1,160.2 L483.0,160.2 L482.8,160.3 L482.6,160.3 L482.5,160.3 L482.3,160.3 L482.1,160.4 L482.0,160.4 L481.8,160.4 L481.6,160.5 L481.5,160.5 L481.4,160.5 L481.2,160.5 L481.1,160.6 L480.9,160.6 L480.8,160.6 L480.6,160.6 L480.5,160.7 L480.4,160.7 L480.1,160.7 L480.0,160.8 L479.8,160.8 L479.6,160.8 L479.5,160.8 L479.3,160.9 L479.2,160.9 L479.0,160.9 L478.8,161.0 L478.6,161.0 L478.5,161.0 L478.3,161.0 L478.2,161.1 L478.0,161.1 L477.9,161.1 L477.6,161.2 L477.4,161.2 L477.2,161.2" fill="none" stroke="#9be564" stroke-width="1.3" opacity="0.82"><title>regular:regular:960157998 bee</title></path>
  <path d="M239.1,-232.0 L239.1,-232.0 L239.1,-232.0 L239.1,-232.0 L239.1,-232.0 L239.1,-232.0 L239.1,-232.0 L239.1,-232.0 L239.1,-232.0 L239.1,-232.0 L239.1,-232.0 L239.1,-232.0 L239.1,-232.0 L239.1,-232.0 L239.1,-232.0 L239.1,-232.0 L239.1,-232.0 L239.1,-232.0 L239.1,-232.0 L239.1,-232.0 L239.1,-232.0 L239.1,-232.0 L239.1,-232.0 L239.1,-232.0 L239.1,-232.0 L239.1,-232.0 L239.1,-232.0 L239.1,-232.0 L239.1,-232.0 L239.1,-232.0 L239.1,-232.0 L239.1,-232.0 L239.1,-232.0 L239.1,-232.0 L239.1,-232.0 L239.1,-232.0 L239.1,-232.0 L239.1,-232.0 L239.1,-232.0 L239.1,-232.0 L239.1,-232.0 L239.1,-232.0 L239.1,-232.0 L239.1,-232.0 L239.1,-232.0 L239.1,-232.0 L426.4,-106.7 L559.7,3.4 L430.7,43.1 L385.3,101.6 L518.1,166.6 L603.6,191.9 L534.6,172.4 L462.8,146.6 L492.4,145.0 L538.5,159.7 L533.3,167.8 L522.3,166.1 L518.4,164.2 L517.4,163.8 L517.2,163.7 L517.0,163.7 L516.8,163.8 L516.6,163.8 L516.5,163.8 L516.3,163.9 L516.1,163.9 L516.0,164.0 L515.8,164.0 L515.6,164.0 L515.5,164.0 L515.4,164.1 L515.2,164.1 L515.1,164.1 L514.9,164.2 L514.8,164.2 L514.6,164.2 L514.5,164.3 L514.4,164.3 L514.1,164.3 L514.0,164.4 L513.8,164.4 L513.6,164.4 L513.5,164.5 L513.3,164.5 L513.2,164.5 L513.0,164.6 L512.8,164.6 L512.6,164.6 L512.5,164.6 L512.3,164.7 L512.2,164.7 L512.0,164.7 L511.9,164.8 L511.6,164.8 L511.4,164.9 L511.2,164.9" fill="none" stroke="#9be564" stroke-width="1.3" opacity="0.82"><title>regular:regular:503674111 bee</title></path>
  <text x="24" y="504" fill="#a9b7c0" font-family="monospace" font-size="11">red boss, gold escort, blue challenge, green other moving paths</text>
</svg>
