<svg xmlns="http://www.w3.org/2000/svg" width="630" height="648" viewBox="0 0 630 648">
  <rect width="100%" height="100%" fill="#08111a"/>
  <text x="14" y="26" fill="#ffffff" font-size="18" font-weight="700">Challenge 2 Target Component Contact Sheet</text>
  <g>
      <rect x="6" y="46" width="198" height="138" fill="#050a0f" stroke="#23495b"/>
      <text x="12" y="64" fill="#dff7ff" font-size="13">t=0s components=13</text>
      <circle cx="100.3" cy="114.5" r="4.4" fill="#74f7ff" opacity="0.78"/>
<circle cx="93.1" cy="98.1" r="4.1" fill="#ff5cf3" opacity="0.78"/>
<circle cx="95.5" cy="105.4" r="3.5" fill="#ffe76a" opacity="0.78"/>
<circle cx="103.6" cy="119.5" r="2.5" fill="#65ff9a" opacity="0.78"/>
<circle cx="102.5" cy="153.6" r="2" fill="#ff766a" opacity="0.78"/>
<circle cx="110.1" cy="118.1" r="2" fill="#a98bff" opacity="0.78"/>
<circle cx="98.7" cy="120.5" r="2" fill="#ffffff" opacity="0.78"/>
<circle cx="94.9" cy="120.3" r="2" fill="#74f7ff" opacity="0.78"/>
<circle cx="93.5" cy="119.5" r="2" fill="#ff5cf3" opacity="0.78"/>
<circle cx="107.6" cy="120.8" r="2" fill="#ffe76a" opacity="0.78"/>
<circle cx="99.9" cy="118.6" r="2" fill="#65ff9a" opacity="0.78"/>
<circle cx="109.2" cy="119.6" r="2" fill="#ff766a" opacity="0.78"/>
    </g>
<g>
      <rect x="216" y="46" width="198" height="138" fill="#050a0f" stroke="#23495b"/>
      <text x="222" y="64" fill="#dff7ff" font-size="13">t=0.75s components=12</text>
      <circle cx="320.9" cy="125.2" r="2.2" fill="#74f7ff" opacity="0.78"/>
<circle cx="317.8" cy="138.5" r="2" fill="#ff5cf3" opacity="0.78"/>
<circle cx="312.6" cy="124.5" r="2" fill="#ffe76a" opacity="0.78"/>
<circle cx="311.5" cy="126.9" r="2" fill="#65ff9a" opacity="0.78"/>
<circle cx="315.8" cy="130.1" r="2" fill="#ff766a" opacity="0.78"/>
<circle cx="327.1" cy="127.3" r="2" fill="#a98bff" opacity="0.78"/>
<circle cx="321.5" cy="130.9" r="2" fill="#ffffff" opacity="0.78"/>
<circle cx="322.3" cy="129" r="2" fill="#74f7ff" opacity="0.78"/>
<circle cx="310.5" cy="129.1" r="2" fill="#ff5cf3" opacity="0.78"/>
<circle cx="316.2" cy="122.4" r="2" fill="#ffe76a" opacity="0.78"/>
<circle cx="319" cy="129.4" r="2" fill="#65ff9a" opacity="0.78"/>
<circle cx="324.9" cy="130.5" r="2" fill="#ff766a" opacity="0.78"/>
    </g>
<g>
      <rect x="426" y="46" width="198" height="138" fill="#050a0f" stroke="#23495b"/>
      <text x="432" y="64" fill="#dff7ff" font-size="13">t=1.5s components=1</text>
      <circle cx="527.9" cy="127" r="3.5" fill="#74f7ff" opacity="0.78"/>
    </g>
<g>
      <rect x="6" y="196" width="198" height="138" fill="#050a0f" stroke="#23495b"/>
      <text x="12" y="214" fill="#dff7ff" font-size="13">t=2.25s components=0</text>

    </g>
<g>
      <rect x="216" y="196" width="198" height="138" fill="#050a0f" stroke="#23495b"/>
      <text x="222" y="214" fill="#dff7ff" font-size="13">t=3s components=0</text>

    </g>
<g>
      <rect x="426" y="196" width="198" height="138" fill="#050a0f" stroke="#23495b"/>
      <text x="432" y="214" fill="#dff7ff" font-size="13">t=3.75s components=0</text>

    </g>
<g>
      <rect x="6" y="346" width="198" height="138" fill="#050a0f" stroke="#23495b"/>
      <text x="12" y="364" fill="#dff7ff" font-size="13">t=4.5s components=6</text>
      <circle cx="56.9" cy="419.5" r="5.5" fill="#74f7ff" opacity="0.78"/>
<circle cx="77.7" cy="419.5" r="3.8" fill="#ff5cf3" opacity="0.78"/>
<circle cx="97.4" cy="419.3" r="3.6" fill="#ffe76a" opacity="0.78"/>
<circle cx="133.6" cy="419.4" r="3.3" fill="#65ff9a" opacity="0.78"/>
<circle cx="115.3" cy="419.5" r="2.6" fill="#ff766a" opacity="0.78"/>
<circle cx="122.7" cy="419.5" r="2.3" fill="#a98bff" opacity="0.78"/>
    </g>
<g>
      <rect x="216" y="346" width="198" height="138" fill="#050a0f" stroke="#23495b"/>
      <text x="222" y="364" fill="#dff7ff" font-size="13">t=5.25s components=6</text>
      <circle cx="267.1" cy="419.6" r="5.5" fill="#74f7ff" opacity="0.78"/>
<circle cx="287.6" cy="419.5" r="3.7" fill="#ff5cf3" opacity="0.78"/>
<circle cx="307.3" cy="419.4" r="3.6" fill="#ffe76a" opacity="0.78"/>
<circle cx="343.7" cy="419.4" r="3.3" fill="#65ff9a" opacity="0.78"/>
<circle cx="325.3" cy="419.5" r="2.6" fill="#ff766a" opacity="0.78"/>
<circle cx="332.8" cy="419.5" r="2.3" fill="#a98bff" opacity="0.78"/>
    </g>
<g>
      <rect x="426" y="346" width="198" height="138" fill="#050a0f" stroke="#23495b"/>
      <text x="432" y="364" fill="#dff7ff" font-size="13">t=6s components=7</text>
      <circle cx="477" cy="419.6" r="5.5" fill="#74f7ff" opacity="0.78"/>
<circle cx="497.6" cy="419.6" r="3.7" fill="#ff5cf3" opacity="0.78"/>
<circle cx="517.5" cy="419.4" r="3.5" fill="#ffe76a" opacity="0.78"/>
<circle cx="556" cy="419.6" r="2.7" fill="#65ff9a" opacity="0.78"/>
<circle cx="535.3" cy="419.5" r="2.6" fill="#ff766a" opacity="0.78"/>
<circle cx="542.8" cy="419.5" r="2.3" fill="#a98bff" opacity="0.78"/>
<circle cx="549.4" cy="419.1" r="2" fill="#ffffff" opacity="0.78"/>
    </g>
<g>
      <rect x="6" y="496" width="198" height="138" fill="#050a0f" stroke="#23495b"/>
      <text x="12" y="514" fill="#dff7ff" font-size="13">t=6.75s components=9</text>
      <circle cx="57.1" cy="569.5" r="5.4" fill="#74f7ff" opacity="0.78"/>
<circle cx="77.8" cy="569.5" r="3.7" fill="#ff5cf3" opacity="0.78"/>
<circle cx="97.4" cy="569.4" r="3.5" fill="#ffe76a" opacity="0.78"/>
<circle cx="136" cy="569.5" r="2.7" fill="#65ff9a" opacity="0.78"/>
<circle cx="115.3" cy="569.5" r="2.6" fill="#ff766a" opacity="0.78"/>
<circle cx="163.7" cy="569.5" r="2.4" fill="#a98bff" opacity="0.78"/>
<circle cx="157" cy="569.5" r="2.4" fill="#ffffff" opacity="0.78"/>
<circle cx="122.7" cy="569.5" r="2.3" fill="#74f7ff" opacity="0.78"/>
<circle cx="129.6" cy="569.2" r="2" fill="#ff5cf3" opacity="0.78"/>
    </g>
<g>
      <rect x="216" y="496" width="198" height="138" fill="#050a0f" stroke="#23495b"/>
      <text x="222" y="514" fill="#dff7ff" font-size="13">t=7.5s components=8</text>
      <circle cx="267" cy="569.5" r="5.4" fill="#74f7ff" opacity="0.78"/>
<circle cx="287.7" cy="569.5" r="3.7" fill="#ff5cf3" opacity="0.78"/>
<circle cx="307.3" cy="569.4" r="3.5" fill="#ffe76a" opacity="0.78"/>
<circle cx="343.7" cy="569.4" r="3.3" fill="#65ff9a" opacity="0.78"/>
<circle cx="325.3" cy="569.5" r="2.6" fill="#ff766a" opacity="0.78"/>
<circle cx="373.7" cy="569.5" r="2.4" fill="#a98bff" opacity="0.78"/>
<circle cx="367.1" cy="569.5" r="2.3" fill="#ffffff" opacity="0.78"/>
<circle cx="332.8" cy="569.5" r="2.2" fill="#74f7ff" opacity="0.78"/>
    </g>
<g>
      <rect x="426" y="496" width="198" height="138" fill="#050a0f" stroke="#23495b"/>
      <text x="432" y="514" fill="#dff7ff" font-size="13">t=8.25s components=14</text>
      <circle cx="477.1" cy="569.5" r="5.4" fill="#74f7ff" opacity="0.78"/>
<circle cx="514.1" cy="559.4" r="4.5" fill="#ff5cf3" opacity="0.78"/>
<circle cx="497.7" cy="569.5" r="3.7" fill="#ffe76a" opacity="0.78"/>
<circle cx="517.3" cy="569.4" r="3.6" fill="#65ff9a" opacity="0.78"/>
<circle cx="553.7" cy="569.4" r="3.4" fill="#ff766a" opacity="0.78"/>
<circle cx="535.3" cy="569.5" r="2.6" fill="#a98bff" opacity="0.78"/>
<circle cx="500.4" cy="559.3" r="2.5" fill="#ffffff" opacity="0.78"/>
<circle cx="528.7" cy="559.5" r="2.5" fill="#74f7ff" opacity="0.78"/>
<circle cx="583.7" cy="569.5" r="2.4" fill="#ff5cf3" opacity="0.78"/>
<circle cx="535.2" cy="559.5" r="2.4" fill="#ffe76a" opacity="0.78"/>
<circle cx="577.1" cy="569.5" r="2.3" fill="#65ff9a" opacity="0.78"/>
<circle cx="542.7" cy="569.5" r="2.3" fill="#ff766a" opacity="0.78"/>
    </g>
</svg>
