<svg xmlns="http://www.w3.org/2000/svg" width="630" height="648" viewBox="0 0 630 648">
  <rect width="100%" height="100%" fill="#08111a"/>
  <text x="14" y="26" fill="#ffffff" font-size="18" font-weight="700">Challenge 6 Target Component Contact Sheet</text>
  <g>
      <rect x="6" y="46" width="198" height="138" fill="#050a0f" stroke="#23495b"/>
      <text x="12" y="64" fill="#dff7ff" font-size="13">t=0s components=4</text>
      <circle cx="169.8" cy="133.2" r="4" fill="#74f7ff" opacity="0.78"/>
<circle cx="166.7" cy="106" r="2" fill="#ff5cf3" opacity="0.78"/>
<circle cx="166.7" cy="86" r="2" fill="#ffe76a" opacity="0.78"/>
<circle cx="76" cy="152" r="2" fill="#65ff9a" opacity="0.78"/>
    </g>
<g>
      <rect x="216" y="46" width="198" height="138" fill="#050a0f" stroke="#23495b"/>
      <text x="222" y="64" fill="#dff7ff" font-size="13">t=0.83s components=1</text>
      <circle cx="379.8" cy="133.2" r="4" fill="#74f7ff" opacity="0.78"/>
    </g>
<g>
      <rect x="426" y="46" width="198" height="138" fill="#050a0f" stroke="#23495b"/>
      <text x="432" y="64" fill="#dff7ff" font-size="13">t=1.67s components=0</text>

    </g>
<g>
      <rect x="6" y="196" width="198" height="138" fill="#050a0f" stroke="#23495b"/>
      <text x="12" y="214" fill="#dff7ff" font-size="13">t=2.5s components=0</text>

    </g>
<g>
      <rect x="216" y="196" width="198" height="138" fill="#050a0f" stroke="#23495b"/>
      <text x="222" y="214" fill="#dff7ff" font-size="13">t=3.33s components=7</text>
      <circle cx="267.2" cy="269.5" r="5.5" fill="#74f7ff" opacity="0.78"/>
<circle cx="287.9" cy="269.5" r="3.7" fill="#ff5cf3" opacity="0.78"/>
<circle cx="307.5" cy="269.4" r="3.5" fill="#ffe76a" opacity="0.78"/>
<circle cx="325.6" cy="269.5" r="2.6" fill="#65ff9a" opacity="0.78"/>
<circle cx="346.3" cy="269.5" r="2.6" fill="#ff766a" opacity="0.78"/>
<circle cx="333" cy="269.5" r="2.3" fill="#a98bff" opacity="0.78"/>
<circle cx="339.8" cy="269.1" r="2" fill="#ffffff" opacity="0.78"/>
    </g>
<g>
      <rect x="426" y="196" width="198" height="138" fill="#050a0f" stroke="#23495b"/>
      <text x="432" y="214" fill="#dff7ff" font-size="13">t=4.17s components=7</text>
      <circle cx="477.2" cy="269.5" r="5.5" fill="#74f7ff" opacity="0.78"/>
<circle cx="497.9" cy="269.5" r="3.8" fill="#ff5cf3" opacity="0.78"/>
<circle cx="517.5" cy="269.4" r="3.5" fill="#ffe76a" opacity="0.78"/>
<circle cx="556.3" cy="269.6" r="2.6" fill="#65ff9a" opacity="0.78"/>
<circle cx="535.6" cy="269.5" r="2.6" fill="#ff766a" opacity="0.78"/>
<circle cx="543" cy="269.6" r="2.2" fill="#a98bff" opacity="0.78"/>
<circle cx="549.9" cy="269.2" r="2" fill="#ffffff" opacity="0.78"/>
    </g>
<g>
      <rect x="6" y="346" width="198" height="138" fill="#050a0f" stroke="#23495b"/>
      <text x="12" y="364" fill="#dff7ff" font-size="13">t=5s components=8</text>
      <circle cx="57.2" cy="419.5" r="5.4" fill="#74f7ff" opacity="0.78"/>
<circle cx="77.9" cy="419.5" r="3.7" fill="#ff5cf3" opacity="0.78"/>
<circle cx="97.5" cy="419.4" r="3.5" fill="#ffe76a" opacity="0.78"/>
<circle cx="160.8" cy="419.5" r="3.4" fill="#65ff9a" opacity="0.78"/>
<circle cx="115.6" cy="419.5" r="2.6" fill="#ff766a" opacity="0.78"/>
<circle cx="136.3" cy="419.5" r="2.6" fill="#a98bff" opacity="0.78"/>
<circle cx="123" cy="419.5" r="2.3" fill="#ffffff" opacity="0.78"/>
<circle cx="129.9" cy="419.2" r="2" fill="#74f7ff" opacity="0.78"/>
    </g>
<g>
      <rect x="216" y="346" width="198" height="138" fill="#050a0f" stroke="#23495b"/>
      <text x="222" y="364" fill="#dff7ff" font-size="13">t=5.83s components=8</text>
      <circle cx="267.2" cy="419.5" r="5.4" fill="#74f7ff" opacity="0.78"/>
<circle cx="287.8" cy="419.5" r="3.7" fill="#ff5cf3" opacity="0.78"/>
<circle cx="307.6" cy="419.3" r="3.5" fill="#ffe76a" opacity="0.78"/>
<circle cx="343.9" cy="419.4" r="3.3" fill="#65ff9a" opacity="0.78"/>
<circle cx="325.6" cy="419.5" r="2.6" fill="#ff766a" opacity="0.78"/>
<circle cx="374.1" cy="419.5" r="2.4" fill="#a98bff" opacity="0.78"/>
<circle cx="367.4" cy="419.5" r="2.4" fill="#ffffff" opacity="0.78"/>
<circle cx="333" cy="419.5" r="2.2" fill="#74f7ff" opacity="0.78"/>
    </g>
<g>
      <rect x="426" y="346" width="198" height="138" fill="#050a0f" stroke="#23495b"/>
      <text x="432" y="364" fill="#dff7ff" font-size="13">t=6.67s components=15</text>
      <circle cx="477.2" cy="419.5" r="5.4" fill="#74f7ff" opacity="0.78"/>
<circle cx="514.4" cy="409.4" r="4.5" fill="#ff5cf3" opacity="0.78"/>
<circle cx="497.9" cy="419.5" r="3.7" fill="#ffe76a" opacity="0.78"/>
<circle cx="517.6" cy="419.4" r="3.6" fill="#65ff9a" opacity="0.78"/>
<circle cx="553.9" cy="419.4" r="3.3" fill="#ff766a" opacity="0.78"/>
<circle cx="535.6" cy="419.5" r="2.6" fill="#a98bff" opacity="0.78"/>
<circle cx="500.7" cy="409.3" r="2.5" fill="#ffffff" opacity="0.78"/>
<circle cx="528.9" cy="409.5" r="2.5" fill="#74f7ff" opacity="0.78"/>
<circle cx="535.5" cy="409.6" r="2.4" fill="#ff5cf3" opacity="0.78"/>
<circle cx="584.1" cy="419.5" r="2.4" fill="#ffe76a" opacity="0.78"/>
<circle cx="577.4" cy="419.5" r="2.3" fill="#65ff9a" opacity="0.78"/>
<circle cx="542.9" cy="419.5" r="2.2" fill="#ff766a" opacity="0.78"/>
    </g>
<g>
      <rect x="6" y="496" width="198" height="138" fill="#050a0f" stroke="#23495b"/>
      <text x="12" y="514" fill="#dff7ff" font-size="13">t=7.5s components=8</text>
      <circle cx="57.2" cy="569.5" r="5.4" fill="#74f7ff" opacity="0.78"/>
<circle cx="77.9" cy="569.5" r="3.7" fill="#ff5cf3" opacity="0.78"/>
<circle cx="97.6" cy="569.4" r="3.6" fill="#ffe76a" opacity="0.78"/>
<circle cx="133.9" cy="569.4" r="3.3" fill="#65ff9a" opacity="0.78"/>
<circle cx="115.6" cy="569.5" r="2.6" fill="#ff766a" opacity="0.78"/>
<circle cx="164.1" cy="569.5" r="2.4" fill="#a98bff" opacity="0.78"/>
<circle cx="157.4" cy="569.5" r="2.3" fill="#ffffff" opacity="0.78"/>
<circle cx="122.9" cy="569.5" r="2.2" fill="#74f7ff" opacity="0.78"/>
    </g>
<g>
      <rect x="216" y="496" width="198" height="138" fill="#050a0f" stroke="#23495b"/>
      <text x="222" y="514" fill="#dff7ff" font-size="13">t=8.33s components=25</text>
      <circle cx="304.1" cy="579.5" r="5.9" fill="#74f7ff" opacity="0.78"/>
<circle cx="267.2" cy="569.5" r="5.4" fill="#ff5cf3" opacity="0.78"/>
<circle cx="349.9" cy="579.5" r="4.7" fill="#ffe76a" opacity="0.78"/>
<circle cx="304.3" cy="559.4" r="4.5" fill="#65ff9a" opacity="0.78"/>
<circle cx="287.9" cy="569.5" r="3.7" fill="#ff766a" opacity="0.78"/>
<circle cx="307.6" cy="569.4" r="3.6" fill="#a98bff" opacity="0.78"/>
<circle cx="238.8" cy="579.4" r="3.6" fill="#ffffff" opacity="0.78"/>
<circle cx="344" cy="569.4" r="3.3" fill="#74f7ff" opacity="0.78"/>
<circle cx="385.3" cy="579.4" r="3.2" fill="#ff5cf3" opacity="0.78"/>
<circle cx="325.6" cy="569.5" r="2.6" fill="#ffe76a" opacity="0.78"/>
<circle cx="270.3" cy="579.5" r="2.6" fill="#65ff9a" opacity="0.78"/>
<circle cx="318.9" cy="559.5" r="2.5" fill="#ff766a" opacity="0.78"/>
    </g>
<g>
      <rect x="426" y="496" width="198" height="138" fill="#050a0f" stroke="#23495b"/>
      <text x="432" y="514" fill="#dff7ff" font-size="13">t=9.17s components=25</text>
      <circle cx="514.1" cy="579.5" r="5.9" fill="#74f7ff" opacity="0.78"/>
<circle cx="477.2" cy="569.5" r="5.4" fill="#ff5cf3" opacity="0.78"/>
<circle cx="559.8" cy="579.5" r="4.7" fill="#ffe76a" opacity="0.78"/>
<circle cx="514.5" cy="559.4" r="4.5" fill="#65ff9a" opacity="0.78"/>
<circle cx="497.9" cy="569.5" r="3.7" fill="#ff766a" opacity="0.78"/>
<circle cx="517.5" cy="569.4" r="3.5" fill="#a98bff" opacity="0.78"/>
<circle cx="448.8" cy="579.4" r="3.5" fill="#ffffff" opacity="0.78"/>
<circle cx="553.9" cy="569.4" r="3.3" fill="#74f7ff" opacity="0.78"/>
<circle cx="595.3" cy="579.4" r="3.2" fill="#ff5cf3" opacity="0.78"/>
<circle cx="535.6" cy="569.5" r="2.6" fill="#ffe76a" opacity="0.78"/>
<circle cx="480.3" cy="579.5" r="2.6" fill="#65ff9a" opacity="0.78"/>
<circle cx="500.7" cy="559.3" r="2.5" fill="#ff766a" opacity="0.78"/>
    </g>
</svg>
