<svg xmlns="http://www.w3.org/2000/svg" width="980" height="667" viewBox="0 0 980 667">
<rect width="100%" height="100%" fill="#f7f4ee"/>
<text x="28" y="38" font-family="Arial, sans-serif" font-size="25" font-weight="700" fill="#1f1a15">Estimated Score Movement In The Focused Work Block</text>
<line x1="260" y1="52" x2="940" y2="52" stroke="#d2cabf"/>
<text x="28" y="89" font-family="Arial, sans-serif" font-size="16" fill="#1f1a15">Challenge strict conformance</text>
<rect x="260" y="70" width="349" height="24" rx="4" fill="#16784f"/>
<text x="619" y="88" font-family="Arial, sans-serif" font-size="15" font-weight="700" fill="#1f1a15">+1.3</text>
<text x="28" y="135" font-family="Arial, sans-serif" font-size="16" fill="#1f1a15">Challenge interesting factor</text>
<rect x="260" y="116" width="322" height="24" rx="4" fill="#16784f"/>
<text x="592" y="134" font-family="Arial, sans-serif" font-size="15" font-weight="700" fill="#1f1a15">+1.2</text>
<text x="28" y="181" font-family="Arial, sans-serif" font-size="16" fill="#1f1a15">Challenge movement / trajectory conformance</text>
<rect x="260" y="162" width="295" height="24" rx="4" fill="#16784f"/>
<text x="565" y="180" font-family="Arial, sans-serif" font-size="15" font-weight="700" fill="#1f1a15">+1.1</text>
<text x="28" y="227" font-family="Arial, sans-serif" font-size="16" fill="#1f1a15">Challenge graphical conformance</text>
<rect x="260" y="208" width="590" height="24" rx="4" fill="#16784f"/>
<text x="860" y="226" font-family="Arial, sans-serif" font-size="15" font-weight="700" fill="#1f1a15">+2.2</text>
<text x="28" y="273" font-family="Arial, sans-serif" font-size="16" fill="#1f1a15">Challenge alien novelty</text>
<rect x="260" y="254" width="0" height="24" rx="4" fill="#a64136"/>
<text x="270" y="272" font-family="Arial, sans-serif" font-size="15" font-weight="700" fill="#1f1a15">+0</text>
<text x="28" y="319" font-family="Arial, sans-serif" font-size="16" fill="#1f1a15">Challenge stage-to-stage progression</text>
<rect x="260" y="300" width="54" height="24" rx="4" fill="#b68118"/>
<text x="324" y="318" font-family="Arial, sans-serif" font-size="15" font-weight="700" fill="#1f1a15">+0.2</text>
<text x="28" y="365" font-family="Arial, sans-serif" font-size="16" fill="#1f1a15">Challenge scoring/shot opportunity</text>
<rect x="260" y="346" width="0" height="24" rx="4" fill="#a64136"/>
<text x="270" y="364" font-family="Arial, sans-serif" font-size="15" font-weight="700" fill="#1f1a15">+null</text>
<text x="28" y="411" font-family="Arial, sans-serif" font-size="16" fill="#1f1a15">Challenge no-combat safety guardrail</text>
<rect x="260" y="392" width="0" height="24" rx="4" fill="#a64136"/>
<text x="270" y="410" font-family="Arial, sans-serif" font-size="15" font-weight="700" fill="#1f1a15">+0</text>
<text x="28" y="457" font-family="Arial, sans-serif" font-size="16" fill="#1f1a15">Overall quality rollup after strict challenge metric</text>
<rect x="260" y="438" width="27" height="24" rx="4" fill="#b68118"/>
<text x="297" y="456" font-family="Arial, sans-serif" font-size="15" font-weight="700" fill="#1f1a15">+0.1</text>
<text x="28" y="503" font-family="Arial, sans-serif" font-size="16" fill="#1f1a15">Audio release-category read</text>
<rect x="260" y="484" width="80" height="24" rx="4" fill="#b68118"/>
<text x="350" y="502" font-family="Arial, sans-serif" font-size="15" font-weight="700" fill="#1f1a15">+0.3</text>
<text x="28" y="549" font-family="Arial, sans-serif" font-size="16" fill="#1f1a15">Audio runtime promotion success</text>
<rect x="260" y="530" width="0" height="24" rx="4" fill="#a64136"/>
<text x="270" y="548" font-family="Arial, sans-serif" font-size="15" font-weight="700" fill="#1f1a15">+0</text>
<text x="28" y="595" font-family="Arial, sans-serif" font-size="16" fill="#1f1a15">Live runtime static sprite conformance</text>
<rect x="260" y="576" width="0" height="24" rx="4" fill="#a64136"/>
<text x="270" y="594" font-family="Arial, sans-serif" font-size="15" font-weight="700" fill="#1f1a15">+null</text>
</svg>
