<svg xmlns="http://www.w3.org/2000/svg" width="980" height="360" viewBox="0 0 980 360">
<rect width="100%" height="100%" fill="#fff"/>
<text x="64" y="28" font-family="Arial, sans-serif" font-size="20" font-weight="700">Conformance Score Trends</text>
<line x1="64" y1="48" x2="64" y2="302" stroke="#333"/>
<line x1="64" y1="302" x2="952" y2="302" stroke="#333"/>
<line x1="64" y1="302" x2="952" y2="302" stroke="#e6e6e6"/>
<text x="54" y="306" text-anchor="end" font-family="Arial, sans-serif" font-size="12">0</text>
<line x1="64" y1="251.2" x2="952" y2="251.2" stroke="#e6e6e6"/>
<text x="54" y="255.2" text-anchor="end" font-family="Arial, sans-serif" font-size="12">2</text>
<line x1="64" y1="200.39999999999998" x2="952" y2="200.39999999999998" stroke="#e6e6e6"/>
<text x="54" y="204.39999999999998" text-anchor="end" font-family="Arial, sans-serif" font-size="12">4</text>
<line x1="64" y1="149.6" x2="952" y2="149.6" stroke="#e6e6e6"/>
<text x="54" y="153.6" text-anchor="end" font-family="Arial, sans-serif" font-size="12">6</text>
<line x1="64" y1="98.79999999999998" x2="952" y2="98.79999999999998" stroke="#e6e6e6"/>
<text x="54" y="102.79999999999998" text-anchor="end" font-family="Arial, sans-serif" font-size="12">8</text>
<line x1="64" y1="48" x2="952" y2="48" stroke="#e6e6e6"/>
<text x="54" y="52" text-anchor="end" font-family="Arial, sans-serif" font-size="12">10</text>
<polyline points="64,114.03999999999999 84.65116279069767,114.03999999999999 105.30232558139535,111.5 125.95348837209302,111.5 146.6046511627907,114.03999999999999 167.25581395348837,111.5 187.90697674418604,111.5 208.55813953488374,111.5 229.2093023255814,91.17999999999998 249.86046511627907,91.17999999999998 270.51162790697674,86.1 291.16279069767444,81.02000000000004 311.8139534883721,78.47999999999996 332.4651162790698,78.47999999999996 353.1162790697675,78.47999999999996 373.7674418604651,78.47999999999996 394.4186046511628,78.47999999999996 415.06976744186045,78.47999999999996 435.72093023255815,78.47999999999996 456.37209302325584,73.4 477.0232558139535,68.32000000000002 497.6744186046511,68.32000000000002 518.3255813953489,68.32000000000002 538.9767441860465,68.32000000000002 559.6279069767442,68.32000000000002 580.2790697674419,73.4 600.9302325581396,70.86000000000001 621.5813953488372,70.86000000000001 642.232558139535,70.86000000000001 662.8837209302326,70.86000000000001 683.5348837209302,70.86000000000001 704.1860465116279,70.86000000000001 724.8372093023256,70.86000000000001 745.4883720930233,70.86000000000001 766.1395348837209,68.32000000000002 786.7906976744187,70.86000000000001 807.4418604651163,65.78 828.0930232558139,73.4 848.7441860465117,70.86000000000001 869.3953488372092,68.32000000000002 890.046511627907,68.32000000000002 910.6976744186047,70.86000000000001 931.3488372093022,70.86000000000001 952,68.32000000000002" fill="none" stroke="#1f77b4" stroke-width="2.5"/>
<circle cx="64" cy="114.03999999999999" r="3.5" fill="#1f77b4"><title>Overall: 7.4 2026-04-22-22221ed</title></circle>
<circle cx="84.65116279069767" cy="114.03999999999999" r="3.5" fill="#1f77b4"><title>Overall: 7.4 2026-04-22-e7ec04f</title></circle>
<circle cx="105.30232558139535" cy="111.5" r="3.5" fill="#1f77b4"><title>Overall: 7.5 2026-04-22-85febd0</title></circle>
<circle cx="125.95348837209302" cy="111.5" r="3.5" fill="#1f77b4"><title>Overall: 7.5 2026-04-22-b8d89ab</title></circle>
<circle cx="146.6046511627907" cy="114.03999999999999" r="3.5" fill="#1f77b4"><title>Overall: 7.4 2026-04-22-45050fa</title></circle>
<circle cx="167.25581395348837" cy="111.5" r="3.5" fill="#1f77b4"><title>Overall: 7.5 2026-04-23-3757529</title></circle>
<circle cx="187.90697674418604" cy="111.5" r="3.5" fill="#1f77b4"><title>Overall: 7.5 2026-04-23-e4732eb</title></circle>
<circle cx="208.55813953488374" cy="111.5" r="3.5" fill="#1f77b4"><title>Overall: 7.5 2026-04-23-eda2821</title></circle>
<circle cx="229.2093023255814" cy="91.17999999999998" r="3.5" fill="#1f77b4"><title>Overall: 8.3 2026-04-23-21b5d8e</title></circle>
<circle cx="249.86046511627907" cy="91.17999999999998" r="3.5" fill="#1f77b4"><title>Overall: 8.3 2026-04-23-530c229</title></circle>
<circle cx="270.51162790697674" cy="86.1" r="3.5" fill="#1f77b4"><title>Overall: 8.5 2026-04-24-530c229</title></circle>
<circle cx="291.16279069767444" cy="81.02000000000004" r="3.5" fill="#1f77b4"><title>Overall: 8.7 2026-04-24-ca481f2</title></circle>
<circle cx="311.8139534883721" cy="78.47999999999996" r="3.5" fill="#1f77b4"><title>Overall: 8.8 2026-04-24-e1c2c65</title></circle>
<circle cx="332.4651162790698" cy="78.47999999999996" r="3.5" fill="#1f77b4"><title>Overall: 8.8 2026-05-02-1fb6e44</title></circle>
<circle cx="353.1162790697675" cy="78.47999999999996" r="3.5" fill="#1f77b4"><title>Overall: 8.8 2026-05-02-7ef349b</title></circle>
<circle cx="373.7674418604651" cy="78.47999999999996" r="3.5" fill="#1f77b4"><title>Overall: 8.8 2026-05-02-d6ae5c9</title></circle>
<circle cx="394.4186046511628" cy="78.47999999999996" r="3.5" fill="#1f77b4"><title>Overall: 8.8 2026-05-03-5f92eab</title></circle>
<circle cx="415.06976744186045" cy="78.47999999999996" r="3.5" fill="#1f77b4"><title>Overall: 8.8 2026-05-04-26ca77c</title></circle>
<circle cx="435.72093023255815" cy="78.47999999999996" r="3.5" fill="#1f77b4"><title>Overall: 8.8 2026-05-05-478329a</title></circle>
<circle cx="456.37209302325584" cy="73.4" r="3.5" fill="#1f77b4"><title>Overall: 9 2026-05-06-72fe7b0</title></circle>
<circle cx="477.0232558139535" cy="68.32000000000002" r="3.5" fill="#1f77b4"><title>Overall: 9.2 2026-05-06-5e835eb</title></circle>
<circle cx="497.6744186046511" cy="68.32000000000002" r="3.5" fill="#1f77b4"><title>Overall: 9.2 2026-05-07-f40a531</title></circle>
<circle cx="518.3255813953489" cy="68.32000000000002" r="3.5" fill="#1f77b4"><title>Overall: 9.2 2026-05-07-b3bbb9c</title></circle>
<circle cx="538.9767441860465" cy="68.32000000000002" r="3.5" fill="#1f77b4"><title>Overall: 9.2 2026-05-07-beb232a</title></circle>
<circle cx="559.6279069767442" cy="68.32000000000002" r="3.5" fill="#1f77b4"><title>Overall: 9.2 2026-05-07-d953cca</title></circle>
<circle cx="580.2790697674419" cy="73.4" r="3.5" fill="#1f77b4"><title>Overall: 9 2026-05-07-cf7b7d2</title></circle>
<circle cx="600.9302325581396" cy="70.86000000000001" r="3.5" fill="#1f77b4"><title>Overall: 9.1 2026-05-07-b22a3a2</title></circle>
<circle cx="621.5813953488372" cy="70.86000000000001" r="3.5" fill="#1f77b4"><title>Overall: 9.1 2026-05-07-53d37a8</title></circle>
<circle cx="642.232558139535" cy="70.86000000000001" r="3.5" fill="#1f77b4"><title>Overall: 9.1 2026-05-07-fb2f674</title></circle>
<circle cx="662.8837209302326" cy="70.86000000000001" r="3.5" fill="#1f77b4"><title>Overall: 9.1 2026-05-07-2aeaafa</title></circle>
<circle cx="683.5348837209302" cy="70.86000000000001" r="3.5" fill="#1f77b4"><title>Overall: 9.1 2026-05-07-bfcc311</title></circle>
<circle cx="704.1860465116279" cy="70.86000000000001" r="3.5" fill="#1f77b4"><title>Overall: 9.1 2026-05-07-4f2fafe</title></circle>
<circle cx="724.8372093023256" cy="70.86000000000001" r="3.5" fill="#1f77b4"><title>Overall: 9.1 2026-05-08-8f0dde1</title></circle>
<circle cx="745.4883720930233" cy="70.86000000000001" r="3.5" fill="#1f77b4"><title>Overall: 9.1 2026-05-08-50be6cf</title></circle>
<circle cx="766.1395348837209" cy="68.32000000000002" r="3.5" fill="#1f77b4"><title>Overall: 9.2 2026-05-08-dfb47de</title></circle>
<circle cx="786.7906976744187" cy="70.86000000000001" r="3.5" fill="#1f77b4"><title>Overall: 9.1 2026-05-08-577ed6f</title></circle>
<circle cx="807.4418604651163" cy="65.78" r="3.5" fill="#1f77b4"><title>Overall: 9.3 2026-05-08-cfa8497</title></circle>
<circle cx="828.0930232558139" cy="73.4" r="3.5" fill="#1f77b4"><title>Overall: 9 2026-05-09-4874ced4</title></circle>
<circle cx="848.7441860465117" cy="70.86000000000001" r="3.5" fill="#1f77b4"><title>Overall: 9.1 2026-05-09-29a80ab4</title></circle>
<circle cx="869.3953488372092" cy="68.32000000000002" r="3.5" fill="#1f77b4"><title>Overall: 9.2 2026-05-09-66f38313</title></circle>
<circle cx="890.046511627907" cy="68.32000000000002" r="3.5" fill="#1f77b4"><title>Overall: 9.2 2026-05-09-fcd71b79</title></circle>
<circle cx="910.6976744186047" cy="70.86000000000001" r="3.5" fill="#1f77b4"><title>Overall: 9.1 2026-05-09-6c0e2b61</title></circle>
<circle cx="931.3488372093022" cy="70.86000000000001" r="3.5" fill="#1f77b4"><title>Overall: 9.1 2026-05-09-878b7eb2</title></circle>
<circle cx="952" cy="68.32000000000002" r="3.5" fill="#1f77b4"><title>Overall: 9.2 2026-05-09-c3f4e668</title></circle>
<rect x="64" y="332" width="12" height="12" fill="#1f77b4"/>
<text x="82" y="342" font-family="Arial, sans-serif" font-size="12">Overall</text>
<polyline points="64,114.03999999999999 84.65116279069767,101.34 105.30232558139535,93.72 125.95348837209302,93.72 146.6046511627907,91.17999999999998 167.25581395348837,88.63999999999999 187.90697674418604,91.17999999999998 208.55813953488374,88.63999999999999 229.2093023255814,88.63999999999999 249.86046511627907,88.63999999999999 270.51162790697674,88.63999999999999 291.16279069767444,88.63999999999999 311.8139534883721,88.63999999999999 332.4651162790698,88.63999999999999 353.1162790697675,88.63999999999999 373.7674418604651,88.63999999999999 394.4186046511628,86.1 415.06976744186045,86.1 435.72093023255815,86.1 456.37209302325584,91.17999999999998 477.0232558139535,88.63999999999999 497.6744186046511,78.47999999999996 518.3255813953489,78.47999999999996 538.9767441860465,78.47999999999996 559.6279069767442,78.47999999999996 580.2790697674419,78.47999999999996" fill="none" stroke="#2ca02c" stroke-width="2.5"/>
<circle cx="64" cy="114.03999999999999" r="3.5" fill="#2ca02c"><title>Level arc: 7.4 2026-05-07-cf7b7d2</title></circle>
<circle cx="84.65116279069767" cy="101.34" r="3.5" fill="#2ca02c"><title>Level arc: 7.9 2026-05-07-b22a3a2</title></circle>
<circle cx="105.30232558139535" cy="93.72" r="3.5" fill="#2ca02c"><title>Level arc: 8.2 2026-05-07-53d37a8</title></circle>
<circle cx="125.95348837209302" cy="93.72" r="3.5" fill="#2ca02c"><title>Level arc: 8.2 2026-05-07-fb2f674</title></circle>
<circle cx="146.6046511627907" cy="91.17999999999998" r="3.5" fill="#2ca02c"><title>Level arc: 8.3 2026-05-07-2aeaafa</title></circle>
<circle cx="167.25581395348837" cy="88.63999999999999" r="3.5" fill="#2ca02c"><title>Level arc: 8.4 2026-05-07-bfcc311</title></circle>
<circle cx="187.90697674418604" cy="91.17999999999998" r="3.5" fill="#2ca02c"><title>Level arc: 8.3 2026-05-07-4f2fafe</title></circle>
<circle cx="208.55813953488374" cy="88.63999999999999" r="3.5" fill="#2ca02c"><title>Level arc: 8.4 2026-05-08-8f0dde1</title></circle>
<circle cx="229.2093023255814" cy="88.63999999999999" r="3.5" fill="#2ca02c"><title>Level arc: 8.4 2026-05-08-50be6cf</title></circle>
<circle cx="249.86046511627907" cy="88.63999999999999" r="3.5" fill="#2ca02c"><title>Level arc: 8.4 2026-05-08-5fdd723</title></circle>
<circle cx="270.51162790697674" cy="88.63999999999999" r="3.5" fill="#2ca02c"><title>Level arc: 8.4 2026-05-08-d8240f0</title></circle>
<circle cx="291.16279069767444" cy="88.63999999999999" r="3.5" fill="#2ca02c"><title>Level arc: 8.4 2026-05-08-dfb47de</title></circle>
<circle cx="311.8139534883721" cy="88.63999999999999" r="3.5" fill="#2ca02c"><title>Level arc: 8.4 2026-05-08-577ed6f</title></circle>
<circle cx="332.4651162790698" cy="88.63999999999999" r="3.5" fill="#2ca02c"><title>Level arc: 8.4 2026-05-08-acc8b71</title></circle>
<circle cx="353.1162790697675" cy="88.63999999999999" r="3.5" fill="#2ca02c"><title>Level arc: 8.4 2026-05-08-d94f1e0</title></circle>
<circle cx="373.7674418604651" cy="88.63999999999999" r="3.5" fill="#2ca02c"><title>Level arc: 8.4 2026-05-08-fdcefbe</title></circle>
<circle cx="394.4186046511628" cy="86.1" r="3.5" fill="#2ca02c"><title>Level arc: 8.5 2026-05-08-72e823c</title></circle>
<circle cx="415.06976744186045" cy="86.1" r="3.5" fill="#2ca02c"><title>Level arc: 8.5 2026-05-08-cfa8497</title></circle>
<circle cx="435.72093023255815" cy="86.1" r="3.5" fill="#2ca02c"><title>Level arc: 8.5 2026-05-09-5da7d96</title></circle>
<circle cx="456.37209302325584" cy="91.17999999999998" r="3.5" fill="#2ca02c"><title>Level arc: 8.3 2026-05-09-4874ced4</title></circle>
<circle cx="477.0232558139535" cy="88.63999999999999" r="3.5" fill="#2ca02c"><title>Level arc: 8.4 2026-05-09-29a80ab4</title></circle>
<circle cx="497.6744186046511" cy="78.47999999999996" r="3.5" fill="#2ca02c"><title>Level arc: 8.8 2026-05-09-66f38313</title></circle>
<circle cx="518.3255813953489" cy="78.47999999999996" r="3.5" fill="#2ca02c"><title>Level arc: 8.8 2026-05-09-fcd71b79</title></circle>
<circle cx="538.9767441860465" cy="78.47999999999996" r="3.5" fill="#2ca02c"><title>Level arc: 8.8 2026-05-09-6c0e2b61</title></circle>
<circle cx="559.6279069767442" cy="78.47999999999996" r="3.5" fill="#2ca02c"><title>Level arc: 8.8 2026-05-09-878b7eb2</title></circle>
<circle cx="580.2790697674419" cy="78.47999999999996" r="3.5" fill="#2ca02c"><title>Level arc: 8.8 2026-05-09-c3f4e668</title></circle>
<rect x="274" y="332" width="12" height="12" fill="#2ca02c"/>
<text x="292" y="342" font-family="Arial, sans-serif" font-size="12">Level arc</text>
<polyline points="64,101.34 84.65116279069767,154.68 105.30232558139535,147.06 125.95348837209302,139.44 146.6046511627907,129.28000000000003 167.25581395348837,131.82 187.90697674418604,48" fill="none" stroke="#d62728" stroke-width="2.5"/>
<circle cx="64" cy="101.34" r="3.5" fill="#d62728"><title>Stage signature: 7.9 2026-05-07-b22a3a2</title></circle>
<circle cx="84.65116279069767" cy="154.68" r="3.5" fill="#d62728"><title>Stage signature: 5.8 2026-05-07-53d37a8</title></circle>
<circle cx="105.30232558139535" cy="147.06" r="3.5" fill="#d62728"><title>Stage signature: 6.1 2026-05-07-fb2f674</title></circle>
<circle cx="125.95348837209302" cy="139.44" r="3.5" fill="#d62728"><title>Stage signature: 6.4 2026-05-07-2aeaafa</title></circle>
<circle cx="146.6046511627907" cy="129.28000000000003" r="3.5" fill="#d62728"><title>Stage signature: 6.8 2026-05-08-8f0dde1</title></circle>
<circle cx="167.25581395348837" cy="131.82" r="3.5" fill="#d62728"><title>Stage signature: 6.7 2026-05-09-5da7d96</title></circle>
<circle cx="187.90697674418604" cy="48" r="3.5" fill="#d62728"><title>Stage signature: 10 2026-05-09-66f38313</title></circle>
<rect x="484" y="332" width="12" height="12" fill="#d62728"/>
<text x="502" y="342" font-family="Arial, sans-serif" font-size="12">Stage signature</text>
<polyline points="64,217.34179999999998 84.65116279069767,302 105.30232558139535,302 125.95348837209302,302 146.6046511627907,302 167.25581395348837,217.34179999999998 187.90697674418604,302 208.55813953488374,302" fill="none" stroke="#9467bd" stroke-width="2.5"/>
<circle cx="64" cy="217.34179999999998" r="3.5" fill="#9467bd"><title>Stage 4 exact replay: 3.333 2026-05-06-6d7e05b</title></circle>
<circle cx="84.65116279069767" cy="302" r="3.5" fill="#9467bd"><title>Stage 4 exact replay: 0 2026-05-06-5e835eb</title></circle>
<circle cx="105.30232558139535" cy="302" r="3.5" fill="#9467bd"><title>Stage 4 exact replay: 0 2026-05-07-b3bbb9c</title></circle>
<circle cx="125.95348837209302" cy="302" r="3.5" fill="#9467bd"><title>Stage 4 exact replay: 0 2026-05-07-fb2f674</title></circle>
<circle cx="146.6046511627907" cy="302" r="3.5" fill="#9467bd"><title>Stage 4 exact replay: 0 2026-05-07-2aeaafa</title></circle>
<circle cx="167.25581395348837" cy="217.34179999999998" r="3.5" fill="#9467bd"><title>Stage 4 exact replay: 3.333 2026-05-07-bfcc311</title></circle>
<circle cx="187.90697674418604" cy="302" r="3.5" fill="#9467bd"><title>Stage 4 exact replay: 0 2026-05-07-13704be</title></circle>
<circle cx="208.55813953488374" cy="302" r="3.5" fill="#9467bd"><title>Stage 4 exact replay: 0 2026-05-07-4f2fafe</title></circle>
<rect x="694" y="332" width="12" height="12" fill="#9467bd"/>
<text x="712" y="342" font-family="Arial, sans-serif" font-size="12">Stage 4 exact replay</text>
<text x="64" y="322" text-anchor="middle" font-family="Arial, sans-serif" font-size="11">2026-04-22-22221ed</text>
<text x="229.2093023255814" y="322" text-anchor="middle" font-family="Arial, sans-serif" font-size="11">2026-04-23-21b5d8e</text>
<text x="394.4186046511628" y="322" text-anchor="middle" font-family="Arial, sans-serif" font-size="11">2026-05-03-5f92eab</text>
<text x="559.6279069767442" y="322" text-anchor="middle" font-family="Arial, sans-serif" font-size="11">2026-05-07-d953cca</text>
<text x="724.8372093023256" y="322" text-anchor="middle" font-family="Arial, sans-serif" font-size="11">2026-05-08-8f0dde1</text>
<text x="890.046511627907" y="322" text-anchor="middle" font-family="Arial, sans-serif" font-size="11">2026-05-09-fcd71b79</text>
<text x="952" y="322" text-anchor="middle" font-family="Arial, sans-serif" font-size="11">2026-05-09-c3f4e668</text>
</svg>
