<svg xmlns="http://www.w3.org/2000/svg" width="560" height="720" viewBox="0 0 560 720">
  <rect width="100%" height="100%" fill="#03070b"/>
  <g opacity="0.28">
    <line x1="0" y1="0" x2="0" y2="720" stroke="#214a5a" stroke-width="1"/>
<line x1="56" y1="0" x2="56" y2="720" stroke="#214a5a" stroke-width="1"/>
<line x1="112" y1="0" x2="112" y2="720" stroke="#214a5a" stroke-width="1"/>
<line x1="168" y1="0" x2="168" y2="720" stroke="#214a5a" stroke-width="1"/>
<line x1="224" y1="0" x2="224" y2="720" stroke="#214a5a" stroke-width="1"/>
<line x1="280" y1="0" x2="280" y2="720" stroke="#214a5a" stroke-width="1"/>
<line x1="336" y1="0" x2="336" y2="720" stroke="#214a5a" stroke-width="1"/>
<line x1="392" y1="0" x2="392" y2="720" stroke="#214a5a" stroke-width="1"/>
<line x1="448" y1="0" x2="448" y2="720" stroke="#214a5a" stroke-width="1"/>
<line x1="504" y1="0" x2="504" y2="720" stroke="#214a5a" stroke-width="1"/>
<line x1="560" y1="0" x2="560" y2="720" stroke="#214a5a" stroke-width="1"/>
    <line x1="0" y1="0" x2="560" y2="0" stroke="#214a5a" stroke-width="1"/>
<line x1="0" y1="60" x2="560" y2="60" stroke="#214a5a" stroke-width="1"/>
<line x1="0" y1="120" x2="560" y2="120" stroke="#214a5a" stroke-width="1"/>
<line x1="0" y1="180" x2="560" y2="180" stroke="#214a5a" stroke-width="1"/>
<line x1="0" y1="240" x2="560" y2="240" stroke="#214a5a" stroke-width="1"/>
<line x1="0" y1="300" x2="560" y2="300" stroke="#214a5a" stroke-width="1"/>
<line x1="0" y1="360" x2="560" y2="360" stroke="#214a5a" stroke-width="1"/>
<line x1="0" y1="420" x2="560" y2="420" stroke="#214a5a" stroke-width="1"/>
<line x1="0" y1="480" x2="560" y2="480" stroke="#214a5a" stroke-width="1"/>
<line x1="0" y1="540" x2="560" y2="540" stroke="#214a5a" stroke-width="1"/>
<line x1="0" y1="600" x2="560" y2="600" stroke="#214a5a" stroke-width="1"/>
<line x1="0" y1="660" x2="560" y2="660" stroke="#214a5a" stroke-width="1"/>
<line x1="0" y1="720" x2="560" y2="720" stroke="#214a5a" stroke-width="1"/>
  </g>
  <text x="18" y="22" fill="#ffffff" font-size="18" font-weight="700">Galaga Challenge 8 Target Object Tracks</text>
  <g><rect x="18" y="14" width="16" height="16" fill="#74f7ff" opacity="0.8"/><text x="42" y="28" fill="#dff7ff" font-size="15">Group 1: 9 tracks, 1-3s</text>
<rect x="18" y="38" width="16" height="16" fill="#ff5cf3" opacity="0.8"/><text x="42" y="52" fill="#dff7ff" font-size="15">Group 2: 7 tracks, 2.38-5.25s</text>
<rect x="18" y="62" width="16" height="16" fill="#ffe76a" opacity="0.8"/><text x="42" y="76" fill="#dff7ff" font-size="15">Group 3: 17 tracks, 5.38-10.13s</text>
<rect x="18" y="86" width="16" height="16" fill="#65ff9a" opacity="0.8"/><text x="42" y="100" fill="#dff7ff" font-size="15">Group 4: 17 tracks, 10.75-15.38s</text>
<rect x="18" y="110" width="16" height="16" fill="#ff766a" opacity="0.8"/><text x="42" y="124" fill="#dff7ff" font-size="15">Group 5: 10 tracks, 13.5-15.88s</text></g>
  <g transform="translate(0,0)"><polyline points="321.2,109.6 321.2,162.1 321.2,157.4 321.1,157.2 337.3,248.3 325.9,175.8 325.8,176.3 328.2,170.4 321.5,266.2 314,305" fill="none" stroke="#65ff9a" stroke-width="3" stroke-linecap="round" stroke-linejoin="round" opacity="0.74"/><circle cx="321.2" cy="109.6" r="4" fill="#65ff9a"/><text x="327.2" y="113.6" fill="#65ff9a" font-size="14">74</text>
<polyline points="319,270.2 316.3,287.2 306,326.2 240.1,408.8 245.4,450.6 245.4,450.6 245.4,450.6 245.4,450.6 245.3,449.9 245.3,449.9" fill="none" stroke="#ff5cf3" stroke-width="3" stroke-linecap="round" stroke-linejoin="round" opacity="0.74"/><circle cx="319" cy="270.2" r="4" fill="#ff5cf3"/><text x="325" y="274.2" fill="#ff5cf3" font-size="14">23</text>
<polyline points="311.4,303.9 308.7,318.1 292.9,356.9 244.4,444.7 253.5,454.7 253.5,454.7 253.5,454.7 253.5,454.7 253.8,455.2 232.2,468.6" fill="none" stroke="#65ff9a" stroke-width="3" stroke-linecap="round" stroke-linejoin="round" opacity="0.74"/><circle cx="311.4" cy="303.9" r="4" fill="#65ff9a"/><text x="317.4" y="307.9" fill="#65ff9a" font-size="14">89</text>
<polyline points="321.3,115.6 321.3,153.4 321.6,131.1 321.1,131.8 321.1,183.8 265,204.2 318.9,188.5 320.4,218 319.4,196.3 323.6,178.1" fill="none" stroke="#74f7ff" stroke-width="3" stroke-linecap="round" stroke-linejoin="round" opacity="0.74"/><circle cx="321.3" cy="115.6" r="4" fill="#74f7ff"/><text x="327.3" y="119.6" fill="#74f7ff" font-size="14">7</text>
<polyline points="145.2,614.2 133.2,616.9 131.6,616.5 114.5,618.6 163,606.5 200.1,608.2 229.5,573.5 239.8,561 240.1,577.2 239.7,607.8" fill="none" stroke="#ffe76a" stroke-width="3" stroke-linecap="round" stroke-linejoin="round" opacity="0.74"/><circle cx="145.2" cy="614.2" r="4" fill="#ffe76a"/><text x="151.2" y="618.2" fill="#ffe76a" font-size="14">34</text>
<polyline points="315.1,320.5 236.9,368.4 245.6,357.3 230.2,379 232.5,379.3 231.3,382.2 231.8,382.2 231.3,382.2 239.7,379.9 239.8,380.1" fill="none" stroke="#ffe76a" stroke-width="3" stroke-linecap="round" stroke-linejoin="round" opacity="0.74"/><circle cx="315.1" cy="320.5" r="4" fill="#ffe76a"/><text x="321.1" y="324.5" fill="#ffe76a" font-size="14">44</text>
<polyline points="231.3,376.6 252.3,446.4 235.9,422.9 249.6,445.8 248.7,444.4 248.7,444.5 248.5,444.6 248.4,444.5 214.7,379.9 214.7,379.9" fill="none" stroke="#ffe76a" stroke-width="3" stroke-linecap="round" stroke-linejoin="round" opacity="0.74"/><circle cx="231.3" cy="376.6" r="4" fill="#ffe76a"/><text x="237.3" y="380.6" fill="#ffe76a" font-size="14">45</text>
<polyline points="285,369.8 254,417.5 236,447.6 232.1,456.7 241.2,454.7 241.2,454.7 241.2,454.7 241.2,454.7 241.2,454.7 241.2,454.7" fill="none" stroke="#65ff9a" stroke-width="3" stroke-linecap="round" stroke-linejoin="round" opacity="0.74"/><circle cx="285" cy="369.8" r="4" fill="#65ff9a"/><text x="291" y="373.8" fill="#65ff9a" font-size="14">90</text>
<polyline points="182.9,598.3 184.4,597.3 175.7,600.8 181.8,597.4 162.8,606.2 164,605.4 200,608.5 223.7,572.9 232.2,571.8 241.2,554.3" fill="none" stroke="#ffe76a" stroke-width="3" stroke-linecap="round" stroke-linejoin="round" opacity="0.74"/><circle cx="182.9" cy="598.3" r="4" fill="#ffe76a"/><text x="188.9" y="602.3" fill="#ffe76a" font-size="14">35</text>
<polyline points="240.1,593.1 240,545.5 240,546.8 229.9,468.4 233.2,450.9 233.2,450.9 233.2,450.9 233.2,450.9 233.1,450.8 233.1,450.8" fill="none" stroke="#ff5cf3" stroke-width="3" stroke-linecap="round" stroke-linejoin="round" opacity="0.74"/><circle cx="240.1" cy="593.1" r="4" fill="#ff5cf3"/><text x="246.1" y="597.1" fill="#ff5cf3" font-size="14">27</text>
<polyline points="379.3,409.5 379.4,409.1 373.6,370.7 376.7,417.5 373.4,372.8 339.8,332.4" fill="none" stroke="#ffe76a" stroke-width="3" stroke-linecap="round" stroke-linejoin="round" opacity="0.74"/><circle cx="379.3" cy="409.5" r="4" fill="#ffe76a"/><text x="385.3" y="413.5" fill="#ffe76a" font-size="14">42</text>
<polyline points="240.1,455.6 225,387.6 228.6,393.2 218.9,364.2 244.2,418.2 244,418.4 244.2,418.2 244,418 244.2,418.2" fill="none" stroke="#ffe76a" stroke-width="3" stroke-linecap="round" stroke-linejoin="round" opacity="0.74"/><circle cx="240.1" cy="455.6" r="4" fill="#ffe76a"/><text x="246.1" y="459.6" fill="#ffe76a" font-size="14">53</text>
<polyline points="274.7,382.9 280.1,378 234.4,450.6 236.3,449.6 259.4,450 259.4,449.8 259.4,450 259.4,450 258.9,450.3 258.9,450.3" fill="none" stroke="#ff5cf3" stroke-width="3" stroke-linecap="round" stroke-linejoin="round" opacity="0.74"/><circle cx="274.7" cy="382.9" r="4" fill="#ff5cf3"/><text x="280.7" y="386.9" fill="#ff5cf3" font-size="14">25</text>
<polyline points="386.7,605.3 387.3,605.3 337.2,577.7 332.5,574.7 346,579.5 368.3,593.9 373.5,597.4 373.8,597.2 345.6,593.1" fill="none" stroke="#ffe76a" stroke-width="3" stroke-linecap="round" stroke-linejoin="round" opacity="0.74"/><circle cx="386.7" cy="605.3" r="4" fill="#ffe76a"/><text x="392.7" y="609.3" fill="#ffe76a" font-size="14">59</text>
<polyline points="364.5,356 326.5,324.4 284.8,323.1 282.1,325.9 296.7,319.2" fill="none" stroke="#ffe76a" stroke-width="3" stroke-linecap="round" stroke-linejoin="round" opacity="0.74"/><circle cx="364.5" cy="356" r="4" fill="#ffe76a"/><text x="370.5" y="360" fill="#ffe76a" font-size="14">43</text>
<polyline points="321.2,115.7 321.1,161.3 321.4,139.5 321.2,126.4 321.2,170.3 321.3,221.8" fill="none" stroke="#ff766a" stroke-width="3" stroke-linecap="round" stroke-linejoin="round" opacity="0.74"/><circle cx="321.2" cy="115.7" r="4" fill="#ff766a"/><text x="327.2" y="119.7" fill="#ff766a" font-size="14">107</text>
<polyline points="236.8,565.2 228.4,570.5 228.1,571.1 216.3,578 217.8,577.4 222.9,575.6 224.1,575.1 239.8,514.6 215.9,557" fill="none" stroke="#ffe76a" stroke-width="3" stroke-linecap="round" stroke-linejoin="round" opacity="0.74"/><circle cx="236.8" cy="565.2" r="4" fill="#ffe76a"/><text x="242.8" y="569.2" fill="#ffe76a" font-size="14">36</text>
<polyline points="322.3,205.4 321.2,183.2 329.6,235.7 358.1,270.9 358.1,270.9" fill="none" stroke="#74f7ff" stroke-width="3" stroke-linecap="round" stroke-linejoin="round" opacity="0.74"/><circle cx="322.3" cy="205.4" r="4" fill="#74f7ff"/><text x="328.3" y="209.4" fill="#74f7ff" font-size="14">10</text>
<polyline points="268.4,440.6 253.5,399.2 231.6,418.2 230.1,398.1 224.1,418.4 223.9,418 223.9,418.2 223.9,418.2 223.9,418.2 224.1,418.5" fill="none" stroke="#ffe76a" stroke-width="3" stroke-linecap="round" stroke-linejoin="round" opacity="0.74"/><circle cx="268.4" cy="440.6" r="4" fill="#ffe76a"/><text x="274.4" y="444.6" fill="#ffe76a" font-size="14">52</text>
<polyline points="252.2,422.1 234.3,450.2 252.4,469.7 256.7,461.4 227.6,454.2 227.6,454.2 227.6,454.2 227.6,454.2 227.6,454.2 227.8,454.5" fill="none" stroke="#65ff9a" stroke-width="3" stroke-linecap="round" stroke-linejoin="round" opacity="0.74"/><circle cx="252.2" cy="422.1" r="4" fill="#65ff9a"/><text x="258.2" y="426.1" fill="#65ff9a" font-size="14">91</text>
<polyline points="360.7,459.6 360.4,459.1 352.8,467.8 374.4,424.7 376,378.1" fill="none" stroke="#ffe76a" stroke-width="3" stroke-linecap="round" stroke-linejoin="round" opacity="0.74"/><circle cx="360.7" cy="459.6" r="4" fill="#ffe76a"/><text x="366.7" y="463.6" fill="#ffe76a" font-size="14">40</text>
<polyline points="256.1,461.4 255.1,388.4 258.4,381.2 244.2,418.2" fill="none" stroke="#ffe76a" stroke-width="3" stroke-linecap="round" stroke-linejoin="round" opacity="0.74"/><circle cx="256.1" cy="461.4" r="4" fill="#ffe76a"/><text x="262.1" y="465.4" fill="#ffe76a" font-size="14">55</text>
<polyline points="246.6,429.7 245.4,430.8 262.7,450.9 262.8,451.3 220.2,447.3 220.2,447.3 220.6,443.7 220.2,447.3 220.2,447.3 220.2,447.3" fill="none" stroke="#ff5cf3" stroke-width="3" stroke-linecap="round" stroke-linejoin="round" opacity="0.74"/><circle cx="246.6" cy="429.7" r="4" fill="#ff5cf3"/><text x="252.6" y="433.7" fill="#ff5cf3" font-size="14">28</text>
<polyline points="325.4,214 327,230.3 321.2,222 360.9,275.8" fill="none" stroke="#ff766a" stroke-width="3" stroke-linecap="round" stroke-linejoin="round" opacity="0.74"/><circle cx="325.4" cy="214" r="4" fill="#ff766a"/><text x="331.4" y="218" fill="#ff766a" font-size="14">109</text>
<polyline points="280.6,536.8 259.4,551.9 267.5,545 306.2,514" fill="none" stroke="#ffe76a" stroke-width="3" stroke-linecap="round" stroke-linejoin="round" opacity="0.74"/><circle cx="280.6" cy="536.8" r="4" fill="#ffe76a"/><text x="286.6" y="540.8" fill="#ffe76a" font-size="14">37</text>
<polyline points="335.8,576.3 348.1,583.5 308.7,568.4 316.3,568.7 313.9,566.6 317.6,565.6 315,565.4 309.4,561.2 308,571" fill="none" stroke="#ffe76a" stroke-width="3" stroke-linecap="round" stroke-linejoin="round" opacity="0.74"/><circle cx="335.8" cy="576.3" r="4" fill="#ffe76a"/><text x="341.8" y="580.3" fill="#ffe76a" font-size="14">60</text>
<polyline points="440.8,147.5 412.8,137.9 382.1,135.9 404.5,130.3 404.9,130.5" fill="none" stroke="#74f7ff" stroke-width="3" stroke-linecap="round" stroke-linejoin="round" opacity="0.74"/><circle cx="440.8" cy="147.5" r="4" fill="#74f7ff"/><text x="446.8" y="151.5" fill="#74f7ff" font-size="14">17</text>
<polyline points="350.1,263.3 378.3,276.9 350.6,263.1 386.8,285.1 386.8,285.4" fill="none" stroke="#65ff9a" stroke-width="3" stroke-linecap="round" stroke-linejoin="round" opacity="0.74"/><circle cx="350.1" cy="263.3" r="4" fill="#65ff9a"/><text x="356.1" y="267.3" fill="#65ff9a" font-size="14">77</text>
<polyline points="240.2,110.6 239.8,131.2 252.4,195" fill="none" stroke="#74f7ff" stroke-width="3" stroke-linecap="round" stroke-linejoin="round" opacity="0.74"/><circle cx="240.2" cy="110.6" r="4" fill="#74f7ff"/><text x="246.2" y="114.6" fill="#74f7ff" font-size="14">9</text>
<polyline points="260.9,460.9 260.2,463.9 212.6,461.4 212.6,461.4 212.6,461.4 212.6,461.4 212.6,461.4 212.6,461.4 212.6,461.4 212.6,461.4" fill="none" stroke="#ff766a" stroke-width="3" stroke-linecap="round" stroke-linejoin="round" opacity="0.74"/><circle cx="260.9" cy="460.9" r="4" fill="#ff766a"/><text x="266.9" y="464.9" fill="#ff766a" font-size="14">93</text>
<polyline points="263.2,450.9 228.9,439.1 214.6,449.5 213.9,447.7 213.9,447.7 213.9,447.7 213.9,447.7 213.9,447.7 214.8,449.4 214.8,449.4" fill="none" stroke="#ff766a" stroke-width="3" stroke-linecap="round" stroke-linejoin="round" opacity="0.74"/><circle cx="263.2" cy="450.9" r="4" fill="#ff766a"/><text x="269.2" y="454.9" fill="#ff766a" font-size="14">94</text>
<polyline points="239.6,328.5 239.7,343 239.5,406.1 239.8,390.8" fill="none" stroke="#74f7ff" stroke-width="3" stroke-linecap="round" stroke-linejoin="round" opacity="0.74"/><circle cx="239.6" cy="328.5" r="4" fill="#74f7ff"/><text x="245.6" y="332.5" fill="#74f7ff" font-size="14">5</text></g>
  <text x="18" y="698" fill="#9fc5d6" font-size="15">CPU object-track proxy: 60 tracks, 5 grouped target waves. Not sprite identity recognition.</text>
</svg>
