<svg xmlns="http://www.w3.org/2000/svg" width="760" height="300" viewBox="0 0 760 300" role="img" aria-labelledby="title desc">
  <title id="title">Challenging Stage 8 (31-32) object-track and shot-opportunity sketch</title>
  <desc id="desc">Readable object tracks from runtime challenge sprite silhouettes plus sampled player shot opportunity lanes.</desc>
  <style>
    .bg{fill:#06111d}.panel{fill:#0d1b2a;stroke:#2e5d78;stroke-width:2}.grid{stroke:#1b3344;stroke-width:1}.text{fill:#f2fbff;font:700 20px ui-monospace,Menlo,monospace}.small{fill:#b8d7ec;font:700 13px ui-monospace,Menlo,monospace}.tiny{fill:#9ec9e6;font:11px ui-monospace,Menlo,monospace}.pill{fill:#102a3b;stroke:#2e5d78}
  </style>
  <rect class="bg" x="0" y="0" width="760" height="300"/>
  <text class="text" x="24" y="34">Challenging Stage 8 (31-32)</text>
  <rect class="pill" x="482" y="14" width="254" height="32" rx="16"/>
  <text class="small" x="498" y="35">5.6/10 shot opportunity</text>
  <rect class="panel" x="36" y="56" width="456" height="210" rx="10"/>
  <rect class="panel" x="548" y="56" width="176" height="210" rx="10"/>
  <text class="small" x="56" y="82">Object-tracked silhouette paths</text>
  <text class="small" x="568" y="82">Shot-lane hits</text>
  <line class="grid" x1="50" y1="92" x2="50" y2="244"/><line class="grid" x1="136" y1="92" x2="136" y2="244"/><line class="grid" x1="222" y1="92" x2="222" y2="244"/><line class="grid" x1="308" y1="92" x2="308" y2="244"/><line class="grid" x1="394" y1="92" x2="394" y2="244"/>
  <line class="grid" x1="50" y1="100" x2="480" y2="100"/><line class="grid" x1="50" y1="142" x2="480" y2="142"/><line class="grid" x1="50" y1="184" x2="480" y2="184"/><line class="grid" x1="50" y1="226" x2="480" y2="226"/>
  <polyline points="401.4,96.3 313.5,90 355.1,87.8 410.3,91.5 353,99 294.3,102.7 434.2,107.7 471.1,106.2 355.5,104.9 279.6,106.2 287.3,110.7 362.4,117.9 440.5,126.2 453.7,133.5 376.5,138.3 245.3,139.9 135.2,138.9 111.3,136.8 287.6,118.8 369,135.8 342.2,151.5 200,167.6 71.7,185.4 69.8,204.6 158,223.4 192.7,240.5" fill="none" stroke="#78f7ff" stroke-width="4" stroke-linecap="round" stroke-linejoin="round"/><circle cx="401.4" cy="96.3" r="5" fill="#78f7ff"/><text class="tiny" x="500" y="96" fill="#78f7ff">stingray blue-purple-finale 26f</text>
  <polyline points="497.8,111.6 469.7,115.1 441.6,118.6 413.5,122.1 385.4,125.6 494.3,114.1 486.8,120.9 479.2,127.7 471.7,134.3 464.2,140.8 456.7,147.2 449.1,153.5 441.8,159.6 434.2,165.6 426.7,171.4 419.2,177.1 411.7,182.8 404.1,188.4 396.6,194 275.3,131.3 254.7,152.5 234.3,173.8 213.9,195 193.4,216.3 172.9,237.6" fill="none" stroke="#ffd36a" stroke-width="4" stroke-linecap="round" stroke-linejoin="round"/><circle cx="497.8" cy="111.6" r="5" fill="#ffd36a"/><text class="tiny" x="500" y="120" fill="#ffd36a">mosquito green-ladder-split 25f</text>
  <polyline points="449.9,118.5 421.5,122.4 392.9,126.3 364.4,130.2 335.8,134.1 390.3,110.6 376.5,118 362.7,125.4 348.8,132.7 335,139.9 321.2,147 307.4,154 293.6,160.8 279.7,167.5 266.1,174 252.3,180.4 238.4,186.7 224.6,192.9 210.8,199.1 197,205.2 213.4,132.6 165.8,153.9 118,175.1 70.3,196.4" fill="none" stroke="#ff7bd5" stroke-width="4" stroke-linecap="round" stroke-linejoin="round"/><circle cx="449.9" cy="118.5" r="5" fill="#ff7bd5"/><text class="tiny" x="500" y="144" fill="#ff7bd5">mosquito green-ladder-split 24f</text>
  <polyline points="456,107.5 420.7,110.6 385.4,113.7 350.1,116.8 314.8,119.9 351.8,101 337.9,107.4 324.1,113.7 310.3,120 296.6,126.2 282.8,132.2 269,138.2 255.2,144 241.3,149.7 227.5,155.3 213.7,160.7 199.9,166 186.1,171.2 172.2,176.3 158.6,181.3 201.3,112.4 153.5,133.7 105.7,155 58,176.2" fill="none" stroke="#8cffb4" stroke-width="4" stroke-linecap="round" stroke-linejoin="round"/><circle cx="456" cy="107.5" r="5" fill="#8cffb4"/><text class="tiny" x="500" y="168" fill="#8cffb4">mosquito green-ladder-split 24f</text>
  <polyline points="97.8,111.6 120.5,115.1 143.2,118.6 165.9,122.1 188.8,125.6 305.2,107.2 297.7,114.1 290.2,120.9 282.7,127.7 275.1,134.3 267.6,140.8 260.1,147.2 252.6,153.5 245,159.6 237.7,165.6 230.1,171.4 222.6,177.1 215.1,182.8 207.6,188.4 200,194 78.7,131.3 58.1,152.5 37.7,173.8" fill="none" stroke="#b08cff" stroke-width="4" stroke-linecap="round" stroke-linejoin="round"/><circle cx="97.8" cy="111.6" r="5" fill="#b08cff"/><text class="tiny" x="500" y="192" fill="#b08cff">mosquito green-ladder-split 23f</text>
  <rect x="586" y="163.5" width="12" height="58.5" rx="3" fill="#ffd36a"/><text class="tiny" x="582" y="242">32</text>
  <rect x="606" y="145.6" width="12" height="76.4" rx="3" fill="#ffd36a"/><text class="tiny" x="602" y="242">68</text>
  <rect x="626" y="138" width="12" height="84" rx="3" fill="#ffd36a"/><text class="tiny" x="622" y="242">104</text>
  <rect x="646" y="148.2" width="12" height="73.8" rx="3" fill="#ffd36a"/><text class="tiny" x="642" y="242">140</text>
  <rect x="666" y="155.8" width="12" height="66.2" rx="3" fill="#ffd36a"/><text class="tiny" x="662" y="242">176</text>
  <rect x="686" y="169.8" width="12" height="52.2" rx="3" fill="#ffd36a"/><text class="tiny" x="682" y="242">212</text>
  <rect x="706" y="183.8" width="12" height="38.2" rx="3" fill="#ffd36a"/><text class="tiny" x="702" y="242">248</text>
  <text class="tiny" x="56" y="260">Silhouette: 4.8/10; 34 tracks, 529 crops.</text>
  <text class="tiny" x="568" y="260">Lane diversity 1; center bias 0.164.</text>
</svg>
