<svg xmlns="http://www.w3.org/2000/svg" width="760" height="300" viewBox="0 0 760 300" role="img" aria-labelledby="title desc">
  <title id="title">Challenging Stage 3 (11-12) object-track and shot-opportunity sketch</title>
  <desc id="desc">Readable object tracks from runtime challenge sprite silhouettes plus sampled player shot opportunity lanes.</desc>
  <style>
    .bg{fill:#06111d}.panel{fill:#0d1b2a;stroke:#2e5d78;stroke-width:2}.grid{stroke:#1b3344;stroke-width:1}.text{fill:#f2fbff;font:700 20px ui-monospace,Menlo,monospace}.small{fill:#b8d7ec;font:700 13px ui-monospace,Menlo,monospace}.tiny{fill:#9ec9e6;font:11px ui-monospace,Menlo,monospace}.pill{fill:#102a3b;stroke:#2e5d78}
  </style>
  <rect class="bg" x="0" y="0" width="760" height="300"/>
  <text class="text" x="24" y="34">Challenging Stage 3 (11-12)</text>
  <rect class="pill" x="482" y="14" width="254" height="32" rx="16"/>
  <text class="small" x="498" y="35">5.6/10 shot opportunity</text>
  <rect class="panel" x="36" y="56" width="456" height="210" rx="10"/>
  <rect class="panel" x="548" y="56" width="176" height="210" rx="10"/>
  <text class="small" x="56" y="82">Object-tracked silhouette paths</text>
  <text class="small" x="568" y="82">Shot-lane hits</text>
  <line class="grid" x1="50" y1="92" x2="50" y2="244"/><line class="grid" x1="136" y1="92" x2="136" y2="244"/><line class="grid" x1="222" y1="92" x2="222" y2="244"/><line class="grid" x1="308" y1="92" x2="308" y2="244"/><line class="grid" x1="394" y1="92" x2="394" y2="244"/>
  <line class="grid" x1="50" y1="100" x2="480" y2="100"/><line class="grid" x1="50" y1="142" x2="480" y2="142"/><line class="grid" x1="50" y1="184" x2="480" y2="184"/><line class="grid" x1="50" y1="226" x2="480" y2="226"/>
  <polyline points="90.5,103.3 119.3,100.5 133.5,100.8 64.6,103 72.6,104.1 88.2,105.3 107.6,106.2 126.2,106.8 139.8,106.8 145.4,106.5 141.7,105.8 129.1,105.3 109.9,105 88.2,105.2 68.3,105.8 54.6,106.9 50.5,108.1 57.4,109.1 136.6,112.3 160.3,124.1 173.8,135.8 179.3,147.6 191.1,159.4 214,171.2 236,183 246.3,194.8 252.1,206.5 267.3,218.3 291.4,230.1 310.6,241.9" fill="none" stroke="#78f7ff" stroke-width="4" stroke-linecap="round" stroke-linejoin="round"/><circle cx="90.5" cy="103.3" r="5" fill="#78f7ff"/><text class="tiny" x="500" y="96" fill="#78f7ff">dragonfly boss-led-loop 30f</text>
  <polyline points="152,97.8 186.4,96.5 199.4,98.5 192.7,102.1 141.4,101.7 165,102.8 191.6,103.3 214.8,103.1 229.2,102.4 231.5,101.4 220.6,100.5 198.2,100.2 168.4,100.5 137.2,101.4 110.8,102.8 95,104.4 93.8,105.7 108.2,106.4 136.9,106.4 229.5,117.5 239.7,130.7 245.5,144 261,157.2 285.3,170.5 304.2,183.7 311.7,196.9 319.2,210.2 337.9,223.4 362.2,236.7 377.9,249.9" fill="none" stroke="#ffd36a" stroke-width="4" stroke-linecap="round" stroke-linejoin="round"/><circle cx="152" cy="97.8" r="5" fill="#ffd36a"/><text class="tiny" x="500" y="120" fill="#ffd36a">dragonfly boss-led-loop 30f</text>
  <polyline points="129.6,102.9 128.6,106.3 123.9,107.7 102.8,105.6 81.6,105.4 70.7,104.8 71.3,104.2 82.6,103.8 101.4,103.8 124.2,104.3 146,105.2 162.9,106.4 171.5,107.5 170.6,108.4 160.7,108.8 144.4,108.7 125.6,108.2 108.4,107.6 171.2,114.7 176.7,126.4 189,138.3 212.2,150 233.7,161.8 243.5,173.6 249.5,185.4 265.3,197.1 289.6,209 308.3,220.7 315.7,232.5 323.2,244.3" fill="none" stroke="#ff7bd5" stroke-width="4" stroke-linecap="round" stroke-linejoin="round"/><circle cx="129.6" cy="102.9" r="5" fill="#ff7bd5"/><text class="tiny" x="500" y="144" fill="#ff7bd5">dragonfly boss-led-loop 30f</text>
  <polyline points="104.2,103.9 125.1,103 151.7,99.7 175.3,96.9 83.3,98.2 85,98.4 100.2,99.4 124.9,100.8 153.5,102.4 179.6,103.7 197.9,104.4 204.2,104.4 197.6,103.9 179.2,102.9 153,101.9 124.6,101.4 100.2,101.4 85.6,102.2 84.6,103.5 186.8,114.4 210.2,127.7 231.5,140.9 241,154.1 247,167.4 263.2,180.6 287.6,193.8 305.9,207.1 313.1,220.3 320.9,233.5 340.3,246.8" fill="none" stroke="#8cffb4" stroke-width="4" stroke-linecap="round" stroke-linejoin="round"/><circle cx="104.2" cy="103.9" r="5" fill="#8cffb4"/><text class="tiny" x="500" y="168" fill="#8cffb4">dragonfly boss-led-loop 30f</text>
  <polyline points="399.7,96.7 379.3,97.3 353.9,100.5 331.2,103.5 304.2,101.9 280.1,102.4 265.5,102.4 262.4,101.9 270.5,101.2 287.9,100.7 310.8,100.5 334.6,100.8 354.8,101.6 367.9,102.7 371.7,103.9 365.9,104.9 352.4,105.5 334.4,105.6 316.3,105.2 376.3,116.1 382.9,127.9 391.5,139.7 412,151.5 435.8,163.2 449.6,175 455.1,186.8 466.8,198.6 489.4,210.4" fill="none" stroke="#b08cff" stroke-width="4" stroke-linecap="round" stroke-linejoin="round"/><circle cx="399.7" cy="96.7" r="5" fill="#b08cff"/><text class="tiny" x="500" y="192" fill="#b08cff">dragonfly boss-led-loop 28f</text>
  <rect x="586" y="164.7" width="12" height="57.3" rx="3" fill="#ffd36a"/><text class="tiny" x="582" y="242">32</text>
  <rect x="606" y="138" width="12" height="84" rx="3" fill="#ffd36a"/><text class="tiny" x="602" y="242">68</text>
  <rect x="626" y="147.5" width="12" height="74.5" rx="3" fill="#ffd36a"/><text class="tiny" x="622" y="242">104</text>
  <rect x="646" y="160.9" width="12" height="61.1" rx="3" fill="#ffd36a"/><text class="tiny" x="642" y="242">140</text>
  <rect x="666" y="163.8" width="12" height="58.2" rx="3" fill="#ffd36a"/><text class="tiny" x="662" y="242">176</text>
  <rect x="686" y="142.8" width="12" height="79.2" rx="3" fill="#ffd36a"/><text class="tiny" x="682" y="242">212</text>
  <rect x="706" y="147.5" width="12" height="74.5" rx="3" fill="#ffd36a"/><text class="tiny" x="702" y="242">248</text>
  <text class="tiny" x="56" y="260">Silhouette: 4.7/10; 36 tracks, 811 crops.</text>
  <text class="tiny" x="568" y="260">Lane diversity 1; center bias 0.125.</text>
</svg>
