<svg xmlns="http://www.w3.org/2000/svg" width="560" height="720" viewBox="0 0 560 720">
  <rect width="100%" height="100%" fill="#03070b"/>
  <g opacity="0.28">
    <line x1="0" y1="0" x2="0" y2="720" stroke="#214a5a" stroke-width="1"/>
<line x1="56" y1="0" x2="56" y2="720" stroke="#214a5a" stroke-width="1"/>
<line x1="112" y1="0" x2="112" y2="720" stroke="#214a5a" stroke-width="1"/>
<line x1="168" y1="0" x2="168" y2="720" stroke="#214a5a" stroke-width="1"/>
<line x1="224" y1="0" x2="224" y2="720" stroke="#214a5a" stroke-width="1"/>
<line x1="280" y1="0" x2="280" y2="720" stroke="#214a5a" stroke-width="1"/>
<line x1="336" y1="0" x2="336" y2="720" stroke="#214a5a" stroke-width="1"/>
<line x1="392" y1="0" x2="392" y2="720" stroke="#214a5a" stroke-width="1"/>
<line x1="448" y1="0" x2="448" y2="720" stroke="#214a5a" stroke-width="1"/>
<line x1="504" y1="0" x2="504" y2="720" stroke="#214a5a" stroke-width="1"/>
<line x1="560" y1="0" x2="560" y2="720" stroke="#214a5a" stroke-width="1"/>
    <line x1="0" y1="0" x2="560" y2="0" stroke="#214a5a" stroke-width="1"/>
<line x1="0" y1="60" x2="560" y2="60" stroke="#214a5a" stroke-width="1"/>
<line x1="0" y1="120" x2="560" y2="120" stroke="#214a5a" stroke-width="1"/>
<line x1="0" y1="180" x2="560" y2="180" stroke="#214a5a" stroke-width="1"/>
<line x1="0" y1="240" x2="560" y2="240" stroke="#214a5a" stroke-width="1"/>
<line x1="0" y1="300" x2="560" y2="300" stroke="#214a5a" stroke-width="1"/>
<line x1="0" y1="360" x2="560" y2="360" stroke="#214a5a" stroke-width="1"/>
<line x1="0" y1="420" x2="560" y2="420" stroke="#214a5a" stroke-width="1"/>
<line x1="0" y1="480" x2="560" y2="480" stroke="#214a5a" stroke-width="1"/>
<line x1="0" y1="540" x2="560" y2="540" stroke="#214a5a" stroke-width="1"/>
<line x1="0" y1="600" x2="560" y2="600" stroke="#214a5a" stroke-width="1"/>
<line x1="0" y1="660" x2="560" y2="660" stroke="#214a5a" stroke-width="1"/>
<line x1="0" y1="720" x2="560" y2="720" stroke="#214a5a" stroke-width="1"/>
  </g>
  <text x="18" y="22" fill="#ffffff" font-size="18" font-weight="700">Galaga Challenge 4 Target Object Tracks</text>
  <g><rect x="18" y="14" width="16" height="16" fill="#74f7ff" opacity="0.8"/><text x="42" y="28" fill="#dff7ff" font-size="15">Group 1: 8 tracks, 0-3.25s</text>
<rect x="18" y="38" width="16" height="16" fill="#ff5cf3" opacity="0.8"/><text x="42" y="52" fill="#dff7ff" font-size="15">Group 2: 5 tracks, 0.5-3.25s</text>
<rect x="18" y="62" width="16" height="16" fill="#ffe76a" opacity="0.8"/><text x="42" y="76" fill="#dff7ff" font-size="15">Group 3: 10 tracks, 2.88-6.63s</text>
<rect x="18" y="86" width="16" height="16" fill="#65ff9a" opacity="0.8"/><text x="42" y="100" fill="#dff7ff" font-size="15">Group 4: 13 tracks, 6.38-9.88s</text>
<rect x="18" y="110" width="16" height="16" fill="#ff766a" opacity="0.8"/><text x="42" y="124" fill="#dff7ff" font-size="15">Group 5: 9 tracks, 13.13-15.88s</text></g>
  <g transform="translate(0,0)"><polyline points="339.2,404.8 334.3,373.8 297.7,405.8 290.5,473 295,474.1 281.5,496.4 232.3,482.7 232.3,482.7" fill="none" stroke="#ff5cf3" stroke-width="3" stroke-linecap="round" stroke-linejoin="round" opacity="0.74"/><circle cx="339.2" cy="404.8" r="4" fill="#ff5cf3"/><text x="345.2" y="408.8" fill="#ff5cf3" font-size="14">11</text>
<polyline points="327.9,438.5 319.1,471.6 299.1,405.8 322.6,383 305.4,423.3 294.5,440.6 295.5,459.6 295.5,459.6 295.5,459.6 295.4,460.1" fill="none" stroke="#74f7ff" stroke-width="3" stroke-linecap="round" stroke-linejoin="round" opacity="0.74"/><circle cx="327.9" cy="438.5" r="4" fill="#74f7ff"/><text x="333.9" y="442.5" fill="#74f7ff" font-size="14">1</text>
<polyline points="232.4,109.9 232.4,141.9 260.5,95.3 311.4,131 308.2,124.6 313.2,177" fill="none" stroke="#ffe76a" stroke-width="3" stroke-linecap="round" stroke-linejoin="round" opacity="0.74"/><circle cx="232.4" cy="109.9" r="4" fill="#ffe76a"/><text x="238.4" y="113.9" fill="#ffe76a" font-size="14">23</text>
<polyline points="316.1,449.2 316.1,449.2 265.3,548.4 244.8,545 244.7,545 244.7,545 244.7,545 244.7,545 244.7,545 244.7,545" fill="none" stroke="#ffe76a" stroke-width="3" stroke-linecap="round" stroke-linejoin="round" opacity="0.74"/><circle cx="316.1" cy="449.2" r="4" fill="#ffe76a"/><text x="322.1" y="453.2" fill="#ffe76a" font-size="14">34</text>
<polyline points="315.3,390.2 318,387.3 308.2,434.7 313.7,459.1 313.9,460.4 318,459.6 318,459.6 318,459.6 318,459.6 317.6,459.5" fill="none" stroke="#ff5cf3" stroke-width="3" stroke-linecap="round" stroke-linejoin="round" opacity="0.74"/><circle cx="315.3" cy="390.2" r="4" fill="#ff5cf3"/><text x="321.3" y="394.2" fill="#ff5cf3" font-size="14">9</text>
<polyline points="300.7,381.6 286.4,420.4 287.9,468.6 342.3,459.9 342.1,459.5" fill="none" stroke="#ff5cf3" stroke-width="3" stroke-linecap="round" stroke-linejoin="round" opacity="0.74"/><circle cx="300.7" cy="381.6" r="4" fill="#ff5cf3"/><text x="306.7" y="385.6" fill="#ff5cf3" font-size="14">14</text>
<polyline points="257.4,192.5 250,140 276.9,102.4 312.7,96.5" fill="none" stroke="#65ff9a" stroke-width="3" stroke-linecap="round" stroke-linejoin="round" opacity="0.74"/><circle cx="257.4" cy="192.5" r="4" fill="#65ff9a"/><text x="263.4" y="196.5" fill="#65ff9a" font-size="14">80</text>
<polyline points="345.6,388.9 346.5,389.2 339.2,436.8 290.8,453.2 330.1,435 330.1,435" fill="none" stroke="#ff5cf3" stroke-width="3" stroke-linecap="round" stroke-linejoin="round" opacity="0.74"/><circle cx="345.6" cy="388.9" r="4" fill="#ff5cf3"/><text x="351.6" y="392.9" fill="#ff5cf3" font-size="14">10</text>
<polyline points="393.1,441.1 393.1,441.1 395.5,493.3 366.4,528.6 354.5,547.3 346.4,546.3" fill="none" stroke="#65ff9a" stroke-width="3" stroke-linecap="round" stroke-linejoin="round" opacity="0.74"/><circle cx="393.1" cy="441.1" r="4" fill="#65ff9a"/><text x="399.1" y="445.1" fill="#65ff9a" font-size="14">61</text>
<polyline points="308.3,500.9 274.7,536.9 235.5,545.8 237.3,545 234,509.4" fill="none" stroke="#ffe76a" stroke-width="3" stroke-linecap="round" stroke-linejoin="round" opacity="0.74"/><circle cx="308.3" cy="500.9" r="4" fill="#ffe76a"/><text x="314.3" y="504.9" fill="#ffe76a" font-size="14">36</text>
<polyline points="308.7,438.3 309.6,435.7 319.2,485.4 319,501.7 319.4,531.1 320.2,479.3" fill="none" stroke="#ff5cf3" stroke-width="3" stroke-linecap="round" stroke-linejoin="round" opacity="0.74"/><circle cx="308.7" cy="438.3" r="4" fill="#ff5cf3"/><text x="314.7" y="442.3" fill="#ff5cf3" font-size="14">13</text>
<polyline points="311,187.7 310.7,234.9 269.2,212.5 280.4,253.2 280.4,253.2" fill="none" stroke="#65ff9a" stroke-width="3" stroke-linecap="round" stroke-linejoin="round" opacity="0.74"/><circle cx="311" cy="187.7" r="4" fill="#65ff9a"/><text x="317" y="191.7" fill="#65ff9a" font-size="14">47</text>
<polyline points="325.9,250.8 356.8,246.9 326.5,296.8 325.8,328.4" fill="none" stroke="#65ff9a" stroke-width="3" stroke-linecap="round" stroke-linejoin="round" opacity="0.74"/><circle cx="325.9" cy="250.8" r="4" fill="#65ff9a"/><text x="331.9" y="254.8" fill="#65ff9a" font-size="14">75</text>
<polyline points="318.8,594.4 319.2,578.2 319.3,544.8 319.1,562.1 319.3,610.2 319.1,562.2" fill="none" stroke="#74f7ff" stroke-width="3" stroke-linecap="round" stroke-linejoin="round" opacity="0.74"/><circle cx="318.8" cy="594.4" r="4" fill="#74f7ff"/><text x="324.8" y="598.4" fill="#74f7ff" font-size="14">7</text>
<polyline points="252.4,432.9 244.7,485.3 264,512.2 244.8,465.1" fill="none" stroke="#65ff9a" stroke-width="3" stroke-linecap="round" stroke-linejoin="round" opacity="0.74"/><circle cx="252.4" cy="432.9" r="4" fill="#65ff9a"/><text x="258.4" y="436.9" fill="#65ff9a" font-size="14">60</text>
<polyline points="313.6,177.1 274.6,225.6 277.9,253.5 281.2,259" fill="none" stroke="#ffe76a" stroke-width="3" stroke-linecap="round" stroke-linejoin="round" opacity="0.74"/><circle cx="313.6" cy="177.1" r="4" fill="#ffe76a"/><text x="319.6" y="181.1" fill="#ffe76a" font-size="14">26</text>
<polyline points="204.2,116.8 168.1,122.9 167.7,125.4 161.1,177.6" fill="none" stroke="#ffe76a" stroke-width="3" stroke-linecap="round" stroke-linejoin="round" opacity="0.74"/><circle cx="204.2" cy="116.8" r="4" fill="#ffe76a"/><text x="210.2" y="120.8" fill="#ffe76a" font-size="14">24</text>
<polyline points="351.3,539.6 325.8,576.4 326.1,593.4 319,563.8" fill="none" stroke="#65ff9a" stroke-width="3" stroke-linecap="round" stroke-linejoin="round" opacity="0.74"/><circle cx="351.3" cy="539.6" r="4" fill="#65ff9a"/><text x="357.3" y="543.6" fill="#65ff9a" font-size="14">64</text>
<polyline points="138.2,382.4 138.4,382.4 138.2,382.4 138.1,382.5 138.1,382.4 138.1,382.5 138.2,382.5 138,382.5 138.1,382.4 138.1,382.4" fill="none" stroke="#ff766a" stroke-width="3" stroke-linecap="round" stroke-linejoin="round" opacity="0.74"/><circle cx="138.2" cy="382.4" r="4" fill="#ff766a"/><text x="144.2" y="386.4" fill="#ff766a" font-size="14">83</text>
<polyline points="209.9,540.1 235.6,546.2 255,579.6" fill="none" stroke="#ffe76a" stroke-width="3" stroke-linecap="round" stroke-linejoin="round" opacity="0.74"/><circle cx="209.9" cy="540.1" r="4" fill="#ffe76a"/><text x="215.9" y="544.1" fill="#ffe76a" font-size="14">38</text>
<polyline points="396.8,374.5 396.5,374.3 400.3,381.3 408.3,389.4 408.1,389.1 408.1,389.1 373.4,357.1 373.5,357.1" fill="none" stroke="#74f7ff" stroke-width="3" stroke-linecap="round" stroke-linejoin="round" opacity="0.74"/><circle cx="396.8" cy="374.5" r="4" fill="#74f7ff"/><text x="402.8" y="378.5" fill="#74f7ff" font-size="14">6</text>
<polyline points="446.4,472.8 446.8,472.8 449,478.3 449,472.6 451.6,480.3 459.1,493.2 459.1,493.3 459.1,493.2 438.4,454" fill="none" stroke="#74f7ff" stroke-width="3" stroke-linecap="round" stroke-linejoin="round" opacity="0.74"/><circle cx="446.4" cy="472.8" r="4" fill="#74f7ff"/><text x="452.4" y="476.8" fill="#74f7ff" font-size="14">2</text>
<polyline points="195.3,220.4 223.7,234.4 194.8,259.1 195.1,258.7" fill="none" stroke="#ffe76a" stroke-width="3" stroke-linecap="round" stroke-linejoin="round" opacity="0.74"/><circle cx="195.3" cy="220.4" r="4" fill="#ffe76a"/><text x="201.3" y="224.4" fill="#ffe76a" font-size="14">28</text>
<polyline points="421.2,420.6 423.4,425.7 423.2,426 425.8,428.8 433.9,441.7 433.9,441.4 433.6,441.6 412.8,402.4 412.8,402.4" fill="none" stroke="#74f7ff" stroke-width="3" stroke-linecap="round" stroke-linejoin="round" opacity="0.74"/><circle cx="421.2" cy="420.6" r="4" fill="#74f7ff"/><text x="427.2" y="424.6" fill="#74f7ff" font-size="14">5</text>
<polyline points="379.3,350.4 345.9,398 346.1,398.2" fill="none" stroke="#65ff9a" stroke-width="3" stroke-linecap="round" stroke-linejoin="round" opacity="0.74"/><circle cx="379.3" cy="350.4" r="4" fill="#65ff9a"/><text x="385.3" y="354.4" fill="#65ff9a" font-size="14">57</text>
<polyline points="283.3,534.5 317.6,545.3 324.3,547.4 323.3,546.3 329.1,535" fill="none" stroke="#65ff9a" stroke-width="3" stroke-linecap="round" stroke-linejoin="round" opacity="0.74"/><circle cx="283.3" cy="534.5" r="4" fill="#65ff9a"/><text x="289.3" y="538.5" fill="#65ff9a" font-size="14">63</text>
<polyline points="497.7,576.1 497.7,572.4 500.1,576.9 500,576.6 502.3,583.9 485.1,545.2 485.1,544.8" fill="none" stroke="#74f7ff" stroke-width="3" stroke-linecap="round" stroke-linejoin="round" opacity="0.74"/><circle cx="497.7" cy="576.1" r="4" fill="#74f7ff"/><text x="503.7" y="580.1" fill="#74f7ff" font-size="14">3</text>
<polyline points="164.2,441.3 160.6,449.5 168.8,500.2" fill="none" stroke="#ffe76a" stroke-width="3" stroke-linecap="round" stroke-linejoin="round" opacity="0.74"/><circle cx="164.2" cy="441.3" r="4" fill="#ffe76a"/><text x="170.2" y="445.3" fill="#ffe76a" font-size="14">35</text>
<polyline points="293.6,355.5 289.3,363.5 272.9,400.9" fill="none" stroke="#ffe76a" stroke-width="3" stroke-linecap="round" stroke-linejoin="round" opacity="0.74"/><circle cx="293.6" cy="355.5" r="4" fill="#ffe76a"/><text x="299.6" y="359.5" fill="#ffe76a" font-size="14">32</text>
<polyline points="264.5,357.9 265.2,358.6 298.6,388.6" fill="none" stroke="#65ff9a" stroke-width="3" stroke-linecap="round" stroke-linejoin="round" opacity="0.74"/><circle cx="264.5" cy="357.9" r="4" fill="#65ff9a"/><text x="270.5" y="361.9" fill="#65ff9a" font-size="14">58</text>
<polyline points="263.6,109 292.7,99.1 286.3,116.8" fill="none" stroke="#65ff9a" stroke-width="3" stroke-linecap="round" stroke-linejoin="round" opacity="0.74"/><circle cx="263.6" cy="109" r="4" fill="#65ff9a"/><text x="269.6" y="113" fill="#65ff9a" font-size="14">48</text>
<polyline points="344.4,364.7 352.1,362.3 365.3,354.6 360.4,358.5 359.4,358.8 373.4,357.5" fill="none" stroke="#74f7ff" stroke-width="3" stroke-linecap="round" stroke-linejoin="round" opacity="0.74"/><circle cx="344.4" cy="364.7" r="4" fill="#74f7ff"/><text x="350.4" y="368.7" fill="#74f7ff" font-size="14">8</text></g>
  <text x="18" y="698" fill="#9fc5d6" font-size="15">CPU object-track proxy: 45 tracks, 5 grouped target waves. Not sprite identity recognition.</text>
</svg>
