<svg xmlns="http://www.w3.org/2000/svg" width="980" height="360" viewBox="0 0 980 360">
<rect width="100%" height="100%" fill="#fff"/>
<text x="64" y="28" font-family="Arial, sans-serif" font-size="20" font-weight="700">Conformance Score Trends</text>
<line x1="64" y1="48" x2="64" y2="302" stroke="#333"/>
<line x1="64" y1="302" x2="952" y2="302" stroke="#333"/>
<line x1="64" y1="302" x2="952" y2="302" stroke="#e6e6e6"/>
<text x="54" y="306" text-anchor="end" font-family="Arial, sans-serif" font-size="12">0</text>
<line x1="64" y1="251.2" x2="952" y2="251.2" stroke="#e6e6e6"/>
<text x="54" y="255.2" text-anchor="end" font-family="Arial, sans-serif" font-size="12">2</text>
<line x1="64" y1="200.39999999999998" x2="952" y2="200.39999999999998" stroke="#e6e6e6"/>
<text x="54" y="204.39999999999998" text-anchor="end" font-family="Arial, sans-serif" font-size="12">4</text>
<line x1="64" y1="149.6" x2="952" y2="149.6" stroke="#e6e6e6"/>
<text x="54" y="153.6" text-anchor="end" font-family="Arial, sans-serif" font-size="12">6</text>
<line x1="64" y1="98.79999999999998" x2="952" y2="98.79999999999998" stroke="#e6e6e6"/>
<text x="54" y="102.79999999999998" text-anchor="end" font-family="Arial, sans-serif" font-size="12">8</text>
<line x1="64" y1="48" x2="952" y2="48" stroke="#e6e6e6"/>
<text x="54" y="52" text-anchor="end" font-family="Arial, sans-serif" font-size="12">10</text>
<polyline points="64,114.03999999999999 81.07692307692308,114.03999999999999 98.15384615384616,111.5 115.23076923076923,111.5 132.30769230769232,114.03999999999999 149.3846153846154,111.5 166.46153846153845,111.5 183.53846153846155,111.5 200.6153846153846,91.17999999999998 217.69230769230768,91.17999999999998 234.76923076923077,86.1 251.84615384615384,81.02000000000004 268.9230769230769,78.47999999999996 286,78.47999999999996 303.0769230769231,78.47999999999996 320.15384615384613,78.47999999999996 337.2307692307692,78.47999999999996 354.3076923076923,78.47999999999996 371.38461538461536,78.47999999999996 388.46153846153845,73.4 405.53846153846155,68.32000000000002 422.61538461538464,68.32000000000002 439.6923076923077,68.32000000000002 456.7692307692308,68.32000000000002 473.84615384615387,68.32000000000002 490.92307692307696,73.4 508,70.86000000000001 525.0769230769231,70.86000000000001 542.1538461538462,70.86000000000001 559.2307692307693,70.86000000000001 576.3076923076923,70.86000000000001 593.3846153846154,70.86000000000001 610.4615384615385,70.86000000000001 627.5384615384615,70.86000000000001 644.6153846153846,68.32000000000002 661.6923076923077,70.86000000000001 678.7692307692307,65.78 695.8461538461539,73.4 712.9230769230769,70.86000000000001 730,68.32000000000002 747.0769230769231,68.32000000000002 764.1538461538461,70.86000000000001 781.2307692307693,70.86000000000001 798.3076923076923,68.32000000000002 815.3846153846154,68.32000000000002 832.4615384615385,68.32000000000002 849.5384615384615,68.32000000000002 866.6153846153846,68.32000000000002 883.6923076923077,68.32000000000002 900.7692307692307,68.32000000000002 917.8461538461539,68.32000000000002 934.9230769230769,68.32000000000002 952,68.32000000000002" fill="none" stroke="#1f77b4" stroke-width="2.5"/>
<circle cx="64" cy="114.03999999999999" r="3.5" fill="#1f77b4"><title>Overall: 7.4 2026-04-22-22221ed</title></circle>
<circle cx="81.07692307692308" cy="114.03999999999999" r="3.5" fill="#1f77b4"><title>Overall: 7.4 2026-04-22-e7ec04f</title></circle>
<circle cx="98.15384615384616" cy="111.5" r="3.5" fill="#1f77b4"><title>Overall: 7.5 2026-04-22-85febd0</title></circle>
<circle cx="115.23076923076923" cy="111.5" r="3.5" fill="#1f77b4"><title>Overall: 7.5 2026-04-22-b8d89ab</title></circle>
<circle cx="132.30769230769232" cy="114.03999999999999" r="3.5" fill="#1f77b4"><title>Overall: 7.4 2026-04-22-45050fa</title></circle>
<circle cx="149.3846153846154" cy="111.5" r="3.5" fill="#1f77b4"><title>Overall: 7.5 2026-04-23-3757529</title></circle>
<circle cx="166.46153846153845" cy="111.5" r="3.5" fill="#1f77b4"><title>Overall: 7.5 2026-04-23-e4732eb</title></circle>
<circle cx="183.53846153846155" cy="111.5" r="3.5" fill="#1f77b4"><title>Overall: 7.5 2026-04-23-eda2821</title></circle>
<circle cx="200.6153846153846" cy="91.17999999999998" r="3.5" fill="#1f77b4"><title>Overall: 8.3 2026-04-23-21b5d8e</title></circle>
<circle cx="217.69230769230768" cy="91.17999999999998" r="3.5" fill="#1f77b4"><title>Overall: 8.3 2026-04-23-530c229</title></circle>
<circle cx="234.76923076923077" cy="86.1" r="3.5" fill="#1f77b4"><title>Overall: 8.5 2026-04-24-530c229</title></circle>
<circle cx="251.84615384615384" cy="81.02000000000004" r="3.5" fill="#1f77b4"><title>Overall: 8.7 2026-04-24-ca481f2</title></circle>
<circle cx="268.9230769230769" cy="78.47999999999996" r="3.5" fill="#1f77b4"><title>Overall: 8.8 2026-04-24-e1c2c65</title></circle>
<circle cx="286" cy="78.47999999999996" r="3.5" fill="#1f77b4"><title>Overall: 8.8 2026-05-02-1fb6e44</title></circle>
<circle cx="303.0769230769231" cy="78.47999999999996" r="3.5" fill="#1f77b4"><title>Overall: 8.8 2026-05-02-7ef349b</title></circle>
<circle cx="320.15384615384613" cy="78.47999999999996" r="3.5" fill="#1f77b4"><title>Overall: 8.8 2026-05-02-d6ae5c9</title></circle>
<circle cx="337.2307692307692" cy="78.47999999999996" r="3.5" fill="#1f77b4"><title>Overall: 8.8 2026-05-03-5f92eab</title></circle>
<circle cx="354.3076923076923" cy="78.47999999999996" r="3.5" fill="#1f77b4"><title>Overall: 8.8 2026-05-04-26ca77c</title></circle>
<circle cx="371.38461538461536" cy="78.47999999999996" r="3.5" fill="#1f77b4"><title>Overall: 8.8 2026-05-05-478329a</title></circle>
<circle cx="388.46153846153845" cy="73.4" r="3.5" fill="#1f77b4"><title>Overall: 9 2026-05-06-72fe7b0</title></circle>
<circle cx="405.53846153846155" cy="68.32000000000002" r="3.5" fill="#1f77b4"><title>Overall: 9.2 2026-05-06-5e835eb</title></circle>
<circle cx="422.61538461538464" cy="68.32000000000002" r="3.5" fill="#1f77b4"><title>Overall: 9.2 2026-05-07-f40a531</title></circle>
<circle cx="439.6923076923077" cy="68.32000000000002" r="3.5" fill="#1f77b4"><title>Overall: 9.2 2026-05-07-b3bbb9c</title></circle>
<circle cx="456.7692307692308" cy="68.32000000000002" r="3.5" fill="#1f77b4"><title>Overall: 9.2 2026-05-07-beb232a</title></circle>
<circle cx="473.84615384615387" cy="68.32000000000002" r="3.5" fill="#1f77b4"><title>Overall: 9.2 2026-05-07-d953cca</title></circle>
<circle cx="490.92307692307696" cy="73.4" r="3.5" fill="#1f77b4"><title>Overall: 9 2026-05-07-cf7b7d2</title></circle>
<circle cx="508" cy="70.86000000000001" r="3.5" fill="#1f77b4"><title>Overall: 9.1 2026-05-07-b22a3a2</title></circle>
<circle cx="525.0769230769231" cy="70.86000000000001" r="3.5" fill="#1f77b4"><title>Overall: 9.1 2026-05-07-53d37a8</title></circle>
<circle cx="542.1538461538462" cy="70.86000000000001" r="3.5" fill="#1f77b4"><title>Overall: 9.1 2026-05-07-fb2f674</title></circle>
<circle cx="559.2307692307693" cy="70.86000000000001" r="3.5" fill="#1f77b4"><title>Overall: 9.1 2026-05-07-2aeaafa</title></circle>
<circle cx="576.3076923076923" cy="70.86000000000001" r="3.5" fill="#1f77b4"><title>Overall: 9.1 2026-05-07-bfcc311</title></circle>
<circle cx="593.3846153846154" cy="70.86000000000001" r="3.5" fill="#1f77b4"><title>Overall: 9.1 2026-05-07-4f2fafe</title></circle>
<circle cx="610.4615384615385" cy="70.86000000000001" r="3.5" fill="#1f77b4"><title>Overall: 9.1 2026-05-08-8f0dde1</title></circle>
<circle cx="627.5384615384615" cy="70.86000000000001" r="3.5" fill="#1f77b4"><title>Overall: 9.1 2026-05-08-50be6cf</title></circle>
<circle cx="644.6153846153846" cy="68.32000000000002" r="3.5" fill="#1f77b4"><title>Overall: 9.2 2026-05-08-dfb47de</title></circle>
<circle cx="661.6923076923077" cy="70.86000000000001" r="3.5" fill="#1f77b4"><title>Overall: 9.1 2026-05-08-577ed6f</title></circle>
<circle cx="678.7692307692307" cy="65.78" r="3.5" fill="#1f77b4"><title>Overall: 9.3 2026-05-08-cfa8497</title></circle>
<circle cx="695.8461538461539" cy="73.4" r="3.5" fill="#1f77b4"><title>Overall: 9 2026-05-09-4874ced4</title></circle>
<circle cx="712.9230769230769" cy="70.86000000000001" r="3.5" fill="#1f77b4"><title>Overall: 9.1 2026-05-09-29a80ab4</title></circle>
<circle cx="730" cy="68.32000000000002" r="3.5" fill="#1f77b4"><title>Overall: 9.2 2026-05-09-66f38313</title></circle>
<circle cx="747.0769230769231" cy="68.32000000000002" r="3.5" fill="#1f77b4"><title>Overall: 9.2 2026-05-09-fcd71b79</title></circle>
<circle cx="764.1538461538461" cy="70.86000000000001" r="3.5" fill="#1f77b4"><title>Overall: 9.1 2026-05-09-6c0e2b61</title></circle>
<circle cx="781.2307692307693" cy="70.86000000000001" r="3.5" fill="#1f77b4"><title>Overall: 9.1 2026-05-09-878b7eb2</title></circle>
<circle cx="798.3076923076923" cy="68.32000000000002" r="3.5" fill="#1f77b4"><title>Overall: 9.2 2026-05-09-c3f4e668</title></circle>
<circle cx="815.3846153846154" cy="68.32000000000002" r="3.5" fill="#1f77b4"><title>Overall: 9.2 2026-05-09-a05d3601</title></circle>
<circle cx="832.4615384615385" cy="68.32000000000002" r="3.5" fill="#1f77b4"><title>Overall: 9.2 2026-05-09-d3306518</title></circle>
<circle cx="849.5384615384615" cy="68.32000000000002" r="3.5" fill="#1f77b4"><title>Overall: 9.2 2026-05-09-6584ce5b</title></circle>
<circle cx="866.6153846153846" cy="68.32000000000002" r="3.5" fill="#1f77b4"><title>Overall: 9.2 2026-05-09-71dbaca5</title></circle>
<circle cx="883.6923076923077" cy="68.32000000000002" r="3.5" fill="#1f77b4"><title>Overall: 9.2 2026-05-09-cd6fb677</title></circle>
<circle cx="900.7692307692307" cy="68.32000000000002" r="3.5" fill="#1f77b4"><title>Overall: 9.2 2026-05-09-e8d1c7ef</title></circle>
<circle cx="917.8461538461539" cy="68.32000000000002" r="3.5" fill="#1f77b4"><title>Overall: 9.2 2026-05-09-fa13c102</title></circle>
<circle cx="934.9230769230769" cy="68.32000000000002" r="3.5" fill="#1f77b4"><title>Overall: 9.2 2026-05-09-5eb9b0b1</title></circle>
<circle cx="952" cy="68.32000000000002" r="3.5" fill="#1f77b4"><title>Overall: 9.2 2026-05-09-bbcc8df1</title></circle>
<rect x="64" y="332" width="12" height="12" fill="#1f77b4"/>
<text x="82" y="342" font-family="Arial, sans-serif" font-size="12">Overall</text>
<polyline points="64,114.03999999999999 81.07692307692308,101.34 98.15384615384616,93.72 115.23076923076923,93.72 132.30769230769232,91.17999999999998 149.3846153846154,88.63999999999999 166.46153846153845,91.17999999999998 183.53846153846155,88.63999999999999 200.6153846153846,88.63999999999999 217.69230769230768,88.63999999999999 234.76923076923077,88.63999999999999 251.84615384615384,88.63999999999999 268.9230769230769,88.63999999999999 286,88.63999999999999 303.0769230769231,88.63999999999999 320.15384615384613,88.63999999999999 337.2307692307692,86.1 354.3076923076923,86.1 371.38461538461536,86.1 388.46153846153845,91.17999999999998 405.53846153846155,88.63999999999999 422.61538461538464,78.47999999999996 439.6923076923077,78.47999999999996 456.7692307692308,78.47999999999996 473.84615384615387,78.47999999999996 490.92307692307696,78.47999999999996 508,78.47999999999996 525.0769230769231,78.47999999999996 542.1538461538462,78.47999999999996 559.2307692307693,78.47999999999996 576.3076923076923,78.47999999999996 593.3846153846154,78.47999999999996 610.4615384615385,78.47999999999996 627.5384615384615,78.47999999999996 644.6153846153846,78.47999999999996" fill="none" stroke="#2ca02c" stroke-width="2.5"/>
<circle cx="64" cy="114.03999999999999" r="3.5" fill="#2ca02c"><title>Level arc: 7.4 2026-05-07-cf7b7d2</title></circle>
<circle cx="81.07692307692308" cy="101.34" r="3.5" fill="#2ca02c"><title>Level arc: 7.9 2026-05-07-b22a3a2</title></circle>
<circle cx="98.15384615384616" cy="93.72" r="3.5" fill="#2ca02c"><title>Level arc: 8.2 2026-05-07-53d37a8</title></circle>
<circle cx="115.23076923076923" cy="93.72" r="3.5" fill="#2ca02c"><title>Level arc: 8.2 2026-05-07-fb2f674</title></circle>
<circle cx="132.30769230769232" cy="91.17999999999998" r="3.5" fill="#2ca02c"><title>Level arc: 8.3 2026-05-07-2aeaafa</title></circle>
<circle cx="149.3846153846154" cy="88.63999999999999" r="3.5" fill="#2ca02c"><title>Level arc: 8.4 2026-05-07-bfcc311</title></circle>
<circle cx="166.46153846153845" cy="91.17999999999998" r="3.5" fill="#2ca02c"><title>Level arc: 8.3 2026-05-07-4f2fafe</title></circle>
<circle cx="183.53846153846155" cy="88.63999999999999" r="3.5" fill="#2ca02c"><title>Level arc: 8.4 2026-05-08-8f0dde1</title></circle>
<circle cx="200.6153846153846" cy="88.63999999999999" r="3.5" fill="#2ca02c"><title>Level arc: 8.4 2026-05-08-50be6cf</title></circle>
<circle cx="217.69230769230768" cy="88.63999999999999" r="3.5" fill="#2ca02c"><title>Level arc: 8.4 2026-05-08-5fdd723</title></circle>
<circle cx="234.76923076923077" cy="88.63999999999999" r="3.5" fill="#2ca02c"><title>Level arc: 8.4 2026-05-08-d8240f0</title></circle>
<circle cx="251.84615384615384" cy="88.63999999999999" r="3.5" fill="#2ca02c"><title>Level arc: 8.4 2026-05-08-dfb47de</title></circle>
<circle cx="268.9230769230769" cy="88.63999999999999" r="3.5" fill="#2ca02c"><title>Level arc: 8.4 2026-05-08-577ed6f</title></circle>
<circle cx="286" cy="88.63999999999999" r="3.5" fill="#2ca02c"><title>Level arc: 8.4 2026-05-08-acc8b71</title></circle>
<circle cx="303.0769230769231" cy="88.63999999999999" r="3.5" fill="#2ca02c"><title>Level arc: 8.4 2026-05-08-d94f1e0</title></circle>
<circle cx="320.15384615384613" cy="88.63999999999999" r="3.5" fill="#2ca02c"><title>Level arc: 8.4 2026-05-08-fdcefbe</title></circle>
<circle cx="337.2307692307692" cy="86.1" r="3.5" fill="#2ca02c"><title>Level arc: 8.5 2026-05-08-72e823c</title></circle>
<circle cx="354.3076923076923" cy="86.1" r="3.5" fill="#2ca02c"><title>Level arc: 8.5 2026-05-08-cfa8497</title></circle>
<circle cx="371.38461538461536" cy="86.1" r="3.5" fill="#2ca02c"><title>Level arc: 8.5 2026-05-09-5da7d96</title></circle>
<circle cx="388.46153846153845" cy="91.17999999999998" r="3.5" fill="#2ca02c"><title>Level arc: 8.3 2026-05-09-4874ced4</title></circle>
<circle cx="405.53846153846155" cy="88.63999999999999" r="3.5" fill="#2ca02c"><title>Level arc: 8.4 2026-05-09-29a80ab4</title></circle>
<circle cx="422.61538461538464" cy="78.47999999999996" r="3.5" fill="#2ca02c"><title>Level arc: 8.8 2026-05-09-66f38313</title></circle>
<circle cx="439.6923076923077" cy="78.47999999999996" r="3.5" fill="#2ca02c"><title>Level arc: 8.8 2026-05-09-fcd71b79</title></circle>
<circle cx="456.7692307692308" cy="78.47999999999996" r="3.5" fill="#2ca02c"><title>Level arc: 8.8 2026-05-09-6c0e2b61</title></circle>
<circle cx="473.84615384615387" cy="78.47999999999996" r="3.5" fill="#2ca02c"><title>Level arc: 8.8 2026-05-09-878b7eb2</title></circle>
<circle cx="490.92307692307696" cy="78.47999999999996" r="3.5" fill="#2ca02c"><title>Level arc: 8.8 2026-05-09-c3f4e668</title></circle>
<circle cx="508" cy="78.47999999999996" r="3.5" fill="#2ca02c"><title>Level arc: 8.8 2026-05-09-a05d3601</title></circle>
<circle cx="525.0769230769231" cy="78.47999999999996" r="3.5" fill="#2ca02c"><title>Level arc: 8.8 2026-05-09-d3306518</title></circle>
<circle cx="542.1538461538462" cy="78.47999999999996" r="3.5" fill="#2ca02c"><title>Level arc: 8.8 2026-05-09-6584ce5b</title></circle>
<circle cx="559.2307692307693" cy="78.47999999999996" r="3.5" fill="#2ca02c"><title>Level arc: 8.8 2026-05-09-71dbaca5</title></circle>
<circle cx="576.3076923076923" cy="78.47999999999996" r="3.5" fill="#2ca02c"><title>Level arc: 8.8 2026-05-09-cd6fb677</title></circle>
<circle cx="593.3846153846154" cy="78.47999999999996" r="3.5" fill="#2ca02c"><title>Level arc: 8.8 2026-05-09-e8d1c7ef</title></circle>
<circle cx="610.4615384615385" cy="78.47999999999996" r="3.5" fill="#2ca02c"><title>Level arc: 8.8 2026-05-09-fa13c102</title></circle>
<circle cx="627.5384615384615" cy="78.47999999999996" r="3.5" fill="#2ca02c"><title>Level arc: 8.8 2026-05-09-5eb9b0b1</title></circle>
<circle cx="644.6153846153846" cy="78.47999999999996" r="3.5" fill="#2ca02c"><title>Level arc: 8.8 2026-05-09-bbcc8df1</title></circle>
<rect x="274" y="332" width="12" height="12" fill="#2ca02c"/>
<text x="292" y="342" font-family="Arial, sans-serif" font-size="12">Level arc</text>
<polyline points="64,101.34 81.07692307692308,154.68 98.15384615384616,147.06 115.23076923076923,139.44 132.30769230769232,129.28000000000003 149.3846153846154,131.82 166.46153846153845,48 183.53846153846155,48" fill="none" stroke="#d62728" stroke-width="2.5"/>
<circle cx="64" cy="101.34" r="3.5" fill="#d62728"><title>Stage signature: 7.9 2026-05-07-b22a3a2</title></circle>
<circle cx="81.07692307692308" cy="154.68" r="3.5" fill="#d62728"><title>Stage signature: 5.8 2026-05-07-53d37a8</title></circle>
<circle cx="98.15384615384616" cy="147.06" r="3.5" fill="#d62728"><title>Stage signature: 6.1 2026-05-07-fb2f674</title></circle>
<circle cx="115.23076923076923" cy="139.44" r="3.5" fill="#d62728"><title>Stage signature: 6.4 2026-05-07-2aeaafa</title></circle>
<circle cx="132.30769230769232" cy="129.28000000000003" r="3.5" fill="#d62728"><title>Stage signature: 6.8 2026-05-08-8f0dde1</title></circle>
<circle cx="149.3846153846154" cy="131.82" r="3.5" fill="#d62728"><title>Stage signature: 6.7 2026-05-09-5da7d96</title></circle>
<circle cx="166.46153846153845" cy="48" r="3.5" fill="#d62728"><title>Stage signature: 10 2026-05-09-66f38313</title></circle>
<circle cx="183.53846153846155" cy="48" r="3.5" fill="#d62728"><title>Stage signature: 10 2026-05-09-71dbaca5</title></circle>
<rect x="484" y="332" width="12" height="12" fill="#d62728"/>
<text x="502" y="342" font-family="Arial, sans-serif" font-size="12">Stage signature</text>
<polyline points="64,217.34179999999998 81.07692307692308,302 98.15384615384616,302 115.23076923076923,302 132.30769230769232,302 149.3846153846154,217.34179999999998 166.46153846153845,302 183.53846153846155,302" fill="none" stroke="#9467bd" stroke-width="2.5"/>
<circle cx="64" cy="217.34179999999998" r="3.5" fill="#9467bd"><title>Stage 4 exact replay: 3.333 2026-05-06-6d7e05b</title></circle>
<circle cx="81.07692307692308" cy="302" r="3.5" fill="#9467bd"><title>Stage 4 exact replay: 0 2026-05-06-5e835eb</title></circle>
<circle cx="98.15384615384616" cy="302" r="3.5" fill="#9467bd"><title>Stage 4 exact replay: 0 2026-05-07-b3bbb9c</title></circle>
<circle cx="115.23076923076923" cy="302" r="3.5" fill="#9467bd"><title>Stage 4 exact replay: 0 2026-05-07-fb2f674</title></circle>
<circle cx="132.30769230769232" cy="302" r="3.5" fill="#9467bd"><title>Stage 4 exact replay: 0 2026-05-07-2aeaafa</title></circle>
<circle cx="149.3846153846154" cy="217.34179999999998" r="3.5" fill="#9467bd"><title>Stage 4 exact replay: 3.333 2026-05-07-bfcc311</title></circle>
<circle cx="166.46153846153845" cy="302" r="3.5" fill="#9467bd"><title>Stage 4 exact replay: 0 2026-05-07-13704be</title></circle>
<circle cx="183.53846153846155" cy="302" r="3.5" fill="#9467bd"><title>Stage 4 exact replay: 0 2026-05-07-4f2fafe</title></circle>
<rect x="694" y="332" width="12" height="12" fill="#9467bd"/>
<text x="712" y="342" font-family="Arial, sans-serif" font-size="12">Stage 4 exact replay</text>
<text x="64" y="322" text-anchor="middle" font-family="Arial, sans-serif" font-size="11">2026-04-22-22221ed</text>
<text x="217.69230769230768" y="322" text-anchor="middle" font-family="Arial, sans-serif" font-size="11">2026-04-23-530c229</text>
<text x="371.38461538461536" y="322" text-anchor="middle" font-family="Arial, sans-serif" font-size="11">2026-05-05-478329a</text>
<text x="525.0769230769231" y="322" text-anchor="middle" font-family="Arial, sans-serif" font-size="11">2026-05-07-53d37a8</text>
<text x="678.7692307692307" y="322" text-anchor="middle" font-family="Arial, sans-serif" font-size="11">2026-05-08-cfa8497</text>
<text x="832.4615384615385" y="322" text-anchor="middle" font-family="Arial, sans-serif" font-size="11">2026-05-09-d3306518</text>
<text x="952" y="322" text-anchor="middle" font-family="Arial, sans-serif" font-size="11">2026-05-09-bbcc8df1</text>
</svg>
