<svg xmlns="http://www.w3.org/2000/svg" width="980" height="360" viewBox="0 0 980 360">
<rect width="100%" height="100%" fill="#fff"/>
<text x="64" y="28" font-family="Arial, sans-serif" font-size="20" font-weight="700">Conformance Score Trends</text>
<line x1="64" y1="48" x2="64" y2="302" stroke="#333"/>
<line x1="64" y1="302" x2="952" y2="302" stroke="#333"/>
<line x1="64" y1="302" x2="952" y2="302" stroke="#e6e6e6"/>
<text x="54" y="306" text-anchor="end" font-family="Arial, sans-serif" font-size="12">0</text>
<line x1="64" y1="251.2" x2="952" y2="251.2" stroke="#e6e6e6"/>
<text x="54" y="255.2" text-anchor="end" font-family="Arial, sans-serif" font-size="12">2</text>
<line x1="64" y1="200.39999999999998" x2="952" y2="200.39999999999998" stroke="#e6e6e6"/>
<text x="54" y="204.39999999999998" text-anchor="end" font-family="Arial, sans-serif" font-size="12">4</text>
<line x1="64" y1="149.6" x2="952" y2="149.6" stroke="#e6e6e6"/>
<text x="54" y="153.6" text-anchor="end" font-family="Arial, sans-serif" font-size="12">6</text>
<line x1="64" y1="98.79999999999998" x2="952" y2="98.79999999999998" stroke="#e6e6e6"/>
<text x="54" y="102.79999999999998" text-anchor="end" font-family="Arial, sans-serif" font-size="12">8</text>
<line x1="64" y1="48" x2="952" y2="48" stroke="#e6e6e6"/>
<text x="54" y="52" text-anchor="end" font-family="Arial, sans-serif" font-size="12">10</text>
<polyline points="64,114.03999999999999 74.44705882352942,114.03999999999999 84.89411764705882,111.5 95.34117647058824,111.5 105.78823529411764,114.03999999999999 116.23529411764706,111.5 126.68235294117648,111.5 137.12941176470588,111.5 147.57647058823528,91.17999999999998 158.02352941176468,91.17999999999998 168.47058823529412,86.1 178.91764705882355,81.02000000000004 189.36470588235295,78.47999999999996 199.81176470588235,78.47999999999996 210.25882352941176,78.47999999999996 220.7058823529412,78.47999999999996 231.1529411764706,78.47999999999996 241.60000000000002,78.47999999999996 252.0470588235294,78.47999999999996 262.49411764705883,73.4 272.94117647058823,68.32000000000002 283.38823529411764,68.32000000000002 293.8352941176471,68.32000000000002 304.28235294117644,68.32000000000002 314.7294117647059,68.32000000000002 325.1764705882353,73.4 335.6235294117647,70.86000000000001 346.0705882352941,70.86000000000001 356.5176470588235,70.86000000000001 366.964705882353,70.86000000000001 377.4117647058824,70.86000000000001 387.8588235294117,70.86000000000001 398.3058823529412,70.86000000000001 408.7529411764706,70.86000000000001 419.20000000000005,68.32000000000002 429.6470588235294,70.86000000000001 440.0941176470588,65.78 450.54117647058825,73.4 460.98823529411766,70.86000000000001 471.43529411764706,68.32000000000002 481.88235294117646,68.32000000000002 492.32941176470587,70.86000000000001 502.7764705882353,70.86000000000001 513.2235294117647,68.32000000000002 523.6705882352942,68.32000000000002 534.1176470588235,68.32000000000002 544.5647058823529,68.32000000000002 555.0117647058823,68.32000000000002 565.4588235294118,68.32000000000002 575.9058823529411,68.32000000000002 586.3529411764706,68.32000000000002 596.8,68.32000000000002 607.2470588235294,68.32000000000002 617.6941176470589,68.32000000000002 628.1411764705882,68.32000000000002 638.5882352941177,68.32000000000002 649.035294117647,68.32000000000002 659.4823529411764,68.32000000000002 669.929411764706,68.32000000000002 680.3764705882353,68.32000000000002 690.8235294117648,68.32000000000002 701.2705882352941,68.32000000000002 711.7176470588234,70.86000000000001 722.164705882353,68.32000000000002 732.6117647058824,70.86000000000001 743.0588235294117,70.86000000000001 753.5058823529412,70.86000000000001 763.9529411764705,70.86000000000001 774.4000000000001,70.86000000000001 784.8470588235294,70.86000000000001 795.2941176470588,70.86000000000001 805.7411764705882,70.86000000000001 816.1882352941176,70.86000000000001 826.635294117647,70.86000000000001 837.0823529411765,70.86000000000001 847.5294117647059,68.32000000000002 857.9764705882353,68.32000000000002 868.4235294117647,68.32000000000002 878.8705882352941,68.32000000000002 889.3176470588236,68.32000000000002 899.7647058823529,68.32000000000002 910.2117647058823,68.32000000000002 920.6588235294117,68.32000000000002 931.1058823529412,68.32000000000002 941.5529411764707,68.32000000000002 952,68.32000000000002" fill="none" stroke="#1f77b4" stroke-width="2.5"/>
<circle cx="64" cy="114.03999999999999" r="3.5" fill="#1f77b4"><title>Overall: 7.4 2026-04-22-22221ed</title></circle>
<circle cx="74.44705882352942" cy="114.03999999999999" r="3.5" fill="#1f77b4"><title>Overall: 7.4 2026-04-22-e7ec04f</title></circle>
<circle cx="84.89411764705882" cy="111.5" r="3.5" fill="#1f77b4"><title>Overall: 7.5 2026-04-22-85febd0</title></circle>
<circle cx="95.34117647058824" cy="111.5" r="3.5" fill="#1f77b4"><title>Overall: 7.5 2026-04-22-b8d89ab</title></circle>
<circle cx="105.78823529411764" cy="114.03999999999999" r="3.5" fill="#1f77b4"><title>Overall: 7.4 2026-04-22-45050fa</title></circle>
<circle cx="116.23529411764706" cy="111.5" r="3.5" fill="#1f77b4"><title>Overall: 7.5 2026-04-23-3757529</title></circle>
<circle cx="126.68235294117648" cy="111.5" r="3.5" fill="#1f77b4"><title>Overall: 7.5 2026-04-23-e4732eb</title></circle>
<circle cx="137.12941176470588" cy="111.5" r="3.5" fill="#1f77b4"><title>Overall: 7.5 2026-04-23-eda2821</title></circle>
<circle cx="147.57647058823528" cy="91.17999999999998" r="3.5" fill="#1f77b4"><title>Overall: 8.3 2026-04-23-21b5d8e</title></circle>
<circle cx="158.02352941176468" cy="91.17999999999998" r="3.5" fill="#1f77b4"><title>Overall: 8.3 2026-04-23-530c229</title></circle>
<circle cx="168.47058823529412" cy="86.1" r="3.5" fill="#1f77b4"><title>Overall: 8.5 2026-04-24-530c229</title></circle>
<circle cx="178.91764705882355" cy="81.02000000000004" r="3.5" fill="#1f77b4"><title>Overall: 8.7 2026-04-24-ca481f2</title></circle>
<circle cx="189.36470588235295" cy="78.47999999999996" r="3.5" fill="#1f77b4"><title>Overall: 8.8 2026-04-24-e1c2c65</title></circle>
<circle cx="199.81176470588235" cy="78.47999999999996" r="3.5" fill="#1f77b4"><title>Overall: 8.8 2026-05-02-1fb6e44</title></circle>
<circle cx="210.25882352941176" cy="78.47999999999996" r="3.5" fill="#1f77b4"><title>Overall: 8.8 2026-05-02-7ef349b</title></circle>
<circle cx="220.7058823529412" cy="78.47999999999996" r="3.5" fill="#1f77b4"><title>Overall: 8.8 2026-05-02-d6ae5c9</title></circle>
<circle cx="231.1529411764706" cy="78.47999999999996" r="3.5" fill="#1f77b4"><title>Overall: 8.8 2026-05-03-5f92eab</title></circle>
<circle cx="241.60000000000002" cy="78.47999999999996" r="3.5" fill="#1f77b4"><title>Overall: 8.8 2026-05-04-26ca77c</title></circle>
<circle cx="252.0470588235294" cy="78.47999999999996" r="3.5" fill="#1f77b4"><title>Overall: 8.8 2026-05-05-478329a</title></circle>
<circle cx="262.49411764705883" cy="73.4" r="3.5" fill="#1f77b4"><title>Overall: 9 2026-05-06-72fe7b0</title></circle>
<circle cx="272.94117647058823" cy="68.32000000000002" r="3.5" fill="#1f77b4"><title>Overall: 9.2 2026-05-06-5e835eb</title></circle>
<circle cx="283.38823529411764" cy="68.32000000000002" r="3.5" fill="#1f77b4"><title>Overall: 9.2 2026-05-07-f40a531</title></circle>
<circle cx="293.8352941176471" cy="68.32000000000002" r="3.5" fill="#1f77b4"><title>Overall: 9.2 2026-05-07-b3bbb9c</title></circle>
<circle cx="304.28235294117644" cy="68.32000000000002" r="3.5" fill="#1f77b4"><title>Overall: 9.2 2026-05-07-beb232a</title></circle>
<circle cx="314.7294117647059" cy="68.32000000000002" r="3.5" fill="#1f77b4"><title>Overall: 9.2 2026-05-07-d953cca</title></circle>
<circle cx="325.1764705882353" cy="73.4" r="3.5" fill="#1f77b4"><title>Overall: 9 2026-05-07-cf7b7d2</title></circle>
<circle cx="335.6235294117647" cy="70.86000000000001" r="3.5" fill="#1f77b4"><title>Overall: 9.1 2026-05-07-b22a3a2</title></circle>
<circle cx="346.0705882352941" cy="70.86000000000001" r="3.5" fill="#1f77b4"><title>Overall: 9.1 2026-05-07-53d37a8</title></circle>
<circle cx="356.5176470588235" cy="70.86000000000001" r="3.5" fill="#1f77b4"><title>Overall: 9.1 2026-05-07-fb2f674</title></circle>
<circle cx="366.964705882353" cy="70.86000000000001" r="3.5" fill="#1f77b4"><title>Overall: 9.1 2026-05-07-2aeaafa</title></circle>
<circle cx="377.4117647058824" cy="70.86000000000001" r="3.5" fill="#1f77b4"><title>Overall: 9.1 2026-05-07-bfcc311</title></circle>
<circle cx="387.8588235294117" cy="70.86000000000001" r="3.5" fill="#1f77b4"><title>Overall: 9.1 2026-05-07-4f2fafe</title></circle>
<circle cx="398.3058823529412" cy="70.86000000000001" r="3.5" fill="#1f77b4"><title>Overall: 9.1 2026-05-08-8f0dde1</title></circle>
<circle cx="408.7529411764706" cy="70.86000000000001" r="3.5" fill="#1f77b4"><title>Overall: 9.1 2026-05-08-50be6cf</title></circle>
<circle cx="419.20000000000005" cy="68.32000000000002" r="3.5" fill="#1f77b4"><title>Overall: 9.2 2026-05-08-dfb47de</title></circle>
<circle cx="429.6470588235294" cy="70.86000000000001" r="3.5" fill="#1f77b4"><title>Overall: 9.1 2026-05-08-577ed6f</title></circle>
<circle cx="440.0941176470588" cy="65.78" r="3.5" fill="#1f77b4"><title>Overall: 9.3 2026-05-08-cfa8497</title></circle>
<circle cx="450.54117647058825" cy="73.4" r="3.5" fill="#1f77b4"><title>Overall: 9 2026-05-09-4874ced4</title></circle>
<circle cx="460.98823529411766" cy="70.86000000000001" r="3.5" fill="#1f77b4"><title>Overall: 9.1 2026-05-09-29a80ab4</title></circle>
<circle cx="471.43529411764706" cy="68.32000000000002" r="3.5" fill="#1f77b4"><title>Overall: 9.2 2026-05-09-66f38313</title></circle>
<circle cx="481.88235294117646" cy="68.32000000000002" r="3.5" fill="#1f77b4"><title>Overall: 9.2 2026-05-09-fcd71b79</title></circle>
<circle cx="492.32941176470587" cy="70.86000000000001" r="3.5" fill="#1f77b4"><title>Overall: 9.1 2026-05-09-6c0e2b61</title></circle>
<circle cx="502.7764705882353" cy="70.86000000000001" r="3.5" fill="#1f77b4"><title>Overall: 9.1 2026-05-09-878b7eb2</title></circle>
<circle cx="513.2235294117647" cy="68.32000000000002" r="3.5" fill="#1f77b4"><title>Overall: 9.2 2026-05-09-c3f4e668</title></circle>
<circle cx="523.6705882352942" cy="68.32000000000002" r="3.5" fill="#1f77b4"><title>Overall: 9.2 2026-05-09-a05d3601</title></circle>
<circle cx="534.1176470588235" cy="68.32000000000002" r="3.5" fill="#1f77b4"><title>Overall: 9.2 2026-05-09-d3306518</title></circle>
<circle cx="544.5647058823529" cy="68.32000000000002" r="3.5" fill="#1f77b4"><title>Overall: 9.2 2026-05-09-6584ce5b</title></circle>
<circle cx="555.0117647058823" cy="68.32000000000002" r="3.5" fill="#1f77b4"><title>Overall: 9.2 2026-05-09-71dbaca5</title></circle>
<circle cx="565.4588235294118" cy="68.32000000000002" r="3.5" fill="#1f77b4"><title>Overall: 9.2 2026-05-09-cd6fb677</title></circle>
<circle cx="575.9058823529411" cy="68.32000000000002" r="3.5" fill="#1f77b4"><title>Overall: 9.2 2026-05-09-e8d1c7ef</title></circle>
<circle cx="586.3529411764706" cy="68.32000000000002" r="3.5" fill="#1f77b4"><title>Overall: 9.2 2026-05-09-fa13c102</title></circle>
<circle cx="596.8" cy="68.32000000000002" r="3.5" fill="#1f77b4"><title>Overall: 9.2 2026-05-09-5eb9b0b1</title></circle>
<circle cx="607.2470588235294" cy="68.32000000000002" r="3.5" fill="#1f77b4"><title>Overall: 9.2 2026-05-09-bbcc8df1</title></circle>
<circle cx="617.6941176470589" cy="68.32000000000002" r="3.5" fill="#1f77b4"><title>Overall: 9.2 2026-05-10-41f7caa8</title></circle>
<circle cx="628.1411764705882" cy="68.32000000000002" r="3.5" fill="#1f77b4"><title>Overall: 9.2 2026-05-10-d5dfeffe</title></circle>
<circle cx="638.5882352941177" cy="68.32000000000002" r="3.5" fill="#1f77b4"><title>Overall: 9.2 2026-05-10-8c3e3571</title></circle>
<circle cx="649.035294117647" cy="68.32000000000002" r="3.5" fill="#1f77b4"><title>Overall: 9.2 2026-05-10-9ddc6104</title></circle>
<circle cx="659.4823529411764" cy="68.32000000000002" r="3.5" fill="#1f77b4"><title>Overall: 9.2 2026-05-10-705e445c</title></circle>
<circle cx="669.929411764706" cy="68.32000000000002" r="3.5" fill="#1f77b4"><title>Overall: 9.2 2026-05-10-5e8df85b</title></circle>
<circle cx="680.3764705882353" cy="68.32000000000002" r="3.5" fill="#1f77b4"><title>Overall: 9.2 2026-05-10-eedc85ba</title></circle>
<circle cx="690.8235294117648" cy="68.32000000000002" r="3.5" fill="#1f77b4"><title>Overall: 9.2 2026-05-11-46e1b45c</title></circle>
<circle cx="701.2705882352941" cy="68.32000000000002" r="3.5" fill="#1f77b4"><title>Overall: 9.2 2026-05-11-44ac29aa</title></circle>
<circle cx="711.7176470588234" cy="70.86000000000001" r="3.5" fill="#1f77b4"><title>Overall: 9.1 2026-05-11-23c856ad</title></circle>
<circle cx="722.164705882353" cy="68.32000000000002" r="3.5" fill="#1f77b4"><title>Overall: 9.2 2026-05-11-b83393cd</title></circle>
<circle cx="732.6117647058824" cy="70.86000000000001" r="3.5" fill="#1f77b4"><title>Overall: 9.1 2026-05-14-ce595bfb</title></circle>
<circle cx="743.0588235294117" cy="70.86000000000001" r="3.5" fill="#1f77b4"><title>Overall: 9.1 2026-05-14-df15e918</title></circle>
<circle cx="753.5058823529412" cy="70.86000000000001" r="3.5" fill="#1f77b4"><title>Overall: 9.1 2026-05-14-35b1b292</title></circle>
<circle cx="763.9529411764705" cy="70.86000000000001" r="3.5" fill="#1f77b4"><title>Overall: 9.1 2026-05-14-1c788342</title></circle>
<circle cx="774.4000000000001" cy="70.86000000000001" r="3.5" fill="#1f77b4"><title>Overall: 9.1 2026-05-15-af3f2b85</title></circle>
<circle cx="784.8470588235294" cy="70.86000000000001" r="3.5" fill="#1f77b4"><title>Overall: 9.1 2026-05-15-f32c4a0d</title></circle>
<circle cx="795.2941176470588" cy="70.86000000000001" r="3.5" fill="#1f77b4"><title>Overall: 9.1 2026-05-15-02ae3190</title></circle>
<circle cx="805.7411764705882" cy="70.86000000000001" r="3.5" fill="#1f77b4"><title>Overall: 9.1 2026-05-15-60326a33</title></circle>
<circle cx="816.1882352941176" cy="70.86000000000001" r="3.5" fill="#1f77b4"><title>Overall: 9.1 2026-05-15-93dbdad8</title></circle>
<circle cx="826.635294117647" cy="70.86000000000001" r="3.5" fill="#1f77b4"><title>Overall: 9.1 2026-05-15-db84f65c</title></circle>
<circle cx="837.0823529411765" cy="70.86000000000001" r="3.5" fill="#1f77b4"><title>Overall: 9.1 2026-05-15-d43b188a</title></circle>
<circle cx="847.5294117647059" cy="68.32000000000002" r="3.5" fill="#1f77b4"><title>Overall: 9.2 2026-05-15-c8c7246f</title></circle>
<circle cx="857.9764705882353" cy="68.32000000000002" r="3.5" fill="#1f77b4"><title>Overall: 9.2 2026-05-15-eb6d951f</title></circle>
<circle cx="868.4235294117647" cy="68.32000000000002" r="3.5" fill="#1f77b4"><title>Overall: 9.2 2026-05-16-82fd62cb</title></circle>
<circle cx="878.8705882352941" cy="68.32000000000002" r="3.5" fill="#1f77b4"><title>Overall: 9.2 2026-05-16-285b1a13</title></circle>
<circle cx="889.3176470588236" cy="68.32000000000002" r="3.5" fill="#1f77b4"><title>Overall: 9.2 2026-05-16-708f7909</title></circle>
<circle cx="899.7647058823529" cy="68.32000000000002" r="3.5" fill="#1f77b4"><title>Overall: 9.2 2026-05-16-08c327dd</title></circle>
<circle cx="910.2117647058823" cy="68.32000000000002" r="3.5" fill="#1f77b4"><title>Overall: 9.2 2026-05-16-498e13b9</title></circle>
<circle cx="920.6588235294117" cy="68.32000000000002" r="3.5" fill="#1f77b4"><title>Overall: 9.2 2026-05-16-8a54cf6f</title></circle>
<circle cx="931.1058823529412" cy="68.32000000000002" r="3.5" fill="#1f77b4"><title>Overall: 9.2 2026-05-17-612f086f</title></circle>
<circle cx="941.5529411764707" cy="68.32000000000002" r="3.5" fill="#1f77b4"><title>Overall: 9.2 2026-05-17-ab80e4c7</title></circle>
<circle cx="952" cy="68.32000000000002" r="3.5" fill="#1f77b4"><title>Overall: 9.2 2026-05-17-f9e7374c</title></circle>
<rect x="64" y="332" width="12" height="12" fill="#1f77b4"/>
<text x="82" y="342" font-family="Arial, sans-serif" font-size="12">Overall</text>
<polyline points="64,114.03999999999999 74.44705882352942,101.34 84.89411764705882,93.72 95.34117647058824,93.72 105.78823529411764,91.17999999999998 116.23529411764706,88.63999999999999 126.68235294117648,91.17999999999998 137.12941176470588,88.63999999999999 147.57647058823528,88.63999999999999 158.02352941176468,88.63999999999999 168.47058823529412,88.63999999999999 178.91764705882355,88.63999999999999 189.36470588235295,88.63999999999999 199.81176470588235,88.63999999999999 210.25882352941176,88.63999999999999 220.7058823529412,88.63999999999999 231.1529411764706,86.1 241.60000000000002,86.1 252.0470588235294,86.1 262.49411764705883,91.17999999999998 272.94117647058823,88.63999999999999 283.38823529411764,78.47999999999996 293.8352941176471,78.47999999999996 304.28235294117644,78.47999999999996 314.7294117647059,78.47999999999996 325.1764705882353,78.47999999999996 335.6235294117647,78.47999999999996 346.0705882352941,78.47999999999996 356.5176470588235,78.47999999999996 366.964705882353,78.47999999999996 377.4117647058824,78.47999999999996 387.8588235294117,78.47999999999996 398.3058823529412,78.47999999999996 408.7529411764706,78.47999999999996 419.20000000000005,78.47999999999996 429.6470588235294,78.47999999999996 440.0941176470588,78.47999999999996 450.54117647058825,78.47999999999996 460.98823529411766,78.47999999999996 471.43529411764706,78.47999999999996 481.88235294117646,78.47999999999996 492.32941176470587,78.47999999999996 502.7764705882353,78.47999999999996 513.2235294117647,78.47999999999996 523.6705882352942,78.47999999999996 534.1176470588235,81.02000000000004 544.5647058823529,81.02000000000004 555.0117647058823,81.02000000000004 565.4588235294118,81.02000000000004 575.9058823529411,81.02000000000004 586.3529411764706,81.02000000000004 596.8,81.02000000000004 607.2470588235294,81.02000000000004 617.6941176470589,81.02000000000004 628.1411764705882,81.02000000000004 638.5882352941177,78.47999999999996 649.035294117647,78.47999999999996 659.4823529411764,78.47999999999996 669.929411764706,78.47999999999996 680.3764705882353,78.47999999999996 690.8235294117648,78.47999999999996 701.2705882352941,78.47999999999996 711.7176470588234,78.47999999999996 722.164705882353,78.47999999999996 732.6117647058824,78.47999999999996 743.0588235294117,78.47999999999996 753.5058823529412,78.47999999999996" fill="none" stroke="#2ca02c" stroke-width="2.5"/>
<circle cx="64" cy="114.03999999999999" r="3.5" fill="#2ca02c"><title>Level arc: 7.4 2026-05-07-cf7b7d2</title></circle>
<circle cx="74.44705882352942" cy="101.34" r="3.5" fill="#2ca02c"><title>Level arc: 7.9 2026-05-07-b22a3a2</title></circle>
<circle cx="84.89411764705882" cy="93.72" r="3.5" fill="#2ca02c"><title>Level arc: 8.2 2026-05-07-53d37a8</title></circle>
<circle cx="95.34117647058824" cy="93.72" r="3.5" fill="#2ca02c"><title>Level arc: 8.2 2026-05-07-fb2f674</title></circle>
<circle cx="105.78823529411764" cy="91.17999999999998" r="3.5" fill="#2ca02c"><title>Level arc: 8.3 2026-05-07-2aeaafa</title></circle>
<circle cx="116.23529411764706" cy="88.63999999999999" r="3.5" fill="#2ca02c"><title>Level arc: 8.4 2026-05-07-bfcc311</title></circle>
<circle cx="126.68235294117648" cy="91.17999999999998" r="3.5" fill="#2ca02c"><title>Level arc: 8.3 2026-05-07-4f2fafe</title></circle>
<circle cx="137.12941176470588" cy="88.63999999999999" r="3.5" fill="#2ca02c"><title>Level arc: 8.4 2026-05-08-8f0dde1</title></circle>
<circle cx="147.57647058823528" cy="88.63999999999999" r="3.5" fill="#2ca02c"><title>Level arc: 8.4 2026-05-08-50be6cf</title></circle>
<circle cx="158.02352941176468" cy="88.63999999999999" r="3.5" fill="#2ca02c"><title>Level arc: 8.4 2026-05-08-5fdd723</title></circle>
<circle cx="168.47058823529412" cy="88.63999999999999" r="3.5" fill="#2ca02c"><title>Level arc: 8.4 2026-05-08-d8240f0</title></circle>
<circle cx="178.91764705882355" cy="88.63999999999999" r="3.5" fill="#2ca02c"><title>Level arc: 8.4 2026-05-08-dfb47de</title></circle>
<circle cx="189.36470588235295" cy="88.63999999999999" r="3.5" fill="#2ca02c"><title>Level arc: 8.4 2026-05-08-577ed6f</title></circle>
<circle cx="199.81176470588235" cy="88.63999999999999" r="3.5" fill="#2ca02c"><title>Level arc: 8.4 2026-05-08-acc8b71</title></circle>
<circle cx="210.25882352941176" cy="88.63999999999999" r="3.5" fill="#2ca02c"><title>Level arc: 8.4 2026-05-08-d94f1e0</title></circle>
<circle cx="220.7058823529412" cy="88.63999999999999" r="3.5" fill="#2ca02c"><title>Level arc: 8.4 2026-05-08-fdcefbe</title></circle>
<circle cx="231.1529411764706" cy="86.1" r="3.5" fill="#2ca02c"><title>Level arc: 8.5 2026-05-08-72e823c</title></circle>
<circle cx="241.60000000000002" cy="86.1" r="3.5" fill="#2ca02c"><title>Level arc: 8.5 2026-05-08-cfa8497</title></circle>
<circle cx="252.0470588235294" cy="86.1" r="3.5" fill="#2ca02c"><title>Level arc: 8.5 2026-05-09-5da7d96</title></circle>
<circle cx="262.49411764705883" cy="91.17999999999998" r="3.5" fill="#2ca02c"><title>Level arc: 8.3 2026-05-09-4874ced4</title></circle>
<circle cx="272.94117647058823" cy="88.63999999999999" r="3.5" fill="#2ca02c"><title>Level arc: 8.4 2026-05-09-29a80ab4</title></circle>
<circle cx="283.38823529411764" cy="78.47999999999996" r="3.5" fill="#2ca02c"><title>Level arc: 8.8 2026-05-09-66f38313</title></circle>
<circle cx="293.8352941176471" cy="78.47999999999996" r="3.5" fill="#2ca02c"><title>Level arc: 8.8 2026-05-09-fcd71b79</title></circle>
<circle cx="304.28235294117644" cy="78.47999999999996" r="3.5" fill="#2ca02c"><title>Level arc: 8.8 2026-05-09-6c0e2b61</title></circle>
<circle cx="314.7294117647059" cy="78.47999999999996" r="3.5" fill="#2ca02c"><title>Level arc: 8.8 2026-05-09-878b7eb2</title></circle>
<circle cx="325.1764705882353" cy="78.47999999999996" r="3.5" fill="#2ca02c"><title>Level arc: 8.8 2026-05-09-c3f4e668</title></circle>
<circle cx="335.6235294117647" cy="78.47999999999996" r="3.5" fill="#2ca02c"><title>Level arc: 8.8 2026-05-09-a05d3601</title></circle>
<circle cx="346.0705882352941" cy="78.47999999999996" r="3.5" fill="#2ca02c"><title>Level arc: 8.8 2026-05-09-d3306518</title></circle>
<circle cx="356.5176470588235" cy="78.47999999999996" r="3.5" fill="#2ca02c"><title>Level arc: 8.8 2026-05-09-6584ce5b</title></circle>
<circle cx="366.964705882353" cy="78.47999999999996" r="3.5" fill="#2ca02c"><title>Level arc: 8.8 2026-05-09-71dbaca5</title></circle>
<circle cx="377.4117647058824" cy="78.47999999999996" r="3.5" fill="#2ca02c"><title>Level arc: 8.8 2026-05-09-cd6fb677</title></circle>
<circle cx="387.8588235294117" cy="78.47999999999996" r="3.5" fill="#2ca02c"><title>Level arc: 8.8 2026-05-09-e8d1c7ef</title></circle>
<circle cx="398.3058823529412" cy="78.47999999999996" r="3.5" fill="#2ca02c"><title>Level arc: 8.8 2026-05-09-fa13c102</title></circle>
<circle cx="408.7529411764706" cy="78.47999999999996" r="3.5" fill="#2ca02c"><title>Level arc: 8.8 2026-05-09-5eb9b0b1</title></circle>
<circle cx="419.20000000000005" cy="78.47999999999996" r="3.5" fill="#2ca02c"><title>Level arc: 8.8 2026-05-10-41f7caa8</title></circle>
<circle cx="429.6470588235294" cy="78.47999999999996" r="3.5" fill="#2ca02c"><title>Level arc: 8.8 2026-05-10-d5dfeffe</title></circle>
<circle cx="440.0941176470588" cy="78.47999999999996" r="3.5" fill="#2ca02c"><title>Level arc: 8.8 2026-05-10-8c3e3571</title></circle>
<circle cx="450.54117647058825" cy="78.47999999999996" r="3.5" fill="#2ca02c"><title>Level arc: 8.8 2026-05-10-9ddc6104</title></circle>
<circle cx="460.98823529411766" cy="78.47999999999996" r="3.5" fill="#2ca02c"><title>Level arc: 8.8 2026-05-10-705e445c</title></circle>
<circle cx="471.43529411764706" cy="78.47999999999996" r="3.5" fill="#2ca02c"><title>Level arc: 8.8 2026-05-10-5e8df85b</title></circle>
<circle cx="481.88235294117646" cy="78.47999999999996" r="3.5" fill="#2ca02c"><title>Level arc: 8.8 2026-05-10-eedc85ba</title></circle>
<circle cx="492.32941176470587" cy="78.47999999999996" r="3.5" fill="#2ca02c"><title>Level arc: 8.8 2026-05-11-46e1b45c</title></circle>
<circle cx="502.7764705882353" cy="78.47999999999996" r="3.5" fill="#2ca02c"><title>Level arc: 8.8 2026-05-11-44ac29aa</title></circle>
<circle cx="513.2235294117647" cy="78.47999999999996" r="3.5" fill="#2ca02c"><title>Level arc: 8.8 2026-05-11-23c856ad</title></circle>
<circle cx="523.6705882352942" cy="78.47999999999996" r="3.5" fill="#2ca02c"><title>Level arc: 8.8 2026-05-11-b83393cd</title></circle>
<circle cx="534.1176470588235" cy="81.02000000000004" r="3.5" fill="#2ca02c"><title>Level arc: 8.7 2026-05-14-ce595bfb</title></circle>
<circle cx="544.5647058823529" cy="81.02000000000004" r="3.5" fill="#2ca02c"><title>Level arc: 8.7 2026-05-14-df15e918</title></circle>
<circle cx="555.0117647058823" cy="81.02000000000004" r="3.5" fill="#2ca02c"><title>Level arc: 8.7 2026-05-14-35b1b292</title></circle>
<circle cx="565.4588235294118" cy="81.02000000000004" r="3.5" fill="#2ca02c"><title>Level arc: 8.7 2026-05-14-1c788342</title></circle>
<circle cx="575.9058823529411" cy="81.02000000000004" r="3.5" fill="#2ca02c"><title>Level arc: 8.7 2026-05-15-af3f2b85</title></circle>
<circle cx="586.3529411764706" cy="81.02000000000004" r="3.5" fill="#2ca02c"><title>Level arc: 8.7 2026-05-15-f32c4a0d</title></circle>
<circle cx="596.8" cy="81.02000000000004" r="3.5" fill="#2ca02c"><title>Level arc: 8.7 2026-05-15-02ae3190</title></circle>
<circle cx="607.2470588235294" cy="81.02000000000004" r="3.5" fill="#2ca02c"><title>Level arc: 8.7 2026-05-15-60326a33</title></circle>
<circle cx="617.6941176470589" cy="81.02000000000004" r="3.5" fill="#2ca02c"><title>Level arc: 8.7 2026-05-15-93dbdad8</title></circle>
<circle cx="628.1411764705882" cy="81.02000000000004" r="3.5" fill="#2ca02c"><title>Level arc: 8.7 2026-05-15-db84f65c</title></circle>
<circle cx="638.5882352941177" cy="78.47999999999996" r="3.5" fill="#2ca02c"><title>Level arc: 8.8 2026-05-15-d43b188a</title></circle>
<circle cx="649.035294117647" cy="78.47999999999996" r="3.5" fill="#2ca02c"><title>Level arc: 8.8 2026-05-15-c8c7246f</title></circle>
<circle cx="659.4823529411764" cy="78.47999999999996" r="3.5" fill="#2ca02c"><title>Level arc: 8.8 2026-05-15-eb6d951f</title></circle>
<circle cx="669.929411764706" cy="78.47999999999996" r="3.5" fill="#2ca02c"><title>Level arc: 8.8 2026-05-16-82fd62cb</title></circle>
<circle cx="680.3764705882353" cy="78.47999999999996" r="3.5" fill="#2ca02c"><title>Level arc: 8.8 2026-05-16-285b1a13</title></circle>
<circle cx="690.8235294117648" cy="78.47999999999996" r="3.5" fill="#2ca02c"><title>Level arc: 8.8 2026-05-16-708f7909</title></circle>
<circle cx="701.2705882352941" cy="78.47999999999996" r="3.5" fill="#2ca02c"><title>Level arc: 8.8 2026-05-16-08c327dd</title></circle>
<circle cx="711.7176470588234" cy="78.47999999999996" r="3.5" fill="#2ca02c"><title>Level arc: 8.8 2026-05-16-498e13b9</title></circle>
<circle cx="722.164705882353" cy="78.47999999999996" r="3.5" fill="#2ca02c"><title>Level arc: 8.8 2026-05-16-8a54cf6f</title></circle>
<circle cx="732.6117647058824" cy="78.47999999999996" r="3.5" fill="#2ca02c"><title>Level arc: 8.8 2026-05-17-612f086f</title></circle>
<circle cx="743.0588235294117" cy="78.47999999999996" r="3.5" fill="#2ca02c"><title>Level arc: 8.8 2026-05-17-ab80e4c7</title></circle>
<circle cx="753.5058823529412" cy="78.47999999999996" r="3.5" fill="#2ca02c"><title>Level arc: 8.8 2026-05-17-f9e7374c</title></circle>
<rect x="274" y="332" width="12" height="12" fill="#2ca02c"/>
<text x="292" y="342" font-family="Arial, sans-serif" font-size="12">Level arc</text>
<polyline points="64,101.34 74.44705882352942,154.68 84.89411764705882,147.06 95.34117647058824,139.44 105.78823529411764,129.28000000000003 116.23529411764706,131.82 126.68235294117648,48 137.12941176470588,48 147.57647058823528,48 158.02352941176468,48" fill="none" stroke="#d62728" stroke-width="2.5"/>
<circle cx="64" cy="101.34" r="3.5" fill="#d62728"><title>Stage signature: 7.9 2026-05-07-b22a3a2</title></circle>
<circle cx="74.44705882352942" cy="154.68" r="3.5" fill="#d62728"><title>Stage signature: 5.8 2026-05-07-53d37a8</title></circle>
<circle cx="84.89411764705882" cy="147.06" r="3.5" fill="#d62728"><title>Stage signature: 6.1 2026-05-07-fb2f674</title></circle>
<circle cx="95.34117647058824" cy="139.44" r="3.5" fill="#d62728"><title>Stage signature: 6.4 2026-05-07-2aeaafa</title></circle>
<circle cx="105.78823529411764" cy="129.28000000000003" r="3.5" fill="#d62728"><title>Stage signature: 6.8 2026-05-08-8f0dde1</title></circle>
<circle cx="116.23529411764706" cy="131.82" r="3.5" fill="#d62728"><title>Stage signature: 6.7 2026-05-09-5da7d96</title></circle>
<circle cx="126.68235294117648" cy="48" r="3.5" fill="#d62728"><title>Stage signature: 10 2026-05-09-66f38313</title></circle>
<circle cx="137.12941176470588" cy="48" r="3.5" fill="#d62728"><title>Stage signature: 10 2026-05-09-71dbaca5</title></circle>
<circle cx="147.57647058823528" cy="48" r="3.5" fill="#d62728"><title>Stage signature: 10 2026-05-11-46e1b45c</title></circle>
<circle cx="158.02352941176468" cy="48" r="3.5" fill="#d62728"><title>Stage signature: 10 2026-05-15-60326a33</title></circle>
<rect x="484" y="332" width="12" height="12" fill="#d62728"/>
<text x="502" y="342" font-family="Arial, sans-serif" font-size="12">Stage signature</text>
<polyline points="64,217.34179999999998 74.44705882352942,302 84.89411764705882,302 95.34117647058824,302 105.78823529411764,302 116.23529411764706,217.34179999999998 126.68235294117648,302 137.12941176470588,302" fill="none" stroke="#9467bd" stroke-width="2.5"/>
<circle cx="64" cy="217.34179999999998" r="3.5" fill="#9467bd"><title>Stage 4 exact replay: 3.333 2026-05-06-6d7e05b</title></circle>
<circle cx="74.44705882352942" cy="302" r="3.5" fill="#9467bd"><title>Stage 4 exact replay: 0 2026-05-06-5e835eb</title></circle>
<circle cx="84.89411764705882" cy="302" r="3.5" fill="#9467bd"><title>Stage 4 exact replay: 0 2026-05-07-b3bbb9c</title></circle>
<circle cx="95.34117647058824" cy="302" r="3.5" fill="#9467bd"><title>Stage 4 exact replay: 0 2026-05-07-fb2f674</title></circle>
<circle cx="105.78823529411764" cy="302" r="3.5" fill="#9467bd"><title>Stage 4 exact replay: 0 2026-05-07-2aeaafa</title></circle>
<circle cx="116.23529411764706" cy="217.34179999999998" r="3.5" fill="#9467bd"><title>Stage 4 exact replay: 3.333 2026-05-07-bfcc311</title></circle>
<circle cx="126.68235294117648" cy="302" r="3.5" fill="#9467bd"><title>Stage 4 exact replay: 0 2026-05-07-13704be</title></circle>
<circle cx="137.12941176470588" cy="302" r="3.5" fill="#9467bd"><title>Stage 4 exact replay: 0 2026-05-07-4f2fafe</title></circle>
<rect x="694" y="332" width="12" height="12" fill="#9467bd"/>
<text x="712" y="342" font-family="Arial, sans-serif" font-size="12">Stage 4 exact replay</text>
<text x="64" y="322" text-anchor="middle" font-family="Arial, sans-serif" font-size="11">2026-04-22-22221ed</text>
<text x="220.7058823529412" y="322" text-anchor="middle" font-family="Arial, sans-serif" font-size="11">2026-05-02-d6ae5c9</text>
<text x="377.4117647058824" y="322" text-anchor="middle" font-family="Arial, sans-serif" font-size="11">2026-05-07-bfcc311</text>
<text x="534.1176470588235" y="322" text-anchor="middle" font-family="Arial, sans-serif" font-size="11">2026-05-09-d3306518</text>
<text x="690.8235294117648" y="322" text-anchor="middle" font-family="Arial, sans-serif" font-size="11">2026-05-11-46e1b45c</text>
<text x="847.5294117647059" y="322" text-anchor="middle" font-family="Arial, sans-serif" font-size="11">2026-05-15-c8c7246f</text>
<text x="952" y="322" text-anchor="middle" font-family="Arial, sans-serif" font-size="11">2026-05-17-f9e7374c</text>
</svg>
