<svg xmlns="http://www.w3.org/2000/svg" width="560" height="720" viewBox="0 0 560 720">
  <rect width="100%" height="100%" fill="#03070b"/>
  <g opacity="0.28">
    <line x1="0" y1="0" x2="0" y2="720" stroke="#214a5a" stroke-width="1"/>
<line x1="56" y1="0" x2="56" y2="720" stroke="#214a5a" stroke-width="1"/>
<line x1="112" y1="0" x2="112" y2="720" stroke="#214a5a" stroke-width="1"/>
<line x1="168" y1="0" x2="168" y2="720" stroke="#214a5a" stroke-width="1"/>
<line x1="224" y1="0" x2="224" y2="720" stroke="#214a5a" stroke-width="1"/>
<line x1="280" y1="0" x2="280" y2="720" stroke="#214a5a" stroke-width="1"/>
<line x1="336" y1="0" x2="336" y2="720" stroke="#214a5a" stroke-width="1"/>
<line x1="392" y1="0" x2="392" y2="720" stroke="#214a5a" stroke-width="1"/>
<line x1="448" y1="0" x2="448" y2="720" stroke="#214a5a" stroke-width="1"/>
<line x1="504" y1="0" x2="504" y2="720" stroke="#214a5a" stroke-width="1"/>
<line x1="560" y1="0" x2="560" y2="720" stroke="#214a5a" stroke-width="1"/>
    <line x1="0" y1="0" x2="560" y2="0" stroke="#214a5a" stroke-width="1"/>
<line x1="0" y1="60" x2="560" y2="60" stroke="#214a5a" stroke-width="1"/>
<line x1="0" y1="120" x2="560" y2="120" stroke="#214a5a" stroke-width="1"/>
<line x1="0" y1="180" x2="560" y2="180" stroke="#214a5a" stroke-width="1"/>
<line x1="0" y1="240" x2="560" y2="240" stroke="#214a5a" stroke-width="1"/>
<line x1="0" y1="300" x2="560" y2="300" stroke="#214a5a" stroke-width="1"/>
<line x1="0" y1="360" x2="560" y2="360" stroke="#214a5a" stroke-width="1"/>
<line x1="0" y1="420" x2="560" y2="420" stroke="#214a5a" stroke-width="1"/>
<line x1="0" y1="480" x2="560" y2="480" stroke="#214a5a" stroke-width="1"/>
<line x1="0" y1="540" x2="560" y2="540" stroke="#214a5a" stroke-width="1"/>
<line x1="0" y1="600" x2="560" y2="600" stroke="#214a5a" stroke-width="1"/>
<line x1="0" y1="660" x2="560" y2="660" stroke="#214a5a" stroke-width="1"/>
<line x1="0" y1="720" x2="560" y2="720" stroke="#214a5a" stroke-width="1"/>
  </g>
  <text x="18" y="22" fill="#ffffff" font-size="18" font-weight="700">Galaga Challenge 2 Target Object Tracks</text>
  <g><rect x="18" y="14" width="16" height="16" fill="#74f7ff" opacity="0.8"/><text x="42" y="28" fill="#dff7ff" font-size="15">Group 1: 10 tracks, 0-2.08s</text>
<rect x="18" y="38" width="16" height="16" fill="#ff5cf3" opacity="0.8"/><text x="42" y="52" fill="#dff7ff" font-size="15">Group 2: 7 tracks, 4.42-9.83s</text>
<rect x="18" y="62" width="16" height="16" fill="#ffe76a" opacity="0.8"/><text x="42" y="76" fill="#dff7ff" font-size="15">Group 3: 7 tracks, 6.08-9.83s</text>
<rect x="18" y="86" width="16" height="16" fill="#65ff9a" opacity="0.8"/><text x="42" y="100" fill="#dff7ff" font-size="15">Group 4: 16 tracks, 9.08-9.83s</text>
<rect x="18" y="110" width="16" height="16" fill="#ff766a" opacity="0.8"/><text x="42" y="124" fill="#dff7ff" font-size="15">Group 5: 3 tracks, 9.5-9.83s</text></g>
  <g transform="translate(0,0)"><polyline points="246.2,382 264.4,376.8 281.5,410.9 306.4,408.4 308.2,391.9 319.3,447.8 319.3,447.8 309.2,450 324.7,460.9" fill="none" stroke="#74f7ff" stroke-width="3" stroke-linecap="round" stroke-linejoin="round" opacity="0.74"/><circle cx="246.2" cy="382" r="4" fill="#74f7ff"/><text x="252.2" y="386" fill="#74f7ff" font-size="14">9</text>
<polyline points="266,350.4 275.1,385.3 269.8,411.1 289.2,430.5 281.8,428.4 281.7,428.5 288.5,428.5 288.2,428.5 288.5,428.5 282,428.5" fill="none" stroke="#74f7ff" stroke-width="3" stroke-linecap="round" stroke-linejoin="round" opacity="0.74"/><circle cx="266" cy="350.4" r="4" fill="#74f7ff"/><text x="272" y="354.4" fill="#74f7ff" font-size="14">1</text>
<polyline points="275.7,381.7 275.6,381.8 287.2,418.9 306.5,408.6 316.3,418.8 321.2,431.4 321.3,432.2 304.2,428.5 304.3,428.8 304.3,428.8" fill="none" stroke="#74f7ff" stroke-width="3" stroke-linecap="round" stroke-linejoin="round" opacity="0.74"/><circle cx="275.7" cy="381.7" r="4" fill="#74f7ff"/><text x="281.7" y="385.7" fill="#74f7ff" font-size="14">4</text>
<polyline points="295.2,372.8 295.2,372.8 298.3,378.8 303.7,379.6 303.1,380.4 290.2,430 290.2,430 297.4,417.2 277.1,393.2 288,359.4" fill="none" stroke="#74f7ff" stroke-width="3" stroke-linecap="round" stroke-linejoin="round" opacity="0.74"/><circle cx="295.2" cy="372.8" r="4" fill="#74f7ff"/><text x="301.2" y="376.8" fill="#74f7ff" font-size="14">6</text>
<polyline points="287.6,389.8 287.6,389.8 307.8,391.8 268.8,446.3 268.8,446.7 282.3,447.4" fill="none" stroke="#74f7ff" stroke-width="3" stroke-linecap="round" stroke-linejoin="round" opacity="0.74"/><circle cx="287.6" cy="389.8" r="4" fill="#74f7ff"/><text x="293.6" y="393.8" fill="#74f7ff" font-size="14">10</text>
<polyline points="352.4,379.9 352.4,379.9 352.4,379.9 352.6,379.5 352.6,379.5 352.5,379.7 352.5,379.8 352.5,379.6 369.4,318.2 369.4,318.6" fill="none" stroke="#ff5cf3" stroke-width="3" stroke-linecap="round" stroke-linejoin="round" opacity="0.74"/><circle cx="352.4" cy="379.9" r="4" fill="#ff5cf3"/><text x="358.4" y="383.9" fill="#ff5cf3" font-size="14">29</text>
<polyline points="261.4,388 261.3,387.9 253.4,394.1 237.8,416.2 238.2,416.2 251.4,454.1 251.2,454.2 266.7,441.3" fill="none" stroke="#74f7ff" stroke-width="3" stroke-linecap="round" stroke-linejoin="round" opacity="0.74"/><circle cx="261.4" cy="388" r="4" fill="#74f7ff"/><text x="267.4" y="392" fill="#74f7ff" font-size="14">7</text>
<polyline points="364.3,381.2 364.6,381.5 371.3,382.5 371.3,382 371.3,382 371.4,382.2 364.5,381.3 364.5,381.2 364.4,381.2 364.5,381.3" fill="none" stroke="#ff5cf3" stroke-width="3" stroke-linecap="round" stroke-linejoin="round" opacity="0.74"/><circle cx="364.3" cy="381.2" r="4" fill="#ff5cf3"/><text x="370.3" y="385.2" fill="#ff5cf3" font-size="14">26</text>
<polyline points="199.6,381.5 199.2,381.6 199.3,382.1 199.6,381.8 199.8,381.9 199.5,381.9 199.6,381.7 199.6,381.7 199.5,381.8 199.6,381.9" fill="none" stroke="#ff5cf3" stroke-width="3" stroke-linecap="round" stroke-linejoin="round" opacity="0.74"/><circle cx="199.6" cy="381.5" r="4" fill="#ff5cf3"/><text x="205.6" y="385.5" fill="#ff5cf3" font-size="14">24</text>
<polyline points="272.8,593.4 272.9,578.1 288.2,608.1 287.9,608.2 288,561.8" fill="none" stroke="#74f7ff" stroke-width="3" stroke-linecap="round" stroke-linejoin="round" opacity="0.74"/><circle cx="272.8" cy="593.4" r="4" fill="#74f7ff"/><text x="278.8" y="597.4" fill="#74f7ff" font-size="14">5</text>
<polyline points="188.3,381.7 207.8,319.1 207.5,318.2 207.5,318.2 207.5,318.2 207.6,318.2 207.6,318.2" fill="none" stroke="#65ff9a" stroke-width="3" stroke-linecap="round" stroke-linejoin="round" opacity="0.74"/><circle cx="188.3" cy="381.7" r="4" fill="#65ff9a"/><text x="194.3" y="385.7" fill="#65ff9a" font-size="14">45</text>
<polyline points="138.5,382 138.7,382.1 138.6,382 138.7,382 138.8,381.9 138.8,381.9 138.6,382 138.8,381.9 138.8,381.9 138.6,381.7" fill="none" stroke="#ff5cf3" stroke-width="3" stroke-linecap="round" stroke-linejoin="round" opacity="0.74"/><circle cx="138.5" cy="382" r="4" fill="#ff5cf3"/><text x="144.5" y="386" fill="#ff5cf3" font-size="14">23</text>
<polyline points="257.5,381 257.4,380.8 257.5,380.9 257.5,381 257.4,380.9 257.3,380.9 257.4,380.8 257.3,381 257.3,380.9 257.4,380.9" fill="none" stroke="#ff5cf3" stroke-width="3" stroke-linecap="round" stroke-linejoin="round" opacity="0.74"/><circle cx="257.5" cy="381" r="4" fill="#ff5cf3"/><text x="263.5" y="385" fill="#ff5cf3" font-size="14">25</text>
<polyline points="332.4,381.8 332.4,382 332.3,382 332.4,381.7 332.4,381.7 332.4,381.8 332.2,382 332.2,382 332.2,382 332.2,382" fill="none" stroke="#ff5cf3" stroke-width="3" stroke-linecap="round" stroke-linejoin="round" opacity="0.74"/><circle cx="332.4" cy="381.8" r="4" fill="#ff5cf3"/><text x="338.4" y="385.8" fill="#ff5cf3" font-size="14">28</text>
<polyline points="310.4,382 310.4,381.9 310.4,381.8 310.4,381.7 310.4,381.7 310.4,381.7 310.5,381.9 310.4,381.8 310.4,381.8 310.4,381.8" fill="none" stroke="#ff5cf3" stroke-width="3" stroke-linecap="round" stroke-linejoin="round" opacity="0.74"/><circle cx="310.4" cy="382" r="4" fill="#ff5cf3"/><text x="316.4" y="386" fill="#ff5cf3" font-size="14">27</text>
<polyline points="443.2,381.8 453,381.9 453,382 453.1,381.8 453.1,382 453.1,382 453.1,382 453.1,382 453.1,382 453.1,382" fill="none" stroke="#ffe76a" stroke-width="3" stroke-linecap="round" stroke-linejoin="round" opacity="0.74"/><circle cx="443.2" cy="381.8" r="4" fill="#ffe76a"/><text x="449.2" y="385.8" fill="#ffe76a" font-size="14">30</text>
<polyline points="252.1,293.9 254.5,298.9 257,311.4 262.4,338.3 266.6,354.7" fill="none" stroke="#74f7ff" stroke-width="3" stroke-linecap="round" stroke-linejoin="round" opacity="0.74"/><circle cx="252.1" cy="293.9" r="4" fill="#74f7ff"/><text x="258.1" y="297.9" fill="#74f7ff" font-size="14">3</text>
<polyline points="250.3,387 252.7,382.8 248.8,359.4 235.7,376.6" fill="none" stroke="#74f7ff" stroke-width="3" stroke-linecap="round" stroke-linejoin="round" opacity="0.74"/><circle cx="250.3" cy="387" r="4" fill="#74f7ff"/><text x="256.3" y="391" fill="#74f7ff" font-size="14">8</text>
<polyline points="433.3,381.5 433.3,381.5 433.3,381.4 433.4,381.5 433.4,381.5 433.4,381.5 433.4,381.5 433.4,381.5 433.4,381.5 433.5,381.2" fill="none" stroke="#ffe76a" stroke-width="3" stroke-linecap="round" stroke-linejoin="round" opacity="0.74"/><circle cx="433.3" cy="381.5" r="4" fill="#ffe76a"/><text x="439.3" y="385.5" fill="#ffe76a" font-size="14">32</text>
<polyline points="288.1,546.1 288.1,499.1 288,499.8 288.1,499.6" fill="none" stroke="#74f7ff" stroke-width="3" stroke-linecap="round" stroke-linejoin="round" opacity="0.74"/><circle cx="288.1" cy="546.1" r="4" fill="#74f7ff"/><text x="294.1" y="550.1" fill="#74f7ff" font-size="14">14</text>
<polyline points="247.1,444.1 258.6,444.1 258.6,444.1 258.7,444.2 258.6,444.2 258.6,444.2" fill="none" stroke="#65ff9a" stroke-width="3" stroke-linecap="round" stroke-linejoin="round" opacity="0.74"/><circle cx="247.1" cy="444.1" r="4" fill="#65ff9a"/><text x="253.1" y="448.1" fill="#65ff9a" font-size="14">46</text>
<polyline points="381.9,443.8 371.2,443.9 371.1,443.9 370.9,443.9 370.9,443.8 370.9,443.8" fill="none" stroke="#65ff9a" stroke-width="3" stroke-linecap="round" stroke-linejoin="round" opacity="0.74"/><circle cx="381.9" cy="443.8" r="4" fill="#65ff9a"/><text x="387.9" y="447.8" fill="#65ff9a" font-size="14">47</text>
<polyline points="486,443.3 493.5,444.2 493.1,444 493.2,444.2 493.1,444.2 493.2,443.9" fill="none" stroke="#65ff9a" stroke-width="3" stroke-linecap="round" stroke-linejoin="round" opacity="0.74"/><circle cx="486" cy="443.3" r="4" fill="#65ff9a"/><text x="492" y="447.3" fill="#65ff9a" font-size="14">51</text>
<polyline points="333,316.2 333.2,317.8 332.9,318.5 332.8,317.5 332.5,317.9 332.6,317.8 332.6,317.4" fill="none" stroke="#ffe76a" stroke-width="3" stroke-linecap="round" stroke-linejoin="round" opacity="0.74"/><circle cx="333" cy="316.2" r="4" fill="#ffe76a"/><text x="339" y="320.2" fill="#ffe76a" font-size="14">37</text>
<polyline points="310.2,319.2 310.5,319.3 310.1,319.6 310.1,319.5 310,319.8 310.4,320 310.2,319.7" fill="none" stroke="#ffe76a" stroke-width="3" stroke-linecap="round" stroke-linejoin="round" opacity="0.74"/><circle cx="310.2" cy="319.2" r="4" fill="#ffe76a"/><text x="316.2" y="323.2" fill="#ffe76a" font-size="14">36</text>
<polyline points="248.4,319 248.6,319 248.4,318.7 248.4,319.1 248,319.1 247.8,319 247.9,319.1" fill="none" stroke="#ffe76a" stroke-width="3" stroke-linecap="round" stroke-linejoin="round" opacity="0.74"/><circle cx="248.4" cy="319" r="4" fill="#ffe76a"/><text x="254.4" y="323" fill="#ffe76a" font-size="14">33</text>
<polyline points="290.9,319.6 290.9,319.6 291,320 291,320 290.8,319.4 290.7,320 290.8,319.8" fill="none" stroke="#ffe76a" stroke-width="3" stroke-linecap="round" stroke-linejoin="round" opacity="0.74"/><circle cx="290.9" cy="319.6" r="4" fill="#ffe76a"/><text x="296.9" y="323.6" fill="#ffe76a" font-size="14">35</text>
<polyline points="207.5,318.3 207.5,318.4 207.8,318.3 207.9,318.2 207.4,318.4 207.4,318.2 207.4,318.3" fill="none" stroke="#ffe76a" stroke-width="3" stroke-linecap="round" stroke-linejoin="round" opacity="0.74"/><circle cx="207.5" cy="318.3" r="4" fill="#ffe76a"/><text x="213.5" y="322.3" fill="#ffe76a" font-size="14">34</text>
<polyline points="332.8,317.7 332.2,317.4 332.2,317.4 332.5,317.8 332.2,317.2 332.2,317.2" fill="none" stroke="#65ff9a" stroke-width="3" stroke-linecap="round" stroke-linejoin="round" opacity="0.74"/><circle cx="332.8" cy="317.7" r="4" fill="#65ff9a"/><text x="338.8" y="321.7" fill="#65ff9a" font-size="14">59</text>
<polyline points="86.7,444.2 86.6,443.7 86.7,444 86.7,443.9 86.6,444 86.6,444" fill="none" stroke="#65ff9a" stroke-width="3" stroke-linecap="round" stroke-linejoin="round" opacity="0.74"/><circle cx="86.7" cy="444.2" r="4" fill="#65ff9a"/><text x="92.7" y="448.2" fill="#65ff9a" font-size="14">52</text>
<polyline points="139,444.2 139.3,444.2 139.3,444.2 139.3,444.1 139.2,444.5 139.3,444.2" fill="none" stroke="#65ff9a" stroke-width="3" stroke-linecap="round" stroke-linejoin="round" opacity="0.74"/><circle cx="139" cy="444.2" r="4" fill="#65ff9a"/><text x="145" y="448.2" fill="#65ff9a" font-size="14">50</text>
<polyline points="369.7,318.3 369.4,318.7 369.4,318.7 369.5,318.3 369.5,318.5 369.5,318.5" fill="none" stroke="#65ff9a" stroke-width="3" stroke-linecap="round" stroke-linejoin="round" opacity="0.74"/><circle cx="369.7" cy="318.3" r="4" fill="#65ff9a"/><text x="375.7" y="322.3" fill="#65ff9a" font-size="14">60</text></g>
  <text x="18" y="698" fill="#9fc5d6" font-size="15">CPU object-track proxy: 43 tracks, 5 grouped target waves. Not sprite identity recognition.</text>
</svg>
