<svg xmlns="http://www.w3.org/2000/svg" width="640" height="520" viewBox="0 0 640 520">
  <rect width="100%" height="100%" fill="#091018"/>
  <text x="24" y="18" fill="#eef3f6" font-family="monospace" font-size="13">stage-1-baseline path/slot extraction</text>
  <rect x="24" y="24" width="560" height="448" fill="none" stroke="#31404d"/>
  <path d="M-17.8,-136.0 L-17.8,-136.0 L-17.8,-136.0 L-17.8,-136.0 L-17.8,-136.0 L-17.8,-136.0 L-17.8,-136.0 L-17.8,-136.0 L-17.8,-136.0 L-17.8,-136.0 L-17.8,-136.0 L-17.8,-136.0 L-17.8,-136.0 L-17.8,-136.0 L-17.8,-136.0 L-17.8,-136.0 L-17.8,-136.0 L-17.8,-136.0 L-17.8,-136.0 L-17.8,-136.0 L16.6,-103.9 L270.3,24.6 L293.5,27.6 L134.1,15.3 L94.1,45.1 L216.0,94.5 L279.1,115.0 L209.6,97.4 L153.6,74.0 L183.5,71.3 L216.0,81.8 L211.2,86.5 L204.6,86.1 L203.0,86.1 L203.0,86.1 L203.2,86.1 L203.4,86.1 L203.6,86.1 L203.8,86.1 L204.1,86.2 L204.3,86.2 L204.5,86.2 L204.8,86.2 L205.0,86.2 L205.2,86.2 L205.4,86.3 L205.7,86.3 L205.9,86.3 L206.1,86.3 L206.4,86.3 L206.7,86.4 L207.0,86.4 L207.2,86.4 L207.4,86.4 L207.6,86.4 L207.8,86.4 L208.1,86.4 L208.3,86.5 L208.5,86.5 L208.6,86.5 L208.9,86.5 L209.1,86.5 L209.3,86.5 L209.5,86.5 L209.7,86.5 L209.9,86.6 L210.2,86.6 L210.4,86.6 L210.6,86.6 L210.8,86.6 L211.0,86.6 L211.2,86.6 L211.4,86.6 L211.5,86.6 L211.7,86.6 L211.9,86.7 L212.1,86.7 L212.3,86.7 L212.5,86.7 L212.7,86.7 L212.8,86.7 L213.0,86.7 L213.2,86.7 L213.5,86.7 L213.7,86.7 L213.8,86.7 L214.0,86.7 L214.2,86.7 L214.4,86.7 L214.5,86.8 L214.7,86.8 L214.9,86.8 L215.1,86.8 L215.2,86.8 L215.4,86.8 L215.5,86.8 L215.7,86.8" fill="none" stroke="#9be564" stroke-width="1.3" opacity="0.82"><title>regular:regular:969422282 but</title></path>
  <path d="M326.5,-136.0 L326.5,-136.0 L326.5,-136.0 L326.5,-136.0 L326.5,-136.0 L326.5,-136.0 L326.5,-136.0 L326.5,-136.0 L326.5,-136.0 L326.5,-136.0 L326.5,-136.0 L326.5,-136.0 L326.5,-136.0 L326.5,-136.0 L326.5,-136.0 L304.5,-123.8 L185.1,31.5 L326.3,106.6 L369.2,95.2 L227.2,54.3 L141.6,46.3 L219.5,77.0 L295.7,106.0 L260.0,105.3 L207.3,87.9 L215.4,79.3 L233.1,82.2 L234.6,85.6 L235.2,86.5 L235.5,86.7 L235.8,86.8 L236.0,86.8 L236.2,86.8 L236.5,86.8 L236.9,86.8 L237.1,86.8 L237.4,86.8 L237.6,86.8 L237.8,86.8 L238.1,86.8 L238.3,86.8 L238.5,86.7 L238.8,86.7 L239.0,86.7 L239.2,86.7 L239.4,86.7 L239.7,86.7 L239.9,86.7 L240.1,86.7 L240.4,86.7 L240.7,86.7 L241.0,86.7 L241.2,86.7 L241.4,86.7 L241.6,86.6 L241.8,86.6 L242.1,86.6 L242.3,86.6 L242.5,86.6 L242.6,86.6 L242.9,86.6 L243.1,86.6 L243.3,86.6 L243.5,86.6 L243.7,86.5 L243.9,86.5 L244.2,86.5 L244.4,86.5 L244.6,86.5 L244.8,86.5 L245.0,86.5 L245.2,86.5 L245.4,86.4 L245.5,86.4 L245.7,86.4 L245.9,86.4 L246.1,86.4 L246.3,86.4 L246.5,86.4 L246.7,86.3 L246.8,86.3 L247.0,86.3 L247.2,86.3 L247.5,86.3 L247.7,86.3 L247.8,86.2 L248.0,86.2 L248.2,86.2 L248.4,86.2 L248.5,86.2 L248.7,86.2 L248.9,86.1 L249.1,86.1 L249.2,86.1 L249.4,86.1 L249.5,86.1 L249.7,86.1" fill="none" stroke="#9be564" stroke-width="1.3" opacity="0.82"><title>regular:regular:684708567 but</title></path>
  <path d="M-53.2,-136.0 L-53.2,-136.0 L-53.2,-136.0 L-53.2,-136.0 L-53.2,-136.0 L-53.2,-136.0 L-53.2,-136.0 L-53.2,-136.0 L-53.2,-136.0 L-53.2,-136.0 L-28.1,-129.8 L81.2,-69.0 L38.2,-0.1 L167.4,80.1 L335.9,119.3 L322.5,101.2 L213.4,66.4 L206.1,59.0 L280.7,78.8 L302.4,95.8 L270.9,95.0 L261.0,88.8 L265.9,86.6 L267.6,85.9 L268.1,85.8 L268.5,85.7 L268.8,85.7 L269.0,85.7 L269.3,85.7 L269.5,85.6 L269.8,85.6 L270.0,85.6 L270.2,85.6 L275.7,92.5 L306.1,147.2 L343.3,220.5 L384.7,312.7 L417.9,423.5 L449.8,553.2 L490.3,701.5 L272.3,-0.8 L272.5,47.4 L272.7,68.6 L272.9,79.6 L273.2,84.1 L273.4,85.0 L273.7,85.1 L273.9,85.1 L274.1,85.1 L274.4,85.1 L274.7,85.0 L275.0,85.0 L275.2,85.0 L275.4,84.9 L275.6,84.9 L275.8,84.9 L276.1,84.9 L276.3,84.8 L276.5,84.8 L276.6,84.8 L276.9,84.7 L277.1,84.7 L277.3,84.7 L277.5,84.6 L277.7,84.6 L277.9,84.6 L278.2,84.5 L278.4,84.5 L278.6,84.5 L278.8,84.4 L279.0,84.4 L279.2,84.4 L279.4,84.4 L279.5,84.3 L279.7,84.3 L279.9,84.3 L280.1,84.2 L280.3,84.2 L280.5,84.2 L280.7,84.1 L280.8,84.1 L281.0,84.1 L281.2,84.0 L281.5,84.0 L281.7,83.9 L281.8,83.9 L282.0,83.9 L282.2,83.8 L282.4,83.8 L282.5,83.8 L282.7,83.7 L282.9,83.7 L283.1,83.7 L283.2,83.6 L283.4,83.6 L283.5,83.6 L283.7,83.5" fill="none" stroke="#9be564" stroke-width="1.3" opacity="0.82"><title>regular:regular:54585824 but</title></path>
  <path d="M12.8,-136.0 L12.8,-136.0 L12.8,-136.0 L12.8,-136.0 L12.8,-136.0 L12.8,-136.0 L42.3,-76.2 L269.4,61.0 L414.4,77.4 L313.5,42.4 L194.1,33.4 L251.8,67.3 L358.5,103.4 L344.9,106.4 L273.7,85.7 L267.8,72.2 L300.0,75.5 L305.1,80.7 L301.6,82.7 L301.1,83.1 L301.2,83.1 L301.4,83.1 L301.7,83.1 L301.9,83.1 L302.2,83.0 L302.5,83.0 L302.8,82.9 L303.0,82.9 L303.3,82.8 L303.5,82.8 L303.8,82.8 L304.0,82.7 L304.2,82.7 L304.5,82.6 L304.9,82.6 L305.1,82.5 L305.4,82.5 L305.6,82.5 L305.8,82.4 L306.1,82.4 L306.3,82.3 L306.5,82.3 L306.8,82.3 L307.0,82.2 L307.2,82.2 L307.4,82.1 L307.7,82.1 L307.9,82.1 L308.1,82.0 L308.4,82.0 L308.7,81.9 L309.0,81.9 L309.2,81.8 L309.4,81.8 L309.6,81.7 L309.8,81.7 L310.1,81.7 L310.3,81.6 L310.5,81.6 L310.6,81.5 L310.9,81.5 L311.1,81.5 L311.3,81.4 L311.5,81.4 L311.7,81.3 L311.9,81.3 L312.2,81.2 L312.4,81.2 L312.6,81.1 L312.8,81.1 L313.0,81.1 L313.2,81.0 L313.4,81.0 L313.5,80.9 L313.7,80.9 L313.9,80.9 L314.1,80.8 L314.3,80.8 L314.5,80.7 L314.7,80.7 L314.8,80.7 L315.0,80.6 L306.1,97.8 L287.7,154.0 L263.5,228.9 L233.8,322.6 L211.9,435.0 L192.7,566.2 L164.8,716.1 L316.6,2.3 L316.7,46.0 L316.8,65.2 L317.0,75.5 L317.2,79.1 L317.4,79.9 L317.5,80.0 L317.7,80.0" fill="none" stroke="#ff6b6b" stroke-width="2.2" opacity="0.82"><title>regular:regular:955225200 boss</title></path>
  <path d="M434.7,-136.0 L355.0,-89.3 L306.0,50.4 L452.6,104.8 L448.0,80.6 L294.6,42.4 L244.9,44.0 L340.0,78.1 L394.5,101.8 L344.0,95.5 L302.3,78.1 L318.6,72.6 L331.4,76.1 L332.7,79.0 L333.2,79.7 L333.5,79.8 L333.8,79.8 L334.1,79.7 L334.4,79.7 L334.8,79.6 L335.1,79.6 L335.4,79.5 L335.7,79.5 L335.9,79.4 L336.2,79.4 L336.5,79.3 L336.8,79.3 L337.0,79.2 L337.3,79.2 L337.5,79.1 L337.8,79.1 L338.0,79.1 L338.2,79.0 L338.5,79.0 L338.9,78.9 L339.1,78.9 L339.4,78.8 L339.6,78.8 L339.8,78.7 L340.1,78.7 L340.3,78.7 L340.5,78.6 L340.8,78.6 L341.0,78.5 L341.2,78.5 L341.4,78.4 L341.7,78.4 L341.9,78.4 L342.1,78.3 L342.4,78.3 L342.7,78.2 L343.0,78.2 L343.2,78.1 L343.4,78.1 L343.6,78.0 L343.8,78.0 L344.1,78.0 L344.3,77.9 L344.5,77.9 L344.6,77.8 L344.9,77.8 L345.1,77.8 L345.3,77.7 L345.5,77.7 L345.7,77.7 L345.9,77.6 L346.2,77.5 L346.4,77.5 L346.6,77.5 L346.8,77.4 L347.0,77.4 L347.2,77.4 L347.4,77.3 L347.5,77.3 L347.7,77.2 L347.9,77.2 L348.1,77.2 L348.3,77.1 L348.5,77.1 L348.7,77.1 L348.8,77.0 L349.0,77.0 L349.2,76.9 L349.5,76.9 L349.7,76.9 L349.8,76.8 L350.0,76.8 L350.2,76.7 L350.4,76.7 L350.5,76.7 L350.7,76.6 L350.9,76.6 L351.1,76.6 L351.2,76.5 L351.4,76.5 L351.5,76.5 L351.7,76.4" fill="none" stroke="#ff6b6b" stroke-width="2.2" opacity="0.82"><title>regular:regular:204165053 boss</title></path>
  <path d="M319.4,-136.0 L319.4,-136.0 L319.4,-136.0 L319.4,-136.0 L476.6,-49.2 L399.7,-31.1 L246.0,-3.7 L289.5,56.6 L429.9,103.1 L435.6,101.3 L337.8,71.2 L313.0,54.8 L368.3,64.4 L392.2,78.8 L375.5,81.2 L369.6,78.0 L368.2,76.6 L368.2,76.3 L368.4,76.2 L368.8,76.1 L369.1,76.1 L369.4,76.0 L369.7,76.0 L369.9,76.0 L370.2,75.9 L370.5,75.9 L370.8,75.8 L371.0,75.8 L371.3,75.8 L371.5,75.7 L371.8,75.7 L372.0,75.7 L372.2,75.6 L372.5,75.6 L372.9,75.6 L373.1,75.5 L373.4,75.5 L373.6,75.5 L373.8,75.4 L374.1,75.4 L374.3,75.4 L374.5,75.3 L374.8,75.3 L375.0,75.3 L375.2,75.2 L375.4,75.2 L375.7,75.2 L375.9,75.2 L376.1,75.1 L376.4,75.1 L376.7,75.0 L377.0,75.0 L377.2,75.0 L377.4,75.0 L377.6,74.9 L377.8,74.9 L378.1,74.9 L378.3,74.8 L378.5,74.8 L378.6,74.8 L378.9,74.8 L379.1,74.7 L379.3,74.7 L379.5,74.7 L379.7,74.7 L379.9,74.6 L380.2,74.6 L380.4,74.6 L380.6,74.5 L380.8,74.5 L381.0,74.5 L381.2,74.5 L381.4,74.4 L381.5,74.4 L381.7,74.4 L381.9,74.4 L382.1,74.4 L382.3,74.3 L382.5,74.3 L382.7,74.3 L382.8,74.3 L383.0,74.2 L383.2,74.2 L383.5,74.2 L383.7,74.2 L383.8,74.1 L384.0,74.1 L384.2,74.1 L384.4,74.1 L384.5,74.1 L384.7,74.0 L384.9,74.0 L385.1,74.0 L385.2,74.0 L385.4,74.0 L385.5,73.9 L385.7,73.9" fill="none" stroke="#ff6b6b" stroke-width="2.2" opacity="0.82"><title>regular:regular:430616322 boss</title></path>
  <path d="M640.4,-136.0 L640.4,-136.0 L640.4,-136.0 L640.4,-136.0 L640.4,-136.0 L640.4,-136.0 L640.4,-136.0 L640.4,-136.0 L640.4,-136.0 L655.1,-56.9 L479.6,-37.7 L302.0,-3.1 L350.4,60.3 L480.5,103.1 L466.7,95.9 L366.0,64.9 L351.1,51.5 L409.3,63.5 L428.2,77.6 L409.6,79.0 L404.7,75.5 L403.7,74.1 L403.8,73.8 L403.9,73.7 L404.2,73.7 L404.5,73.7 L404.8,73.6 L405.0,73.6 L405.3,73.6 L405.5,73.6 L405.8,73.6 L406.0,73.6 L406.2,73.6 L406.5,73.5 L406.9,73.5 L407.1,73.5 L407.4,73.5 L407.6,73.5 L407.8,73.5 L408.1,73.5 L408.3,73.5 L408.5,73.4 L408.8,73.4 L409.0,73.4 L409.2,73.4 L409.4,73.4 L409.7,73.4 L409.9,73.4 L410.1,73.4 L410.4,73.4 L410.7,73.3 L411.0,73.3 L411.2,73.3 L411.4,73.3 L411.6,73.3 L411.8,73.3 L412.1,73.3 L412.3,73.3 L412.5,73.3 L412.6,73.3 L412.9,73.3 L413.1,73.3 L413.3,73.3 L413.5,73.3 L413.7,73.2 L413.9,73.2 L414.2,73.2 L414.4,73.2 L414.6,73.2 L414.8,73.2 L415.0,73.2 L415.2,73.2 L415.4,73.2 L415.5,73.2 L415.7,73.2 L415.9,73.2 L416.1,73.2 L416.3,73.2 L416.5,73.2 L416.7,73.2 L416.8,73.2 L417.0,73.2 L417.2,73.2 L417.5,73.2 L417.7,73.2 L417.8,73.2 L418.0,73.2 L418.2,73.2 L418.4,73.2 L418.5,73.2 L418.7,73.2 L418.9,73.2 L419.1,73.2 L419.2,73.2 L419.4,73.2 L419.5,73.2 L419.7,73.2" fill="none" stroke="#ff6b6b" stroke-width="2.2" opacity="0.82"><title>regular:regular:808136305 boss</title></path>
  <path d="M357.3,-136.0 L357.3,-136.0 L357.3,-136.0 L357.3,-136.0 L357.3,-136.0 L357.3,-136.0 L357.3,-136.0 L357.3,-136.0 L357.3,-136.0 L357.3,-136.0 L357.3,-136.0 L357.3,-136.0 L357.3,-136.0 L481.8,-80.7 L442.2,-49.8 L299.9,-12.7 L350.3,53.6 L499.4,101.3 L508.6,97.4 L406.7,65.5 L379.5,49.6 L439.3,61.2 L466.6,77.2 L446.4,79.8 L439.3,76.1 L438.8,73.9 L438.8,73.4 L439.0,73.3 L439.3,73.3 L439.5,73.3 L439.8,73.4 L440.0,73.4 L440.2,73.4 L440.5,73.4 L440.9,73.4 L441.1,73.4 L441.4,73.4 L441.6,73.4 L441.8,73.4 L442.1,73.4 L427.2,84.9 L371.3,139.9 L324.0,213.6 L276.7,306.0 L220.7,417.2 L167.9,547.2 L122.6,695.9 L444.0,-3.7 L444.1,39.6 L444.3,58.7 L444.6,69.0 L444.9,72.7 L445.2,73.4 L445.4,73.6 L445.6,73.7 L445.8,73.7 L446.1,73.7 L446.3,73.7 L446.5,73.7 L446.6,73.7 L446.9,73.8 L447.1,73.8 L447.3,73.8 L447.5,73.8 L447.7,73.8 L447.9,73.8 L448.2,73.9 L448.4,73.9 L448.6,73.9 L448.8,73.9 L449.0,73.9 L449.2,74.0 L449.4,74.0 L449.5,74.0 L449.7,74.0 L449.9,74.0 L450.1,74.1 L450.3,74.1 L450.5,74.1 L450.7,74.1 L450.8,74.1 L451.0,74.2 L451.2,74.2 L451.5,74.2 L451.7,74.2 L451.8,74.3 L452.0,74.3 L452.2,74.3 L452.4,74.3 L452.5,74.4 L452.7,74.4 L452.9,74.4 L453.1,74.4 L453.2,74.4 L453.4,74.5 L453.5,74.5 L453.7,74.5" fill="none" stroke="#9be564" stroke-width="1.3" opacity="0.82"><title>regular:regular:930021182 but</title></path>
  <path d="M254.6,-136.0 L254.6,-136.0 L254.6,-136.0 L254.6,-136.0 L254.6,-136.0 L254.6,-136.0 L254.6,-136.0 L254.6,-136.0 L254.6,-136.0 L254.6,-136.0 L254.6,-136.0 L254.6,-136.0 L254.6,-136.0 L254.6,-136.0 L254.6,-136.0 L254.6,-136.0 L254.6,-136.0 L254.6,-136.0 L451.5,-41.6 L559.8,-6.3 L418.6,-9.9 L345.9,22.8 L461.3,78.2 L555.0,105.4 L497.8,89.4 L422.7,62.5 L443.5,57.1 L489.0,69.4 L487.9,77.6 L478.3,76.5 L474.8,75.4 L474.2,75.2 L474.3,75.1 L474.5,75.2 L474.9,75.2 L475.1,75.2 L475.4,75.3 L475.6,75.3 L475.8,75.3 L476.1,75.4 L476.3,75.4 L476.5,75.4 L476.8,75.5 L477.0,75.5 L477.2,75.5 L477.4,75.6 L477.7,75.6 L477.9,75.6 L478.1,75.7 L478.4,75.7 L478.7,75.7 L479.0,75.8 L479.2,75.8 L479.4,75.9 L479.6,75.9 L479.8,75.9 L480.1,76.0 L480.3,76.0 L480.5,76.0 L480.6,76.1 L480.9,76.1 L481.1,76.1 L481.3,76.2 L481.5,76.2 L481.7,76.2 L481.9,76.3 L482.2,76.3 L482.4,76.4 L482.6,76.4 L482.8,76.4 L483.0,76.5 L483.2,76.5 L483.4,76.5 L483.5,76.6 L483.7,76.6 L483.9,76.6 L484.1,76.7 L484.3,76.7 L484.5,76.7 L484.7,76.8 L484.8,76.8 L485.0,76.9 L485.2,76.9 L485.5,76.9 L485.7,77.0 L485.8,77.0 L486.0,77.0 L486.2,77.1 L486.4,77.1 L486.5,77.2 L486.7,77.2 L486.9,77.2 L487.1,77.3 L487.2,77.3 L487.4,77.4 L487.5,77.4 L487.7,77.4" fill="none" stroke="#9be564" stroke-width="1.3" opacity="0.82"><title>regular:regular:134545206 but</title></path>
  <path d="M128.8,-136.0 L128.8,-136.0 L128.8,-136.0 L128.8,-136.0 L128.8,-136.0 L128.8,-136.0 L128.8,-136.0 L128.8,-136.0 L128.8,-136.0 L128.8,-136.0 L128.8,-136.0 L128.8,-136.0 L128.8,-136.0 L128.8,-136.0 L128.8,-136.0 L128.8,-136.0 L128.8,-136.0 L128.8,-136.0 L128.8,-136.0 L128.8,-136.0 L128.8,-136.0 L128.8,-136.0 L128.8,-136.0 L160.9,-40.8 L349.5,71.9 L571.0,108.6 L571.1,77.5 L439.9,41.4 L426.7,46.4 L527.3,79.3 L563.1,99.0 L509.9,91.0 L481.4,76.1 L498.7,72.8 L506.4,76.2 L508.6,78.0 L509.3,78.4 L509.6,78.6 L509.8,78.6 L510.1,78.7 L510.3,78.7 L510.5,78.7 L510.8,78.8 L511.0,78.8 L511.2,78.9 L511.4,78.9 L511.7,79.0 L511.9,79.0 L512.1,79.0 L512.4,79.1 L512.7,79.1 L513.0,79.2 L513.2,79.2 L513.4,79.3 L513.6,79.3 L513.8,79.4 L514.1,79.4 L514.3,79.4 L514.5,79.5 L514.6,79.5 L514.9,79.6 L515.1,79.6 L515.3,79.7 L515.5,79.7 L515.7,79.7 L515.9,79.8 L516.2,79.8 L516.4,79.9 L516.6,79.9 L516.8,80.0 L517.0,80.0 L517.2,80.0 L517.4,80.1 L517.5,80.1 L517.7,80.2 L517.9,80.2 L518.1,80.3 L518.3,80.3 L518.5,80.3 L518.7,80.4 L518.8,80.4 L519.0,80.5 L519.2,80.5 L519.5,80.6 L519.7,80.6 L519.8,80.6 L520.0,80.7 L520.2,80.7 L520.4,80.8 L520.5,80.8 L520.7,80.9 L520.9,80.9 L521.1,80.9 L521.2,81.0 L521.4,81.0 L521.5,81.1 L521.7,81.1" fill="none" stroke="#9be564" stroke-width="1.3" opacity="0.82"><title>regular:regular:72277552 but</title></path>
  <path d="M190.8,-168.0 L190.8,-168.0 L190.8,-168.0 L190.8,-168.0 L190.8,-168.0 L190.8,-168.0 L190.8,-168.0 L190.8,-168.0 L190.8,-168.0 L190.8,-168.0 L190.8,-168.0 L190.8,-168.0 L190.8,-168.0 L190.8,-168.0 L190.8,-168.0 L190.8,-168.0 L190.8,-168.0 L190.8,-168.0 L190.8,-168.0 L190.8,-168.0 L190.8,-168.0 L190.8,-168.0 L190.8,-168.0 L190.8,-168.0 L190.8,-168.0 L190.8,-168.0 L274.8,-103.3 L323.7,-25.0 L155.8,3.9 L99.9,60.2 L230.9,122.9 L311.3,144.3 L236.4,121.7 L163.9,95.5 L197.0,95.4 L245.2,111.2 L238.6,119.5 L226.2,117.5 L223.2,114.9 L222.6,114.3 L222.6,114.2 L222.7,114.2 L222.8,114.2 L222.9,114.2 L223.0,114.2 L223.1,114.3 L223.2,114.3 L223.3,114.3 L223.4,114.3 L223.5,114.3 L223.7,114.4 L223.8,114.4 L223.9,114.4 L223.9,114.4 L224.0,114.4 L224.1,114.4 L224.2,114.4 L224.3,114.5 L224.4,114.5 L224.5,114.5 L224.5,114.5 L224.6,114.5 L224.7,114.5 L224.8,114.5 L224.8,114.5 L224.9,114.6 L225.0,114.6 L225.1,114.6 L225.2,114.6 L225.2,114.6 L225.3,114.6 L225.4,114.6 L225.4,114.6 L225.5,114.6 L225.6,114.6 L225.6,114.7 L225.7,114.7 L225.7,114.7 L225.8,114.7 L225.9,114.7 L225.9,114.7 L226.0,114.7 L226.0,114.7 L226.1,114.7 L226.1,114.7 L226.2,114.7 L226.2,114.7 L226.3,114.7 L226.3,114.7 L226.4,114.8 L226.4,114.8 L226.4,114.8 L226.5,114.8 L226.5,114.8 L226.5,114.8 L226.6,114.8 L226.6,114.8" fill="none" stroke="#9be564" stroke-width="1.3" opacity="0.82"><title>regular:regular:933879004 but</title></path>
  <path d="M569.6,-168.0 L569.6,-168.0 L569.6,-168.0 L569.6,-168.0 L569.6,-168.0 L569.6,-168.0 L569.6,-168.0 L569.6,-168.0 L569.6,-168.0 L569.6,-168.0 L569.6,-168.0 L569.6,-168.0 L569.6,-168.0 L569.6,-168.0 L569.6,-168.0 L569.6,-168.0 L569.6,-168.0 L569.6,-168.0 L569.6,-168.0 L569.6,-168.0 L569.6,-168.0 L572.9,-113.5 L491.8,-25.7 L259.7,2.3 L155.1,55.8 L264.0,119.8 L349.8,145.3 L280.6,125.1 L200.3,97.7 L226.0,95.3 L276.8,110.7 L273.6,120.0 L259.9,118.3 L256.7,115.6 L256.1,114.9 L256.0,114.8 L256.1,114.8 L256.2,114.8 L256.3,114.8 L256.4,114.8 L256.6,114.8 L256.7,114.7 L256.8,114.7 L256.9,114.7 L257.0,114.7 L257.1,114.7 L257.2,114.7 L257.3,114.7 L257.4,114.7 L257.5,114.7 L257.7,114.7 L257.8,114.7 L257.9,114.7 L257.9,114.7 L258.0,114.6 L258.1,114.6 L258.2,114.6 L258.3,114.6 L258.4,114.6 L258.5,114.6 L258.5,114.6 L258.6,114.6 L258.7,114.6 L258.8,114.6 L258.8,114.5 L258.9,114.5 L259.0,114.5 L259.1,114.5 L259.2,114.5 L259.2,114.5 L259.3,114.5 L259.4,114.5 L259.4,114.4 L259.5,114.4 L259.6,114.4 L259.6,114.4 L259.7,114.4 L259.7,114.4 L259.8,114.4 L259.9,114.3 L259.9,114.3 L260.0,114.3 L260.0,114.3 L260.1,114.3 L260.1,114.3 L260.2,114.2 L260.2,114.2 L260.3,114.2 L260.3,114.2 L260.4,114.2 L260.4,114.2 L260.4,114.1 L260.5,114.1 L260.5,114.1 L260.5,114.1 L260.6,114.1 L260.6,114.1" fill="none" stroke="#9be564" stroke-width="1.3" opacity="0.82"><title>regular:regular:61202383 but</title></path>
  <path d="M341.9,-168.0 L341.9,-168.0 L341.9,-168.0 L341.9,-168.0 L341.9,-168.0 L341.9,-168.0 L341.9,-168.0 L341.9,-168.0 L341.9,-168.0 L341.9,-168.0 L341.9,-168.0 L341.9,-168.0 L341.9,-168.0 L341.9,-168.0 L341.9,-168.0 L341.9,-168.0 L392.1,-108.4 L457.9,-12.0 L291.9,6.4 L171.6,46.4 L262.7,108.4 L373.2,143.1 L330.4,130.8 L242.2,102.1 L250.3,93.8 L302.7,106.4 L308.1,117.1 L294.9,116.7 L290.4,114.4 L289.5,113.8 L289.4,113.6 L289.5,113.6 L289.6,113.6 L289.7,113.5 L289.9,113.5 L290.0,113.5 L290.1,113.4 L290.2,113.4 L290.3,113.4 L290.4,113.4 L290.6,113.3 L290.7,113.3 L290.8,113.3 L290.9,113.2 L291.0,113.2 L291.1,113.2 L291.2,113.2 L291.3,113.1 L291.4,113.1 L291.5,113.1 L291.7,113.0 L291.8,113.0 L291.9,113.0 L291.9,112.9 L292.0,112.9 L292.1,112.9 L292.2,112.9 L292.3,112.8 L292.4,112.8 L292.5,112.8 L292.5,112.7 L292.6,112.7 L292.7,112.7 L292.8,112.6 L292.8,112.6 L292.9,112.6 L293.0,112.5 L293.1,112.5 L293.2,112.5 L293.2,112.4 L293.3,112.4 L293.4,112.4 L293.4,112.4 L293.5,112.3 L293.6,112.3 L293.6,112.3 L293.7,112.2 L293.7,112.2 L293.8,112.2 L293.9,112.1 L293.9,112.1 L294.0,112.1 L294.0,112.0 L294.1,112.0 L294.1,111.9 L294.2,111.9 L294.2,111.9 L294.3,111.8 L294.3,111.8 L294.4,111.8 L294.4,111.7 L294.4,111.7 L294.5,111.7 L294.5,111.6 L294.5,111.6 L294.6,111.6 L294.6,111.5" fill="none" stroke="#9be564" stroke-width="1.3" opacity="0.82"><title>regular:regular:519537610 but</title></path>
  <path d="M549.4,-168.0 L549.4,-168.0 L549.4,-168.0 L549.4,-168.0 L549.4,-168.0 L549.4,-168.0 L549.4,-168.0 L549.4,-168.0 L549.4,-168.0 L549.4,-168.0 L549.4,-168.0 L544.5,-114.5 L581.0,19.4 L459.9,29.6 L260.5,34.5 L245.5,78.3 L368.8,127.6 L398.0,139.0 L313.2,116.1 L273.3,95.6 L313.8,97.8 L339.4,109.2 L330.9,112.4 L324.4,111.4 L322.9,111.1 L322.8,111.0 L322.8,110.9 L322.9,110.9 L323.1,110.8 L323.2,110.8 L323.3,110.8 L323.4,110.7 L323.6,110.7 L323.7,110.6 L323.9,110.6 L324.0,110.5 L324.1,110.5 L324.2,110.5 L324.3,110.4 L324.4,110.4 L324.6,110.3 L324.7,110.3 L324.8,110.3 L324.9,110.2 L325.0,110.2 L325.1,110.1 L325.2,110.1 L325.3,110.1 L325.4,110.0 L325.5,110.0 L325.7,109.9 L325.8,109.9 L325.9,109.8 L325.9,109.8 L326.0,109.7 L326.1,109.7 L326.2,109.7 L326.3,109.6 L326.4,109.6 L326.5,109.5 L326.5,109.5 L326.6,109.5 L326.7,109.4 L326.8,109.4 L326.8,109.3 L326.9,109.3 L327.0,109.2 L327.1,109.2 L327.2,109.1 L327.2,109.1 L327.3,109.1 L327.4,109.0 L327.4,109.0 L327.5,108.9 L327.6,108.9 L327.6,108.9 L327.7,108.8 L327.7,108.8 L327.8,108.7 L327.9,108.7 L327.9,108.7 L328.0,108.6 L284.9,59.8 L240.5,113.7 L215.8,187.4 L187.5,279.8 L162.2,391.0 L142.3,521.0 L118.0,669.6 L96.7,777.5 L328.4,20.4 L328.4,69.6 L328.5,91.2 L328.5,102.3 L328.5,106.9 L328.6,107.8 L328.6,107.9" fill="none" stroke="#ffd166" stroke-width="1.3" opacity="0.82"><title>regular:regular:495474296 but</title></path>
  <path d="M182.6,-168.0 L182.6,-168.0 L182.6,-168.0 L182.6,-168.0 L182.6,-168.0 L182.6,-168.0 L233.3,-142.5 L378.9,-49.2 L250.9,-10.3 L213.9,53.1 L357.4,118.4 L443.9,138.5 L368.0,113.8 L293.4,87.3 L328.8,88.5 L380.7,105.9 L373.4,114.6 L357.5,112.0 L356.1,108.8 L355.9,107.8 L355.9,107.6 L356.1,107.5 L356.2,107.5 L356.4,107.4 L356.5,107.4 L356.7,107.3 L356.8,107.3 L356.9,107.2 L357.1,107.2 L357.2,107.1 L357.3,107.1 L357.4,107.1 L357.6,107.0 L357.7,107.0 L357.9,106.9 L358.0,106.9 L358.1,106.8 L358.2,106.8 L358.3,106.7 L358.4,106.7 L358.6,106.7 L358.7,106.6 L358.8,106.6 L358.9,106.5 L359.0,106.5 L359.1,106.4 L359.2,106.4 L359.3,106.4 L359.4,106.3 L359.5,106.3 L359.7,106.2 L359.8,106.2 L359.9,106.1 L359.9,106.1 L360.0,106.0 L360.1,106.0 L360.2,106.0 L360.3,105.9 L360.4,105.9 L360.5,105.8 L360.5,105.8 L360.6,105.8 L360.7,105.7 L360.8,105.7 L360.8,105.7 L360.9,105.6 L361.0,105.5 L361.1,105.5 L361.2,105.5 L361.2,105.4 L337.6,142.8 L312.6,206.5 L294.5,288.8 L270.0,390.0 L240.8,509.9 L219.8,648.5 L361.7,-28.0 L361.7,46.6 L361.8,79.4 L361.8,93.8 L361.9,102.3 L362.0,104.4 L362.0,104.8 L362.1,104.9 L362.1,104.9 L362.2,104.8 L362.2,104.8 L362.3,104.7 L362.3,104.7 L362.4,104.7 L362.4,104.6 L362.4,104.6 L362.5,104.6 L362.5,104.5 L362.5,104.5 L362.6,104.5 L362.6,104.4" fill="none" stroke="#9be564" stroke-width="1.3" opacity="0.82"><title>regular:regular:622513080 but</title></path>
  <path d="M525.7,-168.0 L525.7,-168.0 L525.7,-168.0 L525.7,-168.0 L525.7,-168.0 L525.7,-168.0 L525.7,-168.0 L525.7,-168.0 L525.7,-168.0 L599.1,-55.3 L528.1,-11.1 L327.7,9.4 L293.9,63.2 L425.1,119.5 L475.1,133.4 L388.6,108.6 L333.4,85.6 L375.0,88.2 L412.6,102.8 L401.9,108.4 L393.4,105.9 L390.8,104.4 L390.4,104.1 L390.4,104.0 L390.5,103.9 L390.7,103.9 L390.8,103.8 L390.9,103.8 L391.1,103.8 L391.2,103.7 L391.3,103.7 L391.4,103.7 L391.6,103.6 L391.7,103.6 L391.9,103.6 L392.0,103.5 L392.1,103.5 L392.2,103.5 L392.3,103.4 L392.4,103.4 L392.6,103.4 L392.7,103.3 L392.8,103.3 L392.9,103.3 L393.0,103.2 L393.1,103.2 L393.2,103.2 L393.3,103.2 L393.4,103.1 L393.5,103.1 L393.7,103.0 L393.8,103.0 L393.9,103.0 L393.9,103.0 L394.0,102.9 L394.1,102.9 L394.2,102.9 L394.3,102.8 L394.4,102.8 L394.5,102.8 L394.5,102.8 L394.6,102.7 L394.7,102.7 L394.8,102.7 L394.8,102.7 L394.9,102.6 L395.0,102.6 L395.1,102.6 L395.2,102.5 L395.2,102.5 L395.3,102.5 L395.4,102.5 L395.4,102.4 L395.5,102.4 L395.6,102.4 L395.6,102.4 L395.7,102.4 L395.7,102.3 L395.8,102.3 L395.9,102.3 L395.9,102.3 L396.0,102.2 L396.0,102.2 L396.1,102.2 L396.1,102.2 L396.2,102.1 L396.2,102.1 L396.3,102.1 L396.3,102.1 L396.4,102.1 L396.4,102.0 L396.4,102.0 L396.5,102.0 L396.5,102.0 L396.5,102.0 L396.6,101.9 L396.6,101.9" fill="none" stroke="#9be564" stroke-width="1.3" opacity="0.82"><title>regular:regular:495698355 but</title></path>
  <path d="M629.0,-168.0 L629.0,-168.0 L629.0,-168.0 L629.0,-168.0 L629.0,-168.0 L629.0,-168.0 L629.0,-168.0 L629.0,-168.0 L629.0,-168.0 L629.0,-168.0 L629.0,-168.0 L629.0,-168.0 L629.0,-168.0 L629.0,-168.0 L622.1,-84.9 L424.8,-35.1 L303.3,30.1 L408.6,102.8 L520.2,133.3 L463.5,112.7 L367.7,82.4 L383.8,79.1 L446.3,97.1 L449.8,109.4 L426.5,107.6 L424.5,103.7 L424.8,102.1 L424.9,101.7 L425.1,101.6 L425.2,101.6 L425.3,101.6 L425.4,101.6 L425.6,101.6 L425.7,101.5 L425.9,101.5 L426.0,101.5 L426.1,101.5 L426.2,101.5 L426.3,101.5 L426.4,101.5 L426.6,101.5 L426.7,101.4 L426.8,101.4 L426.9,101.4 L427.0,101.4 L427.1,101.4 L427.2,101.4 L427.3,101.4 L427.4,101.4 L427.5,101.4 L427.7,101.3 L427.8,101.3 L427.9,101.3 L427.9,101.3 L428.0,101.3 L428.1,101.3 L428.2,101.3 L428.3,101.3 L428.4,101.3 L428.5,101.3 L428.5,101.3 L428.6,101.3 L428.7,101.3 L428.8,101.3 L428.8,101.2 L428.9,101.2 L429.0,101.2 L429.1,101.2 L429.2,101.2 L429.2,101.2 L429.3,101.2 L429.4,101.2 L429.4,101.2 L429.5,101.2 L429.6,101.2 L429.6,101.2 L429.7,101.2 L429.7,101.2 L429.8,101.2 L429.9,101.2 L429.9,101.2 L430.0,101.2 L430.0,101.2 L430.1,101.2 L430.1,101.2 L430.2,101.2 L430.2,101.2 L430.3,101.2 L430.3,101.2 L430.4,101.2 L430.4,101.2 L430.4,101.2 L430.5,101.2 L430.5,101.2 L430.5,101.2 L430.6,101.2 L430.6,101.2" fill="none" stroke="#9be564" stroke-width="1.3" opacity="0.82"><title>regular:regular:564026307 but</title></path>
  <path d="M411.3,-168.0 L411.3,-168.0 L411.3,-168.0 L411.3,-168.0 L411.3,-168.0 L411.3,-168.0 L411.3,-168.0 L411.3,-168.0 L411.3,-168.0 L411.3,-168.0 L411.3,-168.0 L411.3,-168.0 L411.3,-168.0 L411.3,-168.0 L411.3,-168.0 L411.3,-168.0 L411.3,-168.0 L411.3,-168.0 L411.3,-168.0 L547.6,-21.8 L614.0,27.6 L456.7,20.7 L347.1,43.2 L435.9,95.5 L537.6,128.9 L496.2,120.0 L417.4,93.8 L426.0,84.4 L469.4,93.9 L472.5,102.1 L463.7,101.9 L460.3,101.5 L459.7,101.4 L459.7,101.4 L459.9,101.4 L460.0,101.4 L460.1,101.4 L460.2,101.4 L460.3,101.4 L460.4,101.4 L460.6,101.5 L460.7,101.5 L460.8,101.5 L460.9,101.5 L461.0,101.5 L461.1,101.5 L461.2,101.5 L461.3,101.6 L461.4,101.6 L461.5,101.6 L461.7,101.6 L461.8,101.6 L461.9,101.6 L461.9,101.6 L462.0,101.7 L462.1,101.7 L462.2,101.7 L462.3,101.7 L462.4,101.7 L462.5,101.7 L462.5,101.8 L462.6,101.8 L462.7,101.8 L462.8,101.8 L462.8,101.8 L462.9,101.8 L463.0,101.9 L463.1,101.9 L463.2,101.9 L463.2,101.9 L463.3,101.9 L463.4,102.0 L463.4,102.0 L463.5,102.0 L463.6,102.0 L463.6,102.0 L463.7,102.1 L463.7,102.1 L463.8,102.1 L463.9,102.1 L463.9,102.1 L464.0,102.2 L464.0,102.2 L464.1,102.2 L464.1,102.2 L464.2,102.3 L464.2,102.3 L464.3,102.3 L464.3,102.3 L464.4,102.4 L464.4,102.4 L464.4,102.4 L464.5,102.4 L464.5,102.4 L464.5,102.5 L464.6,102.5 L464.6,102.5" fill="none" stroke="#9be564" stroke-width="1.3" opacity="0.82"><title>regular:regular:408011906 but</title></path>
  <path d="M41.9,-168.0 L41.9,-168.0 L41.9,-168.0 L41.9,-168.0 L41.9,-168.0 L41.9,-168.0 L41.9,-168.0 L41.9,-168.0 L41.9,-168.0 L41.9,-168.0 L41.9,-168.0 L41.9,-168.0 L41.9,-168.0 L41.9,-168.0 L41.9,-168.0 L41.9,-168.0 L41.9,-168.0 L41.9,-168.0 L41.9,-168.0 L41.9,-168.0 L41.9,-168.0 L41.9,-168.0 L41.9,-168.0 L41.9,-168.0 L378.6,-63.1 L398.7,-25.3 L316.9,20.0 L413.3,88.3 L560.2,131.4 L549.1,123.3 L451.9,92.5 L442.4,80.4 L502.1,93.3 L519.4,107.4 L500.1,108.4 L495.5,105.0 L494.4,103.6 L494.3,103.4 L494.3,103.4 L494.4,103.4 L494.6,103.4 L494.7,103.4 L494.8,103.5 L494.9,103.5 L495.0,103.5 L495.1,103.6 L495.2,103.6 L495.3,103.6 L495.4,103.7 L495.5,103.7 L495.7,103.7 L495.8,103.8 L495.9,103.8 L495.9,103.9 L496.0,103.9 L496.1,103.9 L496.2,104.0 L496.3,104.0 L496.4,104.0 L496.5,104.1 L496.5,104.1 L496.6,104.1 L496.7,104.2 L496.8,104.2 L496.8,104.2 L496.9,104.3 L497.0,104.3 L497.1,104.4 L497.2,104.4 L497.2,104.4 L497.3,104.5 L497.4,104.5 L497.4,104.5 L497.5,104.6 L497.6,104.6 L497.6,104.6 L497.7,104.7 L497.7,104.7 L497.8,104.7 L497.9,104.8 L497.9,104.8 L498.0,104.9 L498.0,104.9 L498.1,104.9 L498.1,105.0 L498.2,105.0 L498.2,105.0 L498.3,105.1 L498.3,105.1 L498.4,105.2 L498.4,105.2 L498.4,105.2 L498.5,105.3 L498.5,105.3 L498.5,105.4 L498.6,105.4 L498.6,105.4" fill="none" stroke="#9be564" stroke-width="1.3" opacity="0.82"><title>regular:regular:656827869 but</title></path>
  <path d="M181.2,-168.0 L181.2,-168.0 L181.2,-168.0 L181.2,-168.0 L181.2,-168.0 L181.2,-168.0 L181.2,-168.0 L181.2,-168.0 L181.2,-168.0 L181.2,-168.0 L181.2,-168.0 L181.2,-168.0 L181.2,-168.0 L181.2,-168.0 L181.2,-168.0 L181.2,-168.0 L181.2,-168.0 L181.2,-168.0 L181.2,-168.0 L181.2,-168.0 L181.2,-168.0 L181.2,-168.0 L181.2,-168.0 L181.2,-168.0 L181.2,-168.0 L181.2,-168.0 L181.2,-168.0 L181.2,-168.0 L181.2,-168.0 L497.5,-43.6 L498.3,-12.0 L380.6,20.7 L439.6,83.1 L585.6,131.1 L594.1,130.6 L498.9,101.5 L475.1,85.3 L529.4,94.5 L552.5,108.6 L536.6,111.0 L530.7,108.1 L529.1,107.0 L528.9,106.8 L528.9,106.8 L529.0,106.9 L529.1,106.9 L529.2,107.0 L529.3,107.0 L529.4,107.0 L529.5,107.1 L529.7,107.1 L529.8,107.2 L529.9,107.2 L529.9,107.3 L530.0,107.3 L530.1,107.4 L530.2,107.4 L530.3,107.4 L530.4,107.5 L530.5,107.5 L530.5,107.6 L530.6,107.6 L530.7,107.7 L530.8,107.7 L530.8,107.7 L530.9,107.8 L531.0,107.8 L531.1,107.9 L531.2,107.9 L531.2,108.0 L531.3,108.0 L531.4,108.0 L531.4,108.1 L531.5,108.1 L531.6,108.2 L531.6,108.2 L531.7,108.3 L531.7,108.3 L531.8,108.3 L531.9,108.4 L531.9,108.4 L532.0,108.5 L532.0,108.5 L532.1,108.6 L532.1,108.6 L532.2,108.6 L532.2,108.7 L532.3,108.7 L532.3,108.8 L532.4,108.8 L532.4,108.9 L532.4,108.9 L532.5,108.9 L532.5,109.0 L532.5,109.0 L532.6,109.1 L532.6,109.1" fill="none" stroke="#9be564" stroke-width="1.3" opacity="0.82"><title>regular:regular:387795809 but</title></path>
  <path d="M279.1,-200.0 L279.1,-200.0 L279.1,-200.0 L279.1,-200.0 L279.1,-200.0 L279.1,-200.0 L279.1,-200.0 L279.1,-200.0 L279.1,-200.0 L279.1,-200.0 L279.1,-200.0 L279.1,-200.0 L279.1,-200.0 L279.1,-200.0 L279.1,-200.0 L279.1,-200.0 L279.1,-200.0 L279.1,-200.0 L279.1,-200.0 L279.1,-200.0 L279.1,-200.0 L279.1,-200.0 L279.1,-200.0 L279.1,-200.0 L279.1,-200.0 L279.1,-200.0 L279.1,-200.0 L279.1,-200.0 L279.1,-200.0 L279.1,-200.0 L279.1,-200.0 L279.1,-200.0 L279.1,-200.0 L279.1,-200.0 L279.1,-200.0 L279.1,-200.0 L279.1,-200.0 L279.1,-200.0 L142.0,-31.0 L234.1,113.8 L364.0,151.1 L286.3,121.1 L149.1,97.2 L167.4,115.3 L267.9,150.6 L277.0,163.8 L216.2,151.0 L199.5,137.1 L220.2,136.5 L225.0,140.3 L225.6,159.7 L225.7,218.3 L217.1,295.6 L208.4,391.7 L208.4,506.5 L205.4,640.1 L194.8,792.4 L225.7,58.9 L225.7,105.7 L225.6,126.3 L225.6,137.3 L225.5,141.4 L225.4,142.3 L225.4,142.5 L225.3,142.5 L225.2,142.6 L225.1,142.6 L225.1,142.6 L225.0,142.6 L224.9,142.6 L224.8,142.6 L224.8,142.6 L224.7,142.6 L224.6,142.6 L224.5,142.6 L224.5,142.7 L224.4,142.7 L224.3,142.7 L224.2,142.7 L224.1,142.7 L224.0,142.7 L223.9,142.7 L223.9,142.7 L223.7,142.7 L223.6,142.7 L223.5,142.7 L223.5,142.7 L223.4,142.7 L223.3,142.7 L223.2,142.8 L223.1,142.8 L223.0,142.8 L222.9,142.8 L222.8,142.8 L222.7,142.8 L222.6,142.8 L222.5,142.8" fill="none" stroke="#9be564" stroke-width="1.3" opacity="0.82"><title>regular:regular:562265913 bee</title></path>
  <path d="M-6.6,-200.0 L-6.6,-200.0 L-6.6,-200.0 L-6.6,-200.0 L-6.6,-200.0 L-6.6,-200.0 L-6.6,-200.0 L-6.6,-200.0 L-6.6,-200.0 L-6.6,-200.0 L-6.6,-200.0 L-6.6,-200.0 L-6.6,-200.0 L-6.6,-200.0 L-6.6,-200.0 L-6.6,-200.0 L-6.6,-200.0 L-6.6,-200.0 L-6.6,-200.0 L-6.6,-200.0 L-6.6,-200.0 L-6.6,-200.0 L-6.6,-200.0 L-6.6,-200.0 L-6.6,-200.0 L-6.6,-200.0 L-6.6,-200.0 L-6.6,-200.0 L-6.6,-200.0 L-6.6,-200.0 L-6.6,-200.0 L-6.6,-200.0 L-6.6,-200.0 L173.9,-23.3 L369.3,71.8 L296.3,69.5 L155.3,74.5 L192.9,117.8 L315.9,161.5 L320.7,167.6 L239.1,144.8 L219.0,128.2 L259.1,132.1 L273.0,141.0 L265.2,142.5 L261.4,142.7 L260.5,142.7 L260.3,142.7 L260.3,142.7 L260.2,142.7 L260.1,142.7 L260.1,142.7 L260.0,142.7 L260.0,142.7 L259.9,142.6 L259.9,142.6 L259.8,142.6 L259.7,142.6 L259.7,142.6 L259.6,142.6 L259.6,142.6 L259.5,142.6 L259.4,142.6 L259.4,142.6 L259.3,142.5 L259.2,142.5 L259.1,142.5 L259.1,142.5 L259.0,142.5 L258.9,142.5 L258.8,142.5 L258.8,142.5 L258.7,142.4 L258.6,142.4 L258.5,142.4 L258.5,142.4 L258.4,142.4 L258.3,142.4 L258.2,142.4 L258.1,142.3 L258.0,142.3 L257.9,142.3 L257.9,142.3 L257.7,142.3 L257.6,142.3 L257.5,142.2 L257.5,142.2 L257.4,142.2 L257.3,142.2 L257.2,142.2 L257.1,142.2 L257.0,142.1 L256.9,142.1 L256.8,142.1 L256.7,142.1 L256.6,142.1 L256.5,142.1" fill="none" stroke="#9be564" stroke-width="1.3" opacity="0.82"><title>regular:regular:841472871 bee</title></path>
  <path d="M387.1,-200.0 L387.1,-200.0 L387.1,-200.0 L387.1,-200.0 L387.1,-200.0 L387.1,-200.0 L387.1,-200.0 L387.1,-200.0 L387.1,-200.0 L387.1,-200.0 L387.1,-200.0 L387.1,-200.0 L387.1,-200.0 L387.1,-200.0 L387.1,-200.0 L387.1,-200.0 L387.1,-200.0 L387.1,-200.0 L387.1,-200.0 L387.1,-200.0 L387.1,-200.0 L387.1,-200.0 L387.1,-200.0 L387.1,-200.0 L387.1,-200.0 L387.1,-200.0 L387.1,-200.0 L387.1,-200.0 L219.3,-65.3 L219.2,87.9 L385.6,157.7 L400.9,145.4 L262.2,108.8 L211.2,104.7 L297.7,134.1 L351.1,158.8 L308.3,156.6 L271.3,142.2 L282.6,136.9 L291.2,139.5 L293.9,140.9 L294.4,141.2 L294.5,141.3 L294.5,141.2 L294.4,141.2 L294.4,141.2 L294.3,141.2 L294.3,141.1 L294.2,141.1 L294.2,141.1 L294.1,141.0 L294.1,141.0 L294.0,141.0 L294.0,140.9 L293.9,140.9 L293.9,140.9 L293.8,140.9 L293.7,140.8 L293.7,140.8 L293.6,140.8 L293.6,140.7 L293.5,140.7 L293.4,140.7 L293.4,140.6 L293.3,140.6 L293.2,140.6 L293.1,140.5 L293.1,140.5 L293.0,140.5 L292.9,140.4 L292.8,140.4 L292.8,140.4 L292.7,140.4 L292.6,140.3 L292.5,140.3 L292.5,140.3 L292.4,140.2 L292.3,140.2 L292.2,140.2 L292.1,140.1 L292.0,140.1 L291.9,140.1 L291.9,140.0 L291.7,140.0 L291.6,139.9 L291.5,139.9 L291.5,139.9 L291.4,139.8 L291.3,139.8 L291.2,139.8 L291.1,139.7 L291.0,139.7 L290.9,139.7 L290.8,139.6 L290.7,139.6 L290.6,139.6 L290.5,139.5" fill="none" stroke="#9be564" stroke-width="1.3" opacity="0.82"><title>regular:regular:965408983 bee</title></path>
  <path d="M523.9,-200.0 L523.9,-200.0 L523.9,-200.0 L523.9,-200.0 L523.9,-200.0 L523.9,-200.0 L523.9,-200.0 L523.9,-200.0 L523.9,-200.0 L523.9,-200.0 L523.9,-200.0 L523.9,-200.0 L523.9,-200.0 L523.9,-200.0 L523.9,-200.0 L523.9,-200.0 L523.9,-200.0 L523.9,-200.0 L523.9,-200.0 L523.9,-200.0 L523.9,-200.0 L523.9,-200.0 L523.9,-200.0 L375.0,-45.3 L427.4,105.3 L501.0,134.2 L377.1,103.3 L243.9,89.9 L286.2,118.2 L384.8,153.9 L374.7,160.7 L309.1,143.5 L301.1,130.4 L326.4,132.0 L329.5,136.1 L328.9,138.0 L328.7,138.4 L328.7,138.4 L328.6,138.4 L328.6,138.4 L328.6,138.3 L328.5,138.3 L328.5,138.3 L328.5,138.2 L328.4,138.2 L328.4,138.1 L328.3,138.1 L328.3,138.1 L328.2,138.0 L328.2,138.0 L328.1,137.9 L328.1,137.9 L328.0,137.8 L328.0,137.8 L327.9,137.7 L327.9,137.7 L327.8,137.7 L327.7,137.6 L327.7,137.6 L327.6,137.5 L327.6,137.5 L327.5,137.5 L327.4,137.4 L327.4,137.4 L327.3,137.3 L327.2,137.3 L327.1,137.2 L327.1,137.2 L327.0,137.1 L326.9,137.1 L326.8,137.1 L326.8,137.0 L326.7,137.0 L326.6,136.9 L326.5,136.9 L326.5,136.9 L326.4,136.8 L326.3,136.8 L326.2,136.7 L326.1,136.7 L326.0,136.7 L325.9,136.6 L325.9,136.6 L325.7,136.5 L325.6,136.5 L325.5,136.4 L325.5,136.4 L325.4,136.3 L325.3,136.3 L325.2,136.3 L325.1,136.2 L325.0,136.2 L324.9,136.1 L324.8,136.1 L324.7,136.1 L324.6,136.0 L324.5,136.0" fill="none" stroke="#9be564" stroke-width="1.3" opacity="0.82"><title>regular:regular:371814362 bee</title></path>
  <path d="M441.8,-200.0 L441.8,-200.0 L441.8,-200.0 L441.8,-200.0 L441.8,-200.0 L441.8,-200.0 L441.8,-200.0 L441.8,-200.0 L441.8,-200.0 L441.8,-200.0 L441.8,-200.0 L441.8,-200.0 L441.8,-200.0 L441.8,-200.0 L441.8,-200.0 L441.8,-200.0 L441.8,-200.0 L441.8,-200.0 L384.0,-52.3 L491.5,93.4 L523.8,109.5 L366.5,82.7 L267.0,86.7 L347.3,126.3 L432.6,157.9 L393.9,154.5 L330.4,133.5 L338.7,123.9 L366.4,128.9 L366.3,133.0 L363.6,134.7 L363.0,135.0 L362.8,135.0 L362.8,135.0 L362.8,134.9 L362.7,134.9 L362.7,134.8 L362.7,134.8 L362.6,134.7 L362.6,134.7 L362.6,134.7 L362.5,134.6 L362.5,134.6 L362.5,134.5 L362.4,134.5 L362.4,134.4 L362.3,134.4 L362.3,134.4 L362.2,134.3 L362.2,134.3 L362.1,134.2 L362.1,134.2 L362.0,134.1 L362.0,134.1 L361.9,134.0 L361.9,134.0 L361.8,134.0 L361.7,133.9 L361.7,133.9 L361.6,133.8 L361.6,133.8 L361.5,133.8 L361.4,133.7 L361.4,133.7 L361.3,133.7 L361.2,133.6 L361.1,133.5 L361.1,133.5 L361.0,133.5 L360.9,133.4 L360.8,133.4 L360.8,133.4 L360.7,133.3 L360.6,133.3 L360.5,133.2 L360.5,133.2 L360.4,133.2 L360.3,133.1 L360.2,133.1 L360.1,133.1 L360.0,133.0 L359.9,133.0 L359.9,132.9 L359.7,132.9 L359.6,132.9 L359.5,132.8 L359.5,132.8 L359.4,132.7 L359.3,132.7 L359.2,132.7 L359.1,132.6 L359.0,132.6 L358.9,132.6 L358.8,132.5 L358.7,132.5 L358.6,132.5 L358.5,132.4" fill="none" stroke="#9be564" stroke-width="1.3" opacity="0.82"><title>regular:regular:612058538 bee</title></path>
  <path d="M180.7,-200.0 L180.7,-200.0 L180.7,-200.0 L180.7,-200.0 L180.7,-200.0 L180.7,-200.0 L180.7,-200.0 L180.7,-200.0 L180.7,-200.0 L180.7,-200.0 L180.7,-200.0 L180.7,-200.0 L180.7,-200.0 L180.7,-200.0 L180.7,-200.0 L180.7,-200.0 L180.7,-200.0 L180.7,-200.0 L180.7,-200.0 L180.7,-200.0 L194.4,-177.7 L440.8,27.0 L513.2,64.7 L364.7,55.9 L284.6,78.8 L386.6,128.8 L474.0,158.7 L423.3,148.5 L354.7,124.2 L370.7,116.7 L407.1,125.4 L406.5,131.4 L399.4,131.6 L397.3,131.6 L396.9,131.6 L396.7,131.5 L396.7,131.5 L396.7,131.5 L396.6,131.4 L396.6,131.4 L396.6,131.4 L396.5,131.3 L396.5,131.3 L396.5,131.3 L396.4,131.2 L396.4,131.2 L396.3,131.2 L396.3,131.2 L396.2,131.1 L396.2,131.1 L396.1,131.0 L396.1,131.0 L396.0,131.0 L396.0,131.0 L395.9,130.9 L395.9,130.9 L395.8,130.9 L395.7,130.8 L395.7,130.8 L395.6,130.8 L395.6,130.8 L395.5,130.7 L395.4,130.7 L395.4,130.7 L395.3,130.7 L395.2,130.6 L395.1,130.6 L395.1,130.6 L395.0,130.5 L394.9,130.5 L394.8,130.5 L394.8,130.5 L394.7,130.4 L394.6,130.4 L394.5,130.4 L394.5,130.4 L394.4,130.4 L394.3,130.3 L394.2,130.3 L394.1,130.3 L394.0,130.3 L393.9,130.2 L393.9,130.2 L393.7,130.2 L393.6,130.2 L393.5,130.1 L393.5,130.1 L393.4,130.1 L393.3,130.1 L393.2,130.1 L393.1,130.0 L393.0,130.0 L392.9,130.0 L392.8,130.0 L392.7,130.0 L392.6,129.9 L392.5,129.9" fill="none" stroke="#9be564" stroke-width="1.3" opacity="0.82"><title>regular:regular:809063590 bee</title></path>
  <path d="M436.6,-200.0 L436.6,-200.0 L436.6,-200.0 L436.6,-200.0 L436.6,-200.0 L436.6,-200.0 L436.6,-200.0 L436.6,-200.0 L436.6,-200.0 L436.6,-200.0 L436.6,-200.0 L436.6,-200.0 L436.6,-200.0 L436.6,-200.0 L436.6,-200.0 L436.6,-200.0 L436.6,-200.0 L436.6,-200.0 L436.6,-200.0 L436.6,-200.0 L436.6,-200.0 L436.6,-200.0 L436.6,-200.0 L436.6,-200.0 L436.6,-200.0 L439.4,-179.0 L320.4,-59.3 L265.6,50.2 L419.1,135.9 L532.6,157.5 L455.6,127.4 L358.4,99.8 L392.8,106.7 L465.4,131.4 L460.6,142.8 L425.1,136.7 L422.5,130.9 L428.6,129.8 L430.2,129.5 L430.5,129.5 L430.6,129.5 L430.5,129.4 L430.5,129.4 L430.5,129.4 L430.4,129.4 L430.4,129.4 L430.3,129.4 L430.3,129.4 L430.2,129.4 L430.2,129.4 L430.1,129.3 L430.1,129.3 L430.0,129.3 L430.0,129.3 L429.9,129.3 L429.9,129.3 L429.8,129.3 L429.7,129.3 L429.7,129.3 L429.6,129.3 L429.6,129.3 L429.5,129.3 L429.4,129.3 L429.4,129.3 L429.3,129.2 L429.2,129.2 L429.1,129.2 L429.1,129.2 L429.0,129.2 L428.9,129.2 L428.8,129.2 L428.8,129.2 L428.7,129.2 L428.6,129.2 L428.5,129.2 L428.5,129.2 L428.4,129.2 L428.3,129.2 L428.2,129.2 L428.1,129.2 L428.0,129.2 L427.9,129.2 L427.9,129.2 L427.7,129.2 L427.6,129.2 L427.5,129.2 L427.5,129.2 L427.4,129.2 L427.3,129.2 L427.2,129.2 L427.1,129.2 L427.0,129.2 L426.9,129.2 L426.8,129.2 L426.7,129.2 L426.6,129.2 L426.5,129.2" fill="none" stroke="#9be564" stroke-width="1.3" opacity="0.82"><title>regular:regular:305281538 bee</title></path>
  <path d="M71.9,-200.0 L71.9,-200.0 L71.9,-200.0 L71.9,-200.0 L71.9,-200.0 L71.9,-200.0 L71.9,-200.0 L71.9,-200.0 L71.9,-200.0 L71.9,-200.0 L71.9,-200.0 L71.9,-200.0 L71.9,-200.0 L71.9,-200.0 L71.9,-200.0 L71.9,-200.0 L71.9,-200.0 L71.9,-200.0 L71.9,-200.0 L71.9,-200.0 L71.9,-200.0 L71.9,-200.0 L71.9,-200.0 L71.9,-200.0 L71.9,-200.0 L71.9,-200.0 L71.9,-200.0 L71.9,-200.0 L71.9,-200.0 L71.9,-200.0 L135.3,-159.7 L475.6,1.0 L475.3,26.8 L342.0,45.5 L372.5,98.1 L511.3,148.1 L534.3,155.7 L446.8,130.5 L414.4,111.7 L460.0,116.4 L483.9,128.7 L473.2,131.6 L466.7,130.0 L464.9,129.6 L464.5,129.5 L464.4,129.5 L464.3,129.5 L464.3,129.6 L464.2,129.6 L464.2,129.6 L464.1,129.6 L464.1,129.6 L464.0,129.6 L464.0,129.6 L463.9,129.7 L463.9,129.7 L463.8,129.7 L463.7,129.7 L463.7,129.7 L463.6,129.7 L463.6,129.8 L463.5,129.8 L463.4,129.8 L463.4,129.8 L463.3,129.8 L463.2,129.8 L463.1,129.9 L463.1,129.9 L463.0,129.9 L462.9,129.9 L462.8,129.9 L462.8,130.0 L462.7,130.0 L462.6,130.0 L462.5,130.0 L462.5,130.0 L462.4,130.1 L462.3,130.1 L462.2,130.1 L462.1,130.1 L462.0,130.1 L461.9,130.2 L461.9,130.2 L461.7,130.2 L461.6,130.2 L461.5,130.3 L461.5,130.3 L461.4,130.3 L461.3,130.3 L461.2,130.4 L461.1,130.4 L461.0,130.4 L460.9,130.4 L460.8,130.4 L460.7,130.5 L460.6,130.5 L460.5,130.5" fill="none" stroke="#9be564" stroke-width="1.3" opacity="0.82"><title>regular:regular:366653994 bee</title></path>
  <path d="M-0.9,-200.0 L-0.9,-200.0 L-0.9,-200.0 L-0.9,-200.0 L-0.9,-200.0 L-0.9,-200.0 L-0.9,-200.0 L-0.9,-200.0 L-0.9,-200.0 L-0.9,-200.0 L-0.9,-200.0 L-0.9,-200.0 L-0.9,-200.0 L-0.9,-200.0 L-0.9,-200.0 L-0.9,-200.0 L-0.9,-200.0 L-0.9,-200.0 L-0.9,-200.0 L-0.9,-200.0 L-0.9,-200.0 L-0.9,-200.0 L-0.9,-200.0 L-0.9,-200.0 L-0.9,-200.0 L-0.9,-200.0 L-0.9,-200.0 L-0.9,-200.0 L-0.9,-200.0 L-0.9,-200.0 L-0.9,-200.0 L-0.9,-200.0 L-0.9,-200.0 L-0.9,-200.0 L-0.9,-200.0 L31.0,-162.0 L139.4,3.6 L369.5,119.8 L568.6,154.5 L536.8,125.3 L419.8,94.8 L434.6,103.3 L528.9,134.0 L543.7,149.8 L493.3,141.6 L478.2,130.0 L490.8,128.9 L496.5,131.0 L497.9,131.5 L498.1,131.7 L498.1,131.7 L498.1,131.8 L498.0,131.8 L498.0,131.9 L497.9,131.9 L497.9,131.9 L497.8,132.0 L497.7,132.0 L497.7,132.0 L497.6,132.1 L497.6,132.1 L497.5,132.1 L497.4,132.2 L497.4,132.2 L497.3,132.2 L497.2,132.3 L497.1,132.3 L497.1,132.4 L497.0,132.4 L496.9,132.4 L496.8,132.5 L496.8,132.5 L496.7,132.5 L496.6,132.6 L496.5,132.6 L496.5,132.6 L496.4,132.7 L496.3,132.7 L496.2,132.7 L496.1,132.8 L496.0,132.8 L495.9,132.9 L495.9,132.9 L495.7,132.9 L495.6,133.0 L495.5,133.0 L495.5,133.0 L495.4,133.1 L495.3,133.1 L495.2,133.2 L495.1,133.2 L495.0,133.2 L494.9,133.3 L494.8,133.3 L494.7,133.4 L494.6,133.4 L494.5,133.4" fill="none" stroke="#9be564" stroke-width="1.3" opacity="0.82"><title>regular:regular:826069840 bee</title></path>
  <path d="M51.1,-200.0 L51.1,-200.0 L51.1,-200.0 L51.1,-200.0 L51.1,-200.0 L51.1,-200.0 L51.1,-200.0 L51.1,-200.0 L51.1,-200.0 L51.1,-200.0 L51.1,-200.0 L51.1,-200.0 L51.1,-200.0 L51.1,-200.0 L51.1,-200.0 L51.1,-200.0 L51.1,-200.0 L51.1,-200.0 L51.1,-200.0 L51.1,-200.0 L51.1,-200.0 L51.1,-200.0 L51.1,-200.0 L51.1,-200.0 L51.1,-200.0 L51.1,-200.0 L51.1,-200.0 L51.1,-200.0 L51.1,-200.0 L51.1,-200.0 L51.1,-200.0 L51.1,-200.0 L51.1,-200.0 L51.1,-200.0 L51.1,-200.0 L51.1,-200.0 L51.1,-200.0 L51.1,-200.0 L51.1,-200.0 L51.1,-200.0 L148.6,-116.8 L498.2,55.1 L603.0,78.7 L474.3,64.9 L415.9,85.7 L525.6,133.6 L606.2,161.4 L552.6,150.8 L490.4,127.7 L509.3,121.1 L541.4,129.3 L539.7,134.1 L533.8,135.0 L532.3,135.2 L532.0,135.3 L531.9,135.4 L531.8,135.4 L531.6,144.0 L526.0,198.0 L523.9,270.7 L529.0,362.2 L528.1,472.4 L522.1,601.4 L524.0,749.2 L531.3,35.8 L531.3,91.8 L531.2,116.5 L531.1,128.2 L531.0,134.3 L530.9,135.6 L530.8,135.9 L530.8,136.0 L530.7,136.1 L530.6,136.1 L530.5,136.2 L530.5,136.2 L530.4,136.3 L530.3,136.3 L530.2,136.3 L530.1,136.4 L530.0,136.4 L529.9,136.5 L529.9,136.5 L529.7,136.6 L529.6,136.6 L529.5,136.6 L529.5,136.7 L529.4,136.7 L529.3,136.8 L529.2,136.8 L529.1,136.9 L529.0,136.9 L528.9,136.9 L528.8,137.0 L528.7,137.0 L528.6,137.1 L528.5,137.1" fill="none" stroke="#9be564" stroke-width="1.3" opacity="0.82"><title>regular:regular:953789639 bee</title></path>
  <path d="M490.7,-232.0 L490.7,-232.0 L490.7,-232.0 L490.7,-232.0 L490.7,-232.0 L490.7,-232.0 L490.7,-232.0 L490.7,-232.0 L490.7,-232.0 L490.7,-232.0 L490.7,-232.0 L490.7,-232.0 L490.7,-232.0 L490.7,-232.0 L490.7,-232.0 L490.7,-232.0 L490.7,-232.0 L490.7,-232.0 L490.7,-232.0 L490.7,-232.0 L490.7,-232.0 L490.7,-232.0 L490.7,-232.0 L490.7,-232.0 L490.7,-232.0 L490.7,-232.0 L490.7,-232.0 L490.7,-232.0 L490.7,-232.0 L490.7,-232.0 L490.7,-232.0 L490.7,-232.0 L490.7,-232.0 L490.7,-232.0 L490.7,-232.0 L490.7,-232.0 L490.7,-232.0 L490.7,-232.0 L490.7,-232.0 L490.7,-232.0 L490.7,-232.0 L490.7,-232.0 L490.7,-232.0 L490.7,-232.0 L286.4,20.1 L371.7,143.6 L372.3,151.3 L208.8,122.7 L125.5,125.5 L209.3,162.3 L280.5,191.2 L236.7,187.8 L182.9,169.2 L194.4,161.4 L213.8,165.4 L213.2,169.0 L212.6,170.1 L212.3,170.4 L212.1,170.5 L211.9,170.5 L211.8,170.5 L211.6,170.5 L211.4,170.5 L211.2,170.5 L211.0,170.5 L210.8,170.6 L210.5,170.6 L210.3,170.6 L210.1,170.6 L209.9,170.6 L209.7,170.6 L209.5,170.6 L209.3,170.6 L209.1,170.6 L208.9,170.6 L208.7,170.7 L208.5,170.7 L208.3,170.7 L208.0,170.7 L207.8,170.7 L207.6,170.7 L207.4,170.7 L207.2,170.7 L206.9,170.7 L206.7,170.7 L206.5,170.7 L206.3,170.7 L206.1,170.7 L205.8,170.7 L205.6,170.8 L205.4,170.8 L205.2,170.8 L204.9,170.8 L204.7,170.8 L204.5,170.8 L204.3,170.8 L204.1,170.8" fill="none" stroke="#9be564" stroke-width="1.3" opacity="0.82"><title>regular:regular:315096383 bee</title></path>
  <path d="M310.9,-232.0 L310.9,-232.0 L310.9,-232.0 L310.9,-232.0 L310.9,-232.0 L310.9,-232.0 L310.9,-232.0 L310.9,-232.0 L310.9,-232.0 L310.9,-232.0 L310.9,-232.0 L310.9,-232.0 L310.9,-232.0 L310.9,-232.0 L310.9,-232.0 L310.9,-232.0 L310.9,-232.0 L310.9,-232.0 L310.9,-232.0 L310.9,-232.0 L310.9,-232.0 L310.9,-232.0 L310.9,-232.0 L310.9,-232.0 L310.9,-232.0 L310.9,-232.0 L310.9,-232.0 L310.9,-232.0 L310.9,-232.0 L310.9,-232.0 L310.9,-232.0 L310.9,-232.0 L310.9,-232.0 L310.9,-232.0 L310.9,-232.0 L310.9,-232.0 L310.9,-232.0 L310.9,-232.0 L310.9,-232.0 L268.5,14.4 L400.7,131.7 L374.6,133.1 L207.0,112.6 L161.2,129.6 L265.6,171.9 L318.2,195.1 L257.7,184.4 L211.8,164.8 L233.7,160.3 L252.7,166.2 L249.4,169.3 L247.8,170.4 L247.3,170.6 L247.1,170.6 L246.8,170.6 L246.7,170.6 L246.5,170.6 L246.3,170.6 L246.1,170.6 L245.9,170.6 L245.8,170.6 L245.6,170.6 L245.4,170.6 L245.2,170.6 L245.0,170.5 L244.8,170.5 L244.5,170.5 L244.3,170.5 L244.1,170.5 L243.9,170.5 L243.7,170.5 L243.5,170.5 L243.3,170.4 L243.1,170.4 L242.9,170.4 L242.7,170.4 L242.5,170.4 L242.3,170.4 L242.0,170.4 L241.8,170.3 L241.6,170.3 L241.4,170.3 L241.2,170.3 L240.9,170.3 L240.7,170.3 L240.5,170.2 L240.3,170.2 L240.1,170.2 L239.8,170.2 L239.6,170.2 L239.4,170.2 L239.2,170.1 L238.9,170.1 L238.7,170.1 L238.5,170.1 L238.3,170.1 L238.1,170.1" fill="none" stroke="#9be564" stroke-width="1.3" opacity="0.82"><title>regular:regular:736338577 bee</title></path>
  <path d="M232.5,-232.0 L232.5,-232.0 L232.5,-232.0 L232.5,-232.0 L232.5,-232.0 L232.5,-232.0 L232.5,-232.0 L232.5,-232.0 L232.5,-232.0 L232.5,-232.0 L232.5,-232.0 L232.5,-232.0 L232.5,-232.0 L232.5,-232.0 L232.5,-232.0 L232.5,-232.0 L232.5,-232.0 L232.5,-232.0 L232.5,-232.0 L232.5,-232.0 L232.5,-232.0 L232.5,-232.0 L232.5,-232.0 L232.5,-232.0 L232.5,-232.0 L232.5,-232.0 L232.5,-232.0 L232.5,-232.0 L232.5,-232.0 L232.5,-232.0 L232.5,-232.0 L232.5,-232.0 L232.5,-232.0 L232.5,-232.0 L409.3,-24.0 L387.5,41.7 L211.1,68.1 L183.5,122.1 L313.9,179.7 L366.0,197.0 L284.4,175.2 L230.6,152.5 L268.6,153.6 L303.0,166.8 L294.0,172.0 L285.9,170.2 L283.1,169.4 L282.4,169.2 L282.1,169.1 L281.9,169.1 L281.6,169.0 L281.4,169.0 L281.2,169.0 L281.0,168.9 L280.8,168.9 L280.7,168.9 L280.5,168.9 L280.3,168.8 L280.1,168.8 L279.9,168.8 L279.8,168.7 L279.6,168.7 L279.4,168.7 L279.2,168.6 L279.0,168.6 L278.8,168.6 L278.5,168.5 L278.3,168.5 L278.1,168.5 L277.9,168.4 L277.7,168.4 L277.5,168.4 L277.3,168.4 L277.1,168.3 L276.9,168.3 L276.7,168.3 L276.5,168.2 L276.3,168.2 L276.0,168.2 L275.8,168.1 L275.6,168.1 L275.4,168.1 L275.2,168.0 L274.9,168.0 L274.7,167.9 L274.5,167.9 L274.3,167.9 L274.1,167.8 L273.8,167.8 L273.6,167.8 L273.4,167.7 L273.2,167.7 L272.9,167.7 L272.7,167.6 L272.5,167.6 L272.3,167.6 L272.1,167.5" fill="none" stroke="#9be564" stroke-width="1.3" opacity="0.82"><title>regular:regular:11526471 bee</title></path>
  <path d="M19.6,-232.0 L19.6,-232.0 L19.6,-232.0 L19.6,-232.0 L19.6,-232.0 L19.6,-232.0 L19.6,-232.0 L19.6,-232.0 L19.6,-232.0 L19.6,-232.0 L19.6,-232.0 L19.6,-232.0 L19.6,-232.0 L19.6,-232.0 L19.6,-232.0 L19.6,-232.0 L19.6,-232.0 L19.6,-232.0 L19.6,-232.0 L19.6,-232.0 L19.6,-232.0 L19.6,-232.0 L19.6,-232.0 L19.6,-232.0 L19.6,-232.0 L19.6,-232.0 L19.6,-232.0 L19.6,-232.0 L19.6,-232.0 L81.0,-93.2 L69.5,42.8 L230.8,150.2 L398.6,191.7 L366.3,170.2 L254.1,138.3 L260.6,138.6 L341.8,163.5 L356.5,179.8 L317.5,175.9 L306.6,168.0 L313.8,166.7 L316.6,166.4 L317.0,166.3 L317.0,166.2 L316.8,166.2 L316.7,166.1 L316.5,166.1 L316.3,166.1 L316.1,166.0 L315.9,166.0 L315.6,165.9 L315.4,165.9 L315.2,165.8 L315.0,165.8 L314.8,165.7 L314.7,165.7 L314.5,165.7 L314.3,165.6 L314.1,165.6 L313.9,165.5 L313.8,165.5 L313.6,165.5 L313.4,165.4 L313.2,165.4 L313.0,165.3 L312.8,165.3 L312.5,165.2 L312.3,165.2 L312.1,165.1 L311.9,165.1 L311.7,165.1 L311.5,165.0 L311.3,165.0 L311.1,164.9 L310.9,164.9 L310.7,164.9 L310.5,164.8 L310.3,164.8 L310.0,164.7 L309.8,164.7 L309.6,164.7 L309.4,164.6 L309.2,164.6 L308.9,164.5 L308.7,164.5 L308.5,164.4 L308.3,164.4 L308.1,164.3 L307.8,164.3 L307.6,164.3 L307.4,164.2 L307.2,164.2 L306.9,164.1 L306.7,164.1 L306.5,164.1 L306.3,164.0 L306.1,164.0" fill="none" stroke="#9be564" stroke-width="1.3" opacity="0.82"><title>regular:regular:214987562 bee</title></path>
  <path d="M577.4,-232.0 L577.4,-232.0 L577.4,-232.0 L577.4,-232.0 L577.4,-232.0 L577.4,-232.0 L577.4,-232.0 L577.4,-232.0 L577.4,-232.0 L577.4,-232.0 L577.4,-232.0 L577.4,-232.0 L577.4,-232.0 L577.4,-232.0 L577.4,-232.0 L577.4,-232.0 L577.4,-232.0 L577.4,-232.0 L577.4,-232.0 L577.4,-232.0 L577.4,-232.0 L577.4,-232.0 L577.4,-232.0 L577.4,-232.0 L437.3,-19.0 L516.5,121.8 L519.2,136.1 L352.3,110.5 L262.7,116.1 L346.8,155.3 L422.7,185.1 L378.8,181.0 L320.7,161.0 L331.9,152.6 L355.3,157.4 L354.1,161.1 L352.6,162.5 L352.1,162.7 L351.9,162.7 L351.7,162.7 L351.5,162.7 L351.4,162.6 L351.2,162.6 L351.0,162.5 L350.8,162.5 L350.7,162.4 L350.5,162.4 L350.3,162.4 L350.1,162.3 L349.9,162.3 L349.6,162.2 L349.4,162.2 L349.2,162.1 L349.0,162.1 L348.8,162.0 L348.7,162.0 L348.5,162.0 L348.3,161.9 L348.1,161.9 L347.9,161.8 L347.8,161.8 L347.6,161.8 L347.4,161.7 L347.2,161.7 L347.0,161.7 L346.8,161.6 L346.5,161.5 L346.3,161.5 L346.1,161.5 L345.9,161.4 L345.7,161.4 L345.5,161.4 L345.3,161.3 L345.1,161.3 L344.9,161.2 L344.7,161.2 L344.5,161.2 L344.3,161.1 L344.0,161.1 L343.8,161.1 L343.6,161.0 L343.4,161.0 L343.2,160.9 L342.9,160.9 L342.7,160.9 L342.5,160.8 L342.3,160.8 L342.1,160.7 L341.8,160.7 L341.6,160.7 L341.4,160.6 L341.2,160.6 L340.9,160.6 L340.7,160.5 L340.5,160.5 L340.3,160.5 L340.1,160.4" fill="none" stroke="#9be564" stroke-width="1.3" opacity="0.82"><title>regular:regular:251377273 bee</title></path>
  <path d="M-50.1,-232.0 L-50.1,-232.0 L-50.1,-232.0 L-50.1,-232.0 L-50.1,-232.0 L-50.1,-232.0 L-50.1,-232.0 L-50.1,-232.0 L-50.1,-232.0 L-50.1,-232.0 L-50.1,-232.0 L-50.1,-232.0 L-50.1,-232.0 L-50.1,-232.0 L-50.1,-232.0 L-50.1,-232.0 L-50.1,-232.0 L-50.1,-232.0 L-50.1,-232.0 L-50.1,-232.0 L-50.1,-232.0 L-50.1,-232.0 L-50.1,-232.0 L-50.1,-232.0 L-50.1,-232.0 L-50.1,-232.0 L-12.0,-145.3 L236.4,72.8 L462.3,142.4 L434.4,124.7 L299.6,105.9 L310.4,128.5 L422.5,168.2 L445.2,183.3 L378.9,168.8 L352.9,152.2 L379.0,151.1 L388.3,155.9 L386.4,158.6 L385.8,159.2 L385.6,159.3 L385.4,159.3 L385.2,159.3 L385.0,159.3 L384.8,159.2 L384.7,159.2 L384.5,159.2 L384.3,159.2 L384.1,159.1 L383.9,159.1 L383.6,159.0 L383.4,159.0 L383.2,159.0 L383.0,159.0 L382.8,158.9 L382.7,158.9 L382.5,158.9 L382.3,158.8 L382.1,158.8 L381.9,158.8 L381.8,158.8 L381.6,158.7 L381.4,158.7 L381.2,158.7 L381.0,158.7 L380.8,158.6 L380.5,158.6 L380.3,158.6 L380.1,158.5 L379.9,158.5 L379.7,158.5 L379.5,158.5 L379.3,158.4 L379.1,158.4 L378.9,158.4 L378.7,158.4 L378.5,158.4 L378.3,158.3 L378.0,158.3 L377.8,158.3 L377.6,158.3 L377.4,158.2 L377.2,158.2 L376.9,158.2 L376.7,158.2 L376.5,158.1 L376.3,158.1 L376.1,158.1 L375.8,158.1 L375.6,158.1 L375.4,158.0 L375.2,158.0 L374.9,158.0 L374.7,158.0 L374.5,158.0 L374.3,157.9 L374.1,157.9" fill="none" stroke="#9be564" stroke-width="1.3" opacity="0.82"><title>regular:regular:505724415 bee</title></path>
  <path d="M417.6,-232.0 L417.6,-232.0 L417.6,-232.0 L417.6,-232.0 L417.6,-232.0 L417.6,-232.0 L417.6,-232.0 L417.6,-232.0 L417.6,-232.0 L417.6,-232.0 L417.6,-232.0 L417.6,-232.0 L417.6,-232.0 L417.6,-232.0 L417.6,-232.0 L417.6,-232.0 L417.6,-232.0 L417.6,-232.0 L417.6,-232.0 L417.6,-232.0 L417.6,-232.0 L417.6,-232.0 L417.6,-232.0 L417.6,-232.0 L417.6,-232.0 L417.6,-232.0 L417.6,-232.0 L417.6,-232.0 L417.6,-232.0 L417.6,-232.0 L417.6,-232.0 L346.7,-154.6 L262.8,33.7 L418.7,148.9 L537.9,172.7 L448.8,140.2 L337.4,117.6 L377.1,134.5 L464.4,165.5 L457.9,175.9 L406.8,164.6 L401.0,154.4 L412.9,154.7 L417.6,156.8 L418.6,157.3 L418.6,157.4 L418.4,157.4 L418.3,157.4 L418.1,157.4 L417.9,157.4 L417.6,157.3 L417.4,157.3 L417.2,157.3 L417.0,157.3 L416.8,157.3 L416.7,157.3 L416.5,157.3 L416.3,157.3 L416.1,157.3 L415.9,157.3 L415.8,157.3 L415.6,157.3 L415.4,157.3 L415.2,157.3 L415.0,157.2 L414.8,157.2 L414.5,157.2 L414.3,157.2 L414.1,157.2 L413.9,157.2 L413.7,157.2 L413.5,157.2 L413.3,157.2 L413.1,157.2 L412.9,157.2 L412.7,157.2 L412.5,157.2 L412.3,157.2 L412.0,157.2 L411.8,157.2 L411.6,157.2 L411.4,157.2 L411.2,157.2 L410.9,157.2 L410.7,157.2 L410.5,157.2 L410.3,157.2 L410.1,157.2 L409.8,157.2 L409.6,157.2 L409.4,157.2 L409.2,157.2 L408.9,157.2 L408.7,157.2 L408.5,157.2 L408.3,157.2 L408.1,157.2" fill="none" stroke="#9be564" stroke-width="1.3" opacity="0.82"><title>regular:regular:693105450 bee</title></path>
  <path d="M178.2,-232.0 L178.2,-232.0 L178.2,-232.0 L178.2,-232.0 L178.2,-232.0 L178.2,-232.0 L178.2,-232.0 L178.2,-232.0 L178.2,-232.0 L178.2,-232.0 L178.2,-232.0 L178.2,-232.0 L178.2,-232.0 L178.2,-232.0 L178.2,-232.0 L178.2,-232.0 L178.2,-232.0 L178.2,-232.0 L178.2,-232.0 L178.2,-232.0 L178.2,-232.0 L178.2,-232.0 L178.2,-232.0 L178.2,-232.0 L178.2,-232.0 L178.2,-232.0 L178.2,-232.0 L178.2,-232.0 L178.2,-232.0 L178.2,-232.0 L178.2,-232.0 L178.2,-232.0 L178.2,-232.0 L178.2,-232.0 L178.2,-232.0 L178.2,-232.0 L331.0,-141.9 L395.0,-33.2 L287.4,38.5 L345.6,121.6 L506.0,178.8 L527.2,179.7 L425.7,149.0 L392.3,132.6 L451.9,144.3 L483.3,161.4 L462.3,164.6 L453.0,161.0 L452.2,158.3 L451.9,157.7 L451.6,157.6 L451.4,157.6 L451.2,157.6 L451.0,157.6 L450.8,157.7 L450.7,157.7 L450.5,157.7 L450.3,157.7 L450.1,157.7 L449.9,157.7 L449.8,157.8 L449.6,157.8 L449.4,157.8 L449.2,157.8 L449.0,157.8 L448.8,157.8 L448.5,157.9 L448.3,157.9 L448.1,157.9 L447.9,157.9 L447.7,157.9 L447.5,158.0 L447.3,158.0 L447.1,158.0 L446.9,158.0 L446.7,158.0 L446.5,158.1 L446.3,158.1 L446.0,158.1 L445.8,158.1 L445.6,158.1 L445.4,158.2 L445.2,158.2 L444.9,158.2 L444.7,158.2 L444.5,158.3 L444.3,158.3 L444.1,158.3 L443.8,158.3 L443.6,158.4 L443.4,158.4 L443.2,158.4 L442.9,158.4 L442.7,158.4 L442.5,158.5 L442.3,158.5 L442.1,158.5" fill="none" stroke="#9be564" stroke-width="1.3" opacity="0.82"><title>regular:regular:890707246 bee</title></path>
  <path d="M443.9,-232.0 L443.9,-232.0 L443.9,-232.0 L443.9,-232.0 L443.9,-232.0 L443.9,-232.0 L443.9,-232.0 L443.9,-232.0 L443.9,-232.0 L443.9,-232.0 L443.9,-232.0 L443.9,-232.0 L443.9,-232.0 L443.9,-232.0 L443.9,-232.0 L443.9,-232.0 L443.9,-232.0 L443.9,-232.0 L443.9,-232.0 L443.9,-232.0 L443.9,-232.0 L443.9,-232.0 L443.9,-232.0 L443.9,-232.0 L443.9,-232.0 L443.9,-232.0 L443.9,-232.0 L443.9,-232.0 L443.9,-232.0 L443.9,-232.0 L443.9,-232.0 L443.9,-232.0 L443.9,-232.0 L443.9,-232.0 L443.9,-232.0 L443.9,-232.0 L443.9,-232.0 L443.9,-232.0 L443.9,-232.0 L443.9,-232.0 L443.9,-232.0 L438.9,-99.5 L586.0,83.9 L635.9,116.0 L483.9,97.5 L386.0,107.1 L469.4,150.1 L557.4,182.6 L517.7,178.6 L451.7,156.9 L460.2,147.4 L490.3,153.2 L490.6,157.7 L486.2,159.4 L485.1,159.8 L484.7,159.9 L484.5,160.0 L484.3,160.0 L484.1,160.0 L483.9,160.1 L483.8,160.1 L483.6,160.1 L483.4,160.2 L483.2,160.2 L483.0,160.2 L482.8,160.3 L482.5,160.3 L482.3,160.4 L482.1,160.4 L481.9,160.4 L481.7,160.5 L481.5,160.5 L481.3,160.5 L481.1,160.6 L480.9,160.6 L480.7,160.6 L480.5,160.7 L480.3,160.7 L480.0,160.7 L479.8,160.8 L479.6,160.8 L479.4,160.9 L479.2,160.9 L478.9,160.9 L478.7,161.0 L478.5,161.0 L478.3,161.0 L478.1,161.1 L477.8,161.1 L477.6,161.2 L477.4,161.2 L477.2,161.2 L476.9,161.3 L476.7,161.3 L476.5,161.4 L476.3,161.4 L476.1,161.4" fill="none" stroke="#9be564" stroke-width="1.3" opacity="0.82"><title>regular:regular:960157998 bee</title></path>
  <path d="M239.1,-232.0 L239.1,-232.0 L239.1,-232.0 L239.1,-232.0 L239.1,-232.0 L239.1,-232.0 L239.1,-232.0 L239.1,-232.0 L239.1,-232.0 L239.1,-232.0 L239.1,-232.0 L239.1,-232.0 L239.1,-232.0 L239.1,-232.0 L239.1,-232.0 L239.1,-232.0 L239.1,-232.0 L239.1,-232.0 L239.1,-232.0 L239.1,-232.0 L239.1,-232.0 L239.1,-232.0 L239.1,-232.0 L239.1,-232.0 L239.1,-232.0 L239.1,-232.0 L239.1,-232.0 L239.1,-232.0 L239.1,-232.0 L239.1,-232.0 L239.1,-232.0 L239.1,-232.0 L239.1,-232.0 L239.1,-232.0 L239.1,-232.0 L239.1,-232.0 L239.1,-232.0 L239.1,-232.0 L239.1,-232.0 L239.1,-232.0 L239.1,-232.0 L239.1,-232.0 L239.1,-232.0 L239.1,-232.0 L239.1,-232.0 L239.1,-232.0 L426.8,-106.7 L560.6,3.2 L431.7,42.8 L386.4,101.4 L519.1,166.3 L604.6,191.7 L535.6,172.2 L463.7,146.4 L493.2,144.8 L539.4,159.5 L534.1,167.6 L523.1,166.0 L519.1,164.0 L518.1,163.6 L517.8,163.6 L517.6,163.6 L517.4,163.7 L517.2,163.7 L517.0,163.7 L516.8,163.8 L516.5,163.8 L516.3,163.9 L516.1,163.9 L515.9,164.0 L515.7,164.0 L515.5,164.0 L515.3,164.1 L515.1,164.1 L514.9,164.2 L514.7,164.2 L514.5,164.3 L514.3,164.3 L514.0,164.3 L513.8,164.4 L513.6,164.4 L513.4,164.5 L513.2,164.5 L512.9,164.6 L512.7,164.6 L512.5,164.6 L512.3,164.7 L512.1,164.7 L511.8,164.8 L511.6,164.8 L511.4,164.9 L511.2,164.9 L510.9,164.9 L510.7,165.0 L510.5,165.0 L510.3,165.1 L510.1,165.1" fill="none" stroke="#9be564" stroke-width="1.3" opacity="0.82"><title>regular:regular:503674111 bee</title></path>
  <text x="24" y="504" fill="#a9b7c0" font-family="monospace" font-size="11">red boss, gold escort, blue challenge, green other moving paths</text>
</svg>
