<svg xmlns="http://www.w3.org/2000/svg" width="900" height="150" viewBox="0 0 900 150">
  <rect width="100%" height="100%" fill="#101418"/>
  <text x="36" y="22" fill="#eef3f6" font-family="monospace" font-size="14">challenge-stage-candidate audio cue timeline</text>
  <line x1="36" y1="126" x2="864" y2="126" stroke="#34404a"/>
  <text x="6" y="40" fill="#a9b7c0" font-family="monospace" font-size="10">stageStart</text>
  <text x="6" y="56" fill="#a9b7c0" font-family="monospace" font-size="10">stagePulse</text>
  <text x="6" y="72" fill="#a9b7c0" font-family="monospace" font-size="10">shipLost</text>
  <text x="6" y="88" fill="#a9b7c0" font-family="monospace" font-size="10">challengeClear</text>
  <text x="6" y="104" fill="#a9b7c0" font-family="monospace" font-size="10">stageClear</text>
  <text x="6" y="120" fill="#a9b7c0" font-family="monospace" font-size="10">other</text>
  <circle cx="36.0" cy="116" r="4" fill="#60d394"><title>gameStart 0</title></circle>
  <circle cx="50.3" cy="116" r="4" fill="#60d394"><title>playerShot 0.367</title></circle>
  <circle cx="91.1" cy="116" r="4" fill="#60d394"><title>enemyBoom 1.417</title></circle>
  <circle cx="116.4" cy="116" r="4" fill="#60d394"><title>playerShot 2.067</title></circle>
  <circle cx="194.7" cy="116" r="4" fill="#60d394"><title>playerShot 4.083</title></circle>
  <circle cx="198.0" cy="116" r="4" fill="#60d394"><title>bossBoom 4.167</title></circle>
  <circle cx="210.3" cy="116" r="4" fill="#60d394"><title>enemyBoom 4.483</title></circle>
  <circle cx="314.6" cy="116" r="4" fill="#60d394"><title>playerShot 7.167</title></circle>
  <circle cx="323.7" cy="116" r="4" fill="#60d394"><title>enemyBoom 7.4</title></circle>
  <circle cx="401.4" cy="116" r="4" fill="#60d394"><title>bossBoom 9.4</title></circle>
  <circle cx="438.3" cy="116" r="4" fill="#60d394"><title>playerShot 10.35</title></circle>
  <circle cx="491.5" cy="116" r="4" fill="#60d394"><title>enemyBoom 11.717</title></circle>
  <circle cx="501.2" cy="116" r="4" fill="#60d394"><title>playerHit 11.967</title></circle>
  <circle cx="547.8" cy="116" r="4" fill="#60d394"><title>challengeResults 13.167</title></circle>
  <circle cx="646.3" cy="116" r="4" fill="#60d394"><title>stageTransition 15.7</title></circle>
  <circle cx="707.8" cy="116" r="4" fill="#60d394"><title>playerShot 17.283</title></circle>
  <circle cx="727.9" cy="116" r="4" fill="#60d394"><title>enemyBoom 17.8</title></circle>
  <circle cx="805.0" cy="52" r="4" fill="#60d394"><title>stagePulse 19.783</title></circle>
  <circle cx="821.9" cy="116" r="4" fill="#60d394"><title>playerShot 20.217</title></circle>
  <circle cx="864.0" cy="116" r="4" fill="#60d394"><title>attackCharge 21.3</title></circle>
</svg>
