<svg xmlns="http://www.w3.org/2000/svg" width="900" height="320" viewBox="0 0 900 320">
  <rect width="100%" height="100%" fill="#101418"/>
  <text x="44" y="24" fill="#eef3f6" font-family="monospace" font-size="15">late-run-cleanup-or-failure player and pressure trace</text>
  <line x1="44" y1="276" x2="856" y2="276" stroke="#34404a"/>
  <line x1="44" y1="44" x2="44" y2="276" stroke="#34404a"/>
  <path d="M44.0,160.0 L125.2,211.6 L206.4,268.5 L287.6,200.0 L368.8,51.5 L450.0,51.5 L531.2,85.1 L612.4,268.5 L693.6,268.5 L774.8,268.5 L856.0,268.5" fill="none" stroke="#73c2fb" stroke-width="2"/>
  <path d="M44.0,276.0 L125.2,276.0 L206.4,198.7 L287.6,198.7 L368.8,121.3 L450.0,44.0 L531.2,121.3 L612.4,44.0 L693.6,121.3 L774.8,198.7 L856.0,121.3" fill="none" stroke="#f4c95d" stroke-width="2"/>
  <text x="44" y="306" fill="#a9b7c0" font-family="monospace" font-size="12">blue: player x, gold: pressure max</text>
</svg>
